<svg xmlns="http://www.w3.org/2000/svg" width="234" height="47.529" viewBox="0 0 234 47.529">
  <g id="Grupo_16175" data-name="Grupo 16175" transform="translate(-357 -1453.565)">
    <g id="Grupo_176" data-name="Grupo 176" transform="translate(432.679 1453.565)">
      <path id="Trazado_103" data-name="Trazado 103" d="M430.015,1222.84h4.365a.084.084,0,0,1,.083.083v9.228a.082.082,0,0,0,.146.052,8.358,8.358,0,0,1,6.594-3.018h.118a9.708,9.708,0,0,1,7.292,3.134,11.312,11.312,0,0,1,.039,15.292,9.807,9.807,0,0,1-7.449,3.134,8.338,8.338,0,0,1-6.594-2.9.082.082,0,0,0-.145.052v2.453a.084.084,0,0,1-.083.084h-4.365a.084.084,0,0,1-.084-.084v-27.422A.084.084,0,0,1,430.015,1222.84Zm6.144,21.835a6.45,6.45,0,0,0,9.282,0,6.506,6.506,0,0,0,1.912-4.69,6.572,6.572,0,0,0-1.912-4.71,6.185,6.185,0,0,0-4.631-1.99,6.31,6.31,0,0,0-4.67,1.99,6.5,6.5,0,0,0-1.951,4.71A6.4,6.4,0,0,0,436.158,1244.675Z" transform="translate(-429.931 -1222.84)" fill="#a2a2a2"/>
    </g>
    <g id="Grupo_178" data-name="Grupo 178" transform="translate(456.958 1459.911)">
      <path id="Trazado_104" data-name="Trazado 104" d="M503.722,1244.486a9.849,9.849,0,0,1,7.37-3.153,8.077,8.077,0,0,1,6.554,2.972.082.082,0,0,0,.146-.051v-2.483a.084.084,0,0,1,.084-.084h4.365a.084.084,0,0,1,.084.084v20.722a.084.084,0,0,1-.084.084h-4.365a.084.084,0,0,1-.084-.084v-2.486a.082.082,0,0,0-.146-.05,8.118,8.118,0,0,1-6.554,2.935,9.835,9.835,0,0,1-7.35-3.173,11.05,11.05,0,0,1-.02-15.234Zm1.182,7.646a6.482,6.482,0,0,0,1.912,4.71,6.543,6.543,0,0,0,9.341-.02,6.437,6.437,0,0,0,1.951-4.69,6.5,6.5,0,0,0-1.951-4.71,6.5,6.5,0,0,0-9.341-.02A6.553,6.553,0,0,0,504.9,1252.132Z" transform="translate(-500.687 -1241.333)" fill="#a2a2a2"/>
    </g>
    <g id="Grupo_180" data-name="Grupo 180" transform="translate(483.009 1453.565)">
      <path id="Trazado_105" data-name="Trazado 105" d="M576.609,1250.346v-27.422a.084.084,0,0,1,.084-.083h4.365a.084.084,0,0,1,.084.083v27.422a.084.084,0,0,1-.084.084h-4.365A.084.084,0,0,1,576.609,1250.346Z" transform="translate(-576.609 -1222.84)" fill="#a2a2a2"/>
    </g>
    <g id="Grupo_182" data-name="Grupo 182" transform="translate(491.207 1459.911)">
      <path id="Trazado_106" data-name="Trazado 106" d="M603.535,1244.486a9.849,9.849,0,0,1,7.371-3.153,8.078,8.078,0,0,1,6.554,2.972.082.082,0,0,0,.146-.051v-2.483a.084.084,0,0,1,.083-.084h4.365a.084.084,0,0,1,.084.084v20.722a.084.084,0,0,1-.084.084h-4.365a.084.084,0,0,1-.083-.084v-2.486a.082.082,0,0,0-.146-.05,8.118,8.118,0,0,1-6.554,2.935,9.836,9.836,0,0,1-7.351-3.173,11.049,11.049,0,0,1-.02-15.234Zm1.182,7.646a6.482,6.482,0,0,0,1.912,4.71,6.543,6.543,0,0,0,9.341-.02,6.438,6.438,0,0,0,1.951-4.69,6.5,6.5,0,0,0-1.951-4.71,6.5,6.5,0,0,0-9.341-.02A6.553,6.553,0,0,0,604.718,1252.132Z" transform="translate(-600.5 -1241.333)" fill="#a2a2a2"/>
    </g>
    <g id="Grupo_184" data-name="Grupo 184" transform="translate(517.181 1459.911)">
      <path id="Trazado_107" data-name="Trazado 107" d="M676.278,1241.688h4.365a.084.084,0,0,1,.084.084v2.44a.082.082,0,0,0,.147.05,7.777,7.777,0,0,1,6.356-2.928,8.945,8.945,0,0,1,6.169,2.306,7.816,7.816,0,0,1,2.581,6.129v12.726a.084.084,0,0,1-.083.084h-4.365a.084.084,0,0,1-.084-.084v-11.5a5.352,5.352,0,0,0-1.478-3.961,4.956,4.956,0,0,0-3.646-1.478,5.1,5.1,0,0,0-4.04,1.793,6.579,6.579,0,0,0-1.557,4.473v10.676a.084.084,0,0,1-.084.084h-4.365a.084.084,0,0,1-.083-.084v-20.722A.084.084,0,0,1,676.278,1241.688Z" transform="translate(-676.195 -1241.333)" fill="#a2a2a2"/>
    </g>
    <g id="Grupo_186" data-name="Grupo 186" transform="translate(540.119 1459.911)">
      <path id="Trazado_108" data-name="Trazado 108" d="M746.2,1244.486a10.6,10.6,0,0,1,13.558-1.281,10.52,10.52,0,0,1,3.828,4.818.086.086,0,0,1-.057.114l-4.02,1.1a.082.082,0,0,1-.1-.045,6.683,6.683,0,0,0-2.256-2.715,5.786,5.786,0,0,0-3.39-1.044,6.151,6.151,0,0,0-4.611,1.97,6.81,6.81,0,0,0,0,9.42,6.149,6.149,0,0,0,4.611,1.971,5.873,5.873,0,0,0,3.409-1.045,6.4,6.4,0,0,0,2.238-2.676.082.082,0,0,1,.1-.046l4.018,1.061a.086.086,0,0,1,.057.115,10.852,10.852,0,0,1-3.826,4.817,10.106,10.106,0,0,1-5.991,1.872,10.248,10.248,0,0,1-7.607-3.173,10.825,10.825,0,0,1,.039-15.234Z" transform="translate(-743.044 -1241.333)" fill="#a2a2a2"/>
    </g>
    <g id="Grupo_188" data-name="Grupo 188" transform="translate(563.137 1459.911)">
      <path id="Trazado_109" data-name="Trazado 109" d="M813.277,1244.486a10.322,10.322,0,0,1,7.568-3.153,10.178,10.178,0,0,1,6.877,2.542,10.609,10.609,0,0,1,3.606,6.365,7.766,7.766,0,0,1,.236,1.892,7.11,7.11,0,0,1-.182,1.589.087.087,0,0,1-.084.067H814.68a.087.087,0,0,0-.084.1,5.734,5.734,0,0,0,2.13,3.6,6.461,6.461,0,0,0,4.119,1.38,7.16,7.16,0,0,0,5.76-2.562.081.081,0,0,1,.083-.027l3.868,1.024a.086.086,0,0,1,.054.122,9.383,9.383,0,0,1-3.992,3.945,11.886,11.886,0,0,1-5.774,1.518,10.262,10.262,0,0,1-7.627-3.153,10.873,10.873,0,0,1,.059-15.253Zm1.407,5.833h12.165a.086.086,0,0,0,.084-.1,6.127,6.127,0,0,0-6.128-4.863,6.254,6.254,0,0,0-6.2,4.861A.087.087,0,0,0,814.684,1250.319Z" transform="translate(-810.124 -1241.333)" fill="#a2a2a2"/>
    </g>
    <path id="Trazado_110" data-name="Trazado 110" d="M249.947,1229.54h4.365a.084.084,0,0,1,.084.084v20.722a.084.084,0,0,1-.084.084h-4.365a.084.084,0,0,1-.084-.084v-2.441a.082.082,0,0,0-.146-.05,7.775,7.775,0,0,1-6.356,2.929,8.946,8.946,0,0,1-6.169-2.306,7.814,7.814,0,0,1-2.581-6.129v-12.726a.084.084,0,0,1,.084-.084h4.365a.084.084,0,0,1,.083.084v11.464a5.422,5.422,0,0,0,1.478,3.981,4.919,4.919,0,0,0,3.646,1.5,5.1,5.1,0,0,0,4.04-1.793,6.637,6.637,0,0,0,1.556-4.513v-10.637A.084.084,0,0,1,249.947,1229.54Zm29.831-6.617v27.422a.084.084,0,0,1-.083.084h-4.366a.084.084,0,0,1-.083-.084V1247.9a.082.082,0,0,0-.146-.051,8.165,8.165,0,0,1-6.555,2.9,9.836,9.836,0,0,1-7.351-3.173,11.05,11.05,0,0,1-.02-15.233,9.848,9.848,0,0,1,7.37-3.153,8.079,8.079,0,0,1,6.554,2.972.082.082,0,0,0,.146-.051v-9.184a.084.084,0,0,1,.083-.083h4.366A.084.084,0,0,1,279.778,1222.923Zm-4.217,17.061a6.5,6.5,0,0,0-1.951-4.71,6.5,6.5,0,0,0-9.341-.02,6.808,6.808,0,0,0-.02,9.44,6.271,6.271,0,0,0,4.69,1.951,6.338,6.338,0,0,0,4.67-1.971A6.438,6.438,0,0,0,275.561,1239.985Zm-44.388.265a10.838,10.838,0,0,0-2.237-6.6,2.168,2.168,0,0,0,.653.11,2.218,2.218,0,1,0-2.131-1.691,10.892,10.892,0,1,0-11.222,18.3l7.116,3.4v0a6.48,6.48,0,1,1-9.557,5.7H209.38a10.9,10.9,0,1,0,16.023-9.612A10.905,10.905,0,0,0,231.173,1240.249Zm-10.9,6.48a6.435,6.435,0,0,1-2.327-.439l-.906-.433a6.469,6.469,0,1,1,3.233.872Z" transform="translate(147.62 230.725)" fill="#a2a2a2"/>
    <path id="Trazado_111" data-name="Trazado 111" d="M880.318,1248.146v-3.033h1.348a1,1,0,0,1,1.018,1.005.925.925,0,0,1-.182.563.886.886,0,0,1-.472.333l.693,1.131h-.581l-.663-1.066h-.65v1.066Zm1.326-1.517a.537.537,0,0,0,.386-.149.5.5,0,0,0,.156-.379.523.523,0,0,0-.143-.373.494.494,0,0,0-.377-.152h-.836v1.053Z" transform="translate(-293.095 216.095)" fill="#a2a2a2"/>
    <path id="Trazado_112" data-name="Trazado 112" d="M878.305,1247.089a2.7,2.7,0,1,1,2.7-2.7A2.7,2.7,0,0,1,878.305,1247.089Zm0-5.058a2.361,2.361,0,1,0,2.362,2.361A2.364,2.364,0,0,0,878.305,1242.031Z" transform="translate(-290.002 218.339)" fill="#a2a2a2"/>
  </g>
</svg>
