<svg xmlns="http://www.w3.org/2000/svg" width="237.603" height="134.523" viewBox="0 0 237.603 134.523">
  <g id="Grupo_16177" data-name="Grupo 16177" transform="translate(-31.199 -19.501)">
    <g id="Trazado_16832" data-name="Trazado 16832" transform="translate(-253.651 -704.183)" fill="#a2a2a2" stroke-linejoin="round">
      <path d="M 482.3121032714844 857.5320434570312 L 325.218505859375 857.5320434570312 C 322.5126037597656 857.5320434570312 319.9304504394531 856.3822021484375 318.1341857910156 854.37744140625 C 317.8837280273438 854.0979614257812 317.6046142578125 853.7846069335938 317.3001098632812 853.4427490234375 C 314.4468383789062 850.2395629882812 309.1358337402344 844.2772216796875 304.4103698730469 840.4769287109375 C 299.1824035644531 836.2730102539062 293.1988830566406 831.9180908203125 289.0999450683594 829.0050659179688 C 287.9281005859375 828.1719970703125 286.98046875 827.0469360351562 286.3595275878906 825.75146484375 C 285.73876953125 824.4563598632812 285.4550170898438 823.0131225585938 285.5390014648438 821.5777587890625 L 285.541259765625 821.5390625 L 285.5479431152344 821.5008544921875 L 291.6630859375 786.5167236328125 L 291.6637268066406 786.5130615234375 L 291.6643981933594 786.5093994140625 C 292.427734375 782.4110107421875 296.0013732910156 779.4363403320312 300.1617126464844 779.4363403320312 C 301.0548095703125 779.4363403320312 301.9442138671875 779.5761108398438 302.8052368164062 779.851806640625 C 304.5669250488281 780.41552734375 306.3575439453125 780.9769287109375 308.1333923339844 781.5223999023438 L 308.267333984375 781.38134765625 L 307.9312438964844 780.9347534179688 L 308.2461242675781 780.6824340820312 L 308.0919799804688 780.5540771484375 L 308.1743774414062 780.1570434570312 L 308.2200927734375 779.9368286132812 L 308.3669128417969 779.2293701171875 L 308.9206237792969 779.3837280273438 C 308.7103576660156 779.2216186523438 308.4959411621094 779.0562133789062 308.2627563476562 778.8762817382812 L 307.54541015625 778.3228759765625 L 306.7957458496094 777.7446899414062 L 306.4992065429688 777.7962036132812 L 306.474365234375 777.496826171875 L 306.2199401855469 777.3005981445312 L 306.4559326171875 777.2744750976562 L 306.4381408691406 777.0601196289062 L 306.4312438964844 776.9766235351562 L 306.4076538085938 776.691650390625 L 306.3519897460938 776.0127563476562 L 307.0313110351562 775.9628295898438 C 307.2498779296875 775.9467163085938 307.4684143066406 775.9302368164062 307.6869812011719 775.9136962890625 C 308.2886657714844 775.8681640625 308.9108581542969 775.8211669921875 309.5259704589844 775.784423828125 C 309.5439453125 775.7833862304688 309.5611267089844 775.7828979492188 309.5786743164062 775.7828979492188 C 309.6232299804688 775.7828979492188 309.6663513183594 775.7861938476562 309.7078247070312 775.7916259765625 C 309.9591369628906 775.5391845703125 310.2482604980469 775.4115600585938 310.5712280273438 775.4115600585938 C 310.6067199707031 775.4115600585938 310.6414489746094 775.4130859375 310.6755065917969 775.4160766601562 C 310.6683349609375 775.3981323242188 310.6616516113281 775.379638671875 310.655517578125 775.3604736328125 C 310.5760498046875 775.114013671875 310.5609741210938 774.8650512695312 310.5648803710938 774.6295166015625 C 310.3496398925781 774.6130981445312 310.1098022460938 774.5948486328125 309.8554077148438 774.5758056640625 L 308.8194274902344 774.4981079101562 L 309.2246704101562 773.7431640625 L 307.7785949707031 773.4740600585938 L 308.4834899902344 772.95068359375 L 308.1123352050781 772.9092407226562 L 308.1177062988281 772.299560546875 L 308.1189880371094 772.15283203125 L 308.1248779296875 771.4833374023438 L 308.79443359375 771.4833374023438 L 309.2804870605469 771.4833374023438 C 308.9800720214844 771.3428344726562 308.7361145019531 771.1285400390625 308.4989624023438 770.9202880859375 C 308.3871154785156 770.8220825195312 308.271484375 770.7205200195312 308.1515502929688 770.6282958984375 L 306.2286987304688 769.1500854492188 L 308.6388244628906 769.4215087890625 C 308.6632385253906 769.4242553710938 308.6875305175781 769.427001953125 308.7117919921875 769.4297485351562 L 307.777099609375 768.6251831054688 L 309.5972290039062 768.6251831054688 L 310.6013488769531 768.6251831054688 C 310.3224487304688 768.517822265625 310.0383605957031 768.2813110351562 309.6595153808594 767.9536743164062 C 309.6046447753906 767.9061889648438 309.5524597167969 767.861083984375 309.5049133300781 767.8209838867188 C 309.1961669921875 767.56103515625 309.1443786621094 767.1184692382812 309.1358642578125 766.989013671875 C 309.1185913085938 766.7264404296875 309.1856079101562 766.5101318359375 309.3351440429688 766.3462524414062 C 309.358154296875 766.3208618164062 309.38330078125 766.2926025390625 309.4090576171875 766.2637329101562 C 309.696533203125 765.9407958984375 310.0902404785156 765.4985961914062 310.6351013183594 765.4985961914062 L 310.6803894042969 765.49853515625 L 310.7264099121094 765.49853515625 C 310.8810729980469 765.49853515625 311.0507202148438 765.49853515625 311.2303466796875 765.5087890625 C 311.1886291503906 765.4220581054688 311.1457214355469 765.3329467773438 311.1007995605469 765.2395629882812 L 310.8939208984375 764.8096923828125 L 310.3704528808594 763.7210693359375 L 311.5719909667969 763.8450317382812 C 311.7769775390625 763.8662109375 311.9790954589844 763.8870849609375 312.1791076660156 763.9077758789062 L 312.9353942871094 763.5888061523438 C 312.9799194335938 763.5700073242188 313.0238342285156 763.551513671875 313.0671691894531 763.533203125 C 312.5883178710938 763.2460327148438 312.1322326660156 762.9345092773438 312.0807189941406 762.4313354492188 C 311.9074401855469 762.394775390625 311.6796569824219 762.3152465820312 311.4987487792969 762.0947265625 C 311.2366333007812 761.7747802734375 310.9488525390625 761.4769897460938 310.6441955566406 761.1617431640625 C 310.5187377929688 761.0319213867188 310.3890075683594 760.897705078125 310.2616577148438 760.76220703125 L 309.8894958496094 760.3662109375 L 310.1965637207031 759.9179077148438 C 310.2247619628906 759.8766479492188 310.2527770996094 759.83544921875 310.28076171875 759.7942504882812 L 310.3399658203125 759.707275390625 L 310.5833435058594 759.3504638671875 L 311.0093383789062 759.421630859375 L 311.0775451660156 759.43310546875 C 311.2045593261719 759.45458984375 311.3244934082031 759.474853515625 311.4382934570312 759.4867553710938 C 311.475341796875 759.4906005859375 311.5101623535156 759.4926147460938 311.5418090820312 759.4926147460938 C 311.6380615234375 759.4926147460938 311.7131652832031 759.4751586914062 311.7853088378906 759.4361572265625 L 311.9295043945312 759.358154296875 L 312.0934143066406 759.3549194335938 L 312.1000671386719 759.3547973632812 L 312.110595703125 759.354736328125 C 312.3222045898438 759.354736328125 312.4971618652344 759.42822265625 312.6402893066406 759.5194702148438 L 312.7650451660156 759.163818359375 L 312.8196716308594 759.1817626953125 L 312.8845520019531 758.9554443359375 C 312.9962158203125 758.5659790039062 313.0926208496094 758.2276611328125 313.1789245605469 757.9246215820312 L 313.4845275878906 756.8513793945312 L 313.8616638183594 757.2095336914062 L 313.4745483398438 756.62646484375 L 313.9534912109375 756.4443359375 C 313.9378051757812 756.4310302734375 313.9220581054688 756.417724609375 313.9062194824219 756.404296875 L 313.6898193359375 756.220947265625 L 313.1109924316406 755.7305297851562 L 313.6650390625 755.2122802734375 C 313.9282531738281 754.9660034179688 314.1355285644531 754.7713623046875 314.4425964355469 754.4828491210938 L 314.9950561523438 753.9636840820312 L 315.1936340332031 754.2308959960938 C 315.1905212402344 754.2181396484375 315.1876220703125 754.2051391601562 315.1849365234375 754.19189453125 L 315.04345703125 753.49267578125 L 315.7494201660156 753.3895874023438 L 316.3542785644531 753.3010864257812 L 316.3339538574219 753.2410888671875 L 316.2380676269531 752.9578247070312 L 316.3833618164062 752.6964111328125 C 316.4819030761719 752.51904296875 316.6002502441406 752.306640625 316.8119812011719 751.9271240234375 L 316.9815673828125 752.021728515625 C 316.8822631835938 751.873779296875 316.78955078125 751.7323608398438 316.6986389160156 751.5849609375 C 316.5774841308594 751.3896484375 316.4723510742188 751.1908569335938 316.3706970214844 750.9985961914062 C 316.3294677734375 750.9205932617188 316.2882995605469 750.8427124023438 316.2461853027344 750.7655029296875 L 315.9471740722656 750.2174072265625 L 316.4701538085938 749.8762817382812 C 316.5321350097656 749.8358154296875 316.5946350097656 749.7954711914062 316.6571960449219 749.7550048828125 L 316.6929016113281 749.7319946289062 L 316.9435119628906 749.570068359375 L 316.5767211914062 748.8209838867188 L 318.0625 749.5350952148438 C 318.1703491210938 749.0885620117188 318.2778930664062 748.6434936523438 318.3852233886719 748.1993408203125 C 318.5604858398438 747.473876953125 318.7352294921875 746.7507934570312 318.9097900390625 746.027587890625 L 319.0646667480469 745.3858032226562 L 319.7098083496094 745.5259399414062 L 319.9441833496094 745.5768432617188 L 320.5812683105469 745.7152099609375 L 320.4655456542969 746.3568115234375 C 320.4281921386719 746.5638427734375 320.3824768066406 746.7670288085938 320.3382263183594 746.9634399414062 C 320.246337890625 747.37158203125 320.1595153808594 747.7571411132812 320.1605834960938 748.1141357421875 C 320.1615905761719 748.3638305664062 320.1328735351562 748.6177978515625 320.1051025390625 748.8634643554688 C 320.0566711425781 749.29150390625 320.0018310546875 749.776611328125 320.1703796386719 749.8983764648438 C 320.8696594238281 750.4041137695312 321.2923278808594 750.9384155273438 321.5840148925781 751.6851196289062 C 321.6270141601562 751.7951049804688 321.7113342285156 751.9244995117188 321.8180847167969 752.0882568359375 C 321.8843383789062 752.1898803710938 321.9594116210938 752.3050537109375 322.0398559570312 752.4387817382812 L 322.1496276855469 752.6212158203125 L 322.1349487304688 752.8336181640625 C 322.128173828125 752.9312133789062 322.1048583984375 753.0169067382812 322.0704040527344 753.0923461914062 C 322.0797729492188 753.0921020507812 322.0891418457031 753.0919799804688 322.0986022949219 753.0919799804688 C 322.1865539550781 753.0919799804688 322.2752990722656 753.1018676757812 322.3623046875 753.121337890625 L 323.2295837402344 753.3151245117188 L 322.9141235351562 753.9054565429688 L 322.9577941894531 753.9301147460938 L 322.8887023925781 753.9529418945312 L 322.8106994628906 754.0989379882812 C 322.7686157226562 754.1776733398438 322.7220153808594 754.2488403320312 322.6809387207031 754.3116455078125 C 322.6632385253906 754.338623046875 322.6404418945312 754.3734741210938 322.6220092773438 754.4037475585938 C 322.6351318359375 754.433349609375 322.6507263183594 754.4664306640625 322.6630249023438 754.4925537109375 C 322.6991271972656 754.5692138671875 322.7400207519531 754.6560668945312 322.7764282226562 754.754150390625 L 322.971435546875 755.279296875 L 322.4914855957031 755.5680541992188 C 322.4172668457031 755.6127319335938 322.3429260253906 755.6574096679688 322.2684326171875 755.7022705078125 L 322.2991943359375 755.7642822265625 C 322.322509765625 755.8112182617188 322.3457641601562 755.8590087890625 322.368896484375 755.9068603515625 L 322.6587219238281 756.5061645507812 L 322.3095397949219 756.681396484375 C 322.5716552734375 756.8673706054688 322.7839660644531 757.1207275390625 322.8978881835938 757.3561401367188 C 323.0631713867188 757.7009887695312 323.03271484375 758.0687255859375 323.0082092285156 758.3642578125 C 322.9999084472656 758.4642944335938 322.9920654296875 758.558837890625 322.9920654296875 758.6405029296875 L 322.9920654296875 758.9949951171875 L 322.7692260742188 759.1488037109375 C 323.0879211425781 759.1949462890625 323.394287109375 759.228759765625 323.6884460449219 759.228759765625 C 324.3279113769531 759.228759765625 324.8127136230469 759.0626220703125 325.2603759765625 758.690185546875 L 325.9544677734375 758.11279296875 L 326.3124694824219 758.941650390625 C 326.3607482910156 759.0533447265625 326.4097290039062 759.1651000976562 326.4586791992188 759.2764892578125 L 326.6445922851562 759.6995849609375 L 326.317626953125 760.026123046875 C 325.9656372070312 760.377685546875 325.6136779785156 760.729248046875 325.2616882324219 761.0809936523438 L 325.6554260253906 761.4480590820312 L 324.960693359375 761.7250366210938 C 325.0986022949219 761.76123046875 325.2354125976562 761.8191528320312 325.3844299316406 761.8822631835938 C 325.52001953125 761.9396362304688 325.6602478027344 761.9989624023438 325.813720703125 762.0480346679688 L 327.1457824707031 762.474365234375 L 327.3323059082031 762.1468505859375 L 328.0704040527344 760.8511962890625 L 328.3985595703125 761.8004150390625 C 328.4981994628906 761.7903442382812 328.5951232910156 761.7852172851562 328.6881103515625 761.7852172851562 C 329.4230041503906 761.7852172851562 329.9814147949219 762.0938720703125 330.3054809570312 762.66650390625 C 330.4269714355469 762.6592407226562 330.5544128417969 762.6516723632812 330.696044921875 762.6434326171875 L 332.0245056152344 762.56591796875 L 331.5635375976562 763.2802124023438 L 331.6600646972656 763.2921752929688 L 331.5934753417969 763.9491577148438 C 331.57763671875 764.10546875 331.56201171875 764.2593994140625 331.5458068847656 764.418701171875 C 332.1146240234375 764.5239868164062 332.5297546386719 764.8505859375 332.8558959960938 765.156494140625 C 332.8720397949219 765.130615234375 332.8882446289062 765.1045532226562 332.9046020507812 765.0783081054688 L 333.0944519042969 764.7733154296875 L 333.5845031738281 763.986328125 L 334.1834411621094 764.6940307617188 L 334.3080444335938 764.84130859375 C 334.6441955566406 764.7821044921875 334.9479370117188 764.728515625 335.2169494628906 764.6807250976562 L 335.9364318847656 764.552978515625 L 336.00732421875 765.2802734375 C 336.0275268554688 765.4876098632812 336.0454406738281 765.6734619140625 336.0625 765.8505249023438 C 336.1555786132812 765.8675537109375 336.2537841796875 765.8854370117188 336.3612365722656 765.9049682617188 L 336.984130859375 766.017822265625 L 336.911865234375 766.6466674804688 C 336.9022216796875 766.7307739257812 336.8960266113281 766.8230590820312 336.8894958496094 766.920654296875 C 336.8725891113281 767.1732788085938 336.8534240722656 767.4595947265625 336.7638854980469 767.7511596679688 C 336.7564392089844 767.7753295898438 336.7499389648438 767.7974243164062 336.7442016601562 767.8176879882812 C 336.7652893066406 767.821044921875 336.7884521484375 767.8245239257812 336.81396484375 767.8279418945312 C 337.2890930175781 767.892578125 337.6852416992188 768.1533203125 337.9013671875 768.5433349609375 C 338.123779296875 768.9448852539062 338.133544921875 769.439453125 337.9286193847656 769.9021606445312 C 337.9234313964844 769.9229125976562 337.9154663085938 769.9711303710938 337.9095153808594 770.0072021484375 C 337.9077453613281 770.0177612304688 337.9059143066406 770.0288696289062 337.9039611816406 770.0404052734375 C 337.9178161621094 770.0546264648438 337.931640625 770.0694580078125 337.9454040527344 770.084716796875 C 338.7898559570312 768.4659423828125 340.318115234375 765.74169921875 342.2554016113281 762.6715698242188 C 344.5236511230469 759.0770874023438 347.933837890625 754.1047973632812 351.2987976074219 750.8300170898438 C 354.5758972167969 747.64013671875 356.8648681640625 746.0136108398438 358.2963562011719 745.857421875 C 358.380126953125 745.8483276367188 358.47021484375 745.84375 358.5643615722656 745.84375 C 360.1879577636719 745.84375 363.5711059570312 747.2382202148438 366.6147766113281 748.5452880859375 C 367.162841796875 748.7806396484375 367.5957641601562 748.966552734375 367.7994079589844 749.0420532226562 C 367.9254150390625 749.0888671875 368.2145385742188 749.1858520507812 368.4941101074219 749.2796630859375 C 369.0621948242188 749.47021484375 369.4183349609375 749.5908203125 369.5736694335938 749.6583862304688 C 370.12841796875 749.8978271484375 370.624755859375 750.0966796875 371.0637512207031 750.0966796875 C 371.2407836914062 750.0966796875 371.4015808105469 750.0638427734375 371.5552978515625 749.9962768554688 C 372.8775329589844 749.4172973632812 373.4783325195312 748.9755249023438 373.9610900878906 748.6204833984375 C 374.1030883789062 748.515869140625 374.5198364257812 748.0552978515625 374.7437438964844 747.807861328125 C 374.9946899414062 747.5305786132812 375.1000366210938 747.4151000976562 375.18798828125 747.343017578125 C 375.6995544433594 746.9249267578125 376.4736938476562 746.6951293945312 377.3686828613281 746.6951293945312 C 377.7874450683594 746.6951293945312 378.2090759277344 746.7451782226562 378.6219177246094 746.8439331054688 C 379.5671691894531 747.0697631835938 380.6030578613281 747.5978393554688 381.7063903808594 748.4158325195312 C 384.6905517578125 746.2598266601562 385.4754943847656 745.7627563476562 385.7687072753906 745.6637573242188 L 385.86376953125 745.6307983398438 C 386.2955017089844 745.4827270507812 386.8307495117188 745.299072265625 387.4839172363281 745.299072265625 C 387.9526672363281 745.299072265625 388.4240112304688 745.3974609375 388.8847961425781 745.5914306640625 C 389.0953063964844 745.6803588867188 389.3590087890625 745.8058471679688 389.730224609375 745.9945068359375 C 392.4802551269531 743.4577026367188 394.0519714355469 739.5077514648438 395.2117614746094 736.59326171875 C 395.6513366699219 735.4887084960938 396.0309753417969 734.5347290039062 396.3987731933594 733.856689453125 C 397.701904296875 731.4544677734375 401.0005187988281 726.2601318359375 402.7203369140625 725.1388549804688 C 403.4906311035156 724.6367797851562 404.5443115234375 724.3602905273438 405.6873168945312 724.3602905273438 C 406.6318969726562 724.3602905273438 407.5677795410156 724.5501098632812 408.3938598632812 724.9091796875 C 409.6983642578125 725.476318359375 413.9322509765625 728.9789428710938 418.3132629394531 732.6796264648438 C 418.58251953125 732.9070434570312 418.8242797851562 733.1112670898438 419.0318298339844 733.2860717773438 C 419.5736999511719 733.7421264648438 420.9181518554688 734.9353637695312 422.4748840332031 736.3170776367188 C 424.9727783203125 738.5340576171875 428.0814819335938 741.2931518554688 429.1962280273438 742.1785888671875 C 431.9549255371094 744.368896484375 433.0872802734375 744.82861328125 433.5514831542969 744.8285522460938 C 433.7115173339844 744.8285522460938 433.784912109375 744.7745971679688 433.9927062988281 744.60400390625 C 434.1336364746094 744.4883422851562 434.3089904785156 744.3443603515625 434.5399169921875 744.2373657226562 C 435.2644653320312 743.901611328125 435.8117370605469 743.8553466796875 436.2951965332031 743.8553466796875 C 436.4908447265625 743.8553466796875 436.6912231445312 743.864013671875 436.9033508300781 743.8732299804688 C 437.1006469726562 743.8817138671875 437.3046569824219 743.8905639648438 437.5345153808594 743.8941650390625 C 440.1662292480469 743.9361572265625 442.5934143066406 744.8903198242188 444.5621643066406 746.6554565429688 L 444.8142395019531 746.7606811523438 C 445.0601196289062 746.815673828125 446.0920104980469 747.0398559570312 446.7651672363281 747.0848388671875 L 446.7920532226562 747.0865478515625 C 450.5065307617188 747.33154296875 458.8360900878906 749.1043701171875 466.4974365234375 754.1953735351562 C 470.4515380859375 756.82275390625 475.3106994628906 760.9323120117188 479.8290710449219 765.4702758789062 C 484.3486328125 770.009521484375 487.9936218261719 774.441650390625 489.8294067382812 777.6302490234375 C 491.5956726074219 780.6973876953125 494.3779296875 781.3411865234375 496.4009094238281 781.3411865234375 C 497.5509948730469 781.3411254882812 498.3656921386719 781.1272583007812 498.3738098144531 781.1250610351562 C 499.7892150878906 780.7439575195312 501.6026916503906 780.2047119140625 503.7638854980469 779.5224609375 C 504.4647521972656 779.3012084960938 505.1891174316406 779.1890258789062 505.9168090820312 779.1890258789062 C 509.1676330566406 779.1890258789062 512.0031127929688 781.3875122070312 512.8121337890625 784.5353393554688 L 521.3529052734375 817.7581787109375 L 521.3648071289062 817.8045043945312 L 521.3700561523438 817.85205078125 L 521.7251586914062 821.0595703125 C 521.8978881835938 822.62353515625 521.6353149414062 824.2015380859375 520.9658203125 825.6232299804688 C 520.2952880859375 827.0470581054688 519.244873046875 828.2536010742188 517.9281616210938 829.1123657226562 C 513.2786865234375 832.144775390625 506.7895812988281 836.575439453125 502.2792358398438 840.4622802734375 C 498.2026672363281 843.9752807617188 493.0763244628906 850.035400390625 490.3222961425781 853.2910766601562 C 490.0482177734375 853.6150512695312 489.7948608398438 853.91455078125 489.5650634765625 854.18505859375 C 487.7576599121094 856.3121337890625 485.1140441894531 857.5320434570312 482.3121032714844 857.5320434570312 Z M 311.2444152832031 768.6251831054688 L 311.6992797851562 768.6251831054688 C 311.6185607910156 768.5650634765625 311.5283203125 768.5023803710938 311.4900512695312 768.4969482421875 C 311.4906311035156 768.4971313476562 311.4500732421875 768.5015258789062 311.3607788085938 768.5613403320312 C 311.3239135742188 768.5860595703125 311.2849731445312 768.607421875 311.2444152832031 768.6251831054688 Z M 323.3333129882812 764.503662109375 L 325.2286682128906 764.9146118164062 L 325.22900390625 764.9143676757812 L 325.22900390625 764.8917846679688 L 325.2569274902344 764.8917846679688 L 325.6110229492188 764.60595703125 C 325.6380310058594 764.5841674804688 325.6786499023438 764.5440063476562 325.7179260253906 764.5051879882812 C 325.8790893554688 764.3458251953125 326.0998229980469 764.1275024414062 326.4400024414062 764.0670776367188 C 326.4444274902344 764.0662841796875 326.4488830566406 764.0654907226562 326.4533081054688 764.0647583007812 L 326.2911987304688 763.6088256835938 L 326.2871398925781 763.5973510742188 L 325.1390991210938 763.9495849609375 L 324.7131652832031 764.0802612304688 C 324.2488098144531 764.2227172851562 323.7894897460938 764.3636474609375 323.3333129882812 764.503662109375 Z" stroke="none"/>
      <path d="M 482.3120727539062 856.8565673828125 C 484.9052734375 856.8565673828125 487.3709716796875 855.7239990234375 489.05029296875 853.7476806640625 C 491.66259765625 850.6729736328125 497.3248291015625 843.840087890625 501.8382568359375 839.9505615234375 C 506.4874267578125 835.944091796875 513.2745361328125 831.341064453125 517.5591430664062 828.546630859375 C 520.030517578125 826.9346923828125 521.377685546875 824.0662841796875 521.0537719726562 821.1339111328125 L 520.6986694335938 817.9263916015625 L 512.1578979492188 784.7034912109375 C 511.2369384765625 781.1199951171875 507.4954223632812 779.052734375 503.9672241210938 780.1666259765625 C 502.1119689941406 780.7523193359375 500.1601257324219 781.3436279296875 498.5493774414062 781.77734375 C 498.5493469238281 781.7772827148438 492.3993835449219 783.4465942382812 489.2440185546875 777.96728515625 C 485.4566650390625 771.3890380859375 474.3551025390625 760.2276611328125 466.1235961914062 754.7579345703125 C 458.3698425292969 749.6055908203125 450.1092529296875 747.9822998046875 446.7481079101562 747.7606201171875 L 446.7201538085938 747.7587890625 C 445.8905944824219 747.703369140625 444.6082153320312 747.4066162109375 444.6082153320312 747.4066162109375 L 444.19482421875 747.234130859375 C 442.33447265625 745.5311279296875 440.0282592773438 744.6094970703125 437.52392578125 744.569580078125 C 436.3532409667969 744.55126953125 435.7938232421875 744.4007568359375 434.823974609375 744.8502197265625 C 433.8984985351562 745.2791748046875 434.0079956054688 746.8614501953125 428.776123046875 742.70751953125 C 426.9520263671875 741.2586669921875 420.0017700195312 734.9853515625 418.5967407226562 733.802734375 C 416.2708740234375 731.8441162109375 409.6546630859375 726.19384765625 408.1245727539062 725.5286865234375 C 406.4097290039062 724.7831420898438 404.2984313964844 724.9165649414062 403.0892333984375 725.7047119140625 C 401.58203125 726.6873779296875 398.3910522460938 731.6007080078125 396.9924926757812 734.1788330078125 C 395.6669311523438 736.6221923828125 394.0213012695312 743.2440185546875 389.8320007324219 746.806640625 C 389.3695068359375 746.56591796875 388.9312744140625 746.3443603515625 388.6226806640625 746.2139892578125 C 387.5561828613281 745.7649536132812 386.7400512695312 746.0443115234375 386.0846557617188 746.2691650390625 L 385.98486328125 746.3037109375 C 385.5396118164062 746.4541015625 382.0534057617188 749.0023193359375 381.6939086914062 749.2576904296875 C 380.7081298828125 748.4752197265625 379.5572814941406 747.7618408203125 378.4648132324219 747.5008544921875 C 377.3832092285156 747.2422485351562 376.2207946777344 747.3712768554688 375.6162719726562 747.8653564453125 C 375.4746704101562 747.9814453125 374.6749267578125 748.93359375 374.3612670898438 749.1646728515625 C 373.8162841796875 749.5654296875 373.1754150390625 750.0242919921875 371.8269653320312 750.61474609375 C 370.996826171875 750.9794921875 370.154052734375 750.6447143554688 369.30419921875 750.27783203125 C 369.0660400390625 750.1741943359375 367.8929443359375 749.79736328125 367.5645751953125 749.6754150390625 C 366.4790649414062 749.27294921875 360.208740234375 746.3304443359375 358.36962890625 746.5289306640625 C 356.697998046875 746.7113037109375 353.6080627441406 749.52490234375 351.7698974609375 751.3140869140625 C 345.5442810058594 757.3729248046875 338.7615966796875 769.7244873046875 337.9258728027344 771.6500244140625 C 337.8018798828125 771.9346923828125 337.6914367675781 772.2186279296875 337.5904541015625 772.5023193359375 C 337.6824951171875 772.0387573242188 337.7290954589844 771.7840576171875 337.7130126953125 771.8082275390625 C 337.5599060058594 771.71875 337.422119140625 771.5968017578125 337.3579711914062 771.4678955078125 C 337.2689819335938 771.29052734375 337.4779968261719 770.9647216796875 337.5599060058594 770.6884765625 C 337.2511901855469 770.2216186523438 336.8759155273438 770.1892700195312 336.4490966796875 770.66943359375 C 336.3112487792969 770.4312744140625 336.208984375 770.2547607421875 336.09912109375 770.064208984375 L 337.2125244140625 770.064208984375 C 337.2506103515625 769.8851318359375 337.25634765625 769.7503662109375 337.3077392578125 769.635986328125 C 337.5535888671875 769.0909423828125 337.293212890625 768.5748291015625 336.7234497070312 768.497314453125 C 336.0228881835938 768.402587890625 335.9174194335938 768.205810546875 336.1181640625 767.5528564453125 C 336.2147216796875 767.2384033203125 336.203857421875 766.89111328125 336.2407836914062 766.569580078125 C 335.9295043945312 766.51318359375 335.69580078125 766.4697265625 335.439208984375 766.423583984375 C 335.4061279296875 766.0831298828125 335.3750915527344 765.756591796875 335.3350219726562 765.3458251953125 C 334.96728515625 765.4111328125 334.5347900390625 765.4873046875 334.043212890625 765.57373046875 C 333.9833984375 765.5037841796875 333.8602294921875 765.357666015625 333.6678466796875 765.13037109375 C 333.4270935058594 765.51708984375 333.2263793945312 765.8397216796875 332.9945678710938 766.21142578125 C 332.3651733398438 765.7052001953125 331.9056701660156 764.8679809570312 330.7969970703125 765.0986328125 C 330.8452758789062 764.6318359375 330.8826904296875 764.263427734375 330.9214477539062 763.881103515625 C 330.7938232421875 763.865234375 330.6343994140625 763.8455810546875 330.4127502441406 763.817626953125 L 330.7353515625 763.3177490234375 C 330.4024658203125 763.337158203125 330.1478271484375 763.3526611328125 329.8651733398438 763.3697509765625 C 329.6676635742188 762.6336059570312 329.1417541503906 762.3687744140625 328.3402099609375 762.48828125 C 328.3549194335938 762.8056640625 328.3675537109375 763.1060791015625 328.3809204101562 763.4072265625 C 328.3370971679688 763.41748046875 328.2938842773438 763.427490234375 328.2501220703125 763.437744140625 C 328.1503295898438 763.1494140625 328.050537109375 762.861083984375 327.919189453125 762.481201171875 C 327.7184448242188 762.8336181640625 327.5501098632812 763.129150390625 327.3696899414062 763.446044921875 C 327.23193359375 763.42626953125 327.0635986328125 763.4022216796875 326.9276733398438 763.382568359375 C 327.2103271484375 764.1776123046875 327.48095703125 764.9385986328125 327.7514343261719 765.6993408203125 C 327.1918640136719 765.8924560546875 327.000732421875 765.5730590820312 327.0204467773438 765.2275390625 C 327.0426025390625 764.8255615234375 326.874267578125 764.6751708984375 326.5580444335938 764.732177734375 C 326.3655395507812 764.766357421875 326.2081298828125 764.9920654296875 326.0352783203125 765.131591796875 C 326.2073974609375 765.2872314453125 326.3795776367188 765.443603515625 326.5167236328125 765.5672607421875 L 325.9044799804688 765.5672607421875 L 325.9044799804688 766.0704345703125 C 325.583740234375 766.1109619140625 325.2953491210938 766.1473388671875 324.8908081054688 766.1981201171875 C 324.859619140625 766.177001953125 324.7783813476562 766.12060546875 324.68115234375 766.05322265625 C 324.9003295898438 765.91162109375 325.1181640625 765.7698974609375 325.3449096679688 765.6309814453125 C 323.78564453125 765.29296875 322.4086303710938 764.994384765625 321.0322875976562 764.6959228515625 L 321.0361328125 764.5023193359375 C 322.3223266601562 764.107177734375 323.6084594726562 763.712646484375 324.9409790039062 763.3038330078125 C 324.7548217773438 763.2135009765625 324.6005249023438 763.13916015625 324.2892456054688 762.9886474609375 C 324.7669372558594 762.88134765625 325.0673828125 762.8133544921875 325.6078491210938 762.69140625 C 325.0978698730469 762.5281982421875 324.741455078125 762.2828979492188 324.5865478515625 762.386474609375 C 323.6821899414062 762.9886474609375 322.8894348144531 762.3911743164062 321.7907104492188 762.2615966796875 C 322.832275390625 761.8465576171875 323.6236877441406 761.5308837890625 324.4151611328125 761.21533203125 L 324.2892456054688 761.097900390625 C 324.8062744140625 760.5810546875 325.3233032226562 760.0645751953125 325.8402709960938 759.5482177734375 C 325.790771484375 759.435546875 325.7412109375 759.322509765625 325.6923828125 759.20947265625 C 324.219482421875 760.4347534179688 322.6131591796875 759.687744140625 320.9503784179688 759.5843505859375 C 321.44580078125 759.2420654296875 321.941162109375 758.899658203125 322.3165893554688 758.6405029296875 C 322.3165893554688 758.2872314453125 322.4131469726562 757.9075927734375 322.2898559570312 757.650390625 C 322.1628723144531 757.387939453125 321.8319091796875 757.1092529296875 321.5696411132812 757.08251953125 C 321.1436767578125 757.0391845703125 320.7001342773438 757.1962280273438 320.2644653320312 757.2686767578125 C 320.2466430664062 757.172119140625 320.2295532226562 757.0755615234375 320.2123107910156 756.97900390625 C 320.7280883789062 756.7193603515625 321.2444458007812 756.4599609375 321.7608032226562 756.200927734375 C 321.7386474609375 756.1551513671875 321.7163696289062 756.109375 321.6941223144531 756.064453125 C 321.3511962890625 756.0999755859375 321.0087890625 756.1368408203125 320.665771484375 756.1729736328125 C 320.634033203125 756.0941162109375 320.6016845703125 756.015625 320.5692749023438 755.9375 C 321.0958251953125 755.61962890625 321.623046875 755.30224609375 322.1432189941406 754.9892578125 C 322.0587158203125 754.76171875 321.909423828125 754.55029296875 321.9272155761719 754.3563232421875 C 321.9456176757812 754.1480712890625 322.1209716796875 753.9564208984375 322.2149658203125 753.780517578125 C 321.5895690917969 753.6401977539062 321.2105102539062 754.6699829101562 320.6192932128906 754.6701049804688 C 320.4177856445312 754.670166015625 320.1917114257812 754.5505981445312 319.9227294921875 754.2244873046875 C 320.4023132324219 754.06494140625 320.8386535644531 753.9202880859375 321.2971801757812 753.7684326171875 C 320.196533203125 753.147216796875 321.4451293945312 753.01708984375 321.4610595703125 752.7869873046875 C 321.2425537109375 752.423828125 321.058349609375 752.1956787109375 320.954833984375 751.930908203125 C 320.7052612304688 751.2919921875 320.3527221679688 750.8638916015625 319.7748107910156 750.4459228515625 C 319.1102905273438 749.9658203125 319.4883117675781 748.9127197265625 319.485107421875 748.1162109375 C 319.4832153320312 747.49072265625 319.687744140625 746.8638916015625 319.8008117675781 746.2369384765625 L 319.5664367675781 746.18603515625 C 319.2202758789062 747.6202392578125 318.8734741210938 749.0538330078125 318.5228881835938 750.50634765625 C 318.3818969726562 750.4384765625 318.2001953125 750.3507080078125 318.0401611328125 750.2738037109375 C 318.173583984375 750.5462646484375 318.2917175292969 750.7882080078125 318.4104614257812 751.031005859375 C 318.3577270507812 751.0665283203125 318.3049926757812 751.1026611328125 318.2522583007812 751.1387939453125 C 317.854736328125 750.858642578125 317.4571228027344 750.5792236328125 317.0595092773438 750.29931640625 C 316.98583984375 750.346923828125 316.9121704101562 750.3944091796875 316.8391723632812 750.4420166015625 C 316.982666015625 750.705078125 317.1159973144531 750.976318359375 317.2735595703125 751.2303466796875 C 317.4698486328125 751.548583984375 317.685791015625 751.8533935546875 317.9557800292969 752.2562255859375 C 317.6102294921875 752.2562255859375 317.3992309570312 752.2562255859375 317.3992309570312 752.2562255859375 C 317.3992309570312 752.2562255859375 317.4000854492188 752.2562255859375 317.40185546875 752.2562255859375 C 317.1903686523438 752.63525390625 317.0722045898438 752.847412109375 316.9737548828125 753.0245361328125 C 317.0563354492188 753.2685546875 317.1434326171875 753.5250244140625 317.2539367675781 753.8521728515625 C 316.7539978027344 753.925048828125 316.3075561523438 753.99072265625 315.8469848632812 754.0579833984375 C 315.9258117675781 754.447509765625 316.8759155273438 754.1519775390625 316.4129638671875 754.975830078125 C 316.3487548828125 755.0888671875 317.4202880859375 755.3695068359375 316.8403930664062 756.0738525390625 C 317.1680908203125 756.40234375 317.4964599609375 756.72998046875 317.8242492675781 757.057861328125 C 316.4148559570312 757.04443359375 315.6685791015625 756.002197265625 314.9051513671875 754.97509765625 C 314.5976867675781 755.2640380859375 314.3900756835938 755.458984375 314.12646484375 755.70556640625 C 314.5379638671875 756.05419921875 314.8841857910156 756.34765625 315.2639770507812 756.6689453125 C 315.0925598144531 756.734375 314.8956298828125 756.8087158203125 314.5050048828125 756.957275390625 C 315.0245361328125 757.73974609375 315.4831237792969 758.430419921875 315.9753723144531 759.1715087890625 C 315.8546752929688 759.276123046875 315.6577758789062 759.4483642578125 315.4393310546875 759.6395263671875 C 314.870849609375 759.099609375 314.33349609375 758.589111328125 313.8285522460938 758.109619140625 C 313.7422180175781 758.4129638671875 313.6456298828125 758.751708984375 313.5339050292969 759.1416015625 C 313.7898559570312 759.2919921875 314.052734375 759.4471435546875 314.3633728027344 759.6307373046875 C 314.1626586914062 759.7322998046875 314.038818359375 759.795166015625 313.822265625 759.90380859375 C 314.0775146484375 760.031494140625 314.2604675292969 760.123046875 314.443359375 760.2144775390625 C 314.4230346679688 760.2784423828125 314.4033203125 760.342041015625 314.3837280273438 760.4061279296875 C 313.9727478027344 760.2716064453125 313.5618286132812 760.136962890625 313.1832275390625 760.012451171875 C 312.8383483886719 760.9959106445312 312.4675903320312 760.0301513671875 312.110595703125 760.0302124023438 C 312.1092834472656 760.0302124023438 312.1080017089844 760.0302124023438 312.106689453125 760.0302734375 C 311.8602600097656 760.1635131835938 311.6117248535156 760.1840209960938 311.3680419921875 760.1585693359375 C 311.2105102539062 760.14208984375 311.0542602539062 760.114013671875 310.8980102539062 760.087890625 C 310.8497924804688 760.1585693359375 310.8022155761719 760.22900390625 310.7538757324219 760.299560546875 C 311.1793823242188 760.7523193359375 311.6265258789062 761.184814453125 312.0209655761719 761.666259765625 C 312.2242431640625 761.9140625 312.7646484375 761.593994140625 312.7514343261719 762.330078125 C 312.7456665039062 762.6436767578125 313.5186157226562 762.9842529296875 313.9536743164062 763.28515625 C 314.0079345703125 763.3231201171875 314.2013244628906 763.1742553710938 314.2518615722656 763.1741943359375 C 314.2563781738281 763.1741943359375 314.259765625 763.1753540039062 314.2618103027344 763.177978515625 C 314.3576049804688 763.3023681640625 314.4039916992188 763.4715576171875 314.4872436523438 763.666259765625 C 314.0362548828125 763.8570556640625 313.6519775390625 764.0196533203125 313.1979064941406 764.211181640625 C 313.549072265625 764.3447265625 313.80126953125 764.4412841796875 314.0540771484375 764.5372314453125 C 314.0419311523438 764.6171875 314.0299377441406 764.697265625 314.017822265625 764.7772216796875 C 313.1959838867188 764.6922607421875 312.374755859375 764.60693359375 311.5027160644531 764.5169677734375 C 311.698974609375 764.9251708984375 311.8494873046875 765.2371826171875 311.9993286132812 765.549560546875 L 312.0787353515625 765.3380126953125 C 312.7259521484375 765.562255859375 313.37255859375 765.7864990234375 314.1201171875 766.045166015625 C 314.0921630859375 766.3992919921875 314.0591430664062 766.80908203125 314.0331420898438 767.13037109375 C 313.41064453125 766.934814453125 312.85302734375 766.898681640625 312.4642944335938 766.60400390625 C 311.8817749023438 766.1626586914062 311.2499084472656 766.1741943359375 310.6350708007812 766.174072265625 C 310.3632507324219 766.174072265625 310.0673217773438 766.5443115234375 309.8341674804688 766.801513671875 C 309.7693481445312 766.87255859375 309.836669921875 767.21728515625 309.9402160644531 767.304443359375 C 310.2742309570312 767.5859375 310.8269958496094 768.1068115234375 310.9849853515625 768 C 311.8551330566406 767.4178466796875 312.1943054199219 768.4451293945312 312.85107421875 768.476806640625 C 312.5886840820312 768.9940185546875 312.3785400390625 769.407470703125 312.1689453125 769.8209228515625 C 312.1218872070312 769.80126953125 312.074951171875 769.781494140625 312.0279541015625 769.7618408203125 C 312.04443359375 769.6005859375 312.0615844726562 769.4385986328125 312.0755920410156 769.3006591796875 L 309.5972290039062 769.3006591796875 C 309.992919921875 769.6412353515625 310.305419921875 769.910400390625 310.8103637695312 770.344970703125 C 309.9078369140625 770.243896484375 309.2688598632812 770.1722412109375 308.563232421875 770.0927734375 C 308.9862670898438 770.41796875 309.2917175292969 770.782470703125 309.6677856445312 770.9127197265625 C 310.2698974609375 771.120361328125 310.6826782226562 771.375732421875 310.5550537109375 772.1588134765625 L 308.79443359375 772.1588134765625 L 308.7931518554688 772.3055419921875 C 309.2428588867188 772.355712890625 309.69189453125 772.406005859375 310.2647705078125 772.469482421875 C 309.9395751953125 772.710693359375 309.7490234375 772.852294921875 309.4245300292969 773.09326171875 C 309.8062133789062 773.164306640625 310.0107421875 773.20166015625 310.2571411132812 773.2474365234375 C 310.1447143554688 773.4576416015625 310.0596313476562 773.6158447265625 309.9059448242188 773.9022216796875 C 310.4642333984375 773.944091796875 310.95263671875 773.98193359375 311.2645263671875 774.005126953125 C 311.2645263671875 774.4129638671875 311.1902160644531 774.8175048828125 311.2987670898438 775.154296875 C 311.3457641601562 775.3009033203125 311.7688598632812 775.305908203125 312.0209655761719 775.3778076171875 C 312.121337890625 775.40625 312.2972412109375 775.4215087890625 312.3080444335938 775.4749755859375 C 312.4889831542969 776.3328857421875 313.0098571777344 776.2339477539062 313.5960693359375 776.0548095703125 C 313.6973266601562 776.0239868164062 313.8514709472656 776.1932983398438 314.1619873046875 776.376220703125 C 313.2182006835938 776.47021484375 312.4852294921875 776.59326171875 311.7510375976562 776.598876953125 C 311.7498779296875 776.598876953125 311.7486267089844 776.598876953125 311.7474365234375 776.598876953125 C 311.1656494140625 776.5989990234375 310.6172790527344 775.4866333007812 309.9796142578125 776.541259765625 C 309.9518432617188 776.5870361328125 309.7210083007812 776.4583129882812 309.5786437988281 776.4583740234375 C 309.5744018554688 776.4583740234375 309.5702514648438 776.45849609375 309.566162109375 776.458740234375 C 308.7372436523438 776.5081787109375 307.9090576171875 776.5755615234375 307.0808715820312 776.636474609375 C 307.0909423828125 776.7591552734375 307.1011352539062 776.881591796875 307.111328125 777.0042724609375 C 307.52734375 776.9320068359375 307.9433288574219 776.860107421875 308.4552612304688 776.7711181640625 C 308.2659912109375 776.9014892578125 308.1643371582031 776.971923828125 308.0906982421875 777.02197265625 C 308.3250732421875 777.199462890625 308.5543212890625 777.3726806640625 308.9576416015625 777.677734375 C 308.5498657226562 777.72265625 308.3994140625 777.7391357421875 307.9579467773438 777.7879638671875 C 308.673828125 778.340087890625 309.1793212890625 778.7305908203125 309.7153930664062 779.1434326171875 C 309.8945617675781 778.977783203125 310.0780944824219 778.8074951171875 310.1904296875 778.703125 C 310.7411804199219 779.3550415039062 311.3666381835938 779.6923828125 312.2033081054688 779.35546875 C 312.2273559570312 779.6865234375 312.2464599609375 779.9520263671875 312.264892578125 780.211181640625 C 312.0183715820312 780.2625732421875 311.8095092773438 780.3057861328125 311.4728393554688 780.3756103515625 C 311.8361206054688 780.568603515625 312.0685424804688 780.6925048828125 312.3010864257812 780.8157958984375 C 312.2750854492188 780.87939453125 312.248291015625 780.94287109375 312.2216796875 781.0069580078125 C 311.1082763671875 780.6956787109375 309.9949035644531 780.384521484375 308.8815002441406 780.0740966796875 L 308.8357543945312 780.2943115234375 C 308.9831848144531 780.4169921875 309.1310424804688 780.5400390625 309.3140258789062 780.69384765625 C 309.1329345703125 780.8380126953125 308.9989624023438 780.9447021484375 308.8649291992188 781.0521240234375 C 309.173583984375 781.4622802734375 309.4720458984375 781.85986328125 309.7706298828125 782.257568359375 L 309.656982421875 782.487548828125 C 309.2644348144531 782.352783203125 308.8719482421875 782.218017578125 308.5195007324219 782.0968017578125 C 308.4457397460938 782.1744384765625 308.3682861328125 782.23095703125 308.288818359375 782.276611328125 C 306.2360534667969 781.6478271484375 304.3160705566406 781.04443359375 302.5992736816406 780.4951171875 C 298.0243530273438 779.0301513671875 293.2080383300781 781.9107055664062 292.3284606933594 786.633056640625 L 286.2133178710938 821.6171875 C 286.0557861328125 824.31005859375 287.2924194335938 826.891357421875 289.4912414550781 828.4544677734375 C 293.274169921875 831.1429443359375 299.4591369628906 835.6287841796875 304.8337097167969 839.9505615234375 C 310.0983276367188 844.1844482421875 315.979736328125 850.9613037109375 318.6372680664062 853.9266357421875 C 320.3120727539062 855.7958984375 322.7084655761719 856.8565673828125 325.218505859375 856.8565673828125 L 482.3120727539062 856.8565673828125 M 324.42333984375 766.217041015625 C 324.198486328125 767.679931640625 324.23974609375 767.857666015625 323.1537780761719 768.03369140625 C 322.5953979492188 767.923095703125 322.0378112792969 767.813232421875 321.4800415039062 767.70263671875 C 322.1336059570312 767.2747802734375 322.8228149414062 767.078369140625 323.4642333984375 766.7657470703125 C 323.7919921875 766.6063232421875 324.107666015625 766.4163818359375 324.42333984375 766.217041015625 M 482.3120727539062 858.20751953125 L 325.218505859375 858.20751953125 C 322.3208618164062 858.20751953125 319.5553588867188 856.9757690429688 317.631103515625 854.828125 C 317.3802795410156 854.5482788085938 317.1006774902344 854.234375 316.7956848144531 853.8919677734375 C 313.9554443359375 850.7034301757812 308.6687316894531 844.7683715820312 303.9870910644531 841.0032958984375 C 298.7721557617188 836.8099365234375 292.8001708984375 832.4634399414062 288.7086486816406 829.5556640625 C 287.443603515625 828.6563720703125 286.4207458496094 827.44189453125 285.7504272460938 826.0433959960938 C 285.080322265625 824.6454467773438 284.7740478515625 823.0875854492188 284.8646850585938 821.5382690429688 C 284.8677062988281 821.4867553710938 284.8736572265625 821.4354248046875 284.8825378417969 821.3845825195312 L 290.9976806640625 786.400390625 C 290.99853515625 786.3955078125 290.9994201660156 786.3905639648438 291.0003356933594 786.3856811523438 C 291.8232727050781 781.967529296875 295.6761779785156 778.7608642578125 300.1617431640625 778.7608642578125 C 301.1247863769531 778.7608642578125 302.0835266113281 778.9114379882812 303.0111999511719 779.20849609375 C 304.5038757324219 779.6860961914062 306.0181579589844 780.162353515625 307.5268249511719 780.628662109375 C 307.4767761230469 780.4328002929688 307.4704284667969 780.224853515625 307.5130310058594 780.0197143554688 L 307.5587463378906 779.7994995117188 C 307.5934753417969 779.632080078125 307.6592712402344 779.4746704101562 307.7509460449219 779.3345336914062 L 307.1329040527344 778.8577270507812 C 306.9381103515625 778.70751953125 306.7927551269531 778.5111083984375 306.7047729492188 778.2926025390625 C 306.5546264648438 778.2452392578125 306.4123840332031 778.1715087890625 306.2851867675781 778.0731811523438 C 305.9851379394531 777.84130859375 305.79638671875 777.4939575195312 305.7650146484375 777.1160888671875 L 305.7344665527344 776.7472534179688 C 305.7048950195312 776.3881225585938 305.8200378417969 776.0321044921875 306.0542602539062 775.75830078125 C 306.2885131835938 775.4844970703125 306.6224365234375 775.3155517578125 306.9817810058594 775.2891845703125 C 307.2003173828125 775.2730712890625 307.4189147949219 775.2565307617188 307.6374816894531 775.239990234375 C 308.1880187988281 775.1983642578125 308.7556762695312 775.1554565429688 309.3214416503906 775.1201782226562 C 309.0706176757812 774.9998168945312 308.8591918945312 774.802978515625 308.7214965820312 774.5519409179688 C 308.6509094238281 774.4232177734375 308.6027526855469 774.285888671875 308.5770568847656 774.1453247070312 C 308.3684387207031 773.9772338867188 308.2108764648438 773.7481079101562 308.1311340332031 773.4834594726562 C 307.7136535644531 773.24853515625 307.4378051757812 772.7998657226562 307.4422302246094 772.293701171875 L 307.4435119628906 772.1470336914062 C 307.4466247558594 771.7894287109375 307.5884399414062 771.46533203125 307.817626953125 771.2255859375 C 307.7916259765625 771.204345703125 307.7657165527344 771.1837158203125 307.7398376464844 771.163818359375 C 307.2589721679688 770.7941284179688 307.0834655761719 770.1493530273438 307.310546875 769.5869140625 C 307.492431640625 769.136474609375 307.89697265625 768.8273315429688 308.3605041503906 768.7569580078125 C 308.4722595214844 768.5025024414062 308.6573181152344 768.2939453125 308.8851013183594 768.1526489257812 C 308.5468444824219 767.7501220703125 308.4761962890625 767.2509155273438 308.4618530273438 767.0336303710938 C 308.4246520996094 766.4691772460938 308.6448059082031 766.1007690429688 308.8360290527344 765.89111328125 C 308.8563842773438 765.86865234375 308.8801879882812 765.8419189453125 308.9045104980469 765.8145141601562 C 309.1746215820312 765.5111694335938 309.5935363769531 765.0405883789062 310.2012634277344 764.8794555664062 C 310.0937194824219 764.4934692382812 310.162353515625 764.0745849609375 310.3974914550781 763.7400512695312 C 310.6788635253906 763.33984375 311.1545715332031 763.1231689453125 311.6413269042969 763.1731567382812 C 311.6417846679688 763.1732177734375 311.6421813964844 763.1732788085938 311.6426391601562 763.1732788085938 C 311.5986938476562 763.1034545898438 311.5594787597656 763.0299682617188 311.5260314941406 762.9526977539062 C 311.342041015625 762.86474609375 311.1467590332031 762.730712890625 310.9764404296875 762.5230712890625 C 310.7315979003906 762.2242431640625 310.4531860351562 761.9360961914062 310.1583862304688 761.6310424804688 C 310.0313415527344 761.4996337890625 309.8999938964844 761.3636474609375 309.7694396972656 761.2247924804688 C 309.3347778320312 760.7623291015625 309.2806396484375 760.0596313476562 309.6393737792969 759.5360107421875 C 309.6671142578125 759.4955444335938 309.694580078125 759.455078125 309.7220764160156 759.4146728515625 L 309.781982421875 759.3265991210938 C 310.0787658691406 758.8914794921875 310.6013793945312 758.6687622070312 311.1207885742188 758.7554321289062 L 311.18994140625 758.76708984375 C 311.3061828613281 758.7866821289062 311.4159545898438 758.8052368164062 311.5085144042969 758.81494140625 C 311.5109252929688 758.815185546875 311.51318359375 758.8154296875 311.5153198242188 758.8156127929688 C 311.6895751953125 758.7307739257812 311.8803100585938 758.684326171875 312.0745544433594 758.6796875 C 312.0852661132812 758.679443359375 312.099853515625 758.6792602539062 312.1105651855469 758.6792602539062 C 312.1614379882812 758.6792602539062 312.2109069824219 758.6817016601562 312.259033203125 758.6862182617188 C 312.3605041503906 758.3319702148438 312.4492492675781 758.0206909179688 312.5292053222656 757.7398071289062 C 312.6266479492188 757.3974609375 312.8534545898438 757.1122436523438 313.1541748046875 756.9390258789062 C 313.1553649902344 756.850341796875 313.1653137207031 756.7614135742188 313.1841735839844 756.6736450195312 C 312.9320373535156 756.42822265625 312.7846374511719 756.0929565429688 312.77587890625 755.73876953125 C 312.7664184570312 755.3533935546875 312.9220581054688 754.9822998046875 313.2035827636719 754.7189331054688 C 313.4664306640625 754.4730834960938 313.6734313964844 754.2787475585938 313.97998046875 753.9906616210938 C 314.1434936523438 753.8369750976562 314.3406982421875 753.728271484375 314.5526733398438 753.6709594726562 C 314.5939636230469 753.5328369140625 314.657470703125 753.40087890625 314.7420654296875 753.2806396484375 C 314.9555969238281 752.9771118164062 315.2845764160156 752.7748413085938 315.6517944335938 752.72119140625 L 315.6575012207031 752.7203369140625 C 315.6856689453125 752.598388671875 315.7309265136719 752.4798583984375 315.7929382324219 752.3682861328125 C 315.8661804199219 752.2364501953125 315.9503479003906 752.0852661132812 316.0755920410156 751.8606567382812 C 315.9639282226562 751.67431640625 315.8673400878906 751.49169921875 315.7735900878906 751.3143920898438 C 315.7337341308594 751.2389526367188 315.6939086914062 751.16357421875 315.6531982421875 751.0889282226562 C 315.3155517578125 750.469970703125 315.5107116699219 749.6954345703125 316.1013488769531 749.310302734375 C 316.1669006347656 749.267578125 316.2329711914062 749.2249145507812 316.2991333007812 749.1821899414062 L 316.3265380859375 749.1644897460938 C 316.6784057617188 748.9373168945312 317.1083679199219 748.8897705078125 317.4921569824219 749.0194702148438 C 317.5720520019531 748.688720703125 317.6517944335938 748.3587036132812 317.7314147949219 748.0292358398438 C 317.90576171875 747.3076782226562 318.0795593261719 746.5884399414062 318.253173828125 745.8690795898438 C 318.4254150390625 745.1556396484375 319.1355895996094 744.7102661132812 319.8531799316406 744.8658447265625 L 320.0875549316406 744.916748046875 C 320.7984619140625 745.0711669921875 321.2594299316406 745.7608032226562 321.1303100585938 746.4767456054688 C 321.0903930664062 746.6980590820312 321.0430297851562 746.908447265625 320.9971923828125 747.1118774414062 C 320.9138793945312 747.4818115234375 320.835205078125 747.8311767578125 320.8360900878906 748.112060546875 C 320.8372192382812 748.4005737304688 320.8048706054688 748.6868286132812 320.7763061523438 748.9393920898438 C 320.7579345703125 749.101806640625 320.732421875 749.3271484375 320.7311401367188 749.4744873046875 C 321.4382934570312 750.0224609375 321.8992309570312 750.6355590820312 322.2131958007812 751.4393920898438 C 322.2308349609375 751.4844360351562 322.3157653808594 751.61474609375 322.3840026855469 751.719482421875 C 322.453369140625 751.8258666992188 322.5319213867188 751.9464111328125 322.61865234375 752.0905151367188 C 322.705810546875 752.2354125976562 322.7644958496094 752.3944702148438 322.7926940917969 752.5592651367188 C 323.0772094726562 752.6939086914062 323.3089599609375 752.9253540039062 323.4428405761719 753.2171630859375 C 323.618896484375 753.600830078125 323.60546875 754.0447387695312 323.4065551757812 754.4170532226562 C 323.3995056152344 754.4302978515625 323.3924255371094 754.4431762695312 323.3853454589844 754.4558715820312 C 323.3934936523438 754.4762573242188 323.401611328125 754.497314453125 323.4096374511719 754.5189208984375 C 323.5984191894531 755.0272827148438 323.4629211425781 755.587646484375 323.0892944335938 755.953857421875 C 323.1212463378906 756.1250610351562 323.1190490722656 756.29833984375 323.0858459472656 756.464599609375 C 323.2666931152344 756.65576171875 323.4100036621094 756.8637084960938 323.5059204101562 757.0618896484375 C 323.5066528320312 757.0634765625 323.5073852539062 757.06494140625 323.5081176757812 757.0664672851562 C 323.7514953613281 757.5742797851562 323.7092895507812 758.083251953125 323.6813659667969 758.4199829101562 C 323.6774597167969 758.4671020507812 323.6736755371094 758.5126953125 323.6710815429688 758.55322265625 C 324.1638488769531 758.5567016601562 324.4980773925781 758.44580078125 324.828369140625 758.1709594726562 C 325.1556701660156 757.8986206054688 325.5923156738281 757.7962646484375 326.0064086914062 757.8955688476562 C 326.4205932617188 757.9945068359375 326.7638244628906 758.282958984375 326.9326477050781 758.6738891601562 C 326.9803161621094 758.7843017578125 327.02880859375 758.894775390625 327.0771484375 759.0049438476562 C 327.3012390136719 759.5150146484375 327.1891784667969 760.1103515625 326.7949523925781 760.5040893554688 C 326.5052185058594 760.79345703125 326.2154541015625 761.0828857421875 325.9256896972656 761.3724365234375 C 325.9570617675781 761.3838500976562 325.9884033203125 761.3947143554688 326.0196533203125 761.4047241210938 C 326.2997436523438 761.494384765625 326.5341186523438 761.6691284179688 326.6986999511719 761.8944091796875 L 326.745361328125 761.8125 C 327.0079040527344 761.3516845703125 327.5156860351562 761.087646484375 328.0439147949219 761.135986328125 C 328.0803833007812 761.139404296875 328.1164855957031 761.1442260742188 328.1521301269531 761.1504516601562 C 328.3365478515625 761.1234741210938 328.516845703125 761.1097412109375 328.6882019042969 761.1097412109375 C 329.4992065429688 761.1097412109375 330.1780395507812 761.4185180664062 330.6390991210938 761.9701538085938 C 330.6449584960938 761.9697875976562 330.6508483886719 761.9694213867188 330.65673828125 761.9691162109375 C 331.1645812988281 761.9397583007812 331.6460876464844 762.19775390625 331.9024047851562 762.63720703125 C 332.002197265625 762.808349609375 332.061279296875 762.9956665039062 332.0798950195312 763.1859130859375 C 332.2120971679688 763.4058837890625 332.2828063964844 763.6649780273438 332.2712707519531 763.9371337890625 C 332.4305114746094 764.0067138671875 332.5768127441406 764.0882568359375 332.7114868164062 764.1761474609375 C 332.9385986328125 763.9485473632812 333.2422790527344 763.806884765625 333.5696411132812 763.7830200195312 C 333.9316101074219 763.7564697265625 334.285888671875 763.876953125 334.5553588867188 764.11181640625 C 334.7496643066406 764.0775756835938 334.9309692382812 764.0454711914062 335.0987548828125 764.0156860351562 C 335.4697265625 763.9496459960938 335.8512573242188 764.0418090820312 336.1514282226562 764.2694702148438 C 336.4515686035156 764.4971313476562 336.6430053710938 764.8397827148438 336.6795959472656 765.2147216796875 C 336.6822204589844 765.2416381835938 336.684814453125 765.2681274414062 336.6873779296875 765.2943725585938 C 337.274169921875 765.4992065429688 337.6559753417969 766.087890625 337.5829162597656 766.7237548828125 C 337.5751037597656 766.7919311523438 337.5694580078125 766.8763427734375 337.5634460449219 766.9656982421875 C 337.5558776855469 767.0791015625 337.5475158691406 767.2039794921875 337.5324096679688 767.3372802734375 C 337.8471984863281 767.4793701171875 338.1187133789062 767.6924438476562 338.3259887695312 767.9624633789062 C 339.1910095214844 766.4077758789062 340.3408813476562 764.4398193359375 341.6841735839844 762.3110961914062 C 343.9718933105469 758.6856689453125 347.4152526855469 753.6669311523438 350.8276672363281 750.345947265625 C 355.3424377441406 745.9514770507812 357.2106323242188 745.29638671875 358.22314453125 745.1859741210938 C 358.3309631347656 745.1741943359375 358.4456787109375 745.1682739257812 358.5643615722656 745.1682739257812 C 360.3162841796875 745.1682739257812 363.6337585449219 746.5299682617188 366.8815307617188 747.9246826171875 C 367.3993835449219 748.1470947265625 367.8466491699219 748.3391723632812 368.0342407226562 748.4087524414062 C 368.150390625 748.4518432617188 368.4341735839844 748.5470581054688 368.7086181640625 748.63916015625 C 369.3483276367188 748.853759765625 369.6688232421875 748.9631958007812 369.8432006835938 749.0390625 C 370.2147521972656 749.1994018554688 370.7285461425781 749.4212036132812 371.0638122558594 749.4212036132812 C 371.1475830078125 749.4212036132812 371.2154235839844 749.4078369140625 371.2836608886719 749.3778686523438 C 372.5288391113281 748.8326416015625 373.0969543457031 748.41748046875 373.5512084960938 748.0834350585938 C 373.6838073730469 747.9724731445312 374.0607299804688 747.5559692382812 374.2428588867188 747.3546752929688 C 374.5177917480469 747.0508422851562 374.6343688964844 746.9234008789062 374.7597045898438 746.8206787109375 C 375.3924560546875 746.3035888671875 376.3183898925781 746.0196533203125 377.3687133789062 746.0196533203125 C 377.8403625488281 746.0196533203125 378.3148498535156 746.075927734375 378.779052734375 746.1869506835938 C 379.6937561035156 746.4054565429688 380.6747741699219 746.8743286132812 381.7046203613281 747.584228515625 C 384.7433166503906 745.3956909179688 385.2273864746094 745.1343383789062 385.5487060546875 745.0250854492188 L 385.642822265625 744.9924926757812 C 386.0986633300781 744.8361206054688 386.7182006835938 744.6235961914062 387.4839172363281 744.6235961914062 C 388.0431518554688 744.6235961914062 388.6026000976562 744.73974609375 389.1468200683594 744.9688720703125 C 389.2781372070312 745.0243530273438 389.4269714355469 745.0921630859375 389.604736328125 745.1779174804688 C 392.0404052734375 742.735595703125 393.4972534179688 739.07470703125 394.5841064453125 736.3435668945312 C 395.0316467285156 735.218994140625 395.4181213378906 734.2477416992188 395.8050231933594 733.5346069335938 C 396.8568420410156 731.5956420898438 400.3622436523438 725.8699340820312 402.3514099121094 724.5730590820312 C 403.230224609375 724.000244140625 404.4149169921875 723.684814453125 405.6873474121094 723.684814453125 C 406.7238159179688 723.684814453125 407.7528686523438 723.8939819335938 408.6632080078125 724.2897338867188 C 409.9747924804688 724.8599243164062 413.4946899414062 727.7251586914062 418.7489013671875 732.163330078125 C 419.0179443359375 732.3906860351562 419.2595520019531 732.5947265625 419.4669189453125 732.7693481445312 C 420.0154418945312 733.2310180664062 421.3628540039062 734.4269409179688 422.9230041503906 735.8116455078125 C 425.4148254394531 738.0232543945312 428.5159912109375 740.775634765625 429.6163635253906 741.649658203125 C 430.8494262695312 742.628662109375 431.8482055664062 743.3348999023438 432.5847473144531 743.7485961914062 C 433.1025695800781 744.0394287109375 433.3748474121094 744.1211547851562 433.4876098632812 744.1441040039062 C 433.5126647949219 744.1241455078125 433.5405883789062 744.1012573242188 433.5641784667969 744.0819091796875 C 433.7257080078125 743.9492797851562 433.9469604492188 743.7677001953125 434.2559204101562 743.62451171875 C 435.1014709472656 743.232666015625 435.7613220214844 743.1798095703125 436.2952575683594 743.1798095703125 C 436.5054931640625 743.1798095703125 436.7128601074219 743.1888427734375 436.9324340820312 743.1983642578125 C 437.1251831054688 743.2067260742188 437.324462890625 743.21533203125 437.5450134277344 743.2188110351562 C 440.3037109375 743.2627563476562 442.8504638671875 744.24951171875 444.9263305664062 746.0755004882812 L 445.0199584960938 746.1145629882812 C 445.4191284179688 746.2028198242188 446.2760314941406 746.3751831054688 446.8101806640625 746.4108276367188 L 446.8369750976562 746.41259765625 C 447.6932678222656 746.4690551757812 450.8262329101562 746.7591552734375 455.19091796875 748.12060546875 C 459.4244995117188 749.4412231445312 463.3543701171875 751.2957763671875 466.8713073730469 753.6327514648438 C 475.2810668945312 759.2208862304688 486.5027465820312 770.4983520507812 490.414794921875 777.293212890625 C 492.0199890136719 780.0806274414062 494.5560913085938 780.6657104492188 496.40087890625 780.6656494140625 C 497.4503479003906 780.6656494140625 498.1936645507812 780.4739990234375 498.2010803222656 780.4720458984375 L 498.195556640625 780.4735717773438 C 499.6037902832031 780.0943603515625 501.407958984375 779.557861328125 503.560546875 778.8783569335938 C 504.3273010253906 778.63623046875 505.1200866699219 778.5134887695312 505.9168395996094 778.5134887695312 C 509.4761047363281 778.5134887695312 512.58056640625 780.920654296875 513.46630859375 784.3671875 L 522.007080078125 817.5900268554688 C 522.02294921875 817.6516723632812 522.034423828125 817.7144775390625 522.0414428710938 817.7777099609375 L 522.3965454101562 820.9852905273438 C 522.5830078125 822.67333984375 522.299560546875 824.3765258789062 521.576904296875 825.9110717773438 C 520.8529663085938 827.4482421875 519.7188720703125 828.7509155273438 518.2971801757812 829.6781616210938 C 514.5048828125 832.1515502929688 507.4384155273438 836.907958984375 502.7201843261719 840.9739379882812 C 498.6840515136719 844.4521484375 493.5801391601562 850.4857177734375 490.838134765625 853.7271728515625 C 490.5636596679688 854.0516357421875 490.3099670410156 854.3515625 490.0798645019531 854.6224365234375 C 488.1438293457031 856.9008178710938 485.3126220703125 858.20751953125 482.3120727539062 858.20751953125 Z" stroke="none" fill="#fff"/>
    </g>
    <g id="Grupo_16176" data-name="Grupo 16176">
      <g id="Grupo_10923" data-name="Grupo 10923" transform="translate(99.997 24.22)">
        <path id="Trazado_9223" data-name="Trazado 9223" d="M539.166,763.1s-.873-.824-1.629-1.5c-.055-.054-.114-.107-.169-.161-.041-.035-.086-.067-.126-.1-.282-.247-.526-.451-.663-.545l-.1-.068a41.812,41.812,0,0,0-17.74-8.314c-2.2-.263-3.061.321-3.875,1.465-1.209,1.7-1.227,4.05-1.272,5.1s-.549,2.107-.419.835a28.509,28.509,0,0,0-.42-4.16c-.057-.2-.118-.452-.189-.776a11.176,11.176,0,0,0-1.333-3.495c-2.013-3.619-4.64-3.294-5.979-2.738a2.846,2.846,0,0,0-.839.5c-.752.875.085,2.372.351,2.924h0c.318.641,2.727,4.388,2.995,4.9.447.855,0,1.061,0,1.061-.932-2.084-11.708-11.084-12.539-11.9-1.063-1.038-12.779-12.32-18.042-15.356-2.729-1.574-4.111,1.027-3.307,8,.557,4.835,1.609,18.319,2.285,22.406s3.476,4.322,4.009,4.264,2.268-.4,2.376.589a3.986,3.986,0,0,1-.635,1.762c-.017.032-.023.056-.041.089l.007,0-.012.023s7.962,2.614,12.072,5.426a59.6,59.6,0,0,1,11.791,10.729c.845,1,2.743,2.9,4.027,2.645.626-.125,1.238-.253,1.853-.38v-.02l-.01-.025.01,0,.008.018c.365-.075.737-.149,1.1-.225v-.005c.5-.444-1.369-3.475-2.011-7.784-.318-2.133-1.659-2.045-1.782.172a7.058,7.058,0,0,0,1.075,3.447c-5.794-3.188-2.5-10.67-1.78-12.617s1.519-3.2,4.44-2.118c0,0,1.584.78,1.5-.009-.241-2.17.7-3.954,3.487-3.362a28.252,28.252,0,0,1,5.753,2.56,56.382,56.382,0,0,1,9.143,7.565l.061.087h0a36.157,36.157,0,0,1,3.485,3.963c.615.86.72,1.681-.091.88a53.192,53.192,0,0,0-6.05-5.092l.008,0-.54-.386c-.1-.07-.2-.151-.3-.22.027.02.054.041.083.061l-.009,0-.107-.077.017.008h0l.1.046-.105-.078a50.287,50.287,0,0,0-5.411-3.368c-2.21-1.135-3.212-.965-3.623-.175s-.5,2,.555,4.422a19.43,19.43,0,0,1,1.357,6.161v.031c-.031-.3-.063-.616-.1-.93a24.529,24.529,0,0,0,.62,4.115c.956,3.261,4.929,6.866,7.38,7.527,6.895,1.859,16.912-2.986,17.536-3.461C551.4,784.379,548.838,772.417,539.166,763.1Zm-17.393,13.121c0-.181,0-.365.009-.55h0C521.777,775.857,521.774,776.04,521.773,776.222Z" transform="translate(-422.036 -730.338)" fill="#fff"/>
        <path id="Trazado_9224" data-name="Trazado 9224" d="M560.943,797.759l-.016-.011h0Z" transform="translate(-453.884 -754.933)" fill="#fff"/>
        <path id="Trazado_9225" data-name="Trazado 9225" d="M540.382,817.212h0l0,0Z" transform="translate(-446.389 -762.035)" fill="#fff"/>
        <path id="Trazado_9226" data-name="Trazado 9226" d="M539.115,796.513h0a2.877,2.877,0,0,0-.2-.42l0,0-.01-.016c-.048-.084-.088-.149-.088-.149l-.018-.029a5.363,5.363,0,0,0-2.5-2.5c-.84-.262-2.443-.165-2.906.516s-1.086,1.488-.653,3.861a15.819,15.819,0,0,0,2.307,4.748,13.421,13.421,0,0,1,1.98,4.452,4.185,4.185,0,0,0,.393,1.375.45.45,0,0,0,.135.1l.006.029c.255.144.849.285,1.638-.575s1.56-3.449,1.331-6.265A14.85,14.85,0,0,0,539.115,796.513Zm-3.9.214v-.006c0-.052,0-.091,0-.14v0C535.218,796.633,535.213,796.673,535.214,796.726Z" transform="translate(-443.546 -753.299)" fill="#fff"/>
        <path id="Trazado_9227" data-name="Trazado 9227" d="M493.073,801.6c-6.955-4.6-13.02-2.375-15.627-.344a102.727,102.727,0,0,0-10.065,9.627c-3.054,3.745,12.063,11.8,23.653,12.069,4.686.107,12.959-5.963,10.939-11.534C500.631,807.722,494.884,802.8,493.073,801.6Z" transform="translate(-419.608 -755.354)" fill="#fff"/>
        <path id="Trazado_9228" data-name="Trazado 9228" d="M445.71,788.393c4.721-5.3,4.8-7.467,2.614-10.013-1.616-1.881-4.263-5.2-5.272-6.407-3.131-3.743-7.817-10.242-11.5-9.041-.514.167-1.592.9-2.6.455-.277-.12-.221.823,1.347,2.219a1.668,1.668,0,0,1,.18.2l.048.07v.009a4.391,4.391,0,0,1,.65,2.87c-.142,1.224-1.461,8.751-.695,15.51a15.89,15.89,0,0,0,1.618,5.876c.169.229.165.351.094.417v0a.936.936,0,0,1-.519.016,19.992,19.992,0,0,1-3.8-7.681c-3.094-14.659-4.869-16.436-6.3-18.1-.331.207-.671.815-1.281.6-1.065-.369-1.764-2.011-3.773-2.29-1.136-.033-4.268.257-3.458,7.989.133,1.279.9,6.675,1,7.575s.946,9.8.585,11.469c-.081.376-.289.325-.582-.024l0,0,.018.028-.051-.049c-1.507-1.874-5.176-11.3-6.336-13.54-1.291-2.49-3.458-5.7-5.795-5.779-5.83-.208-8.031,8.05-8.031,8.05s-4.557,13.656,2.4,22.009c1.619,1.944,6.971,6.273,12.62,6.67,3.183.005,14.258.29,19.689-4.725,3.721-3.437,3.9-9.258,4.156-8.968a10.24,10.24,0,0,0,1.347,2.415l.025,0c-.018-.019-.039-.035-.057-.055,0-.006.008-.009.012-.015a1.979,1.979,0,0,0,2.223.654,10.5,10.5,0,0,0,2.813-1.875v0A80.353,80.353,0,0,0,445.71,788.393Z" transform="translate(-392.393 -742.177)" fill="#fff"/>
      </g>
      <path id="Trazado_9229" data-name="Trazado 9229" d="M463.413,773.021a46.29,46.29,0,0,1,2.382,8.129c.594,5,.114,12.636-5.374,17.568-1.635,1.47-1.936.986-2.284,1.023a.233.233,0,0,0-.179.142,1.983,1.983,0,0,0,2.235.665,10.5,10.5,0,0,0,2.813-1.875c.377-2.58,4.054-3.091,4.546-10.681A22.287,22.287,0,0,0,463.413,773.021Z" transform="translate(-316.318 -721.691)" fill="#fff"/>
      <path id="Trazado_9230" data-name="Trazado 9230" d="M504.762,752.073h0c.318.641,2.727,4.388,2.995,4.9.447.855,0,1.061,0,1.061-.932-2.084-11.708-11.084-12.539-11.9-1.063-1.038-12.779-12.32-18.042-15.356-2.729-1.574-4.111,1.027-3.307,8,.557,4.835,1.609,18.319,2.285,22.406s3.476,4.322,4.009,4.264,2.268-.4,2.376.589a3.986,3.986,0,0,1-.635,1.762c-.017.032-.023.056-.041.089l.029.01a44.667,44.667,0,0,0,4.713-5.447c1.5-2.182,5.794-7.557-1.366-3.775-2.627,1.387-6,2.006-6.441-2s-.556-7.335-1.7-13.878-3.572-7.193-.718-8.315,10.607,5.3,10.607,5.3,12.551,10.571,16.9,14.938,5.11,5.97,5.523,7.278-.4,2.492-1.139,4.453-2.569,6.232-2.783,9.231a5.756,5.756,0,0,0,3.42,5.9c.831.306,1.844,2.655,2.7,4.727.365-.075.737-.149,1.1-.225v-.005c.5-.444-1.369-3.475-2.011-7.784-.318-2.133-1.659-2.045-1.782.172a7.058,7.058,0,0,0,1.075,3.447c-5.794-3.188-2.5-10.67-1.78-12.617s1.519-3.2,4.44-2.118c0,0,1.584.78,1.5-.009-.241-2.17.7-3.954,3.487-3.362a28.292,28.292,0,0,1,5.753,2.561,56.523,56.523,0,0,1,9.2,7.625,68.261,68.261,0,0,0-7.117-8.713c-4.842-4.958-10.08-7.8-9.493-10.152.414-1.657,2.556-3.911,14.479,2.106,1.5.928,4.639,2.816,7.7,4.957-.275-.248-.536-.5-.792-.752a41.756,41.756,0,0,0-18.632-9.029c-2.2-.263-3.061.321-3.875,1.465-1.209,1.7-1.227,4.05-1.272,5.1s-.549,2.107-.419.835a28.522,28.522,0,0,0-.42-4.16c-.057-.2-.118-.451-.189-.775a11.177,11.177,0,0,0-1.333-3.495c-2.013-3.619-4.64-3.294-5.979-2.738a2.846,2.846,0,0,0-.839.5C503.659,750.023,504.5,751.52,504.762,752.073Z" transform="translate(-322.039 -706.118)" fill="#fff"/>
      <path id="Trazado_9231" data-name="Trazado 9231" d="M460,794.943a80.191,80.191,0,0,0,6.634-6.55c4.721-5.3,4.8-7.467,2.614-10.013-1.616-1.881-4.263-5.2-5.272-6.407-3.131-3.743-7.817-10.242-11.5-9.041-.514.168-1.592.9-2.6.456-.277-.12-.221.823,1.347,2.219a1.878,1.878,0,0,1,.224.251l.119-.241s1.517-3.122,6.1.734c0,0,7.66,5.829,6.877,17.922C464.054,791.853,460.387,792.372,460,794.943Z" transform="translate(-313.322 -717.957)" fill="#fff"/>
      <path id="Trazado_9232" data-name="Trazado 9232" d="M429.979,795.334c-2.008-2.941-2.173-7.442-2.06-8.686.128-1.62-.012,0-.017-.005.213-2.361.375-4.792.366-5.894-.021-2.382-.526-7.119-.729-10.077s.8-5.342,3.987-3.424a11.247,11.247,0,0,1,5.624,7.385,77.464,77.464,0,0,1,1.6,13.155s.156,4.06.17,9.661,1.921.761,3.056-2.6a24.01,24.01,0,0,1,2.014-4.132c-.134.126-.52.046-.52.046a19.994,19.994,0,0,1-3.8-7.681c-3.094-14.659-4.869-16.436-6.3-18.1-.331.206-.671.815-1.281.6-1.064-.368-1.764-2.011-3.773-2.29-1.136-.032-4.268.257-3.458,7.99.133,1.278.9,6.675,1,7.575s.946,9.8.585,11.469c-.081.376-.289.325-.582-.024l0,0C427.268,792.638,431.324,797.306,429.979,795.334Z" transform="translate(-304.194 -718.143)" fill="#fff"/>
      <path id="Trazado_9233" data-name="Trazado 9233" d="M528.556,769.454a27.335,27.335,0,0,1-3.129-5.114c-.73-1.979-1.7-3.314-.624-3.843a2.129,2.129,0,0,1,2.474.039c.88.521,3.842,5.036,4.075,7.171a21.167,21.167,0,0,1-.09,4.847,4.038,4.038,0,0,1-.977,2.37C529.728,775.5,529.6,771.5,528.556,769.454Z" transform="translate(-340.532 -716.985)" fill="#fff"/>
      <path id="Trazado_9234" data-name="Trazado 9234" d="M498.281,753.237c.448.021,1.046-.046.854-.585a125.95,125.95,0,0,0-11.979-10.115,1.2,1.2,0,0,0-.931-.3c-.326.087-.457.641-.135.74l.023.335q.61,3.5,1.219,7.006c.21,1.2.527,2.565,1.6,3.155a3.34,3.34,0,0,0,2.769-.057,15.753,15.753,0,0,1,2.669-1.015,5.226,5.226,0,0,1,2.842.345A10.578,10.578,0,0,1,498.281,753.237Z" transform="translate(-326.515 -710.451)" fill="#fff"/>
      <path id="Trazado_9235" data-name="Trazado 9235" d="M499.779,905.678l2.235-2.02c.984-.9,1.326-1.413,1.326-2.046a1.292,1.292,0,0,0-1.352-1.284,2.055,2.055,0,0,0-1.755,1.113l-.334-.222a2.338,2.338,0,0,1,2.132-1.284,1.68,1.68,0,0,1,1.782,1.644v.017c0,.822-.446,1.37-1.5,2.329l-1.833,1.661h3.392v.428h-4.093Z" transform="translate(-331.577 -767.996)" fill="#fff"/>
      <path id="Trazado_9236" data-name="Trazado 9236" d="M512.013,903.022V903c0-1.652.968-3.1,2.492-3.1s2.474,1.43,2.474,3.083V903c0,1.653-.967,3.1-2.492,3.1S512.013,904.675,512.013,903.022Zm4.5,0V903c0-1.395-.788-2.7-2.029-2.7s-2.012,1.284-2.012,2.68V903c0,1.388.788,2.7,2.03,2.7S516.517,904.409,516.517,903.022Z" transform="translate(-336.041 -767.986)" fill="#fff"/>
      <path id="Trazado_9237" data-name="Trazado 9237" d="M525.273,905.678l2.236-2.02c.984-.9,1.327-1.413,1.327-2.046a1.294,1.294,0,0,0-1.354-1.284,2.057,2.057,0,0,0-1.755,1.113l-.333-.222a2.338,2.338,0,0,1,2.132-1.284,1.679,1.679,0,0,1,1.781,1.644v.017c0,.822-.446,1.37-1.5,2.329l-1.832,1.661h3.391v.428h-4.094Z" transform="translate(-340.879 -767.996)" fill="#fff"/>
      <path id="Trazado_9238" data-name="Trazado 9238" d="M537.281,905.678l2.235-2.02c.985-.9,1.327-1.413,1.327-2.046a1.293,1.293,0,0,0-1.353-1.284,2.057,2.057,0,0,0-1.756,1.113l-.333-.222a2.338,2.338,0,0,1,2.132-1.284,1.679,1.679,0,0,1,1.782,1.644v.017c0,.822-.446,1.37-1.5,2.329l-1.832,1.661h3.391v.428h-4.093Z" transform="translate(-345.26 -767.996)" fill="#fff"/>
      <path id="Trazado_9239" data-name="Trazado 9239" d="M389.262,900.876h2.175c1.319,0,2.226.676,2.226,1.833v.016c0,1.258-1.087,1.91-2.338,1.91h-1.618v2.234h-.445Zm2.089,3.348c1.113,0,1.867-.582,1.867-1.472v-.018c0-.95-.737-1.447-1.815-1.447h-1.7v2.937Z" transform="translate(-291.254 -768.341)" fill="#fff"/>
      <path id="Trazado_9240" data-name="Trazado 9240" d="M402.32,900.876h4.264v.411h-3.818v2.355H406.2v.411h-3.434v2.405h3.862v.412H402.32Z" transform="translate(-296.018 -768.341)" fill="#fff"/>
      <path id="Trazado_9241" data-name="Trazado 9241" d="M415.405,900.876h2.517a2.361,2.361,0,0,1,1.687.591,1.579,1.579,0,0,1,.454,1.113v.018c0,1-.746,1.575-1.755,1.713l1.978,2.56h-.565l-1.909-2.483H415.85v2.483h-.445Zm2.466,3.108c1,0,1.747-.505,1.747-1.37V902.6c0-.805-.634-1.31-1.721-1.31H415.85v2.7Z" transform="translate(-300.792 -768.341)" fill="#fff"/>
      <path id="Trazado_9242" data-name="Trazado 9242" d="M429.057,903.5V900h.445v3.459a1.954,1.954,0,0,0,2.03,2.227,1.9,1.9,0,0,0,1.995-2.184V900h.445v3.45a2.462,2.462,0,1,1-4.915.051Zm3.074-5.026.5.24-.916.771h-.385Z" transform="translate(-305.773 -767.465)" fill="#fff"/>
      <path id="Unin_1" data-name="Unin 1" d="M-309.1-1494.055l-1.453,11.025a2.1,2.1,0,0,1-1.981,1.939h-3.4l3.362-23.95,2.782.276a3.461,3.461,0,0,1,2.879,2.311l3.406,10.848,3.192-9.724a3.132,3.132,0,0,1,2.894-2.284h2.952l3.364,22.523h-3.614a1.841,1.841,0,0,1-1.733-1.7l-1.484-11.267-5.364,15.451Zm-37.913,13.69a8.433,8.433,0,0,1-4.251-1.334,10.572,10.572,0,0,1-3.214-3.3,16.053,16.053,0,0,1-1.979-4.809,20.634,20.634,0,0,1-.523-5.861,20.594,20.594,0,0,1,1.06-5.789,16.045,16.045,0,0,1,2.413-4.607,10.6,10.6,0,0,1,3.5-2.99,8.425,8.425,0,0,1,4.356-.936,8.447,8.447,0,0,1,4.238,1.332,10.651,10.651,0,0,1,3.239,3.3,14.347,14.347,0,0,1,1.268,2.52c.215.55,1.165,2.5-.085,2.714l-4.756.457c-.076-.132-.431-.757-.513-.883a5.754,5.754,0,0,0-1.663-1.7,4.059,4.059,0,0,0-2.055-.673,4.054,4.054,0,0,0-2.108.482,5.6,5.6,0,0,0-1.8,1.539,8.544,8.544,0,0,0-1.288,2.4,10.456,10.456,0,0,0-.577,3.069,10.513,10.513,0,0,0,.292,3.109,8.547,8.547,0,0,0,1.062,2.511,5.6,5.6,0,0,0,1.649,1.7,4.048,4.048,0,0,0,2.055.673,4.052,4.052,0,0,0,2.109-.482,5.736,5.736,0,0,0,1.811-1.538c.136-.17.387-.536.387-.536l4.583,1.365a1.033,1.033,0,0,1,.41,1.391,14.641,14.641,0,0,1-1.753,2.944,10.643,10.643,0,0,1-3.528,2.989,8.4,8.4,0,0,1-3.916.948Q-346.792-1480.355-347.008-1480.365Zm109.18-2.39,1.19-2.323a1.959,1.959,0,0,1,2.758-.815,6.933,6.933,0,0,0,.655.343,5.445,5.445,0,0,0,2.288.531,2.662,2.662,0,0,0,1.925-.615,1.9,1.9,0,0,0,.634-1.4,1.941,1.941,0,0,0-.162-.824,1.778,1.778,0,0,0-.538-.643,4.278,4.278,0,0,0-.983-.545q-.606-.251-1.467-.559-1.023-.336-2.006-.741a6.3,6.3,0,0,1-1.75-1.076,4.983,4.983,0,0,1-1.238-1.691,6.178,6.178,0,0,1-.471-2.585,7.707,7.707,0,0,1,.5-2.838,6.324,6.324,0,0,1,1.4-2.18,6.2,6.2,0,0,1,2.207-1.411,8.079,8.079,0,0,1,2.921-.5,12.354,12.354,0,0,1,3.151.434,13.6,13.6,0,0,1,3.149,1.271l-1.082,2.206a2.1,2.1,0,0,1-2.723,1l-.017-.007a4.447,4.447,0,0,0-1.669-.349,2.633,2.633,0,0,0-1.669.5,1.586,1.586,0,0,0-.646,1.314,1.34,1.34,0,0,0,.323.922,2.809,2.809,0,0,0,.848.627,6.924,6.924,0,0,0,1.184.462c.439.13.876.27,1.306.419a8.116,8.116,0,0,1,3.783,2.389,6.047,6.047,0,0,1,1.2,3.9,7.857,7.857,0,0,1-.525,2.934,6.126,6.126,0,0,1-1.535,2.25,6.99,6.99,0,0,1-2.477,1.453,9.939,9.939,0,0,1-3.325.518A11.928,11.928,0,0,1-237.828-1482.755Zm70.107,2.375a8.61,8.61,0,0,1-4.2-1.031,9.514,9.514,0,0,1-3.191-2.855,13.343,13.343,0,0,1-1.984-4.273,17.032,17.032,0,0,1-.554-5.287,17.636,17.636,0,0,1,1.008-5.286,14.791,14.791,0,0,1,2.351-4.272,10.787,10.787,0,0,1,3.437-2.854,9.133,9.133,0,0,1,4.291-1.03,8.65,8.65,0,0,1,4.191,1.031,9.6,9.6,0,0,1,3.217,2.855,12.064,12.064,0,0,1,1.268,2.229.957.957,0,0,1-.467,1.269l-4.569,1.373c-.076-.118-.149-.236-.231-.346a5.158,5.158,0,0,0-1.651-1.47,4.135,4.135,0,0,0-2.031-.524,4.385,4.385,0,0,0-2.077.524,5.705,5.705,0,0,0-1.764,1.469,7.888,7.888,0,0,0-1.256,2.229,9,9,0,0,0-.549,2.8,8.661,8.661,0,0,0,.309,2.8,7.1,7.1,0,0,0,1.064,2.23,5.034,5.034,0,0,0,1.639,1.469,4.132,4.132,0,0,0,2.031.525,4.377,4.377,0,0,0,2.077-.525,5.851,5.851,0,0,0,1.777-1.469c.132-.159.378-.5.378-.5l4.531,1.047a.876.876,0,0,1,.414,1.241,13.781,13.781,0,0,1-1.711,2.74,10.863,10.863,0,0,1-3.462,2.853,9.145,9.145,0,0,1-4.273,1.03Zm-85.549-.837a9.863,9.863,0,0,1-3.316-2.32,10.825,10.825,0,0,1-2.17-3.474,11.654,11.654,0,0,1-.781-4.3,11.649,11.649,0,0,1,.781-4.3,10.805,10.805,0,0,1,2.17-3.474,9.849,9.849,0,0,1,3.316-2.321,10.581,10.581,0,0,1,4.251-.837,10.612,10.612,0,0,1,4.237.837,9.961,9.961,0,0,1,3.342,2.321,10.681,10.681,0,0,1,2.182,3.474,11.65,11.65,0,0,1,.782,4.3,11.654,11.654,0,0,1-.782,4.3,10.7,10.7,0,0,1-2.182,3.474,9.975,9.975,0,0,1-3.342,2.32,10.6,10.6,0,0,1-4.237.837A10.566,10.566,0,0,1-253.269-1481.216Zm2.2-15.377a5.236,5.236,0,0,0-1.7,1.194,5.8,5.8,0,0,0-1.16,1.813,5.949,5.949,0,0,0-.428,2.279,5.943,5.943,0,0,0,.428,2.279,5.783,5.783,0,0,0,1.16,1.813,5.206,5.206,0,0,0,1.7,1.194,5.052,5.052,0,0,0,2.056.427,5.061,5.061,0,0,0,2.056-.427,5.351,5.351,0,0,0,1.715-1.194,5.7,5.7,0,0,0,1.173-1.812,5.943,5.943,0,0,0,.428-2.279,5.949,5.949,0,0,0-.428-2.279,5.724,5.724,0,0,0-1.173-1.813,5.382,5.382,0,0,0-1.715-1.194,5.075,5.075,0,0,0-2.056-.425A5.066,5.066,0,0,0-251.074-1496.594Zm31.814,15.564.026-1.984c.025-2.471,1.589-4.159,3.607-4.133h.02c2.019.026,3.569,1.753,3.544,4.224l-.026,1.985Zm.518-1.978-.02,1.4,6.188.081.021-1.4c.022-2.191-1.327-3.591-3.038-3.613h-.061C-217.336-1486.54-218.72-1485.181-218.742-1483.008Zm-46.874,2.03a3.14,3.14,0,0,1-2.526-1.317l-6.98-10.025v11.342h-3.02a2.279,2.279,0,0,1-2.2-2.354v-19.333l3.732.244a3.076,3.076,0,0,1,2.291,1.194l7.136,10.851v-1.263l.014-10.41,3.436.093a1.894,1.894,0,0,1,1.739,1.908v19.07Zm124.624,0a2.127,2.127,0,0,1-1.885-1.787l-1.105-3.927-6.857.293,2.307-4.6a1.409,1.409,0,0,1,1.312-.965l2.036-.134-2.353-8.417-4.564,17.409a2.542,2.542,0,0,1-2.254,2.128h-4.091l8.088-27.822,5.62-.884,8.109,28.705Zm-42.3,0a3.1,3.1,0,0,1-2.534-1.4l-8.7-12.64v14.044h-3.03a2.373,2.373,0,0,1-2.2-2.513v-19.923l3.812-.535a2.843,2.843,0,0,1,2.332,1.255l8.754,12.416v-14.369l3.461-.348a1.881,1.881,0,0,1,1.746,1.992v22.027Zm-22.852,0a2.15,2.15,0,0,1-2.033-2.251v-11.492l3.73-4.559-3.73,1.189v-4.815l3.308-.247a1.947,1.947,0,0,1,1.841,2.038v20.137Zm-80.625,0a2.149,2.149,0,0,1-2.033-2.248v-11.652l3.731-4.383-3.731,1.016v-4.81l3.309.171a2,2,0,0,1,1.841,2.036v19.87Zm-34.216,0a2.026,2.026,0,0,1-1.832-1.642l-.828-3.026-6.955-.307,2.218-4a1.248,1.248,0,0,1,1.287-.836l2.135.1-2.389-8.239-4.438,15.987a2.424,2.424,0,0,1-2.191,1.954h-3.978l7.7-26.11,5.789.756,7.723,25.354Zm101.81-8.2.056-5.6.491.006-.05,5.01,2.818.037.045-4.505.491.006-.045,4.505,2.879.038.05-5.067.492.006-.057,5.651Zm.075-8.16.006-.584,6.68.086.046-4.617.492.006-.052,5.2Z" transform="translate(397.375 1597.683)" fill="#fff" stroke="rgba(0,0,0,0)" stroke-miterlimit="10" stroke-width="1"/>
      <path id="Trazado_9257" data-name="Trazado 9257" d="M340.044,819.875l2.193.339a2.254,2.254,0,0,1,1.51.793,1.951,1.951,0,0,1,.41,1.264v.015a1.362,1.362,0,0,1-.954,1.436l1.105,1.968-1.484-.228-.934-1.707-.563-.086v1.562l-1.285-.2Zm2.132,2.8c.437.068.689-.129.689-.505v-.015a.714.714,0,0,0-.7-.719l-.842-.129v1.237Z" transform="translate(-273.295 -738.787)" fill="#fff"/>
      <path id="Trazado_9258" data-name="Trazado 9258" d="M351.411,821.9l1.239.185,1.971,5.32-1.378-.206-.337-.941-1.789-.267-.332.841-1.351-.2Zm1.125,3.226-.516-1.5-.524,1.339Z" transform="translate(-276.723 -739.527)" fill="#fff"/>
      <path id="Trazado_9259" data-name="Trazado 9259" d="M360.929,823.353l1.285.187v3.689l2.246.327v1.183l-3.531-.515Z" transform="translate(-280.916 -740.056)" fill="#fff"/>
      <path id="Trazado_9260" data-name="Trazado 9260" d="M369.967,824.854l1.285.182v3.595l2.246.32V830.1l-3.53-.5Z" transform="translate(-284.214 -740.603)" fill="#fff"/>
      <path id="Trazado_9261" data-name="Trazado 9261" d="M378.743,829.072l-1.761-3.221,1.465.208.953,1.865.961-1.593,1.437.2-1.762,2.7v1.8l-1.292-.184Z" transform="translate(-286.773 -740.967)" fill="#fff"/>
      <path id="Trazado_9262" data-name="Trazado 9262" d="M469.7,890.64h1.356v.131h-1.214v.749h1.092v.131h-1.092v.765h1.228v.131H469.7Z" transform="translate(-320.604 -764.606)" fill="#fff"/>
      <path id="Trazado_9263" data-name="Trazado 9263" d="M472.739,890.64h.634a.951.951,0,0,1,1.013.948v.005a.954.954,0,0,1-1.013.953h-.634Zm.634,1.775a.809.809,0,0,0,.866-.817v-.006a.815.815,0,0,0-.866-.822h-.493v1.644Z" transform="translate(-321.711 -764.606)" fill="#fff"/>
      <path id="Trazado_9264" data-name="Trazado 9264" d="M476.286,890.64h.142v1.906h-.142Z" transform="translate(-323.005 -764.606)" fill="#fff"/>
      <path id="Trazado_9265" data-name="Trazado 9265" d="M477.458,891.58v-.006a.959.959,0,0,1,.953-.986,1.007,1.007,0,0,1,.741.306l-.1.1a.873.873,0,0,0-.642-.281.815.815,0,0,0-.8.852v.005a.822.822,0,0,0,.806.858.87.87,0,0,0,.656-.3l.1.092a1.006,1.006,0,0,1-.758.333A.948.948,0,0,1,477.458,891.58Z" transform="translate(-323.433 -764.587)" fill="#fff"/>
      <path id="Trazado_9266" data-name="Trazado 9266" d="M480.95,890.64h.142v1.906h-.142Z" transform="translate(-324.707 -764.606)" fill="#fff"/>
      <path id="Trazado_9267" data-name="Trazado 9267" d="M482.122,891.3v-.006a.959.959,0,1,1,1.917-.005v.005a.959.959,0,1,1-1.917.006Zm1.77,0v-.006a.825.825,0,0,0-.814-.858.816.816,0,0,0-.809.853v.005a.824.824,0,0,0,.814.858A.815.815,0,0,0,483.892,891.3Zm-.615-1.484.161.076-.292.245h-.123Z" transform="translate(-325.135 -764.304)" fill="#fff"/>
      <path id="Trazado_9268" data-name="Trazado 9268" d="M486.064,890.64h.133l1.315,1.658V890.64h.137v1.906h-.107l-1.343-1.694v1.694h-.135Z" transform="translate(-326.573 -764.606)" fill="#fff"/>
      <path id="Trazado_9269" data-name="Trazado 9269" d="M456.938,909.142a5.143,5.143,0,0,0,5.137-5.132h0v0a6.129,6.129,0,0,1,12.254-.219h1.126a7.255,7.255,0,0,0-14.507.219v0h0a4.008,4.008,0,0,1-7.986.5h-1.136A5.143,5.143,0,0,0,456.938,909.142Z" transform="translate(-314.081 -766.834)" fill="#fff"/>
      <path id="Trazado_9270" data-name="Trazado 9270" d="M462.977,905.229v0a4.008,4.008,0,0,1,8.01-.219h1.127a5.134,5.134,0,0,0-10.263.219v0h0a6.13,6.13,0,0,1-12.239.5h-1.126a7.254,7.254,0,0,0,14.492-.5Z" transform="translate(-312.862 -768.053)" fill="#fff"/>
      <path id="Trazado_9271" data-name="Trazado 9271" d="M450.7,897.459h5.61a4,4,0,0,1,3.491,2.071.024.024,0,0,0,.046-.006,7.927,7.927,0,0,1,1.616-3.1.027.027,0,0,0,0-.036,7.218,7.218,0,0,0-5.141-2.173H453.6a.173.173,0,0,1-.167-.219l.331-1.192a.174.174,0,0,1,.166-.127H461.5a.267.267,0,0,0,.267-.267v-2.217a.267.267,0,0,0-.267-.267h-9.409a.267.267,0,0,0-.257.194l-1.823,6.423A.722.722,0,0,0,450.7,897.459Z" transform="translate(-313.407 -764.344)" fill="#fff"/>
      <path id="Trazado_9272" data-name="Trazado 9272" d="M478.68,908.977a4,4,0,0,1-7.541,1.237,7.913,7.913,0,0,1-1.592,3.285,7.229,7.229,0,0,0,12.388-4.522Z" transform="translate(-320.547 -771.296)" fill="#fff"/>
    </g>
  </g>
</svg>
