<svg id="Grupo_16179" data-name="Grupo 16179" xmlns="http://www.w3.org/2000/svg" xmlns:xlink="http://www.w3.org/1999/xlink" width="167.167" height="74.396" viewBox="0 0 167.167 74.396">
  <defs>
    <clipPath id="clip-path">
      <rect id="Rectángulo_11202" data-name="Rectángulo 11202" width="167.167" height="74.396" fill="#a2a2a2"/>
    </clipPath>
  </defs>
  <g id="Grupo_16178" data-name="Grupo 16178" clip-path="url(#clip-path)">
    <path id="Trazado_16833" data-name="Trazado 16833" d="M17.911,148.332c-.984.04-.985.069-.993,1.064a14.161,14.161,0,0,1-.169,1.7c-.178,1.367-.375,2.731-.553,4.1q-.273,2.09-.521,4.183a7.593,7.593,0,0,0,0,.8c.768-.078,1.473-.13,2.171-.225,1.1-.15,2.2-.322,3.3-.5.618-.1,1.23-.235,1.849-.326.966-.141,1.935-.255,2.9-.383,1.163-.154,2.325-.315,3.489-.466.657-.085,1.317-.144,1.973-.234.877-.121,1.75-.273,2.627-.388.583-.077,1.172-.113,1.964-.186-.742,1.118-1.32,2.07-1.98,2.961-.917,1.239-1.852,2.47-2.86,3.635a30.891,30.891,0,0,1-2.532,2.523c-.793.726-1.683,1.347-2.465,2.083a4.136,4.136,0,0,1-2.436.946c-1.334.189-2.668.374-4.006.534-1.569.188-3.145.328-4.712.528-.881.112-1.75.311-2.627.452-.6.1-1.2.153-1.8.238-1.109.157-2.214.356-3.328.473a15.148,15.148,0,0,1-3.286.18,4.3,4.3,0,0,1-2.972-1.792,5.337,5.337,0,0,1-.923-3.706c.134-1.982.492-3.932.726-5.9.13-1.091.116-2.2.217-3.293.095-1.027.249-2.048.39-3.07.1-.707.226-1.41.326-2.117.119-.844.233-1.69.329-2.537.074-.653.1-1.311.177-1.963.083-.707.2-1.409.3-2.115.086-.623.186-1.246.241-1.873.124-1.408.192-2.822.342-4.227.125-1.169.341-2.327.5-3.492.076-.54.126-1.084.182-1.627.12-1.167.213-2.337.362-3.5.135-1.048.356-2.085.492-3.133.1-.8.167-1.606.191-2.411a9.115,9.115,0,0,1,2.595-6.242,8.2,8.2,0,0,1,3.845-2.26,21.359,21.359,0,0,1,2.983-.407c1.488-.177,2.977-.345,4.466-.512,1.115-.125,2.233-.227,3.346-.369,1.077-.137,2.148-.32,3.224-.469.654-.091,1.313-.149,1.968-.234,1.026-.133,2.05-.278,3.075-.416a13.884,13.884,0,0,1,1.963-.247,33.106,33.106,0,0,0,4.783-.586c1.213-.165,2.412-.44,3.617-.663,1.043-.193,2.088-.378,3.131-.573.474-.089.945-.2,1.419-.29a.411.411,0,0,1,.512.449,14.739,14.739,0,0,1-2.71,7.915,9.424,9.424,0,0,1-5.651,3.492,18.877,18.877,0,0,1-1.886.241l-.229.04a48.194,48.194,0,0,0-4.882.6c-1.207.253-2.465.253-3.7.393-.768.087-1.528.242-2.295.336-1.256.153-2.514.281-3.772.42l-.24.025-.463.021-.218.045c-.1.66-.23,1.317-.311,1.979-.172,1.4-.32,2.8-.48,4.2-.006.056-.051.107-.057.163q-.185,1.8-.364,3.61c-.08.8-.161,1.591-.25,2.478.755-.062,1.4-.1,2.041-.169,1.03-.1,2.062-.2,3.085-.345,1.241-.18,2.474-.418,3.712-.619.593-.1,1.192-.151,1.785-.249,1.128-.186,2.254-.391,3.381-.587.9-.156,1.8-.306,2.691-.471.28-.052.554-.139.829-.216.639-.179.757-.1.766.577a11.179,11.179,0,0,1-.784,3.905,15.2,15.2,0,0,1-1.094,2.434,8.786,8.786,0,0,1-6.65,4.337c-1.477.234-2.974.341-4.457.542-.964.131-1.915.351-2.878.486-.829.117-1.667.17-2.5.252l-.236.036" transform="translate(0 -102.18)" fill="#a2a2a2"/>
    <path id="Trazado_16834" data-name="Trazado 16834" d="M245.6,262.042c.4-.07.71-.057.889.432.515,1.4,1.085,2.776,1.626,4.164.091.233.149.48.274.887a6.135,6.135,0,0,0,.61-.674c.962-1.49,1.908-2.991,2.863-4.486a2.982,2.982,0,0,0,.311-.42,2.309,2.309,0,0,1,2.2-1.477c1.2-.09,2.4-.244,3.6-.373.515-.055,1.03-.109,1.543-.178,1.7-.229,3.4-.458,5.1-.7.867-.124,1.731-.274,2.767-.44-.182.33-.252.482-.344.619-1.579,2.344-3.168,4.68-4.739,7.029-.89,1.331-1.74,2.69-2.63,4.021-1.895,2.834-3.774,5.679-5.729,8.472a1.976,1.976,0,0,0-.162,2.07c.646,1.631,1.311,3.255,1.966,4.882q.669,1.663,1.331,3.33c.322.816.623,1.64.955,2.452.365.894.769,1.773,1.128,2.669.233.582.4,1.191.629,1.775.207.532.456,1.048.738,1.688l-14.474,1.923-2.218-5.524c-.206.248-.363.406-.483.587-1.287,1.942-2.562,3.893-3.854,5.832a22.778,22.778,0,0,1-3.515,3.978,23.367,23.367,0,0,1-4.427,3.258,19.141,19.141,0,0,1-6.458,2.381,38.25,38.25,0,0,1-8.012.139,6.543,6.543,0,0,1-3.069-1.075,2.221,2.221,0,0,1-.988-1.674,16.569,16.569,0,0,0,4.764-1.255,14.294,14.294,0,0,0,1.628-.835,35.472,35.472,0,0,0,8.985-8.233,41.633,41.633,0,0,0,3.281-4.729c.134-.224.317-.417.464-.634q2.617-3.871,5.227-7.746c.415-.617.788-1.263,1.214-1.872a.965.965,0,0,0,.1-.977c-.528-1.354-1.073-2.7-1.6-4.056-.577-1.494-1.124-3-1.709-4.489-.367-.933-.8-1.839-1.165-2.774a12.2,12.2,0,0,1-.746-1.886,11.617,11.617,0,0,0-.809-2.053c-.29-.678-.6-1.348-.95-2.134,4.606-.616,9.121-1.376,13.676-1.866Z" transform="translate(-194.364 -236.105)" fill="#a2a2a2"/>
    <path id="Trazado_16835" data-name="Trazado 16835" d="M1109.623,217.543a23.691,23.691,0,0,0,4.162-.947,11.506,11.506,0,0,0,3.714-1.82.977.977,0,0,1,1.038-.128,17.908,17.908,0,0,1-.206,1.949,14.863,14.863,0,0,1-.756,2.725,9.9,9.9,0,0,1-1.338,2.138,10.791,10.791,0,0,1-5.006,3.469,31.084,31.084,0,0,1-4.826,1.225,23.309,23.309,0,0,1-7.106.11,13.658,13.658,0,0,1-3.914-1.149,14.755,14.755,0,0,1-3.749-2.329,12.71,12.71,0,0,1-2.548-3.082,19.023,19.023,0,0,1-1.679-3.865,5.7,5.7,0,0,1-.194-1.446,24.161,24.161,0,0,1,.12-6.264.673.673,0,0,0,.018-.174,12.657,12.657,0,0,1,.558-3.227,7.171,7.171,0,0,1,.373-1.317c.48-1.209.922-2.441,1.5-3.6a23.3,23.3,0,0,1,6.828-8.3,20.853,20.853,0,0,1,5.061-2.895,19.01,19.01,0,0,1,5.025-1.411c.824-.076,1.64-.246,2.462-.35a13.4,13.4,0,0,1,6.5.945,8.14,8.14,0,0,1,4.333,3.6,12.494,12.494,0,0,1,1.565,4.542,16.942,16.942,0,0,1-.178,5.527c-.132.7-.262,1.4-.41,2.19l-22.19,5.624a7.565,7.565,0,0,0,.374,2.409,7.35,7.35,0,0,0,2.566,4.221,7.158,7.158,0,0,0,3.537,1.607,13.068,13.068,0,0,0,4.154.05l.207-.026m-2.8-23.458-.206.013a8,8,0,0,0-3.136.885,8.173,8.173,0,0,0-3.2,3.985,14.671,14.671,0,0,0-.541,1.539c-.183.611-.327,1.233-.55,2.086,3.8-1.109,7.45-2.025,11.073-3a6.639,6.639,0,0,0-.671-4.18,2.354,2.354,0,0,0-1.072-.964,7.9,7.9,0,0,0-1.693-.362" transform="translate(-991.822 -170.406)" fill="#a2a2a2"/>
    <path id="Trazado_16836" data-name="Trazado 16836" d="M784.983,261.489a9.239,9.239,0,0,1-.221,1.355,12.273,12.273,0,0,1-.853,2.256,11.559,11.559,0,0,1-2.089,2.876,13.013,13.013,0,0,1-5.684,3.042,18.752,18.752,0,0,1-5.83.634,14.719,14.719,0,0,1-5.681-1.5,10.832,10.832,0,0,1-3.35-2.537,10.965,10.965,0,0,1-2.65-4.462c-.309-1.088-.7-2.16-.908-3.266a16.168,16.168,0,0,1-.184-2.865c-.008-1.252,0-2.511.111-3.756a18.872,18.872,0,0,1,.545-2.561,12.855,12.855,0,0,0,.43-1.661,8.526,8.526,0,0,1,.989-2.992,19.524,19.524,0,0,1,2.758-4.593c.842-.921,1.577-1.947,2.477-2.8a17.677,17.677,0,0,1,4.438-3.2,43.67,43.67,0,0,1,4.052-1.826,24.838,24.838,0,0,1,3.9-1.021c1.18-.221,2.4-.2,3.588-.4a33.039,33.039,0,0,1,5.654-.334h.956c-.81,3.237-1.4,6.442-2.338,9.643a13.021,13.021,0,0,1-1.427-.2,8.316,8.316,0,0,0-3.707-.014c-.616.124-1.263.128-1.86.308a9.4,9.4,0,0,0-5.657,4.362,13.075,13.075,0,0,0-1.637,4.261,30.732,30.732,0,0,0-.26,3.9c-.021.435.063.875.04,1.31a7.032,7.032,0,0,0,1.457,4.163,6.812,6.812,0,0,0,1.2,1.372,6.382,6.382,0,0,0,4.561,1.489,11.25,11.25,0,0,0,4.132-.917,14.7,14.7,0,0,0,2.061-1.3c.251-.158.523-.282.939-.5.024.635.041,1.088.058,1.54l-.015.2" transform="translate(-691.157 -211.555)" fill="#a2a2a2"/>
    <path id="Trazado_16837" data-name="Trazado 16837" d="M1671.678.875c.8-.123,1.553-.244,2.31-.356.423-.063.848-.115,1.272-.166,1-.12,1.99-.294,2.99-.343a4.624,4.624,0,0,1,4.267,1.8,6.489,6.489,0,0,1,.861,2.5,14.093,14.093,0,0,1-.052,4.752q-.194,2.061-.446,4.117c-.161,1.311-.368,2.617-.537,3.928-.136,1.053-.239,2.111-.37,3.165-.225,1.821-.472,3.639-.687,5.461-.091.776-.1,1.561-.19,2.337-.153,1.316-.351,2.626-.508,3.941-.126,1.05-.213,2.105-.329,3.157-.057.512-.151,1.02-.21,1.532q-.277,2.4-.539,4.8c-.184,1.7-.379,3.4-.52,5.1a5.7,5.7,0,0,0,.153,1.461c.1.537.043.689-.477.808a34.354,34.354,0,0,1-3.926.84,18.233,18.233,0,0,1-3.652-.071,3.761,3.761,0,0,1-2.715-1.977,7.332,7.332,0,0,1-1.168-4.858c.091-.977.124-1.96.239-2.934.137-1.161.35-2.313.5-3.472.093-.71.11-1.43.2-2.141.111-.9.258-1.805.393-2.707.086-.57.2-1.137.263-1.709.143-1.319.249-2.641.395-3.96.154-1.395.346-2.785.5-4.179.084-.747.11-1.5.2-2.245.086-.7.24-1.4.336-2.1.14-1.024.254-2.052.382-3.077.109-.876.225-1.75.332-2.626a11.5,11.5,0,0,0,.179-1.7,32.063,32.063,0,0,1,.549-4.964,9.375,9.375,0,0,0-.027-3.721,1.594,1.594,0,0,1,.029-.389" transform="translate(-1521.094 -0.001)" fill="#a2a2a2"/>
    <path id="Trazado_16838" data-name="Trazado 16838" d="M1494.062,74.566a3.734,3.734,0,0,1-2.751-1.814,7.048,7.048,0,0,1-1.275-3.72,10.986,10.986,0,0,1,.172-3.108,11.317,11.317,0,0,0,.18-1.618c.083-.652.192-1.3.282-1.952.04-.288.058-.579.094-.867.1-.846.215-1.692.32-2.538.11-.882.273-1.762.311-2.647a33.357,33.357,0,0,1,.4-3.937c.183-1.125.211-2.275.353-3.408.125-1,.326-1.982.467-2.976.1-.683.151-1.372.22-2.059.12-1.2.219-2.4.359-3.6.159-1.359.364-2.712.525-4.071.084-.71.092-1.429.179-2.139.09-.732.253-1.454.35-2.185.137-1.024.261-2.05.356-3.079.053-.577.036-1.16.05-1.741l-.036-.381-.231-1c1.311-.137,2.51-.246,3.705-.391.968-.117,1.927-.317,2.9-.407a4.344,4.344,0,0,1,4.178,1.63,6.2,6.2,0,0,1,1.142,3.206,8.342,8.342,0,0,1-.127,3.025,11.046,11.046,0,0,0-.17,1.968,13.944,13.944,0,0,1-.224,1.7,21.96,21.96,0,0,0-.323,3.253c-.1,1.347-.322,2.684-.483,4.026-.13,1.082-.238,2.167-.377,3.248-.165,1.287-.36,2.569-.526,3.856-.085.659-.074,1.336-.215,1.981-.395,1.8-.213,3.671-.66,5.473a16.9,16.9,0,0,0-.208,2.243c-.167,1.543-.338,3.085-.532,4.624-.21,1.658-.459,3.311-.668,4.969a10.372,10.372,0,0,0-.121,1.914,7.479,7.479,0,0,0,.4,1.476,4.462,4.462,0,0,1-.492.2,23.449,23.449,0,0,1-5.774.978,13.584,13.584,0,0,1-1.566-.118l-.182-.019" transform="translate(-1359.459 -22.713)" fill="#a2a2a2"/>
    <path id="Trazado_16839" data-name="Trazado 16839" d="M1850.234,492.353a2.567,2.567,0,0,1,.785-2.609,2.689,2.689,0,0,1,3.156-.155,2.48,2.48,0,0,1,.673,3.343,2.574,2.574,0,0,1-2.114,1.327,2.5,2.5,0,0,1-2.014-1.028,4.455,4.455,0,0,1-.387-.674l-.1-.2m2.368,1.4a2.1,2.1,0,1,0,.022-4.208,2.326,2.326,0,0,0-2.1,2.033,2.379,2.379,0,0,0,2.078,2.175" transform="translate(-1688.063 -446.291)" fill="#a2a2a2"/>
    <path id="Trazado_16840" data-name="Trazado 16840" d="M1542.6,45.813l.036.381-.036-.381" transform="translate(-1407.443 -41.799)" fill="#a2a2a2"/>
    <path id="Trazado_16841" data-name="Trazado 16841" d="M1342.328,537.985l-.207.026.207-.026" transform="translate(-1224.528 -490.848)" fill="#a2a2a2"/>
    <path id="Trazado_16842" data-name="Trazado 16842" d="M1070.854,567.877q.008-.1.015-.2-.007.1-.015.2" transform="translate(-977.029 -517.943)" fill="#a2a2a2"/>
    <path id="Trazado_16843" data-name="Trazado 16843" d="M1536.26,591.815l.182.019-.182-.019" transform="translate(-1401.657 -539.962)" fill="#a2a2a2"/>
    <path id="Trazado_16844" data-name="Trazado 16844" d="M1850.9,525.726l.1.2-.1-.2" transform="translate(-1688.724 -479.663)" fill="#a2a2a2"/>
    <path id="Trazado_16845" data-name="Trazado 16845" d="M204.421,526.37l.236-.036-.236.036" transform="translate(-186.51 -480.218)" fill="#a2a2a2"/>
    <path id="Trazado_16846" data-name="Trazado 16846" d="M582.611,296.034l-.207.031.207-.031" transform="translate(-531.375 -270.096)" fill="#a2a2a2"/>
    <path id="Trazado_16847" data-name="Trazado 16847" d="M232.412,270.658l.24-.025-.24.025" transform="translate(-212.049 -246.921)" fill="#a2a2a2"/>
    <path id="Trazado_16848" data-name="Trazado 16848" d="M224.648,271.2l.218-.045-.218.045" transform="translate(-204.965 -247.4)" fill="#a2a2a2"/>
    <path id="Trazado_16849" data-name="Trazado 16849" d="M402.316,250.233l.229-.04-.229.04" transform="translate(-367.066 -228.272)" fill="#a2a2a2"/>
    <path id="Trazado_16850" data-name="Trazado 16850" d="M1310.393,270.258l-.206.013.206-.013" transform="translate(-1195.392 -246.579)" fill="#a2a2a2"/>
    <path id="Trazado_16851" data-name="Trazado 16851" d="M1868.984,503.13l.8,1.086c-.87.144-.8-1.085-1.554-.965-.355.281.218.9-.515,1.129a22.018,22.018,0,0,1-.131-2.828,2.891,2.891,0,0,1,2,.137c-.075.537.26,1.177-.594,1.442m-.978-.429c.475-.062.964.186,1.187-.355.049-.12-.1-.457-.2-.477a5.089,5.089,0,0,0-.989-.023Z" transform="translate(-1703.949 -457.505)" fill="#a2a2a2"/>
    <path id="Trazado_16852" data-name="Trazado 16852" d="M570.1,40.685a79.223,79.223,0,0,0-10.027,1.763c-2.122.529-4.18,1.217-6.243,1.923a52.347,52.347,0,0,0-10.723,5.2c-.91.567-1.775,1.208-2.815,1.92a2.685,2.685,0,0,1,.18-.514,29.461,29.461,0,0,1,6.588-6.706,41.306,41.306,0,0,1,5.363-3.434A56.132,56.132,0,0,1,562.861,36.5a63.7,63.7,0,0,1,7.081-1.82c1.539-.266,3.1-.433,4.645-.645l1.46-.2,1.771-.145a.5.5,0,0,0,.161-.013l1.919-.018,3.179,0h1.573c2.067.256,4.138.447,6.193.833a24.518,24.518,0,0,1,6.292,2.122,6.359,6.359,0,0,1,2.578,2.421,2.627,2.627,0,0,1-.844,3.731,7.693,7.693,0,0,1-3.006,1.095l-2.994-.016a17.776,17.776,0,0,1-2.595-.612,37.423,37.423,0,0,0-7.547-2.16c-.991-.166-1.991-.277-2.986-.413l-2.472-.13-4.517.008c-.551-.007-1.1-.035-1.653-.014a8.357,8.357,0,0,0-1,.154" transform="translate(-492.952 -30.714)" fill="#a2a2a2"/>
    <path id="Trazado_16853" data-name="Trazado 16853" d="M836.3,648.949c1.764-.37,3.547-.666,5.287-1.129q3.111-.828,6.156-1.895a52.173,52.173,0,0,0,6.328-2.719,56.354,56.354,0,0,0,5.5-3.221,18.144,18.144,0,0,1,2.09-1.313,2.282,2.282,0,0,1-.17.413,27.928,27.928,0,0,1-6.4,6.651,48.022,48.022,0,0,1-8.433,5.077,44.278,44.278,0,0,1-4.884,2.06c-2.272.788-4.574,1.511-6.905,2.1-2.029.509-4.115.792-6.177,1.165a10.548,10.548,0,0,1-2.572.346l-1.758.159h0l-2.079.028-3.556.006-1.9-.026a24.978,24.978,0,0,1-2.7-.206c-1.4-.252-2.781-.6-4.158-.95a18.889,18.889,0,0,1-3.143-.969,8.009,8.009,0,0,1-3.5-2.63c-1.176-1.719-.8-3.152.932-4.311a5.143,5.143,0,0,1,2.918-.764h2.316a11.077,11.077,0,0,1,4.336.985c.853.325,1.739.565,2.617.818.465.134.946.216,1.42.321l1.076.143,2.78.386,1.423.153.507.018a2.215,2.215,0,0,0,.5.119q2.751.006,5.5-.014a1.152,1.152,0,0,0,.326-.1l.332-.025,1.6-.151,3.3-.39,1.088-.125" transform="translate(-732.319 -582.713)" fill="#a2a2a2"/>
  </g>
</svg>
