<svg xmlns="http://www.w3.org/2000/svg" xmlns:xlink="http://www.w3.org/1999/xlink" width="189.494" height="42.854" viewBox="0 0 189.494 42.854">
  <defs>
    <clipPath id="clip-path">
      <rect id="Rectángulo_54" data-name="Rectángulo 54" width="189.494" height="42.854" transform="translate(0 0)" fill="#a2a2a2"/>
    </clipPath>
    <clipPath id="clip-path-2">
      <rect id="Rectángulo_53" data-name="Rectángulo 53" width="189.159" height="42.854" transform="translate(0 0)" fill="#a2a2a2"/>
    </clipPath>
    <clipPath id="clip-path-3">
      <rect id="Rectángulo_52" data-name="Rectángulo 52" width="189.159" height="42.854" fill="#a2a2a2"/>
    </clipPath>
  </defs>
  <g id="Grupo_16184" data-name="Grupo 16184" transform="translate(0.324 -0.222)">
    <g id="Grupo_6" data-name="Grupo 6" transform="translate(-0.324 0.222)" clip-path="url(#clip-path)">
      <g id="Grupo_5" data-name="Grupo 5" transform="translate(0.335 0)">
        <g id="Grupo_4" data-name="Grupo 4" transform="translate(0 0)" clip-path="url(#clip-path-2)">
          <g id="Grupo_3" data-name="Grupo 3" transform="translate(0 0)">
            <g id="Grupo_2" data-name="Grupo 2" clip-path="url(#clip-path-3)">
              <path id="Trazado_1" data-name="Trazado 1" d="M2641.189,2a3.761,3.761,0,0,0,1.013.13,19.106,19.106,0,0,1,5.018,1.022,16.592,16.592,0,0,1,5.555,3.254,18.151,18.151,0,0,1,4.537,6.293,24.424,24.424,0,0,1,1.855,6.834,30.451,30.451,0,0,1,.2,5.4,25.653,25.653,0,0,1-1.657,8.168,18.987,18.987,0,0,1-3.591,5.907,16.5,16.5,0,0,1-6.013,4.249,18.488,18.488,0,0,1-5.783,1.353.64.64,0,0,0-.267.062h-3.242a.723.723,0,0,0-.306-.065,18.7,18.7,0,0,1-4.142-.789,16.661,16.661,0,0,1-6.693-3.906,18.858,18.858,0,0,1-4.711-7.482,27.432,27.432,0,0,1-1.459-8.681,28.961,28.961,0,0,1,.291-4.524,22.858,22.858,0,0,1,2.72-8.316,16.98,16.98,0,0,1,6.11-6.315,18.073,18.073,0,0,1,7.969-2.457,6.294,6.294,0,0,0,1.25-.136Zm-11.226,21.539c.015.514.009,1.21.069,1.907a20.715,20.715,0,0,0,.667,3.806,13.381,13.381,0,0,0,2.2,4.606,8.739,8.739,0,0,0,4.667,3.214,10.854,10.854,0,0,0,3.991.335,8.91,8.91,0,0,0,5.71-2.668,11.454,11.454,0,0,0,2.46-3.969,20.1,20.1,0,0,0,1.241-6.448,22.73,22.73,0,0,0-.312-4.917,15.561,15.561,0,0,0-2.079-5.717,8.95,8.95,0,0,0-5.01-3.948,10.519,10.519,0,0,0-5.234-.247,8.732,8.732,0,0,0-5.212,3.123,13.176,13.176,0,0,0-2.444,4.959,21.058,21.058,0,0,0-.717,5.964" transform="translate(-2518.125 -1.971)" fill="#a2a2a2"/>
              <path id="Trazado_2" data-name="Trazado 2" d="M1734.085,44.671a.949.949,0,0,0-.426-.064,21.713,21.713,0,0,1-7.43-1.542,14.91,14.91,0,0,1-4.771-3.038,12.3,12.3,0,0,1-3.593-6.541,16.124,16.124,0,0,1-.31-2.821c0-.092,0-.184,0-.276a.237.237,0,0,1,.244-.254c.105-.006.211-.008.316-.008h7.394c.452.007.493.044.505.5a6.572,6.572,0,0,0,1.355,3.928,6.474,6.474,0,0,0,1.928,1.674,10.9,10.9,0,0,0,4.43,1.335,16.659,16.659,0,0,0,2.25.061,12.3,12.3,0,0,0,4.13-.806,6.35,6.35,0,0,0,1.9-1.11,3.892,3.892,0,0,0,1.306-2.328,4.019,4.019,0,0,0-2.029-4.282,12.351,12.351,0,0,0-2.829-1.3c-1.01-.346-2.04-.625-3.074-.891-2.016-.517-4.047-.98-6.041-1.582a23.97,23.97,0,0,1-5.5-2.28,10.4,10.4,0,0,1-3.44-3.2,9.074,9.074,0,0,1-1.342-3.6,11.77,11.77,0,0,1,.363-5.311,10.348,10.348,0,0,1,2.033-3.716,13.451,13.451,0,0,1,5.161-3.684,18.8,18.8,0,0,1,5.737-1.392A3.513,3.513,0,0,0,1733.374,2h1.74a.663.663,0,0,0,.3.073c.8.063,1.6.12,2.4.23a18.569,18.569,0,0,1,6.311,1.95,12.072,12.072,0,0,1,3.9,3.224,12.207,12.207,0,0,1,2.426,7.255c.017.439-.023.471-.469.471q-3.756,0-7.512,0c-.419,0-.446-.032-.487-.439a6.861,6.861,0,0,0-.578-2.206,5.05,5.05,0,0,0-2.027-2.259,8.39,8.39,0,0,0-2.85-1.018,17.707,17.707,0,0,0-1.845-.191,9.653,9.653,0,0,0-4.64.71,4.8,4.8,0,0,0-1.513.991,3.95,3.95,0,0,0-1.173,3.038,3,3,0,0,0,1.629,2.737,13.979,13.979,0,0,0,2.7,1.122c2.339.735,4.717,1.33,7.092,1.935a47.637,47.637,0,0,1,4.755,1.334,15.356,15.356,0,0,1,4.763,2.676,9.893,9.893,0,0,1,3.506,7.254,13.049,13.049,0,0,1-.154,2.874,11.343,11.343,0,0,1-3.4,6.5,14.524,14.524,0,0,1-5.93,3.361,22.82,22.82,0,0,1-6.3.989.943.943,0,0,0-.426.062Z" transform="translate(-1649.927 -1.971)" fill="#a2a2a2"/>
              <path id="Trazado_3" data-name="Trazado 3" d="M2,33.621c.184,0,.369-.014.553-.014H31.414c.158,0,.316,0,.474.008a.233.233,0,0,1,.249.247q.007.158.007.316,0,3.042,0,6.084c0,.053,0,.105,0,.158-.013.361-.047.394-.422.4-.132,0-.264,0-.4,0h-20.2c-.677,0-.657-.038-.657.638q0,3.813,0,7.625c0,.573,0,.575.567.575H29.973c.736,0,.736,0,.736.739q0,2.864,0,5.729c0,.584,0,.585-.6.585H11.13c-.707,0-.662-.031-.662.671q0,4.287,0,8.573c0,.7-.046.676.658.676H31.448c.728,0,.7-.028.7.684q0,2.924,0,5.847c0,.066,0,.132,0,.2-.006.467-.025.49-.494.491q-4.211,0-8.421,0H2.592c-.2,0-.395-.008-.592-.013V33.621" transform="translate(-2.218 -32.328)" fill="#a2a2a2"/>
              <path id="Trazado_4" data-name="Trazado 4" d="M4577.68,28.482a2.462,2.462,0,0,0-.11.539A4.506,4.506,0,0,1,4573.4,32.3a4.438,4.438,0,0,1-4.556-3.95,4.3,4.3,0,0,1,1.682-4,4.433,4.433,0,0,1,5.4-.069,4.192,4.192,0,0,1,1.7,2.746,1.383,1.383,0,0,0,.056.188Zm-4.4-4.586a3.965,3.965,0,1,0,3.976,3.956,3.923,3.923,0,0,0-3.976-3.956" transform="translate(-4388.428 -22.527)" fill="#a2a2a2"/>
              <path id="Trazado_5" data-name="Trazado 5" d="M853.418,53.6q0-9.7,0-19.4c0-.725-.026-.7.688-.695,5.351,0,10.7-.019,16.052.017a21.258,21.258,0,0,1,8.28,1.648,14.108,14.108,0,0,1,4.045,2.581,12.075,12.075,0,0,1,3.84,7.3,15.359,15.359,0,0,1-.582,7.446,12,12,0,0,1-3.921,5.533,15.576,15.576,0,0,1-5.7,2.818,24.517,24.517,0,0,1-5.615.828c-2.688.1-5.376.021-8.063.051-.607.007-.608,0-.608.612q0,5.393,0,10.786c0,.63,0,.63-.633.631h-7.2c-.585,0-.587,0-.587-.6q0-9.779,0-19.558m13.255.861c1.27-.048,2.852.082,4.429-.083a10.121,10.121,0,0,0,3.8-1.113,5.78,5.78,0,0,0,3.052-4.143,7.782,7.782,0,0,0,.032-2.9,5.913,5.913,0,0,0-1.052-2.53,7.036,7.036,0,0,0-4.107-2.558,14.431,14.431,0,0,0-3.641-.4q-3.379,0-6.758,0c-.594,0-.595,0-.595.577q0,6.3,0,12.6c0,.079,0,.158,0,.237.018.268.057.305.338.321.105.006.211,0,.316,0h4.182" transform="translate(-819.964 -32.225)" fill="#a2a2a2"/>
              <path id="Trazado_6" data-name="Trazado 6" d="M3666.663,45.832c0,.154-.009.309,0,.462.074,1.169.1,2.34.151,3.509.053,1.276.035,2.554.094,3.829.051,1.093.045,2.185.047,3.277q.012,8.04,0,16.081c0,.677,0,.677-.666.677h-7c-.586,0-.587,0-.587-.6q0-19.518,0-39.036c0-.615,0-.616.607-.616,2.5,0,5.008.007,7.512-.008a.8.8,0,0,1,.785.45c1.5,2.528,3.009,5.045,4.514,7.567,2.058,3.45,4.124,6.895,6.163,10.356.587,1,1.11,2.035,1.634,3.068.971,1.915,1.941,3.83,2.858,5.771a2.979,2.979,0,0,0,.339.615c0-.536,0-1.016,0-1.5,0-.118-.032-.236-.031-.354.005-1.33-.077-2.658-.107-3.987-.162-7.15-.03-14.3-.074-21.451,0-.092,0-.184.008-.276a.234.234,0,0,1,.25-.246c.105,0,.21-.008.316-.008h7.117c.066,0,.132,0,.2,0,.3.016.341.054.359.346.007.118,0,.237,0,.356q0,19.419,0,38.839c0,.767.008.707-.716.707-2.464,0-4.929-.009-7.394.009a.822.822,0,0,1-.819-.457q-3.774-6.352-7.573-12.689c-.952-1.594-1.914-3.183-2.855-4.784-1.022-1.738-1.915-3.546-2.812-5.35-.668-1.344-1.353-2.681-1.985-4.043-.083-.178-.175-.352-.263-.527l-.078.006" transform="translate(-3514.313 -32.14)" fill="#a2a2a2"/>
              <path id="Trazado_7" data-name="Trazado 7" d="M4634.682,72.223c0-.723,0-1.447,0-2.17,0-.392.039-.428.432-.431.632,0,1.264-.005,1.9,0a1.791,1.791,0,0,1,1.2.44,1.555,1.555,0,0,1-.178,2.478,1.841,1.841,0,0,1-.208.114c-.145.069-.148.167-.067.287.146.218.292.438.44.655.207.3.419.606.623.913.172.261.132.329-.189.346-.727.038-.727.037-1.112-.567q-.552-.865-1.106-1.729c-.014-.022-.031-.043-.042-.066-.052-.1-.175-.2-.115-.317.072-.141.232-.09.358-.1s.264,0,.395-.01a.78.78,0,0,0,.764-.836.763.763,0,0,0-.781-.811c-.329-.014-.658-.012-.987,0-.292.008-.342.056-.346.353-.008.6,0,1.21,0,1.815s0,1.237,0,1.855c0,.369-.046.4-.409.415h-.119c-.4-.007-.433-.037-.436-.427,0-.737,0-1.473,0-2.21" transform="translate(-4451.69 -66.916)" fill="#a2a2a2"/>
            </g>
          </g>
        </g>
      </g>
    </g>
  </g>
</svg>
