<svg id="Grupo_16174" data-name="Grupo 16174" xmlns="http://www.w3.org/2000/svg" xmlns:xlink="http://www.w3.org/1999/xlink" width="175.918" height="79" viewBox="0 0 175.918 79">
  <defs>
    <clipPath id="clip-path">
      <rect id="Rect치ngulo_11201" data-name="Rect치ngulo 11201" width="175.918" height="79" fill="#a2a2a2"/>
    </clipPath>
  </defs>
  <g id="Grupo_16174-2" data-name="Grupo 16174" clip-path="url(#clip-path)">
    <path id="Trazado_16816" data-name="Trazado 16816" d="M171.505,41.8,153.247,28.322s-16.5-11.891-18.92-13.72-5.715-.749-5.715-.749-7.556,2.574-9.64,3.152-2.829.071-2.829.071c-1.964-1.506-5.66-5.838-8.6-2.742C103.272,20.067,96.694,29.1,96.694,29.1L92.14,29l11.483-16.551S107.079,6.279,113,9.828l5.827,4.332s-.474.835,10.11-3.048a6.321,6.321,0,0,1,6.086.864c3.176,2.243,17.538,12.35,17.538,12.35,3.569-2.87,5.561-6.136,5.157-9.133C156.366,5.1,130.313-.691,99.526,2.246,73.4,4.74,52.262,12.723,47.292,21.252c0,0-3.561.767-6.746,1.588C42.679,11.312,65.825,3.809,96.681.862c34.25-3.273,65.974,3.056,67.455,14.128.549,4.1-2.755,8.285-8.876,12.088l17,14.044Z" transform="translate(-14.492 0)" fill="#a2a2a2" fill-rule="evenodd"/>
    <path id="Trazado_16817" data-name="Trazado 16817" d="M94.394,19.4c.34-1.54-.582-2.488-4.472-1.445-9.937,2.663-25.844,7.317-25.844,7.317l26.065.333ZM46.079,30.524c.006.177.024.356.048.533C47.48,41.146,73.533,46.942,104.316,44c17.944-1.713,33.545-6.027,43.165-11.316l3.3,2.133c-10.47,5.674-26.145,9.459-46.084,11.362-34.249,3.272-61.878-3.347-64.194-14.149a9.914,9.914,0,0,1-.247-2.484s2.772-.77,51.837-14.074c10.844-2.94,7.813,2.61,7.813,2.61l-11,16.22-4.567-.058,4.738-7.069-31.8.069Z" transform="translate(-14.388 -5.224)" fill="#a2a2a2" fill-rule="evenodd"/>
    <path id="Trazado_16818" data-name="Trazado 16818" d="M167.6,82.064v-8.8h-3.35v10.52a5.47,5.47,0,0,0,5.471,5.471h9.23a5.47,5.47,0,0,0,5.471-5.471l0-4.786V73.235H180.8V83.927a3.555,3.555,0,0,1-3.554,3.555h-6.087a3.557,3.557,0,0,1-3.556-3.555Z" transform="translate(-58.709 -26.176)" fill="#a2a2a2" fill-rule="evenodd"/>
    <path id="Trazado_16819" data-name="Trazado 16819" d="M26.931,73.517l3.81-.012c2.538,4.161,6.728,12.448,6.728,12.448,0,.5.435,1.459.973,1.459s.968-.955.968-1.459c0,0,3.171-8.3,5.719-12.46l4.607-.011L41.051,89.1H35.616Z" transform="translate(-9.626 -26.265)" fill="#a2a2a2"/>
    <path id="Trazado_16820" data-name="Trazado 16820" d="M81.779,87.636a.621.621,0,0,1,.623.622v.222a.627.627,0,0,1-.63.625h-17s0-15.621-.006-15.621H81.536a.814.814,0,0,1,.813.815v.29a.816.816,0,0,1-.813.817H68.512v4.773H80.172a.872.872,0,0,1,.878.814v.293a.816.816,0,0,1-.815.815H68.508l.005,5.534Z" transform="translate(-23.151 -26.265)" fill="#a2a2a2" fill-rule="evenodd"/>
    <path id="Trazado_16821" data-name="Trazado 16821" d="M141.528,89.034h-3.815V75.206h-8.326a.814.814,0,0,1-.813-.815V74.1a.815.815,0,0,1,.813-.816h20.325a.816.816,0,0,1,.817.816v.292a.815.815,0,0,1-.817.815h-8.152Z" transform="translate(-45.956 -26.193)" fill="#a2a2a2" fill-rule="evenodd"/>
    <path id="Trazado_16822" data-name="Trazado 16822" d="M98.23,73.405c3.768,3.231,11.809,10.82,11.809,10.82.181.469.833,1.089,1.335.9s.265-1.192.084-1.662c0,0,.068-5.13.062-10.121l3.818-.017v15.6h-3.625S98,76.008,97.124,75.139v13.87H93.783V73.39Z" transform="translate(-33.521 -26.208)" fill="#a2a2a2"/>
    <path id="Trazado_16823" data-name="Trazado 16823" d="M22.8,89.081,14.12,73.5H8.685L0,89.114H4.138l2.428-3.967h9.709l2.291,3.933ZM12.263,75.817a23.142,23.142,0,0,0,3.484,7.9H6.838a23.119,23.119,0,0,0,3.485-7.89.972.972,0,0,1,1.941-.006" transform="translate(0 -26.271)" fill="#a2a2a2" fill-rule="evenodd"/>
    <path id="Trazado_16824" data-name="Trazado 16824" d="M203.19,75.024V81.28H209.1s5.45-.893,5.247-3.546-5.317-2.644-5.317-2.644Zm8.533,6.943,9.83,7.061H216.7l-8.532-6.44h-4.971v6.44H199.18l.017-15.762h13.111c3.675,0,6.653,1.957,6.653,4.366s-2.982,4.363-6.66,4.363c-.182,0-.4-.017-.578-.028" transform="translate(-71.193 -26.187)" fill="#a2a2a2" fill-rule="evenodd"/>
    <path id="Trazado_16825" data-name="Trazado 16825" d="M258.482,89.074,249.8,73.493h-5.435l-8.684,15.616h4.137l2.428-3.967h9.709l2.291,3.933Zm-7.129-5.367h-8.838A23.144,23.144,0,0,0,246,75.816a.974.974,0,0,1,1.944,0,22.043,22.043,0,0,0,3.408,7.891" transform="translate(-84.238 -26.269)" fill="#a2a2a2" fill-rule="evenodd"/>
    <path id="Trazado_16826" data-name="Trazado 16826" d="M126.5,116.787H124l0-9.179h-5.458a.536.536,0,0,1-.533-.537v-.191a.534.534,0,0,1,.533-.533h13.325a.534.534,0,0,1,.534.533v.191a.536.536,0,0,1-.534.537h-5.344Z" transform="translate(-42.18 -38.011)" fill="#a2a2a2" fill-rule="evenodd"/>
    <path id="Trazado_16827" data-name="Trazado 16827" d="M188.421,114.086a11.592,11.592,0,0,0,5.1,1.463,8.291,8.291,0,0,0,2.7-.4c.777-.278,1.165-.7,1.165-1.272q0-.651-.934-.987a16.4,16.4,0,0,0-2.365-.481l-2.2-.339a15.306,15.306,0,0,1-3.1-.714q-1.78-.686-1.781-1.9a2.624,2.624,0,0,1,1.672-2.314,9.821,9.821,0,0,1,4.533-.884q3.712,0,5.355,1.335c.687.564-1.883,1.1-2.27.782a8.23,8.23,0,0,0-5.682-.3c-.534.243-.8.565-.8.968q0,.657,1.059,1.054a9.309,9.309,0,0,0,1.813.414l1.826.274a20.443,20.443,0,0,1,3.992.855,2.164,2.164,0,0,1,1.613,2.041A2.773,2.773,0,0,1,198.447,116a10.254,10.254,0,0,1-5.067.979c-2.447,0-5.691-.744-6.679-1.662-1.013-.682,1.7-1.244,1.72-1.231" transform="translate(-66.652 -37.979)" fill="#a2a2a2" fill-rule="evenodd"/>
    <path id="Trazado_16828" data-name="Trazado 16828" d="M66.21,116.757l.091-9.274,6.165,9.274h2.452l5.742-9.275v9.275h2.408V106.466H78.927l-5.312,8.015-5.074-8.135-4.465.024-.047,10.386Z" transform="translate(-22.886 -38.012)" fill="#a2a2a2" fill-rule="evenodd"/>
    <path id="Trazado_16829" data-name="Trazado 16829" d="M167.1,107.581v3.981h3.765s3.465-.736,3.334-2.426-3.376-1.513-3.376-1.513ZM172.537,112l6.493,4.829h-3.1l-5.664-4.432h-3.165v4.378h-2.556l.01-10.313h8.349c2.341,0,4.238,1.243,4.238,2.777s-1.9,2.778-4.24,2.778c-.119,0-.255-.011-.369-.017" transform="translate(-58.816 -38.053)" fill="#a2a2a2" fill-rule="evenodd"/>
    <path id="Trazado_16830" data-name="Trazado 16830" d="M137.892,111.75c0-2.917,3.522-5.284,7.867-5.284s7.87,2.367,7.87,5.284-3.523,5.284-7.87,5.284-7.867-2.365-7.867-5.284m2.653,0c0-2.232,2.334-4.039,5.214-4.039s5.216,1.808,5.216,4.039-2.334,4.04-5.216,4.04-5.214-1.808-5.214-4.04" transform="translate(-49.287 -38.054)" fill="#a2a2a2" fill-rule="evenodd"/>
    <path id="Trazado_16831" data-name="Trazado 16831" d="M95.675,111.642c0-2.919,3.523-5.284,7.868-5.284s7.868,2.365,7.868,5.284-3.523,5.284-7.868,5.284-7.868-2.364-7.868-5.284m2.653,0c0-2.231,2.334-4.04,5.215-4.04s5.216,1.809,5.216,4.04-2.335,4.041-5.216,4.041-5.215-1.809-5.215-4.041" transform="translate(-34.197 -38.016)" fill="#a2a2a2" fill-rule="evenodd"/>
    <rect id="Rect치ngulo_11200" data-name="Rect치ngulo 11200" width="175.918" height="0.955" transform="translate(0 65.11)" fill="#a2a2a2"/>
  </g>
</svg>
