<svg id="Grupo_16165" data-name="Grupo 16165" xmlns="http://www.w3.org/2000/svg" xmlns:xlink="http://www.w3.org/1999/xlink" width="314.002" height="58.209" viewBox="0 0 314.002 58.209">
  <defs>
    <clipPath id="clip-path">
      <rect id="Rectángulo_11106" data-name="Rectángulo 11106" width="314.001" height="58.209" fill="#a2a2a2"/>
    </clipPath>
  </defs>
  <path id="Trazado_16778" data-name="Trazado 16778" d="M252.446,31.24h-13.5V21.852h-6.476V45.323h6.476V35.934h13.5v9.388h6.433V21.852h-6.433Z" transform="translate(-54.627 -5.135)" fill="#a2a2a2"/>
  <path id="Trazado_16779" data-name="Trazado 16779" d="M395.883,21.9V31.25h-13.5V21.9h-6.454V45.333h6.454V35.945h13.5v9.388h6.455V21.9Z" transform="translate(-88.337 -5.145)" fill="#a2a2a2"/>
  <g id="Grupo_16164" data-name="Grupo 16164">
    <g id="Grupo_16163" data-name="Grupo 16163" clip-path="url(#clip-path)">
      <path id="Trazado_16780" data-name="Trazado 16780" d="M157.061,45.323h22.59V40.629H159.7V35.934h15.287L175,31.24H159.7V26.546h19.951V21.852h-22.59a4.4,4.4,0,0,0-4.4,4.4V40.922a4.4,4.4,0,0,0,4.4,4.4" transform="translate(-35.872 -5.135)" fill="#a2a2a2"/>
      <path id="Trazado_16781" data-name="Trazado 16781" d="M119.446,31.336l-9.01-9.484h-6.862V45.323h6.484V28.646l9.388,9.883,9.388-9.883V45.323h6.425V21.852h-6.8Z" transform="translate(-24.338 -5.135)" fill="#a2a2a2"/>
      <path id="Trazado_16782" data-name="Trazado 16782" d="M202.112,21.852h-6.454v19.07a4.4,4.4,0,0,0,4.4,4.4h17.9V40.629H202.112Z" transform="translate(-45.976 -5.135)" fill="#a2a2a2"/>
      <rect id="Rectángulo_11103" data-name="Rectángulo 11103" width="7.041" height="23.471" transform="translate(242.414 16.717)" fill="#a2a2a2"/>
      <path id="Trazado_16783" data-name="Trazado 16783" d="M294.638,40.629h-13.5V21.852h-6.454V37.988a7.334,7.334,0,0,0,7.334,7.335h11.735a7.334,7.334,0,0,0,7.335-7.334V21.852h-6.455Z" transform="translate(-64.546 -5.135)" fill="#a2a2a2"/>
      <path id="Trazado_16784" data-name="Trazado 16784" d="M360.153,26.546a7.357,7.357,0,0,0-6.832-4.694H338.148a4.4,4.4,0,0,0-4.4,4.4v5.282a4.4,4.4,0,0,0,4.4,4.4H353.7v4.694H340.2a2.988,2.988,0,0,1-2.769-1.963l-3.685,1.963a7.462,7.462,0,0,0,6.845,4.694h15.159a4.4,4.4,0,0,0,4.4-4.4V35.641a4.4,4.4,0,0,0-4.4-4.4H340.2V26.546h13.5a2.956,2.956,0,0,1,2.771,1.968Z" transform="translate(-78.424 -5.135)" fill="#a2a2a2"/>
      <path id="Trazado_16785" data-name="Trazado 16785" d="M32.377,25.222l-9.01-9.484H16.5V39.209h6.484V22.532l9.388,9.883,9.388-9.883V39.209H48.19V15.738h-6.8Z" transform="translate(-3.878 -3.698)" fill="#a2a2a2"/>
      <rect id="Rectángulo_11104" data-name="Rectángulo 11104" width="31.686" height="4.694" transform="translate(12.626 40.205)" fill="#a2a2a2"/>
      <path id="Trazado_16786" data-name="Trazado 16786" d="M45.2,4.694a7.049,7.049,0,0,1,7.041,7.041V45.2A7.049,7.049,0,0,1,45.2,52.245H11.736A7.049,7.049,0,0,1,4.695,45.2V11.735a7.049,7.049,0,0,1,7.041-7.041ZM45.2,0H11.736A11.736,11.736,0,0,0,0,11.735V45.2A11.736,11.736,0,0,0,11.736,56.939H45.2A11.735,11.735,0,0,0,56.939,45.2V11.735A11.735,11.735,0,0,0,45.2,0" transform="translate(0 0)" fill="#a2a2a2"/>
      <path id="Trazado_16787" data-name="Trazado 16787" d="M158.048,69.7c-.728.028-1.6.049-2.232.049-1.629,0-3.154-.085-3.154-2.147V60.3h1.322v6.733c0,1.346.255,1.638,1.8,1.638h2.269Z" transform="translate(-35.872 -14.17)" fill="#a2a2a2"/>
      <rect id="Rectángulo_11105" data-name="Rectángulo 11105" width="1.246" height="7.202" transform="translate(123.573 48.354)" fill="#a2a2a2"/>
      <path id="Trazado_16788" data-name="Trazado 16788" d="M170.189,59.57h1.232v8.2c0,.445-.015.858-.047,1.275a6,6,0,0,1-2.762.6c-2.325,0-3.3-.885-3.3-3.7,0-2.766.91-3.7,3.081-3.7a7.622,7.622,0,0,1,1.8.234Zm-1.46,3.672c-1.966,0-2.167.954-2.167,2.708,0,1.655.295,2.718,2.049,2.718a3.928,3.928,0,0,0,1.541-.287c.024-.32.037-.724.037-1.056V63.488a5.06,5.06,0,0,0-1.46-.246" transform="translate(-38.845 -13.998)" fill="#a2a2a2"/>
      <path id="Trazado_16789" data-name="Trazado 16789" d="M175.678,66.775c0-2.611.8-3.7,3.174-3.7,2.511,0,3.122,1.319,3.122,3.368,0,.19,0,.417-.021.616-.825.141-2.535.3-3.537.347l-1.5.064c.1,1.435.679,1.99,2.167,1.99a19.653,19.653,0,0,0,2.564-.194l.109.954a18.1,18.1,0,0,1-3.061.25c-2.386,0-3.013-1.565-3.013-3.7m2.895-.262c.586-.028,1.553-.106,2.139-.181.012-.122.017-.3.017-.429,0-1.164-.478-1.856-1.877-1.856-1.67,0-1.969.942-1.969,2.544Z" transform="translate(-41.281 -14.822)" fill="#a2a2a2"/>
      <path id="Trazado_16790" data-name="Trazado 16790" d="M186.184,70.378V64.956c0-.445.016-.858.049-1.275a6.043,6.043,0,0,1,2.766-.6c.239,0,.461.008.671.028l-.1,1.015a4.808,4.808,0,0,0-.571-.028,3.94,3.94,0,0,0-1.545.288c-.023.319-.031.724-.031,1.055v4.941Z" transform="translate(-43.749 -14.822)" fill="#a2a2a2"/>
      <path id="Trazado_16791" data-name="Trazado 16791" d="M196.857,66.775c0-2.611.8-3.7,3.174-3.7,2.511,0,3.122,1.319,3.122,3.368,0,.19,0,.417-.021.616-.825.141-2.535.3-3.537.347l-1.5.064c.1,1.435.679,1.99,2.167,1.99a19.653,19.653,0,0,0,2.564-.194l.109.954a18.1,18.1,0,0,1-3.061.25c-2.386,0-3.013-1.565-3.013-3.7m2.895-.262c.586-.028,1.553-.106,2.139-.181.012-.122.016-.3.016-.429,0-1.164-.477-1.856-1.876-1.856-1.67,0-1.969.942-1.969,2.544Z" transform="translate(-46.257 -14.822)" fill="#a2a2a2"/>
      <path id="Trazado_16792" data-name="Trazado 16792" d="M208.606,70.378H207.37v-5.41c0-.445.016-.858.047-1.275a7.884,7.884,0,0,1,3.251-.614c2.5,0,2.746,1.173,2.746,2.649v4.65h-1.238V65.9c0-1.265-.226-1.819-1.88-1.819a4.615,4.615,0,0,0-1.653.3c-.028.316-.037.721-.037,1.056Z" transform="translate(-48.728 -14.822)" fill="#a2a2a2"/>
      <path id="Trazado_16793" data-name="Trazado 16793" d="M228.288,61.348h-2.434c-1.541,0-1.8.291-1.8,1.642V64.4H228.1v1.047h-4.047V67.03c0,1.354.259,1.637,1.8,1.637h2.434v1.019c-.72.032-1.7.057-2.394.057-1.634,0-3.154-.085-3.154-2.147V62.423c0-2.062,1.52-2.151,3.154-2.151.627,0,1.662.029,2.394.061Z" transform="translate(-52.339 -14.163)" fill="#a2a2a2"/>
      <path id="Trazado_16794" data-name="Trazado 16794" d="M236.907,63.206h1.338l-2.373,3.438,2.6,3.764h-1.455l-1.88-2.8-1.861,2.8h-1.366l2.576-3.736L232.1,63.206h1.428l1.691,2.531Z" transform="translate(-54.493 -14.852)" fill="#a2a2a2"/>
      <path id="Trazado_16795" data-name="Trazado 16795" d="M243.751,73.031h-1.234V64.956c0-.444.016-.857.049-1.274a6.015,6.015,0,0,1,2.762-.6c2.325,0,3.3.885,3.3,3.7,0,2.766-.907,3.7-3.078,3.7a7.667,7.667,0,0,1-1.8-.234Zm1.463-3.542c1.962,0,2.167-.954,2.167-2.71,0-1.654-.295-2.717-2.054-2.717a3.944,3.944,0,0,0-1.541.287c-.024.32-.036.724-.036,1.056v3.838a5.059,5.059,0,0,0,1.463.246" transform="translate(-56.986 -14.823)" fill="#a2a2a2"/>
      <path id="Trazado_16796" data-name="Trazado 16796" d="M252.4,66.775c0-2.611.8-3.7,3.174-3.7,2.511,0,3.122,1.319,3.122,3.368,0,.19,0,.417-.021.616-.825.141-2.535.3-3.537.347l-1.5.064c.1,1.435.679,1.99,2.167,1.99a19.652,19.652,0,0,0,2.564-.194l.109.954a18.1,18.1,0,0,1-3.061.25c-2.386,0-3.013-1.565-3.013-3.7m2.895-.262c.586-.028,1.553-.106,2.139-.181.012-.122.017-.3.017-.429,0-1.164-.478-1.856-1.877-1.856-1.67,0-1.969.942-1.969,2.544Z" transform="translate(-59.309 -14.822)" fill="#a2a2a2"/>
      <path id="Trazado_16797" data-name="Trazado 16797" d="M262.908,70.378V64.956c0-.445.016-.858.049-1.275a6.043,6.043,0,0,1,2.766-.6c.239,0,.461.008.671.028l-.1,1.015a4.809,4.809,0,0,0-.571-.028,3.94,3.94,0,0,0-1.545.288c-.023.319-.031.724-.031,1.055v4.941Z" transform="translate(-61.778 -14.822)" fill="#a2a2a2"/>
      <path id="Trazado_16798" data-name="Trazado 16798" d="M269.131,60.264c0-.611.174-.821.748-.821s.752.21.752.821-.161.813-.752.813-.748-.207-.748-.813m.129,2.058h1.246v7.2H269.26Z" transform="translate(-63.24 -13.968)" fill="#a2a2a2"/>
      <path id="Trazado_16799" data-name="Trazado 16799" d="M273.174,66.775c0-2.611.8-3.7,3.174-3.7,2.511,0,3.122,1.319,3.122,3.368,0,.19,0,.417-.021.616-.825.141-2.535.3-3.538.347l-1.5.064c.1,1.435.679,1.99,2.167,1.99a19.653,19.653,0,0,0,2.564-.194l.109.954a18.1,18.1,0,0,1-3.061.25c-2.386,0-3.013-1.565-3.013-3.7m2.895-.262c.586-.028,1.553-.106,2.139-.181.012-.122.017-.3.017-.429,0-1.164-.478-1.856-1.877-1.856-1.67,0-1.969.942-1.969,2.544Z" transform="translate(-64.19 -14.822)" fill="#a2a2a2"/>
      <path id="Trazado_16800" data-name="Trazado 16800" d="M284.923,70.378h-1.236v-5.41c0-.445.016-.858.047-1.275a7.884,7.884,0,0,1,3.251-.614c2.5,0,2.746,1.173,2.746,2.649v4.65h-1.237V65.9c0-1.265-.226-1.819-1.881-1.819a4.615,4.615,0,0,0-1.653.3c-.028.316-.037.721-.037,1.056Z" transform="translate(-66.661 -14.822)" fill="#a2a2a2"/>
      <path id="Trazado_16801" data-name="Trazado 16801" d="M298.82,70.245a9.172,9.172,0,0,1-2.049.23c-2.415,0-2.834-1.759-2.834-3.772,0-2.358.541-3.623,3.157-3.623a6.261,6.261,0,0,1,1.714.226l-.1.93a7.2,7.2,0,0,0-1.221-.134c-2.09,0-2.293.663-2.293,2.6,0,1.824.125,2.733,2.285,2.733a6.483,6.483,0,0,0,1.225-.158Z" transform="translate(-69.069 -14.823)" fill="#a2a2a2"/>
      <path id="Trazado_16802" data-name="Trazado 16802" d="M302.174,60.264c0-.611.174-.821.748-.821s.752.21.752.821-.162.813-.752.813-.748-.207-.748-.813m.129,2.058h1.246v7.2H302.3Z" transform="translate(-71.005 -13.968)" fill="#a2a2a2"/>
      <path id="Trazado_16803" data-name="Trazado 16803" d="M306.468,63.334a16.407,16.407,0,0,1,2.721-.255c1.561,0,2.814.412,2.814,2.224v3.3c0,.444-.016.857-.049,1.274a6.691,6.691,0,0,1-3.106.6c-1.94,0-2.766-.671-2.766-2.195a2,2,0,0,1,1.869-2.245,26.8,26.8,0,0,1,2.834-.2v-.174c0-1.092-.417-1.586-1.759-1.586a18.586,18.586,0,0,0-2.455.2Zm2.543,6.178a4.649,4.649,0,0,0,1.743-.287c.025-.319.033-.724.033-1.055V66.694a14.7,14.7,0,0,0-2.374.185c-.784.171-1.1.453-1.1,1.376,0,1.015.541,1.257,1.7,1.257" transform="translate(-71.923 -14.822)" fill="#a2a2a2"/>
      <path id="Trazado_16804" data-name="Trazado 16804" d="M320.3,69.7l3.074-8.617a1.119,1.119,0,0,1,2.2,0L328.6,69.7h-1.4l-.89-2.613h-3.772l-.882,2.613Zm5.662-3.632-1.545-4.544-1.536,4.544Z" transform="translate(-75.264 -14.14)" fill="#a2a2a2"/>
      <path id="Trazado_16805" data-name="Trazado 16805" d="M332.778,63.206h1.238v4.477c0,1.265.222,1.82,1.871,1.82a4.586,4.586,0,0,0,1.642-.3c.024-.316.036-.721.036-1.055V63.206H338.8v5.41c0,.445-.015.858-.049,1.275a7.811,7.811,0,0,1-3.235.614c-2.487,0-2.737-1.173-2.737-2.648Z" transform="translate(-78.196 -14.852)" fill="#a2a2a2"/>
      <path id="Trazado_16806" data-name="Trazado 16806" d="M345.094,60.548v2.033h1.553v.947h-1.553v4.3c0,.873.324,1.076,1.1,1.076.158,0,.308-.008.461-.02l.1.91a6.039,6.039,0,0,1-.917.088c-1.395,0-1.986-.6-1.986-1.92V63.529h-1.269v-.947h1.269V60.75Z" transform="translate(-80.5 -14.228)" fill="#a2a2a2"/>
      <path id="Trazado_16807" data-name="Trazado 16807" d="M349.44,66.775c0-2.692.845-3.7,3.182-3.7s3.182,1.043,3.182,3.7-.841,3.7-3.182,3.7-3.182-1-3.182-3.7m5.123,0c0-2.058-.445-2.685-1.941-2.685-1.471,0-1.932.539-1.932,2.685s.461,2.69,1.932,2.69c1.488,0,1.941-.627,1.941-2.69" transform="translate(-82.111 -14.822)" fill="#a2a2a2"/>
      <path id="Trazado_16808" data-name="Trazado 16808" d="M361.376,70.378h-1.238v-5.41c0-.445.02-.858.048-1.275a7.723,7.723,0,0,1,2.98-.614,2.717,2.717,0,0,1,1.828.522,6.191,6.191,0,0,1,2.5-.522c2.2,0,2.527,1.209,2.527,2.649v4.65h-1.238V65.9c0-1.232-.3-1.812-1.629-1.812a3.672,3.672,0,0,0-1.6.4,4.294,4.294,0,0,1,.146,1.238v4.65h-1.238V65.9c0-1.232-.3-1.812-1.63-1.812a3.992,3.992,0,0,0-1.415.3c-.028.316-.036.721-.036,1.056Z" transform="translate(-84.625 -14.822)" fill="#a2a2a2"/>
      <path id="Trazado_16809" data-name="Trazado 16809" d="M375.466,66.775c0-2.692.845-3.7,3.182-3.7s3.182,1.043,3.182,3.7-.841,3.7-3.182,3.7-3.182-1-3.182-3.7m5.123,0c0-2.058-.444-2.685-1.941-2.685-1.471,0-1.932.539-1.932,2.685s.461,2.69,1.932,2.69c1.488,0,1.941-.627,1.941-2.69" transform="translate(-88.227 -14.822)" fill="#a2a2a2"/>
      <path id="Trazado_16810" data-name="Trazado 16810" d="M387.771,60.548v2.033h1.553v.947h-1.553v4.3c0,.873.324,1.076,1.1,1.076.158,0,.308-.008.461-.02l.1.91a6.04,6.04,0,0,1-.917.088c-1.395,0-1.986-.6-1.986-1.92V63.529H385.26v-.947h1.269V60.75Z" transform="translate(-90.528 -14.228)" fill="#a2a2a2"/>
      <path id="Trazado_16811" data-name="Trazado 16811" d="M392.635,70.378V64.956c0-.445.016-.858.049-1.275a6.042,6.042,0,0,1,2.766-.6c.239,0,.461.008.671.028l-.1,1.015a4.808,4.808,0,0,0-.571-.028,3.939,3.939,0,0,0-1.545.288c-.023.319-.031.724-.031,1.055v4.941Z" transform="translate(-92.261 -14.822)" fill="#a2a2a2"/>
      <path id="Trazado_16812" data-name="Trazado 16812" d="M398.858,60.264c0-.611.174-.821.748-.821s.752.21.752.821-.162.813-.752.813-.748-.207-.748-.813m.129,2.058h1.246v7.2h-1.246Z" transform="translate(-93.723 -13.968)" fill="#a2a2a2"/>
      <path id="Trazado_16813" data-name="Trazado 16813" d="M404.449,69.393H408.4v1.015h-5.208c-.327,0-.522-.161-.522-.4a.8.8,0,0,1,.186-.464l4-5.357h-3.885v-.975H408.1c.327,0,.521.162.521.4a.789.789,0,0,1-.181.457Z" transform="translate(-94.62 -14.852)" fill="#a2a2a2"/>
      <path id="Trazado_16814" data-name="Trazado 16814" d="M161.529,61.588l1.359-2.3H164.7l-1.888,2.3Z" transform="translate(-37.956 -13.932)" fill="#a2a2a2"/>
    </g>
  </g>
</svg>
