<svg xmlns="http://www.w3.org/2000/svg" xmlns:xlink="http://www.w3.org/1999/xlink" width="97.314" height="91" viewBox="0 0 97.314 91">
  <defs>
    <clipPath id="clip-path">
      <rect id="Rectángulo_198" data-name="Rectángulo 198" width="92.897" height="91" fill="#a2a2a2"/>
    </clipPath>
  </defs>
  <g id="Grupo_16187" data-name="Grupo 16187" transform="translate(-99.583 -54)">
    <path id="Trazado_9350" data-name="Trazado 9350" d="M.068,0,24.7,67.165H37.109L39.049,62V33.418L30.9,56.165,11.539,0Z" transform="translate(99.515 54.5)" fill="#a2a2a2"/>
    <g id="Grupo_217" data-name="Grupo 217" transform="translate(104 54)">
      <g id="Grupo_216" data-name="Grupo 216" clip-path="url(#clip-path)">
        <path id="Trazado_9351" data-name="Trazado 9351" d="M34.5,16.24H45.22V42.818c0,10.15,5.735,14.946,14.756,14.946,9.119,0,14.855-4.8,14.855-14.946V0H85.548V42.628c0,16.641-12.033,24.537-25.662,24.537-13.729,0-25.382-7.9-25.382-24.537Z" transform="translate(7.35 0)" fill="#a2a2a2"/>
        <path id="Trazado_9352" data-name="Trazado 9352" d="M45.931,5.778A5.753,5.753,0,1,1,40.177.025a5.753,5.753,0,0,1,5.753,5.753" transform="translate(7.333 0.006)" fill="#a2a2a2"/>
        <path id="Trazado_9353" data-name="Trazado 9353" d="M5.4,69.154h.746L3.478,76.2H2.672L0,69.154H.767l2.308,6.28Z" transform="translate(0 14.731)" fill="#a2a2a2"/>
        <rect id="Rectángulo_194" data-name="Rectángulo 194" width="0.706" height="7.045" transform="translate(13.058 83.885)" fill="#a2a2a2"/>
        <path id="Trazado_9354" data-name="Trazado 9354" d="M17.466,69.154h.706v4.435c0,1.462.765,2.057,1.864,2.057s1.846-.6,1.846-2.057V69.154h.7v4.424a2.409,2.409,0,0,1-2.561,2.692,2.409,2.409,0,0,1-2.561-2.692Z" transform="translate(3.72 14.731)" fill="#a2a2a2"/>
        <path id="Trazado_9355" data-name="Trazado 9355" d="M30.987,69.086a3.251,3.251,0,0,1,3.245,2.137h-.826A2.451,2.451,0,0,0,30.987,69.7a2.991,2.991,0,0,0,0,5.958,2.463,2.463,0,0,0,2.419-1.5h.826a3.258,3.258,0,0,1-3.245,2.117,3.6,3.6,0,0,1,0-7.187" transform="translate(5.866 14.716)" fill="#a2a2a2"/>
        <path id="Trazado_9356" data-name="Trazado 9356" d="M39.74,69.154v6.47h2.53V76.2H39.034V69.154Z" transform="translate(8.315 14.731)" fill="#a2a2a2"/>
        <rect id="Rectángulo_195" data-name="Rectángulo 195" width="0.706" height="7.045" transform="translate(57.445 83.885)" fill="#a2a2a2"/>
        <path id="Trazado_9357" data-name="Trazado 9357" d="M59.4,69.154V76.2h-.706l-3.9-5.927V76.2h-.706V69.154h.706l3.9,5.917V69.154Z" transform="translate(11.52 14.731)" fill="#a2a2a2"/>
        <rect id="Rectángulo_196" data-name="Rectángulo 196" width="0.706" height="7.045" transform="translate(78.368 83.885)" fill="#a2a2a2"/>
        <path id="Trazado_9358" data-name="Trazado 9358" d="M74.514,69.086a3.251,3.251,0,0,1,3.245,2.137h-.826A2.451,2.451,0,0,0,74.514,69.7a2.991,2.991,0,0,0,0,5.958,2.463,2.463,0,0,0,2.419-1.5h.826a3.258,3.258,0,0,1-3.245,2.117,3.6,3.6,0,0,1,0-7.187" transform="translate(15.138 14.716)" fill="#a2a2a2"/>
        <rect id="Rectángulo_197" data-name="Rectángulo 197" width="92.786" height="0.724" transform="translate(0.112 75.267)" fill="#a2a2a2"/>
      </g>
    </g>
  </g>
</svg>
