<svg id="Grupo_401" data-name="Grupo 401" xmlns="http://www.w3.org/2000/svg" width="229.073" height="62.413" viewBox="0 0 229.073 62.413">
  <g id="Grupo_241" data-name="Grupo 241" transform="translate(39.579 8.305)">
    <g id="Grupo_240" data-name="Grupo 240" transform="translate(0)">
      <g id="Grupo_239" data-name="Grupo 239">
        <path id="Trazado_55" data-name="Trazado 55" d="M191.617,292.419q-1.919-4.83-3.807-9.228t-3.951-8.71l-5.113-.007q-2.074,4.306-3.977,8.7t-3.834,9.216Q169,297.21,166.983,302.58t-4.326,11.685l5.8.009,3.423-9.569h0l1.835-5.188h-.007c.106-.3.212-.587.319-.881l.1-.288h0q1.579-4.373,3.182-8.507,1.818-4.679,3.834-8.986,1.946,4.313,3.75,9,1.688,4.387,3.4,9.053h0l.02.057c.071.194.142.383.212.577h-.01l2.144,6.111h0c.422,1.2.839,2.4,1.242,3.575q.858,2.5,1.831,5.087l6.09.009q-2.289-6.323-4.291-11.7T191.617,292.419Z" transform="translate(-162.657 -269.835)" fill="#a2a2a2"/>
        <path id="Trazado_56" data-name="Trazado 56" d="M236.627,315.644q-1.84.458-4.857.97a41.613,41.613,0,0,1-6.98.506,14.81,14.81,0,0,1-5.8-1.013,9.365,9.365,0,0,1-3.788-2.85,11.539,11.539,0,0,1-2.061-4.341,22.549,22.549,0,0,1-.624-5.545l.025-16.777,5.343.008-.023,15.627q-.009,5.46,1.712,7.817t5.8,2.364q.862,0,1.781-.054t1.724-.141c.536-.058,1.024-.114,1.465-.171a4.258,4.258,0,0,0,.948-.2l.038-25.222,5.343.007Z" transform="translate(-171.474 -271.979)" fill="#a2a2a2"/>
        <path id="Trazado_57" data-name="Trazado 57" d="M257.944,284.677l11.319.016-.007,4.481-11.318-.017-.021,13.79a16.53,16.53,0,0,0,.34,3.706,5.555,5.555,0,0,0,1.03,2.3,3.713,3.713,0,0,0,1.722,1.18,7.612,7.612,0,0,0,2.413.348,11.333,11.333,0,0,0,3.879-.539q1.466-.545,2.042-.773l1.027,4.425a19.957,19.957,0,0,1-2.817,1,16.02,16.02,0,0,1-4.6.6,13.95,13.95,0,0,1-5.027-.783,7.326,7.326,0,0,1-3.185-2.332,9.307,9.307,0,0,1-1.689-3.823,25.2,25.2,0,0,1-.481-5.258l.04-26.658,5.344-.911Z" transform="translate(-178.558 -270.004)" fill="#a2a2a2"/>
        <path id="Trazado_58" data-name="Trazado 58" d="M281.03,313.415l.065-43.664,5.345-.911-.023,15.283a18.214,18.214,0,0,1,3.19-.887,18.459,18.459,0,0,1,3.362-.31,15.176,15.176,0,0,1,5.917,1.014,9.267,9.267,0,0,1,3.758,2.821,10.879,10.879,0,0,1,1.976,4.341,25.163,25.163,0,0,1,.566,5.573l-.025,16.777-5.343-.007.023-15.628a25.616,25.616,0,0,0-.366-4.712,7.993,7.993,0,0,0-1.231-3.163,4.9,4.9,0,0,0-2.3-1.755,10.083,10.083,0,0,0-3.561-.552,14.381,14.381,0,0,0-1.781.113q-.92.114-1.753.256t-1.495.313a8.838,8.838,0,0,0-.948.287l-.037,24.82Z" transform="translate(-183.59 -268.839)" fill="#a2a2a2"/>
        <path id="Trazado_59" data-name="Trazado 59" d="M346.923,301.578a18.886,18.886,0,0,1-1.044,6.433,14.727,14.727,0,0,1-2.909,4.938,12.774,12.774,0,0,1-4.457,3.181,14.709,14.709,0,0,1-11.261-.017,12.762,12.762,0,0,1-4.448-3.2,14.7,14.7,0,0,1-2.9-4.946,20.454,20.454,0,0,1,.02-12.841,14.672,14.672,0,0,1,2.909-4.965,12.766,12.766,0,0,1,4.457-3.182,14.709,14.709,0,0,1,11.261.016A12.769,12.769,0,0,1,343,290.2a14.672,14.672,0,0,1,2.894,4.974A18.971,18.971,0,0,1,346.923,301.578Zm-5.573-.008a12.86,12.86,0,0,0-2.258-8.019,7.925,7.925,0,0,0-12.352-.019,15.291,15.291,0,0,0-.024,16.03,7.925,7.925,0,0,0,12.352.018A12.859,12.859,0,0,0,341.351,301.57Z" transform="translate(-190.285 -271.851)" fill="#a2a2a2"/>
        <path id="Trazado_60" data-name="Trazado 60" d="M373.139,286.071q.689,0,1.58.088t1.752.233q.861.146,1.58.29a9.728,9.728,0,0,1,1.063.26l-.927,4.652a17.455,17.455,0,0,0-5.859-.87,14,14,0,0,0-2.959.312q-1.464.314-1.925.427l-.037,25.107-5.343-.007.043-28.612a36.434,36.434,0,0,1,4.713-1.286A30.278,30.278,0,0,1,373.139,286.071Z" transform="translate(-197.92 -271.886)" fill="#a2a2a2"/>
      </g>
    </g>
    <ellipse id="Elipse_6" data-name="Elipse 6" cx="4.151" cy="4.151" rx="4.151" ry="4.151" transform="translate(14.418 27.866)" fill="#a2a2a2"/>
  </g>
  <ellipse id="Elipse_7" data-name="Elipse 7" cx="4.151" cy="4.151" rx="4.151" ry="4.151" transform="translate(220.772 45.658)" fill="#a2a2a2"/>
  <path id="Trazado_61" data-name="Trazado 61" d="M127.859,293.928s8.092-.818,13.294-2a14.779,14.779,0,0,0,4.167-5.628,65.7,65.7,0,0,1-11.516-.019s6.984-.982,13.01-1.981a13.14,13.14,0,0,0,3.31-5.961c-2.885.147-7.876.338-8.949-.031,0,0,4.566-.825,9.535-2.286,1.157-1.247,5.938-6.938,4.741-14.694,0,0-16.159,6.445-25.438,19.524s-13.5,20.214-14.068,33.99c0,0,4.047-9.964,11.116-13.494,6.7-3.346,9.414-5.522,11.79-7.731Z" transform="translate(-114.987 -258.51)" fill="#a2a2a2"/>
  <path id="Trazado_62" data-name="Trazado 62" d="M114.844,320.317s-1.538-15.175,10.566-36.06c10.942-18.88,27.658-25.889,29-26.307,1.274-.4,2.441,1.887.8,2.776C155.21,260.726,121.007,275.271,114.844,320.317Z" transform="translate(-114.781 -257.904)" fill="#a2a2a2"/>
</svg>
