<svg id="Grupo_16185" data-name="Grupo 16185" xmlns="http://www.w3.org/2000/svg" xmlns:xlink="http://www.w3.org/1999/xlink" width="204.232" height="46.638" viewBox="0 0 204.232 46.638">
  <defs>
    <clipPath id="clip-path">
      <rect id="Rectángulo_11114" data-name="Rectángulo 11114" width="204.232" height="46.638" fill="#a2a2a2"/>
    </clipPath>
  </defs>
  <g id="Grupo_16176" data-name="Grupo 16176" clip-path="url(#clip-path)">
    <path id="Trazado_16919" data-name="Trazado 16919" d="M46.909,0c0,.135.014.27.014.4q0,22.883,0,45.765c0,.072-.006.145,0,.216.017.192-.082.259-.259.25-.072,0-.144,0-.216,0H.48c-.063,0-.126,0-.189,0-.2.015-.31-.06-.287-.278a1.805,1.805,0,0,0,0-.189Q0,23.287,0,.4C0,.27.015.135.02,0ZM30.1,23.288q0,9.669,0,19.338c0,.372,0,.377.354.247a21.888,21.888,0,0,0,3.47-1.619,21.171,21.171,0,0,0,5.209-4.244,20.7,20.7,0,0,0,3.405-5.257,20.015,20.015,0,0,0,1.755-7.11,20.767,20.767,0,0,0-.565-6.318A21.145,21.145,0,0,0,41.691,13.2a20.045,20.045,0,0,0-2.77-3.844,20.857,20.857,0,0,0-3.594-3.129A20.436,20.436,0,0,0,30.5,3.776c-.405-.141-.407-.137-.407.281v19.23M5.428,24.44c-1.061,0-1.836,0-2.611,0-.114,0-.225-.023-.217.176a18.42,18.42,0,0,0,.386,3.019,19.822,19.822,0,0,0,2.1,5.612,20.826,20.826,0,0,0,4.372,5.445,21.2,21.2,0,0,0,5.976,3.77,20.962,20.962,0,0,0,7.94,1.614,19.466,19.466,0,0,0,2.075-.112c.725-.07,1.446-.177,2.163-.312.129-.024.242-.04.227-.228-.043-.546-.043-1.1-.108-1.641A17.4,17.4,0,0,0,24.865,34.1a20.9,20.9,0,0,0-3.081-3.633,22.8,22.8,0,0,0-3.525-2.708,22,22,0,0,0-4.04-1.985A21.141,21.141,0,0,0,8.383,24.5c-1.078-.08-2.16-.064-2.955-.056m.213-2.246a23.408,23.408,0,0,0,5.668-.472,22.1,22.1,0,0,0,7.171-2.977,21.7,21.7,0,0,0,5.144-4.532A19.273,19.273,0,0,0,26.5,9.507a16.854,16.854,0,0,0,1.346-6.24c0-.177-.038-.257-.22-.292a23.888,23.888,0,0,0-3.969-.414,19.547,19.547,0,0,0-3.014.2,20.41,20.41,0,0,0-6.033,1.8A21.264,21.264,0,0,0,3.377,17.781a20,20,0,0,0-.762,4.159c-.015.21.043.26.244.257.8-.01,1.6,0,2.782,0" transform="translate(0)" fill="#a2a2a2"/>
    <path id="Trazado_16920" data-name="Trazado 16920" d="M3476.45,347.209c-1.3,0-2.594,0-3.892.011a.7.7,0,0,1-.647-.333c-1.29-1.8-2.6-3.585-3.889-5.382-.148-.206-.212-.073-.288.033q-.982,1.355-1.959,2.714c-.659.912-1.322,1.82-1.975,2.736a.494.494,0,0,1-.45.231c-1.244-.007-2.487,0-3.731,0-.086,0-.2.041-.25-.05s.05-.165.1-.233q1.418-1.973,2.843-3.94,1.613-2.231,3.231-4.459a.233.233,0,0,0,0-.329q-1.845-2.5-3.685-5-.92-1.249-1.839-2.5c-.041-.055-.11-.113-.075-.19s.124-.06.193-.06c1.3,0,2.6,0,3.893,0a.41.41,0,0,1,.35.211q1.547,2.113,3.1,4.221a4.033,4.033,0,0,1,.252.35c.111.19.2.16.313,0,.579-.8,1.163-1.6,1.745-2.4.524-.72,1.05-1.439,1.569-2.163a.48.48,0,0,1,.431-.221c1.261.005,2.523,0,3.785,0,.087,0,.2-.03.251.057.065.111-.054.178-.107.251q-2.1,2.847-4.2,5.69c-.417.565-.831,1.131-1.254,1.692a.292.292,0,0,0,0,.4q2.683,3.707,5.358,7.419c.274.379.551.756.826,1.134Z" transform="translate(-3272.219 -312.573)" fill="#a2a2a2"/>
    <path id="Trazado_16921" data-name="Trazado 16921" d="M1082.809,221.034q0-4,0-8c0-.385,0-.387.393-.387h13.627c.392,0,.393,0,.393.387q0,1.526,0,3.053c0,.36,0,.361-.36.362h-9.626c-.4,0-.4,0-.4.4,0,1.549,0,3.1,0,4.646,0,.253.063.342.332.341,3.028-.009,6.055-.005,9.083-.005.353,0,.367.011.368.36q0,1.526,0,3.053c0,.392,0,.393-.386.393h-9c-.387,0-.387,0-.387.38,0,.855-.014,1.711,0,2.566a3.821,3.821,0,0,0,.5,1.992,2.981,2.981,0,0,0,2.341,1.361,10.172,10.172,0,0,0,1.214.044c2.082,0,4.164,0,6.246-.006.271,0,.357.076.353.351-.015,1.035-.011,2.071,0,3.106,0,.231-.065.314-.306.314-2.551-.008-5.1.011-7.652-.014a7.473,7.473,0,0,1-3.773-.99,5.508,5.508,0,0,1-2.416-2.946,9.224,9.224,0,0,1-.543-3.2q-.006-3.782,0-7.564" transform="translate(-1024.233 -201.147)" fill="#a2a2a2"/>
    <path id="Trazado_16922" data-name="Trazado 16922" d="M1538.523,330.7h-6.191c-.352,0-.36.023-.316.372a4.239,4.239,0,0,0,1.745,3.016,4.914,4.914,0,0,0,2.4.892,6.919,6.919,0,0,0,3.038-.286,5.992,5.992,0,0,0,2.142-1.373c.167-.156.263-.2.458-.018.52.474.992.995,1.509,1.47.179.164.353.334.536.493.159.137.158.25,0,.4a9.71,9.71,0,0,1-3.354,2.217,10.229,10.229,0,0,1-4.034.594,9.131,9.131,0,0,1-5.516-1.909,7.554,7.554,0,0,1-2.624-3.991,10.153,10.153,0,0,1,.135-6.112,7.922,7.922,0,0,1,5.706-5.3,9.37,9.37,0,0,1,5.15,0,7.677,7.677,0,0,1,4.727,3.729,8.558,8.558,0,0,1,1.1,4.073c.011.468-.034.933-.018,1.4.009.254-.1.337-.359.336-2.082-.008-4.164,0-6.245,0m-1.983-2.84h4.053c.43,0,.463-.041.384-.467a3.546,3.546,0,0,0-1.976-2.584,4.95,4.95,0,0,0-4.65.035,3.865,3.865,0,0,0-2.209,2.64c-.083.346-.06.375.29.375h4.107" transform="translate(-1445.267 -303.448)" fill="#a2a2a2"/>
    <path id="Trazado_16923" data-name="Trazado 16923" d="M2635.136,321.348a9.3,9.3,0,0,1,7.1,3.147,8.437,8.437,0,0,1,2.108,5.01,8.555,8.555,0,0,1-.95,4.747,8.672,8.672,0,0,1-3.458,3.579,9.257,9.257,0,0,1-4.854,1.255,9.1,9.1,0,0,1-6.966-3.154,8.381,8.381,0,0,1-2.091-5.208,8.567,8.567,0,0,1,1.993-6.1A8.765,8.765,0,0,1,2631.7,322a10.337,10.337,0,0,1,3.44-.655m-5.081,8.887a5.148,5.148,0,1,0,5.108-5.205,5.06,5.06,0,0,0-5.108,5.205" transform="translate(-2483.955 -303.964)" fill="#a2a2a2"/>
    <path id="Trazado_16924" data-name="Trazado 16924" d="M3155.683,335.846c0,1.621.021,3.242-.006,4.862a6.572,6.572,0,0,1-4.854,6.488,9.234,9.234,0,0,1-2.821.417,8.522,8.522,0,0,1-5.127-1.483,6.237,6.237,0,0,1-2.511-4.164,8.9,8.9,0,0,1-.116-1.531q.005-4.795,0-9.59c0-.411,0-.412.422-.412q1.649,0,3.3,0c.353,0,.361.009.361.368,0,3.187-.008,6.374.008,9.561a3.482,3.482,0,0,0,1.056,2.683,3.15,3.15,0,0,0,1.824.8,4.622,4.622,0,0,0,2.565-.311,3.026,3.026,0,0,0,1.715-2.37,7.331,7.331,0,0,0,.105-1.343q0-4.5,0-9c0-.391,0-.392.387-.393,1.118,0,2.235.006,3.353,0,.257,0,.344.078.343.339-.009,1.693,0,3.386,0,5.078" transform="translate(-2970.374 -312.554)" fill="#a2a2a2"/>
    <path id="Trazado_16925" data-name="Trazado 16925" d="M1892.837,337.714a9.164,9.164,0,0,1-5.984-2.05,8.46,8.46,0,0,1-3.165-5.932,8.763,8.763,0,0,1,.976-5.092,8.5,8.5,0,0,1,3.43-3.5,9.523,9.523,0,0,1,4.22-1.2,9,9,0,0,1,6.483,2.11c.241.2.456.433.684.65.107.1.1.185-.005.293q-1.107,1.128-2.2,2.268c-.147.154-.234.121-.37-.012a5.559,5.559,0,0,0-4.2-1.645,5.008,5.008,0,0,0-4.993,4.687,5.154,5.154,0,0,0,1.656,4.456,4.9,4.9,0,0,0,3.06,1.264,5.6,5.6,0,0,0,3.945-1.156,6.456,6.456,0,0,0,.569-.5c.121-.118.211-.14.336-.009q1.1,1.156,2.2,2.3c.108.112.093.184-.009.289a8.716,8.716,0,0,1-5.018,2.65,9.46,9.46,0,0,1-1.614.115" transform="translate(-1781.74 -302.625)" fill="#a2a2a2"/>
    <path id="Trazado_16926" data-name="Trazado 16926" d="M2227.736,225.853c0,.891-.006,1.783,0,2.674a3.5,3.5,0,0,0,.6,2.091,2.956,2.956,0,0,0,2.1,1.194,3.7,3.7,0,0,0,.726.049c.179-.01.262.055.261.247q-.008,1.648,0,3.3c0,.181-.065.267-.252.261a8.933,8.933,0,0,1-4.665-1.126,5.7,5.7,0,0,1-2.461-3.425,10.7,10.7,0,0,1-.372-2.934q-.007-7.617,0-15.234c0-.411,0-.418.412-.419,1.107,0,2.214,0,3.321-.006.258,0,.34.086.339.344-.009,1.882,0,3.763,0,5.645,0,.387,0,.394.383.4q1.417,0,2.834,0c.4,0,.405,0,.406.4q0,1.459,0,2.917c0,.368,0,.369-.381.37-.973,0-1.946.007-2.919,0-.244,0-.331.071-.328.322.012.981,0,1.963.005,2.944" transform="translate(-2103.377 -201.024)" fill="#a2a2a2"/>
    <path id="Trazado_16927" data-name="Trazado 16927" d="M1405.882,224.139q0-5.59,0-11.18c0-.383,0-.392.379-.394,1.134-.006,2.267,0,3.4-.008.2,0,.308.065.288.281-.008.08,0,.162,0,.243v22.063c0,.108,0,.216,0,.324,0,.157-.081.229-.235.229h-3.622c-.146,0-.216-.07-.208-.217,0-.063,0-.126,0-.189V224.139" transform="translate(-1329.828 -201.059)" fill="#a2a2a2"/>
    <path id="Trazado_16928" data-name="Trazado 16928" d="M3013.466,224.132q0,5.563,0,11.127c0,.436,0,.438-.433.438q-1.635,0-3.271,0c-.345,0-.368-.023-.368-.37q0-11.21,0-22.421c0-.26.09-.349.341-.348,1.152.006,2.3.008,3.456,0,.293,0,.283.168.282.369q0,5.131,0,10.263,0,.473,0,.945" transform="translate(-2846.593 -201.057)" fill="#a2a2a2"/>
    <path id="Trazado_16929" data-name="Trazado 16929" d="M2430.653,327.136a4.911,4.911,0,0,1,2.286-2.06,6.15,6.15,0,0,1,3.241-.516c.682.076.681.08.681.771q0,1.418,0,2.837c0,.359,0,.358-.37.3a6.866,6.866,0,0,0-2.788.069,3.954,3.954,0,0,0-3,3.691c-.109,2.934-.018,5.869-.046,8.8-.006.62.087.573-.584.574q-1.541,0-3.083,0c-.33,0-.356-.026-.356-.354q0-8.023,0-16.047c0-.332.026-.359.351-.359,1.118,0,2.235,0,3.353,0,.247,0,.33.082.324.329-.014.655,0,1.31,0,1.965" transform="translate(-2295.359 -306.966)" fill="#a2a2a2"/>
  </g>
</svg>
