<svg xmlns="http://www.w3.org/2000/svg" xmlns:xlink="http://www.w3.org/1999/xlink" width="224.837" height="59.157" viewBox="0 0 224.837 59.157">
  <defs>
    <clipPath id="clip-path">
      <rect id="Rectángulo_11203" data-name="Rectángulo 11203" width="224.837" height="59.157" fill="#a2a2a2"/>
    </clipPath>
  </defs>
  <g id="Grupo_16180" data-name="Grupo 16180" clip-path="url(#clip-path)">
    <path id="Trazado_16854" data-name="Trazado 16854" d="M511.488.127c.015.316.044.632.044.948q0,28.206,0,56.413c0,.52-.017,1.041-.027,1.561l-.137.1h-4.5q-.021-3.522-.042-7.029l-.064-.156-.185.126c-.843.79-1.642,1.632-2.537,2.358A20.174,20.174,0,0,1,473.89,48.8a20.177,20.177,0,0,1-2.236-5.8,18.208,18.208,0,0,1-.46-4.5,20.466,20.466,0,0,1,1.485-7.278,20,20,0,0,1,9.066-10.118A18.285,18.285,0,0,1,487.2,19.1a19.489,19.489,0,0,1,5.247-.439,20.4,20.4,0,0,1,10.287,3.516,19.959,19.959,0,0,1,3.879,3.4c.081.136.158.207.22-.012.008-.294.024-.589.024-.883q0-11.873,0-23.746V.039c.782-.061,1.524-.026,2.264-.029s1.5.016,2.247.025l.119.093M491.437,23.617a15.185,15.185,0,1,0,15.135,14.8,14.585,14.585,0,0,0-4.561-10.5,14.926,14.926,0,0,0-10.573-4.3" transform="translate(-342.555 -0.002)" fill="#a2a2a2"/>
    <path id="Trazado_16855" data-name="Trazado 16855" d="M169.137.126c.015.293.043.586.044.879q.007,11.828.012,23.656c0,.312.054.623.084.935l.126-.04a20.94,20.94,0,0,1,6.53-4.926,20.521,20.521,0,0,1,6.839-1.891,18.986,18.986,0,0,1,6.346.429,22.76,22.76,0,0,1,4.071,1.421,19.874,19.874,0,0,1,7.08,5.492,18.384,18.384,0,0,1,3.942,7.889c.162.721.306,1.446.459,2.169.013.064.026.127.039.191a25.091,25.091,0,0,1,.075,3.929,20.051,20.051,0,0,1-9.463,15.617,19.352,19.352,0,0,1-8.473,2.928,23.358,23.358,0,0,1-3.8.052,16.317,16.317,0,0,1-3.929-.667,20.488,20.488,0,0,1-6.2-3.029,27.947,27.947,0,0,1-3.443-3.077l-.255-.189-.034.224q.006,3.332.011,6.664a2.1,2.1,0,0,1-.034.268l-.137.1h-4.466V.034c.732-.057,1.474-.022,2.215-.025s1.5.016,2.247.025l.119.093m.417,40.024a9.412,9.412,0,0,0,.648,3.364,14.9,14.9,0,0,0,10.965,10.065,14.121,14.121,0,0,0,6.411.122,14.944,14.944,0,0,0,8.935-5.44,14.711,14.711,0,0,0,3.3-8.615,16.386,16.386,0,0,0-.123-2.426,15.125,15.125,0,0,0-.358-2.331,15.217,15.217,0,0,0-27.542-4.222,14.376,14.376,0,0,0-2.31,7.083c-.043.743.03,1.492.05,2.239-.011.017-.034.039-.03.052a.716.716,0,0,0,.051.109" transform="translate(-119.633 0)" fill="#a2a2a2"/>
    <path id="Trazado_16856" data-name="Trazado 16856" d="M35.575,75.135q.014-2.991.028-5.982c0-.271,0-.541,0-.8a25.672,25.672,0,0,1,4.678-.067,2.417,2.417,0,0,1,.09.423c.014.34.005.68.005,1.02q0,19.176,0,38.353c0,.18-.024.36-.037.54a.127.127,0,0,0-.089.089H35.62v-7.234a4.77,4.77,0,0,0-.4.324,20.142,20.142,0,0,1-10.51,6.186,21.128,21.128,0,0,1-6.4.43,18.654,18.654,0,0,1-4.116-.781,19.9,19.9,0,0,1-6.487-3.446A20.436,20.436,0,0,1,.7,93.667,18.9,18.9,0,0,1,.04,87.178a19.5,19.5,0,0,1,5.18-12.329,19.856,19.856,0,0,1,10.6-6.137,18.845,18.845,0,0,1,5.46-.474,20.025,20.025,0,0,1,11.65,4.574c.887.736,1.69,1.573,2.531,2.364l.09.062.026-.1M20.251,73.209A15.178,15.178,0,1,0,35.365,88.06a15.108,15.108,0,0,0-15.114-14.85" transform="translate(0 -49.58)" fill="#a2a2a2"/>
    <path id="Trazado_16857" data-name="Trazado 16857" d="M682.036,108.781h-4.563c-.013-.26-.036-.5-.036-.74q0-4.454,0-8.907,0-15.162,0-30.324c0-.135.019-.27.03-.4l.093-.093,4.477-.014.129.1q.022,2.2.043,4.407.009.984.017,1.967l.047.221.218-.177a20.482,20.482,0,0,1,6.056-4.557,19.916,19.916,0,0,1,6.369-1.86,19.459,19.459,0,0,1,7.289.523,20.007,20.007,0,0,1,10.014,6.109,18.609,18.609,0,0,1,3.823,6.3,19.221,19.221,0,0,1,1.076,3.826,16.5,16.5,0,0,1,.21,2.084q.023,10.513.008,21.026c0,.135-.016.271-.025.406l-.1.113h-4.62c-.011-.286-.029-.525-.029-.765q0-10.1,0-20.2a7.394,7.394,0,0,0-.243-2c-.168-.605-.181-1.257-.382-1.848A14.969,14.969,0,0,0,700.68,73.653a15.141,15.141,0,0,0-17.529,8.869,11.733,11.733,0,0,0-.966,4.733c.039,7.006.019,14.012.019,21.018,0,.135-.021.269-.032.4l-.137.1" transform="translate(-492.494 -49.629)" fill="#a2a2a2"/>
    <path id="Trazado_16858" data-name="Trazado 16858" d="M328.148,90.632a14.488,14.488,0,0,0,2.782,7.509,14.815,14.815,0,0,0,7.7,5.553,11.735,11.735,0,0,0,2.47.635,20.536,20.536,0,0,0,3.6-.007,14.414,14.414,0,0,0,8.118-3.339,15.113,15.113,0,0,0,4.085-5.123c.1-.2.205-.4.342-.662l4.656,1.547c-.1.267-.165.522-.276.758a20.185,20.185,0,0,1-10.077,10.082,19.659,19.659,0,0,1-5.2,1.539,21.644,21.644,0,0,1-4.671.171,17.815,17.815,0,0,1-4.26-.759,20.362,20.362,0,0,1-13.37-13.119c-.28-.86-.457-1.738-.667-2.612a21.2,21.2,0,0,1-.232-5.736,13.958,13.958,0,0,1,.566-2.921,19.494,19.494,0,0,1,4.625-8.5,19.976,19.976,0,0,1,11.089-6.2,19.456,19.456,0,0,1,8.695.234,20.416,20.416,0,0,1,13.8,11.909,21.469,21.469,0,0,1-4.644,1.512c-.558-.914-1.056-1.859-1.674-2.717a14.917,14.917,0,0,0-7.86-5.674,14.154,14.154,0,0,0-6.391-.551,14.989,14.989,0,0,0-12.3,9.594,13.853,13.853,0,0,0-.926,6.716c-.011.018-.035.039-.031.052a.727.727,0,0,0,.051.11" transform="translate(-234.875 -50.211)" fill="#a2a2a2"/>
    <path id="Trazado_16859" data-name="Trazado 16859" d="M640.6,68.4l4.476-.014.129.1c.012.271.034.542.035.814q0,18.951,0,37.9c0,.521-.017,1.041-.027,1.561l-.137.1h-4.563c-.013-.26-.035-.5-.036-.741q0-4.521,0-9.043,0-15.094,0-30.188c0-.135.019-.27.029-.4l.093-.093" transform="translate(-465.628 -49.718)" fill="#a2a2a2"/>
    <path id="Trazado_16860" data-name="Trazado 16860" d="M645.088,10.781h-4.52a2.891,2.891,0,0,1-.076-.46q-.008-4.954,0-9.909a1.275,1.275,0,0,1,.032-.2.119.119,0,0,0,.088-.088l4.475-.013.124.1c.014.18.04.36.04.541q.01,4.83.013,9.661a2.086,2.086,0,0,1-.034.268l-.137.1" transform="translate(-465.636 -0.081)" fill="#a2a2a2"/>
    <path id="Trazado_16861" data-name="Trazado 16861" d="M695.238,92.148l-.218.177-.047-.221.265.044" transform="translate(-505.247 -66.96)" fill="#a2a2a2"/>
    <path id="Trazado_16862" data-name="Trazado 16862" d="M181.5,190.307l.034-.224.254.189-.289.035" transform="translate(-131.95 -138.191)" fill="#a2a2a2"/>
    <path id="Trazado_16863" data-name="Trazado 16863" d="M601.17,93.6c-.062.219-.139.148-.22.012l.22-.012" transform="translate(-436.892 -68.05)" fill="#a2a2a2"/>
    <path id="Trazado_16864" data-name="Trazado 16864" d="M600.849,190.485l.185-.126.064.156-.249-.03" transform="translate(-436.819 -138.392)" fill="#a2a2a2"/>
    <path id="Trazado_16865" data-name="Trazado 16865" d="M677.633,68.44l-.093.093.093-.093" transform="translate(-492.573 -49.756)" fill="#a2a2a2"/>
    <path id="Trazado_16866" data-name="Trazado 16866" d="M694.408,68.487l-.129-.1.129.1" transform="translate(-504.743 -49.717)" fill="#a2a2a2"/>
    <path id="Trazado_16867" data-name="Trazado 16867" d="M657.452,68.487l-.129-.1.129.1" transform="translate(-477.876 -49.718)" fill="#a2a2a2"/>
    <path id="Trazado_16868" data-name="Trazado 16868" d="M640.677,68.44l-.093.093.093-.093" transform="translate(-465.706 -49.756)" fill="#a2a2a2"/>
    <path id="Trazado_16869" data-name="Trazado 16869" d="M657.342,38.918l.137-.1-.137.1" transform="translate(-477.889 -28.218)" fill="#a2a2a2"/>
    <path id="Trazado_16870" data-name="Trazado 16870" d="M130,93.607l-.026.1-.09-.062a.175.175,0,0,1,.116-.04" transform="translate(-94.427 -68.053)" fill="#a2a2a2"/>
    <path id="Trazado_16871" data-name="Trazado 16871" d="M181.971,93.607l-.126.04a.172.172,0,0,1,.126-.04" transform="translate(-132.202 -68.052)" fill="#a2a2a2"/>
    <path id="Trazado_16872" data-name="Trazado 16872" d="M311.528,132.568c-.013-.064-.026-.127-.039-.191l.039.191" transform="translate(-226.453 -96.238)" fill="#a2a2a2"/>
    <path id="Trazado_16873" data-name="Trazado 16873" d="M341.528,147.635a.727.727,0,0,1-.051-.11c0-.013.02-.035.031-.052a.832.832,0,0,1,.036.107c0,.017-.01.037-.016.055" transform="translate(-248.254 -107.213)" fill="#a2a2a2"/>
    <path id="Trazado_16874" data-name="Trazado 16874" d="M147.444,216.364a.127.127,0,0,1,.089-.089l-.089.089" transform="translate(-107.192 -157.233)" fill="#a2a2a2"/>
    <path id="Trazado_16875" data-name="Trazado 16875" d="M180.914,216.4l.137-.1-.137.1" transform="translate(-131.525 -157.248)" fill="#a2a2a2"/>
    <path id="Trazado_16876" data-name="Trazado 16876" d="M618.389,216.4l.137-.1-.137.1" transform="translate(-449.571 -157.248)" fill="#a2a2a2"/>
    <path id="Trazado_16877" data-name="Trazado 16877" d="M657.342,216.4l.137-.1-.137.1" transform="translate(-477.889 -157.247)" fill="#a2a2a2"/>
    <path id="Trazado_16878" data-name="Trazado 16878" d="M694.3,216.4l.137-.1-.137.1" transform="translate(-504.757 -157.248)" fill="#a2a2a2"/>
    <path id="Trazado_16879" data-name="Trazado 16879" d="M823.14,216.393l.1-.113-.1.113" transform="translate(-598.425 -157.236)" fill="#a2a2a2"/>
    <path id="Trazado_16880" data-name="Trazado 16880" d="M182.7,146.477a.8.8,0,0,1,.037.106c0,.016-.01.036-.016.055a.7.7,0,0,1-.051-.108c0-.013.019-.035.03-.052" transform="translate(-132.803 -106.489)" fill="#a2a2a2"/>
  </g>
</svg>
