<svg id="Grupo_215" data-name="Grupo 215" xmlns="http://www.w3.org/2000/svg" xmlns:xlink="http://www.w3.org/1999/xlink" width="293.039" height="78.909" viewBox="0 0 293.039 78.909">
  <defs>
    <clipPath id="clip-path">
      <rect id="Rectángulo_193" data-name="Rectángulo 193" width="293.039" height="78.909" fill="#a2a2a2"/>
    </clipPath>
  </defs>
  <path id="Trazado_9333" data-name="Trazado 9333" d="M39.975,14.188,36.694,29.151H33.069L36.35,14.188Z" transform="translate(80.885 34.704)" fill="#a2a2a2"/>
  <g id="Grupo_214" data-name="Grupo 214" transform="translate(0 0)">
    <g id="Grupo_213" data-name="Grupo 213" clip-path="url(#clip-path)">
      <path id="Trazado_9334" data-name="Trazado 9334" d="M37.292,15.406h3.222L40.169,17a6.453,6.453,0,0,1,2.164-1.471,6.207,6.207,0,0,1,2.3-.462,5.322,5.322,0,0,1,3.084.737,2.118,2.118,0,0,1,.944,1.83,2.875,2.875,0,0,1-.069.62l-1.785,8.336h-3.2l1.54-7.033a1.743,1.743,0,0,0,0-.379,1.4,1.4,0,0,0-.586-1.151,2.534,2.534,0,0,0-1.5-.427,3.617,3.617,0,0,0-2.174.748,4.086,4.086,0,0,0-1.52,2.3l-1.292,6.03H34.876Z" transform="translate(85.304 36.835)" fill="#a2a2a2"/>
      <path id="Trazado_9335" data-name="Trazado 9335" d="M44.615,17.063h2.853l-.482,2.3H44.133L42.982,24.52a1.441,1.441,0,0,0,0,.345,1.143,1.143,0,0,0,.379.9,1.29,1.29,0,0,0,.886.334,3.62,3.62,0,0,0,.817-.093c.3-.069.61-.148.91-.241l-.841,2.3a12.91,12.91,0,0,1-3.015.448q-2.574,0-2.578-2.164a5.2,5.2,0,0,1,.138-1.151l1.265-5.858h-1.62l.493-2.3h1.613l.379-1.782,3.453-.875Z" transform="translate(96.179 35.177)" fill="#a2a2a2"/>
      <path id="Trazado_9336" data-name="Trazado 9336" d="M50.343,19.023a1.772,1.772,0,0,0-.551-1.4,2.03,2.03,0,0,0-1.385-.472,3.277,3.277,0,0,0-1.912.655A4.131,4.131,0,0,0,45.1,19.692h5.124a3.931,3.931,0,0,0,.117-.669m.472,7.23a6.813,6.813,0,0,1-1.6.427,12.937,12.937,0,0,1-2.3.207,6.935,6.935,0,0,1-3.594-.851,3.752,3.752,0,0,1-1.726-3.453c-.014-.283-.014-.562,0-.841a6.142,6.142,0,0,1,.138-.83,7.138,7.138,0,0,1,7.205-5.858,4.815,4.815,0,0,1,3.119.968,3.556,3.556,0,0,1,1.313,2.932,7.547,7.547,0,0,1-.127,1.278l-.138.52a3.171,3.171,0,0,1-.162.493H44.747a2.074,2.074,0,0,1-.093.472,4.726,4.726,0,0,0,0,.541,2.241,2.241,0,0,0,.948,1.992,4.009,4.009,0,0,0,2.2.517,8.7,8.7,0,0,0,2.068-.265,9.227,9.227,0,0,0,1.813-.6Z" transform="translate(101.709 36.808)" fill="#a2a2a2"/>
      <path id="Trazado_9337" data-name="Trazado 9337" d="M50.54,15.4,50.3,16.641a3.885,3.885,0,0,1,3.05-1.578A5.416,5.416,0,0,1,54.5,15.2l-.162,2.474-.565-.114q-.31-.016-.62,0a3.807,3.807,0,0,0-1.992.517,3.188,3.188,0,0,0-1.427,1.968l-1.4,6.585H45.12l2.371-11.189Z" transform="translate(110.361 36.843)" fill="#a2a2a2"/>
      <path id="Trazado_9338" data-name="Trazado 9338" d="M50.12,15.406h3.212L53,17a6.289,6.289,0,0,1,2.164-1.471,6.139,6.139,0,0,1,2.3-.462,5.322,5.322,0,0,1,3.084.737,2.119,2.119,0,0,1,.955,1.83,2.875,2.875,0,0,1-.069.62l-1.8,8.336H56.461l1.52-7.033v-.379a1.377,1.377,0,0,0-.6-1.151A2.492,2.492,0,0,0,55.9,17.6a3.635,3.635,0,0,0-2.178.748,3.985,3.985,0,0,0-1.52,2.3l-1.289,6.03H47.691Z" transform="translate(116.649 36.835)" fill="#a2a2a2"/>
      <path id="Trazado_9339" data-name="Trazado 9339" d="M57.4,15.3a16.256,16.256,0,0,1,2.522-.183,6.858,6.858,0,0,1,2.967.551,1.834,1.834,0,0,1,1.151,1.782v.5l-1.83,8.529H59.17l1.22-5.755a12.906,12.906,0,0,1-2.519.851c-1.761.482-2.74,1.151-2.912,1.992a.593.593,0,0,0,0,.221.9.9,0,0,0,.448.8,2.039,2.039,0,0,0,1.151.276,5.389,5.389,0,0,0,1.151-.138,2.94,2.94,0,0,0,.851-.262L57.792,26.4a10.584,10.584,0,0,1-2.522.358,3.791,3.791,0,0,1-2.646-.83,2.425,2.425,0,0,1-.8-1.875,3.1,3.1,0,0,1,.072-.644,3.937,3.937,0,0,1,2.622-2.774c.393-.162,1.726-.531,4.018-1.1,1.416-.365,2.185-.817,2.3-1.368a.839.839,0,0,0-.348-.91,2.306,2.306,0,0,0-1.368-.355,10.065,10.065,0,0,0-2.2.286,21.191,21.191,0,0,0-2.5.7l.624-2.119A19.409,19.409,0,0,1,57.4,15.3" transform="translate(126.762 36.957)" fill="#a2a2a2"/>
      <path id="Trazado_9340" data-name="Trazado 9340" d="M65.941,18.218a9.431,9.431,0,0,0-1.475-.565,5.266,5.266,0,0,0-1.292-.159,4.007,4.007,0,0,0-2.826,1.092A4.362,4.362,0,0,0,59,21a4.142,4.142,0,0,0-.083.9,2.867,2.867,0,0,0,.682,1.992,2.693,2.693,0,0,0,2.147.861,5.572,5.572,0,0,0,1.282-.172A10.509,10.509,0,0,0,64.49,24.1l-.655,2.3a10.9,10.9,0,0,1-3.367.631,4.592,4.592,0,0,1-3.622-1.427,4.753,4.753,0,0,1-1.154-3.291,6.634,6.634,0,0,1,.162-1.427,7.246,7.246,0,0,1,7.23-5.824,10.006,10.006,0,0,1,3.053.5Z" transform="translate(136.212 36.845)" fill="#a2a2a2"/>
      <path id="Trazado_9341" data-name="Trazado 9341" d="M65.337,13.924l-.5,2.3H61.622l.493-2.3Zm-.93,4.259L62.026,29.358H58.814L61.2,18.183Z" transform="translate(143.855 34.057)" fill="#a2a2a2"/>
      <path id="Trazado_9342" data-name="Trazado 9342" d="M65.292,18.581A5.34,5.34,0,0,0,64.024,21.1a2.974,2.974,0,0,0-.093.551v.531a3.15,3.15,0,0,0,.541,1.9,1.912,1.912,0,0,0,1.637.737,3.69,3.69,0,0,0,2.715-1.151,5.069,5.069,0,0,0,1.358-2.543,2.983,2.983,0,0,0,.083-.5v-.334a3.134,3.134,0,0,0-.682-2.071,2.3,2.3,0,0,0-1.875-.817A3.191,3.191,0,0,0,65.3,18.557m6.906-2.1a4.619,4.619,0,0,1,1.175,3.27,6.949,6.949,0,0,1-.138,1.334,7.2,7.2,0,0,1-2.474,3.994,7.355,7.355,0,0,1-4.952,1.84,5.508,5.508,0,0,1-3.946-1.3,4.593,4.593,0,0,1-1.151-3.763,5.582,5.582,0,0,1,.114-.679,7.816,7.816,0,0,1,2.419-4.214A7.052,7.052,0,0,1,68.214,15a5.235,5.235,0,0,1,3.949,1.427" transform="translate(148.404 36.664)" fill="#a2a2a2"/>
      <path id="Trazado_9343" data-name="Trazado 9343" d="M67.008,15.406H70.23L69.885,17a6.419,6.419,0,0,1,2.164-1.471,6.139,6.139,0,0,1,2.3-.462,5.289,5.289,0,0,1,3.074.737,2.135,2.135,0,0,1,.955,1.83,2.875,2.875,0,0,1-.069.62l-1.785,8.336H73.362l1.506-7.033a1.739,1.739,0,0,0,0-.379,1.4,1.4,0,0,0-.586-1.151,2.541,2.541,0,0,0-1.5-.427,3.635,3.635,0,0,0-2.178.748,3.985,3.985,0,0,0-1.52,2.3L67.8,26.684H64.592Z" transform="translate(157.988 36.835)" fill="#a2a2a2"/>
      <path id="Trazado_9344" data-name="Trazado 9344" d="M74.316,15.3a15.671,15.671,0,0,1,2.509-.183,6.961,6.961,0,0,1,2.981.551,1.847,1.847,0,0,1,1.151,1.782v.5l-1.83,8.529H76.088l1.22-5.755a12.811,12.811,0,0,1-2.509.851c-1.771.482-2.74,1.151-2.922,1.992a.966.966,0,0,0,.427,1.023,2.1,2.1,0,0,0,1.151.276,5.416,5.416,0,0,0,1.151-.138,2.838,2.838,0,0,0,.851-.262L74.685,26.4a10.471,10.471,0,0,1-2.509.358,3.848,3.848,0,0,1-2.66-.83,2.413,2.413,0,0,1-.782-1.875,3.355,3.355,0,0,1,0-.644,3.975,3.975,0,0,1,2.636-2.774c.393-.162,1.726-.531,4-1.1,1.416-.365,2.188-.817,2.3-1.368a.871.871,0,0,0-.355-.91,2.316,2.316,0,0,0-1.371-.355,10.065,10.065,0,0,0-2.2.286,20.794,20.794,0,0,0-2.485.7l.61-2.119a20.111,20.111,0,0,1,2.381-.527" transform="translate(168.081 36.957)" fill="#a2a2a2"/>
      <path id="Trazado_9345" data-name="Trazado 9345" d="M75.723,29.227H72.511l3.256-15.248h3.225Z" transform="translate(177.357 34.19)" fill="#a2a2a2"/>
      <path id="Trazado_9346" data-name="Trazado 9346" d="M25.007,7.629a26.914,26.914,0,0,1,9.428-2.784c-3.384,3.58-2.97,5.941.207,8.691,4.972,3.994,11.706,4.776,24.445,11.406,5.837,2.922,10.048,6.492,9.807,11.785-1.52,6.089-7.736,10.462-16.368,13.915.138-1.578.241-3.119.348-4.707,8.057-2.705,13.394-5.755,15.4-9.208,1.072-2.474-2.3-4.845-11.323-7.791-10.358-2.753-23.239-7.564-28.774-12.1-3.039-1.988-4.421-5.017-3.143-9.139M10.61,58.7l7.6-1.854,5.627,2.233-11.165,2.74A7.729,7.729,0,0,1,10.61,58.7M35.056,22.881c2.3.968,4.662,1.923,6.975,2.853C28.784,29.408,21.8,33.608,20.314,39.442c-1.554,6.423,2.071,10.727,7.664,11.234A27.432,27.432,0,0,0,41.2,48.719c.482-2.646.93-5.327,1.416-8l-7.078.92c.276-1.785.517-3.567.793-5.4,5.489-.438,10.979-.924,16.472-1.406l-2.385,16.7a39.141,39.141,0,0,1-13.811,3.57c4.6,2.3,10.221,4.063,14.328,6.5,4.387,2.509,6.251,5.455,5.665,8.863A35.355,35.355,0,0,0,68.653,19.1c-3.108,1.3-11.189,2.857-11.189,2.857s-3.246-1.52-7.25-3.167c4.525-.069,13.811-3.026,15.3-3.453A35.339,35.339,0,0,0,39.546,4.063c-.727,0-1.451,0-2.178.069-2.795,2.1-5.751,4.19-3.38,7.771,2.485,2.2,8.667,5.017,18.415,8.756,14.742,6.261,16.951,10.52,17.368,14.5.414,6.906-7.46,12.96-18.232,16.837.1-2.2.345-4.914.448-7.112,6.7-1.785,15.538-6.02,15.5-9.345-.217-2.164-7.629-4.466-11.372-5.961-9.39-2.808-17.574-5.662-25.135-9.645-6.492-3.753-8.057-7.25-7.285-12.2A35.389,35.389,0,0,0,4.015,39.408,35.021,35.021,0,0,0,9.366,58.064l8.946-2.44,8.667,3.925s-11.12,2.3-14.056,3.291A35.425,35.425,0,0,0,39.546,74.811,37.1,37.1,0,0,0,47.2,74c2.485-3.153,1.21-5.293-.551-6.768-9.876-5.352-18.508-7.664-27.623-12.164S8.815,44.528,11.716,37.981c3.349-6.8,10.152-12.66,23.339-15.055M39.821,0H40.1a4.164,4.164,0,0,0,2.5,2.888c1.151.1,2.657-1.151,3.729-2.3.414,1.337,1.072,2.753,2,3.122s2.695-.682,3.832-1.682c.231,1.554.682,3.2,1.947,3.729.861.334,2.519-.379,3.729-1.278l.207.1a4.983,4.983,0,0,0,.9,3.511c.689.61,3,.334,4.452-.172h.069a5.087,5.087,0,0,0,.52,3.7c.586.589,2.416.486,3.866.138l.138.141c-.414,1.4-.551,3.094.069,3.946.482.62,2.416.83,3.832.658l.1.138c-.655,1.334-1.151,3.37-.689,4.049.655.865,2.3,1.244,3.8,1.244l.069.172c-.827,1.151-1.554,2.912-1.151,3.639a5.182,5.182,0,0,0,3.27,1.875l.1.276c-1,1.151-2,2.926-1.692,3.753a5.047,5.047,0,0,0,2.967,1.992,3.377,3.377,0,0,0,.107.575c-1.151.9-2.3,1.8-2.3,3.163,0,1,1.378,1.992,2.622,2.65v.31c-1.278.644-2.695,1.747-2.729,2.543,0,1.023,1.037,2.371,2.178,3.325v.069c-1.382.586-3.212,1.83-3.281,2.715a4.865,4.865,0,0,0,1.8,3.132l-.138.334a5.134,5.134,0,0,0-3.432,1.633c-.379.724.279,2.543,1.037,3.777l-.138.31a5.055,5.055,0,0,0-3.591,1.206c-.448.61-.069,2.3.482,3.6l-.172.276c-1.451-.241-3.177-.172-3.694.414-.655.817-.586,2.578-.241,3.984l-.241.241c-1.451-.414-3.453-.586-4.042,0a5.335,5.335,0,0,0-.62,3.811l-.069.065c-1.347-.61-3.281-1.058-3.935-.572a5.073,5.073,0,0,0-1.151,3.6l-.348.172c-1.151-.827-2.864-1.544-3.625-1.244a5.386,5.386,0,0,0-1.864,3.453l-.241.069c-1.151-1.034-2.76-2.057-3.591-1.816a5.3,5.3,0,0,0-2.3,3.084H44.9c-.9-1.151-2.3-2.44-3.177-2.3a5.488,5.488,0,0,0-2.867,2.681h-.241c-.586-1.265-1.347-2.646-2.485-2.877a4.09,4.09,0,0,0-3.522,2.3H32.4a4.2,4.2,0,0,0-2.212-3.2c-.793-.31-2.553.693-3.694,1.647h-.069c-.241-1.437-.861-3.084-1.761-3.6s-2.553.379-3.8,1.151l-.207-.1a4.835,4.835,0,0,0-.8-3.536c-.62-.586-2.622-.345-4.039.138a4.789,4.789,0,0,0-.655-3.453c-.555-.517-2.3-.369-3.694,0,.448-1.368.655-3.153.1-3.739s-2.522-.934-3.973-.8l-.172-.207c.589-1.334,1.037-3.153.555-3.808s-2.212-1.151-3.625-1.151l-.141-.3c.8-1.278,1.52-3.339,1.072-4.132a5.127,5.127,0,0,0-3.384-1.475v-.1a4.982,4.982,0,0,0,1.9-3.325c-.069-.886-1.968-2.3-3.349-2.877L.389,44.98c1.151-.8,2.243-1.923,2.3-2.926,0-.827-1.416-2.2-2.691-2.991v-.138c1.275-.644,2.588-1.716,2.795-2.75.138-.82-1.151-2.3-2.3-3.191v-.241c1.347-.414,2.764-1.151,3.143-2.061s-.689-2.612-1.657-3.739l.069-.276A5.118,5.118,0,0,0,5.5,25.045c.414-.713-.31-2.567-1.151-3.811,1.485,0,3.281-.379,3.935-1.23.486-.689,0-2.646-.655-3.994,1.451.241,3.349.172,3.866-.448.658-.855.555-2.705.138-4.156l.138-.138c1.416.414,3.315.586,3.939,0s.793-2.3.62-3.742c1.416.589,3.832.968,4.525.348a5.068,5.068,0,0,0,.758-3.615c1.151.93,3.143,1.9,3.97,1.52,1-.52,1.726-2.3,1.968-3.856,1.151,1.034,2.867,2.1,3.7,1.83s1.944-1.83,2.391-3.167c1.037,1.151,3,2.547,3.9,2.3a4.915,4.915,0,0,0,2.3-2.853" transform="translate(0 0)" fill="#a2a2a2"/>
      <path id="Trazado_9347" data-name="Trazado 9347" d="M37.343,13.593c1.151.069,2.3.069,3.315.069,1.809,0,3.187,0,4.249-.069-.186.565-.382,1.244-.565,1.992s-.5,1.623-.748,2.612-.5,1.864-.62,2.612-.382,1.358-.507,1.864l-2.5.31a20.315,20.315,0,0,1-2.371.241c-.934.069-1.751.069-2.44.069a19.754,19.754,0,0,1-3.374-.252,9.5,9.5,0,0,1-2.867-.875A4.34,4.34,0,0,1,27.1,20.613a4.648,4.648,0,0,1-.875-2.3,8.741,8.741,0,0,1,.069-2.795,9.093,9.093,0,0,1,.806-2.3,7.666,7.666,0,0,1,1.437-2.178,11.675,11.675,0,0,1,4.328-3.2,15.621,15.621,0,0,1,6.492-1.151,30.152,30.152,0,0,1,6.065.634c-.2,1.151-.379,2.416-.565,3.784-.472-.148-.951-.276-1.437-.379a6.419,6.419,0,0,0-1.244-.3L40.8,10.14c-.438,0-.875-.059-1.151-.059a10.451,10.451,0,0,0-2.75.369,6.822,6.822,0,0,0-2.44,1.151,6.651,6.651,0,0,0-1.716,1.888,8.293,8.293,0,0,0-.944,2.3,4.925,4.925,0,0,0,.069,2.116,2.415,2.415,0,0,0,1.254,1.44,5.022,5.022,0,0,0,2.429.493,9.4,9.4,0,0,0,2.5-.31c.252-.806.507-1.678.689-2.543h-2.3c.127-.493.255-.93.382-1.427A5.2,5.2,0,0,0,37,14.872a8.645,8.645,0,0,0,.345-1.278m20.3,6.03c-.2.438-.62,1.623-1.254,3.453-.989.186-1.806.31-2.429.379a18.112,18.112,0,0,1-1.933.059,15.9,15.9,0,0,1-2.622-.186,5.463,5.463,0,0,1-1.947-.689,3.9,3.9,0,0,1-1.244-1.244,3.749,3.749,0,0,1-.562-1.737,6.449,6.449,0,0,1,.124-2.119,7.84,7.84,0,0,1,1.151-2.912,8.048,8.048,0,0,1,2.061-2.243,7.413,7.413,0,0,1,2.44-1.151,12.578,12.578,0,0,1,2.684-.31,10.613,10.613,0,0,1,2.553.31,3.411,3.411,0,0,1,1.878,1.058,2.986,2.986,0,0,1,.872,1.8,5.543,5.543,0,0,1,0,2.05,11.414,11.414,0,0,1-.438,1.5c-2.808.059-5.672.059-8.491.059a.337.337,0,0,1-.127.31A1.733,1.733,0,0,0,51,19.865a3.633,3.633,0,0,0,2.116.62,10.665,10.665,0,0,0,1.875-.183,25.289,25.289,0,0,0,2.615-.669ZM50.913,15.9h4a.784.784,0,0,0,0-.379,2.053,2.053,0,0,0,0-1.061,1.01,1.01,0,0,0-.493-.62,2.284,2.284,0,0,0-.944-.183,3.228,3.228,0,0,0-.679.124,2.2,2.2,0,0,0-.693.31,4.821,4.821,0,0,0-.562.5l-.379.565a5.407,5.407,0,0,1-.255.748m8.815,7.147c.3-.875.555-1.806.865-2.8s.565-1.988.817-3.1a31.131,31.131,0,0,0,.748-3.108c.255-1.061.5-2.061.693-2.995H67.66c-.128.507-.255,1.061-.438,1.623a6.168,6.168,0,0,1,.806-.689,3.857,3.857,0,0,1,.817-.5,7.859,7.859,0,0,1,1.058-.438,8.89,8.89,0,0,0,1.058-.241,8.968,8.968,0,0,1,1.254-.069,6.771,6.771,0,0,1,1.623.2,4.183,4.183,0,0,1,1.313.5,2.465,2.465,0,0,1,.748.872,2.1,2.1,0,0,1,.31,1.061,6.8,6.8,0,0,1-.124,1.151,19.089,19.089,0,0,1-.5,1.919c-.2.693-.379,1.43-.507,2.119s-.369,1.427-.551,2.174-.324,1.613-.438,2.3H69.156c.252-.689.5-1.737.875-3.177s.562-2.416.689-2.981a2.193,2.193,0,0,0-.2-1.864,1.59,1.59,0,0,0-1.151-.493,2.431,2.431,0,0,0-1.437.438,3.426,3.426,0,0,0-1.151,1.3,11.586,11.586,0,0,0-1.058,2.8c-.314,1.313-.624,2.612-.934,3.98H59.8Zm26.727-12.5a8.271,8.271,0,0,1,2.808.438,5.18,5.18,0,0,1,2.061,1.309,3.345,3.345,0,0,1,1,1.923,5.081,5.081,0,0,1,0,2.429,7.414,7.414,0,0,1-2.681,4.525,6.942,6.942,0,0,1-2.75,1.5,11.385,11.385,0,0,1-3.246.493,8.272,8.272,0,0,1-2.808-.424,5.326,5.326,0,0,1-2.13-1.244,4.287,4.287,0,0,1-1.082-2.14,6.4,6.4,0,0,1,0-2.429,8.108,8.108,0,0,1,.934-2.429,9.085,9.085,0,0,1,1.9-2.047,8.831,8.831,0,0,1,2.808-1.427,11.381,11.381,0,0,1,3.187-.52ZM85.707,14a2.98,2.98,0,0,0-1.5.369,3.231,3.231,0,0,0-1.151,1.151,5.094,5.094,0,0,0-.6,1.53,2.22,2.22,0,0,0,.31,1.992,1.847,1.847,0,0,0,1.5.679,2.991,2.991,0,0,0,1.416-.369A3.151,3.151,0,0,0,86.833,18.2a7.271,7.271,0,0,0,.624-1.613,4.787,4.787,0,0,0,0-1.368,1.861,1.861,0,0,0-.624-.934,2.319,2.319,0,0,0-1.151-.3Zm30.731,9.011c.252-.934.493-1.875.748-2.8s.493-1.933.748-2.864c.183-.737.379-1.485.562-2.233s.383-1.5.565-2.178.31-1.3.438-1.933h4.742c-.114.507-.252,1.061-.369,1.568a7.912,7.912,0,0,1,.806-.751,3.848,3.848,0,0,1,.748-.434A2.917,2.917,0,0,1,126.3,11a5,5,0,0,1,1-.241c.379,0,.689-.069,1.151-.069a6.8,6.8,0,0,1,1.151.128,2.488,2.488,0,0,1,.872.252,1.883,1.883,0,0,1,.634.314,3.315,3.315,0,0,1,.438.493,2.263,2.263,0,0,1,.369.748,4.733,4.733,0,0,1,1.382-1.151,6.775,6.775,0,0,1,1.5-.551,7.772,7.772,0,0,1,1.692-.2,6.624,6.624,0,0,1,1.992.31,2.6,2.6,0,0,1,1.368,1A2.1,2.1,0,0,1,140.1,13.9a9.86,9.86,0,0,1-.369,1.682c-.186.748-.565,1.978-1,3.729s-.748,3.039-.944,3.729h-5.052c.31-1,.62-2.3,1.058-3.729s.624-2.557.748-3.108a2.5,2.5,0,0,0,0-1.151.767.767,0,0,0-.365-.5,1.691,1.691,0,0,0-.624-.124,2.047,2.047,0,0,0-.689.124,1.929,1.929,0,0,0-.624.438,3.968,3.968,0,0,0-.689.992,6.007,6.007,0,0,0-.565,1.427c-.183.62-.365,1.437-.62,2.485s-.5,2.119-.748,3.177h-5.066c.2-.689.565-1.875,1-3.453s.689-2.8.817-3.349a2.007,2.007,0,0,0,.059-1.058,2.733,2.733,0,0,0-.31-.565,1.035,1.035,0,0,0-.693-.183,1.393,1.393,0,0,0-.875.252,2.46,2.46,0,0,0-.8.806,4.454,4.454,0,0,0-.624,1.371c-.2.62-.438,1.482-.758,2.726s-.555,2.371-.806,3.453h-5.121Zm-23.112,0c.252-.934.5-1.875.748-2.8s.507-1.933.748-2.864c.2-.737.379-1.485.565-2.233s.379-1.5.562-2.178.314-1.3.438-1.933h4.742c-.114.507-.241,1.061-.365,1.568a8.7,8.7,0,0,1,.8-.751,4.268,4.268,0,0,1,.748-.434,3.047,3.047,0,0,1,.875-.382,5.594,5.594,0,0,1,1-.241c.379,0,.689-.069,1.151-.069a6.8,6.8,0,0,1,1.151.128,2.686,2.686,0,0,1,.875.252,1.987,1.987,0,0,1,.62.314,3.131,3.131,0,0,1,.438.493,2.137,2.137,0,0,1,.369.748,4.733,4.733,0,0,1,1.382-1.151,7.213,7.213,0,0,1,1.5-.551,7.654,7.654,0,0,1,1.682-.2,6.584,6.584,0,0,1,2,.31,2.621,2.621,0,0,1,1.378,1,2.1,2.1,0,0,1,.245,1.864c-.059.369-.186.934-.369,1.682s-.565,1.978-1,3.729-.748,3.039-.93,3.729h-5.066c.31-1,.62-2.3,1.058-3.729s.624-2.557.748-3.108a2.7,2.7,0,0,0,.069-1.151.83.83,0,0,0-.379-.5,1.66,1.66,0,0,0-.62-.124,2.156,2.156,0,0,0-.693.124,1.914,1.914,0,0,0-.62.438,3.968,3.968,0,0,0-.689.992,5.7,5.7,0,0,0-.555,1.427c-.193.62-.379,1.437-.631,2.485s-.5,2.119-.748,3.177h-5.066c.2-.689.565-1.875,1-3.453s.689-2.8.817-3.349a2.04,2.04,0,0,0,0-1.058,2.732,2.732,0,0,0-.31-.565.994.994,0,0,0-.693-.183,1.393,1.393,0,0,0-.875.252,2.563,2.563,0,0,0-.8.806A4.375,4.375,0,0,0,100,16.9c-.2.62-.438,1.482-.758,2.726s-.555,2.371-.806,3.453H93.315Zm50.032-8.587c.31-.734.493-1.3.62-1.609s.255-.748.438-1.371a32.178,32.178,0,0,1,6.182-.748,10.357,10.357,0,0,1,2.5.31,3.312,3.312,0,0,1,1.689,1A2.3,2.3,0,0,1,155.039,14c-.069.424-.324,1.427-.758,2.981-.186.748-.438,1.678-.682,2.671s-.5,2.116-.748,3.36H148.04c.117-.438.31-1.151.555-1.992s.507-1.992.886-3.36c-.324.127-.634.252-.817.31a7.752,7.752,0,0,1-.944.31c-.358.086-.713.19-1.061.31a3.545,3.545,0,0,0-.748.314,1.065,1.065,0,0,0-.379.448,1.137,1.137,0,0,0-.252.438,1.131,1.131,0,0,0,.193.679,1.349,1.349,0,0,0,.992.31,1.918,1.918,0,0,0,.562,0,2.661,2.661,0,0,0,.806-.276c-.31.551-.748,1.485-1.313,2.6a11.8,11.8,0,0,1-2,.193,5.5,5.5,0,0,1-2.429-.434,2.236,2.236,0,0,1-1.254-1.3,3.032,3.032,0,0,1-.183-1.806,3.132,3.132,0,0,1,.379-1.061,6.433,6.433,0,0,1,.875-1.058,5.024,5.024,0,0,1,1.151-.861,11.471,11.471,0,0,1,1.692-.693c.679-.183,1.564-.369,2.626-.551a10.693,10.693,0,0,1,1.151-.255l.8-.241a1.625,1.625,0,0,0,.438-.252.784.784,0,0,0,.255-.255c0-.124,0-.241.124-.31a.6.6,0,0,0-.31-.679,1.6,1.6,0,0,0-1.068-.241,17.733,17.733,0,0,0-5.41,1.116Zm20.982,8.587c.252-.934.507-1.737.689-2.485s.438-1.43.565-2.05c.31-1.058.62-2.119.875-3.177s.551-2.105.8-3.163.5-1.992.624-2.867.379-1.613.507-2.3h5.362c-.183.689-.369,1.44-.551,2.119s-.379,1.427-.565,2.116c-.252,1.151-.565,2.233-.817,3.349s-.551,2.243-.806,3.291c-.183.565-.252,1.151-.438,1.682h2.74c2.13,0,3.694,0,4.811-.059l-.93,3.546Zm18.415-8.587c.252-.734.493-1.3.562-1.609a13.85,13.85,0,0,0,.5-1.371,31.581,31.581,0,0,1,6.123-.748,10.789,10.789,0,0,1,2.553.31,2.806,2.806,0,0,1,1.623,1A2.3,2.3,0,0,1,194.436,14c-.128.424-.383,1.427-.817,2.981-.186.748-.438,1.678-.693,2.671s-.493,2.116-.748,3.36h-4.742c.127-.438.31-1.058.565-1.992s.493-1.992.8-3.36c-.31.127-.551.252-.748.31a8.584,8.584,0,0,1-1,.31,10.07,10.07,0,0,0-1.058.31,2.988,2.988,0,0,0-.693.314,1.8,1.8,0,0,0-.493.434,1.029,1.029,0,0,0-.186.438.673.673,0,0,0,.186.679,1.348,1.348,0,0,0,1,.314,1.71,1.71,0,0,0,.5,0,2.943,2.943,0,0,0,.875-.186c-.369.555-.806,1.485-1.371,2.6a11.491,11.491,0,0,1-2,.2,5.386,5.386,0,0,1-2.371-.438,2.3,2.3,0,0,1-1.313-1.3,3.036,3.036,0,0,1,.255-2.864,6.025,6.025,0,0,1,.8-1.058,7.972,7.972,0,0,1,1.151-.865c.383-.183.944-.438,1.637-.689a17.09,17.09,0,0,1,2.681-.555,8.668,8.668,0,0,1,1.151-.252c.31-.117.62-.186.806-.241a.568.568,0,0,0,.379-.255,1.157,1.157,0,0,0,.31-.252,2.907,2.907,0,0,1,.059-.31.553.553,0,0,0-.241-.679,1.711,1.711,0,0,0-1.061-.245,17.817,17.817,0,0,0-5.293,1.037Zm12.488,8.587c.379-1.244.748-2.557,1.151-3.984.183-.748.365-1.5.562-2.233s.438-1.609.624-2.426a17.647,17.647,0,0,0,.562-2.3c.186-.748.379-1.371.5-1.992.252-1.244.507-2.3.634-3.108h4.959A35.5,35.5,0,0,0,203.079,11l1.761-.241a6.772,6.772,0,0,1,1.151-.069,7.293,7.293,0,0,1,3.05.565,3.68,3.68,0,0,1,1.819,1.933,5.758,5.758,0,0,1,.128,3.291,9.768,9.768,0,0,1-1.5,3.6,6.82,6.82,0,0,1-5.81,3.232,7.174,7.174,0,0,1-1.151-.127,2.9,2.9,0,0,1-1-.365,2.48,2.48,0,0,1-.689-.565c-.186-.186-.369-.438-.624-.748l-.379,1.5h-4.59Zm6.906-8.7c-.314,1.3-.565,2.105-.624,2.36A10.084,10.084,0,0,0,201.4,18.4a1.605,1.605,0,0,0,.565,1.058,1.845,1.845,0,0,0,1.151.369,2.527,2.527,0,0,0,1.313-.369,2.669,2.669,0,0,0,1.058-1.151,5.188,5.188,0,0,0,.62-1.554,2.279,2.279,0,0,0-.31-1.988,2.118,2.118,0,0,0-1.806-.751,7.418,7.418,0,0,0-1.864.279Zm9.494,8.7c.128-.507.31-1.151.438-1.875s.379-1.485.565-2.3h4.683a10.821,10.821,0,0,0-.507,1.668c-.183.679-.369,1.554-.62,2.553h-4.6Z" transform="translate(63.95 16.331)" fill="#a2a2a2"/>
      <path id="Trazado_9348" data-name="Trazado 9348" d="M83.35,9.574a3.378,3.378,0,0,0,2.509,4.059,3.483,3.483,0,0,0,.944.086c4.6-.107,4.156-7.367-.586-6.689a3.106,3.106,0,0,0-2.843,2.543m7.378-.069v1.6a4.064,4.064,0,0,1-4.6,3.27c-4.707-.575-4.662-8.15.575-8.139,2.209,0,3.27,1.244,4.018,3.27" transform="translate(202.287 15.25)" fill="#a2a2a2"/>
      <path id="Trazado_9349" data-name="Trazado 9349" d="M84.063,8.7c2.626.493,2.36-1.785,0-1.313Zm-.724-1.888c1.151.138,2.485-.3,3.129.369A1.218,1.218,0,0,1,85.6,9.216c.655.462.941,1.289,1.461,1.888-.152.172-.6,0-.875.069-.586-.689-.62-1.957-2.05-1.819a9.735,9.735,0,0,0-.069,1.819h-.724Z" transform="translate(203.842 16.621)" fill="#a2a2a2"/>
    </g>
  </g>
</svg>
