<svg id="Grupo_89" data-name="Grupo 89" xmlns="http://www.w3.org/2000/svg" xmlns:xlink="http://www.w3.org/1999/xlink" width="170" height="69.361" viewBox="0 0 170 69.361">
  <defs>
    <clipPath id="clip-path">
      <rect id="Rectángulo_3225" data-name="Rectángulo 3225" width="170" height="69.361" fill="#a2a2a2"/>
    </clipPath>
  </defs>
  <g id="Grupo_88" data-name="Grupo 88" clip-path="url(#clip-path)">
    <path id="Trazado_33" data-name="Trazado 33" d="M223.25,139.046a1.937,1.937,0,0,0-1.979,1.931v.014a1.918,1.918,0,0,0,1.964,1.917,1.944,1.944,0,0,0,1.986-1.931v-.014a1.924,1.924,0,0,0-1.972-1.917m1.393,1.945a1.38,1.38,0,0,1-1.393,1.423,1.4,1.4,0,0,1-1.4-1.438v-.014a1.38,1.38,0,0,1,1.385-1.431,1.416,1.416,0,0,1,1.407,1.445Z" transform="translate(-118.859 -74.691)" fill="#a2a2a2"/>
    <rect id="Rectángulo_3217" data-name="Rectángulo 3217" width="0.579" height="5.006" transform="translate(109.727 63.125)" fill="#a2a2a2"/>
    <path id="Trazado_34" data-name="Trazado 34" d="M204.126,141.332a1.1,1.1,0,0,1-1.136,1.159,1,1,0,0,1-1.048-1.116v-2.161h-.564v2.3a1.366,1.366,0,0,0,1.451,1.48,1.45,1.45,0,0,0,1.3-.722v.644h.557v-3.7h-.557Z" transform="translate(-108.173 -74.782)" fill="#a2a2a2"/>
    <path id="Trazado_35" data-name="Trazado 35" d="M0,19.96l9.751,7.4L30.017,13.771,50.282,27.36l9.751-7.4L30.017,0Z" transform="translate(0 0)" fill="#a2a2a2"/>
    <path id="Trazado_36" data-name="Trazado 36" d="M0,46.752v25.54L30.017,94.475,60.033,72.292V46.752L30.018,69.53Z" transform="translate(0 -25.114)" fill="#a2a2a2"/>
    <path id="Trazado_37" data-name="Trazado 37" d="M169.787,70.811l18.7-45.444H177.517L165.428,57.145,153.339,25.367h-11.23L160.8,70.811Z" transform="translate(-76.336 -13.626)" fill="#a2a2a2"/>
    <path id="Trazado_38" data-name="Trazado 38" d="M213.277,139.046a1.712,1.712,0,0,0-1.451.822v-.744h-.564v4.842h.564v-1.852a1.719,1.719,0,0,0,1.451.786,1.83,1.83,0,0,0,1.81-1.924v-.014a1.824,1.824,0,0,0-1.81-1.917m1.231,1.938a1.319,1.319,0,0,1-1.334,1.423,1.391,1.391,0,0,1-1.37-1.431v-.014a1.394,1.394,0,0,1,1.37-1.423,1.345,1.345,0,0,1,1.334,1.43Z" transform="translate(-113.482 -74.691)" fill="#a2a2a2"/>
    <path id="Trazado_39" data-name="Trazado 39" d="M184.937,139.128H186.5v1.245a2.454,2.454,0,0,1-1.481.5,1.956,1.956,0,0,1-2.03-2.081v-.014a1.976,1.976,0,0,1,1.949-2.053,2.217,2.217,0,0,1,1.562.572l.373-.429a2.74,2.74,0,0,0-1.912-.665,2.541,2.541,0,0,0-2.573,2.589v.014A2.485,2.485,0,0,0,185,141.381a3.152,3.152,0,0,0,2.06-.766v-2h-2.118Z" transform="translate(-97.971 -73.164)" fill="#a2a2a2"/>
    <path id="Trazado_40" data-name="Trazado 40" d="M241.354,90.461a14.9,14.9,0,0,0,3.924-2.6L249,91.574,252.686,89l-4.445-4.377a30.321,30.321,0,0,0,2.022-2.989q.941-1.582,1.782-3.223l-3.723-1.914q-.682,1.445-1.442,2.774t-1.562,2.5L240.513,77A11.894,11.894,0,0,0,245,74.285a5.98,5.98,0,0,0,1.681-4.395v-.079a6.253,6.253,0,0,0-.54-2.578,6.334,6.334,0,0,0-1.522-2.11,7.1,7.1,0,0,0-2.341-1.407,8.662,8.662,0,0,0-3.044-.508,9.363,9.363,0,0,0-3.363.567,7.972,7.972,0,0,0-2.522,1.5,6.484,6.484,0,0,0-1.6,2.188,6.323,6.323,0,0,0-.561,2.618v.077a7.441,7.441,0,0,0,.561,2.852,11.625,11.625,0,0,0,1.762,2.852,11.113,11.113,0,0,0-4.424,3.107,6.982,6.982,0,0,0-1.541,4.552V83.6a7.25,7.25,0,0,0,.7,3.2,7.5,7.5,0,0,0,1.922,2.481,8.493,8.493,0,0,0,2.9,1.582,11.738,11.738,0,0,0,3.643.546,11.165,11.165,0,0,0,4.644-.957m-5.566-20.18a3.2,3.2,0,0,1,.921-2.364A3.309,3.309,0,0,1,239.153,67a3.129,3.129,0,0,1,2.282.859,2.977,2.977,0,0,1,.88,2.228v.077a3.185,3.185,0,0,1-1.121,2.481,10.148,10.148,0,0,1-3.283,1.778,10.98,10.98,0,0,1-1.643-2.149,4.006,4.006,0,0,1-.48-1.913Zm-3.283,13.167v-.079a4.171,4.171,0,0,1,.881-2.519,6.588,6.588,0,0,1,2.843-2.012l6.246,6.211a9.779,9.779,0,0,1-2.523,1.759,6.378,6.378,0,0,1-2.762.625,5.037,5.037,0,0,1-3.363-1.114,3.579,3.579,0,0,1-1.322-2.871" transform="translate(-122.227 -33.954)" fill="#a2a2a2"/>
    <path id="Trazado_41" data-name="Trazado 41" d="M195.653,140.105v-.966h-.564v3.7h.564v-1.473a1.5,1.5,0,0,1,1.5-1.695h.044v-.594a1.621,1.621,0,0,0-1.546,1.03" transform="translate(-104.795 -74.706)" fill="#a2a2a2"/>
    <rect id="Rectángulo_3218" data-name="Rectángulo 3218" width="0.564" height="5.221" transform="translate(134.783 62.911)" fill="#a2a2a2"/>
    <path id="Trazado_42" data-name="Trazado 42" d="M309.167,140.105v-.966H308.6v3.7h.564v-1.473a1.5,1.5,0,0,1,1.5-1.695h.044v-.594a1.621,1.621,0,0,0-1.546,1.03" transform="translate(-165.771 -74.706)" fill="#a2a2a2"/>
    <path id="Trazado_43" data-name="Trazado 43" d="M313.48,25.367H302.514L290.424,57.145,278.336,25.367h-11.23L285.8,70.811h8.985Z" transform="translate(-143.48 -13.626)" fill="#a2a2a2"/>
    <path id="Trazado_44" data-name="Trazado 44" d="M300.53,139.107a3.2,3.2,0,0,0-1.378.308l.168.45a2.691,2.691,0,0,1,1.151-.271c.711,0,1.128.342,1.128,1.008v.129a4.11,4.11,0,0,0-1.165-.157c-.96,0-1.62.415-1.62,1.194v.015a1.267,1.267,0,0,0,1.415,1.151,1.675,1.675,0,0,0,1.37-.636v.558h.543v-2.26a1.438,1.438,0,0,0-.389-1.08,1.687,1.687,0,0,0-1.224-.408m1.077,2.389a1.138,1.138,0,0,1-1.268,1c-.513,0-.953-.272-.953-.737v-.014c0-.465.4-.766,1.107-.766a4.045,4.045,0,0,1,1.114.157Z" transform="translate(-160.513 -74.723)" fill="#a2a2a2"/>
    <rect id="Rectángulo_3219" data-name="Rectángulo 3219" width="0.645" height="0.608" transform="translate(136.675 63.018)" fill="#a2a2a2"/>
    <path id="Trazado_45" data-name="Trazado 45" d="M320.656,139.046a1.937,1.937,0,0,0-1.979,1.931v.014a1.918,1.918,0,0,0,1.964,1.917,1.944,1.944,0,0,0,1.986-1.931v-.014a1.924,1.924,0,0,0-1.972-1.917m1.393,1.945a1.38,1.38,0,0,1-1.393,1.423,1.4,1.4,0,0,1-1.4-1.438v-.014a1.38,1.38,0,0,1,1.385-1.431,1.416,1.416,0,0,1,1.408,1.445Z" transform="translate(-171.182 -74.691)" fill="#a2a2a2"/>
    <rect id="Rectángulo_3220" data-name="Rectángulo 3220" width="0.565" height="3.698" transform="translate(145.853 64.434)" fill="#a2a2a2"/>
    <path id="Trazado_46" data-name="Trazado 46" d="M243.231,139.046a1.441,1.441,0,0,0-1.3.722v-.644h-.564v3.7h.564v-2.117a1.1,1.1,0,0,1,1.136-1.159,1,1,0,0,1,1.048,1.116v2.16h.565v-2.3a1.366,1.366,0,0,0-1.451-1.481" transform="translate(-129.655 -74.691)" fill="#a2a2a2"/>
    <rect id="Rectángulo_3221" data-name="Rectángulo 3221" width="0.645" height="0.608" transform="translate(145.816 63.018)" fill="#a2a2a2"/>
    <path id="Trazado_47" data-name="Trazado 47" d="M267.661,139.046a1.938,1.938,0,0,0-1.979,1.931v.014a1.918,1.918,0,0,0,1.965,1.917,1.944,1.944,0,0,0,1.986-1.931v-.014a1.924,1.924,0,0,0-1.972-1.917m1.393,1.945a1.38,1.38,0,0,1-1.393,1.423,1.4,1.4,0,0,1-1.4-1.438v-.014a1.38,1.38,0,0,1,1.386-1.431,1.416,1.416,0,0,1,1.407,1.445Z" transform="translate(-142.715 -74.691)" fill="#a2a2a2"/>
    <path id="Trazado_48" data-name="Trazado 48" d="M278.436,137.37a1.712,1.712,0,0,0-1.451.822v-2.267h-.564v5.221h.564v-.708a1.719,1.719,0,0,0,1.451.786,1.83,1.83,0,0,0,1.81-1.924v-.014a1.824,1.824,0,0,0-1.81-1.917m1.231,1.938a1.319,1.319,0,0,1-1.334,1.423,1.391,1.391,0,0,1-1.37-1.431v-.014a1.394,1.394,0,0,1,1.37-1.423,1.345,1.345,0,0,1,1.334,1.43Z" transform="translate(-148.483 -73.014)" fill="#a2a2a2"/>
    <rect id="Rectángulo_3222" data-name="Rectángulo 3222" width="0.564" height="3.698" transform="translate(136.711 64.434)" fill="#a2a2a2"/>
    <path id="Trazado_49" data-name="Trazado 49" d="M255.465,139.046a1.518,1.518,0,0,0-1.334.736,1.29,1.29,0,0,0-1.217-.736,1.389,1.389,0,0,0-1.224.7v-.623h-.565v3.7h.565v-2.11a1.082,1.082,0,0,1,1.055-1.166c.6,0,.975.408.975,1.1v2.174h.565v-2.131a1.041,1.041,0,0,1,1.04-1.144c.616,0,.982.4.982,1.116v2.16h.564v-2.289a1.343,1.343,0,0,0-1.407-1.488" transform="translate(-134.896 -74.691)" fill="#a2a2a2"/>
    <rect id="Rectángulo_3223" data-name="Rectángulo 3223" width="0.645" height="0.608" transform="translate(132.819 63.018)" fill="#a2a2a2"/>
    <rect id="Rectángulo_3224" data-name="Rectángulo 3224" width="0.564" height="3.698" transform="translate(132.855 64.434)" fill="#a2a2a2"/>
  </g>
</svg>
