<svg xmlns="http://www.w3.org/2000/svg" width="194.007" height="69.978" viewBox="0 0 194.007 69.978">
  <g id="Grupo_16354" data-name="Grupo 16354" transform="translate(-236 -6997)">
    <g id="Grupo_212" data-name="Grupo 212" transform="translate(8766.425 -239.607)">
      <path id="Trazado_9328" data-name="Trazado 9328" d="M149.717,91.983a18.643,18.643,0,0,0-13.624-5.662,18.12,18.12,0,0,0-13.447,5.662,18.7,18.7,0,0,0-5.664,13.712,19.493,19.493,0,0,0,19.11,19.375,19.331,19.331,0,0,0,19.2-19.375,18.963,18.963,0,0,0-5.573-13.712ZM143.26,112.86a9.93,9.93,0,0,1-14.241,0,10.117,10.117,0,0,1-3.009-7.165,9.874,9.874,0,0,1,3.009-7.254,9.038,9.038,0,0,1,7.076-2.919,9.417,9.417,0,0,1,7.256,2.919,10.251,10.251,0,0,1-.091,14.419Z" transform="translate(-8521.7 7181.515)" fill="#a2a2a2" fill-rule="evenodd"/>
      <path id="Trazado_9330" data-name="Trazado 9330" d="M53.285,79.74a21.746,21.746,0,0,0-16.72,6.988,22.906,22.906,0,0,0-6.99,16.9,23.244,23.244,0,0,0,6.99,16.985,22.629,22.629,0,0,0,16.72,6.9A23.073,23.073,0,0,0,67.7,122.645a24.02,24.02,0,0,0,8.316-12.65H66.376a16.6,16.6,0,0,1-5.219,6.1,14.82,14.82,0,0,1-7.873,2.3,14.161,14.161,0,0,1-10.351-4.336,14.953,14.953,0,0,1,0-20.878A14.375,14.375,0,0,1,61.157,91.24a15.908,15.908,0,0,1,5.219,6.105h9.643A23.683,23.683,0,0,0,67.7,84.695,22.156,22.156,0,0,0,53.285,79.74Zm58.387,9.377c-6.193-.089-10.527,1.592-13,4.865-1.592,2.035-2.389,4.688-2.655,8.051h9.2a5.945,5.945,0,0,1,1.327-3.362c.972-1.238,2.566-1.858,4.865-1.769a8.206,8.206,0,0,1,4.513.884c1.061.531,1.5,1.592,1.592,3.1a3.043,3.043,0,0,1-2.123,2.83l-7.077,1.151a22.3,22.3,0,0,0-7.962,2.389c-3.45,2.035-5.13,5.307-5.042,10a9.85,9.85,0,0,0,3.1,7.874,11.834,11.834,0,0,0,7.52,2.566c5.042-.089,9.023-1.327,11.855-3.805v3.805h9.2V100.618c0-4.424-1.592-7.52-4.6-9.112a21.454,21.454,0,0,0-10.706-2.389Zm3.893,20.79,1.769-.974v3.715c0,3.186-.884,5.4-2.566,6.636a9.7,9.7,0,0,1-5.751,1.857,5.024,5.024,0,0,1-3.273-1.06,5.264,5.264,0,0,1,.884-7.786,12.18,12.18,0,0,1,4.335-1.237l4.6-1.151Z" transform="translate(-8560 7178.629)" fill="#a2a2a2" fill-rule="evenodd"/>
      <path id="Trazado_9332" data-name="Trazado 9332" d="M74.33,86.369h-9.2v47.949h9.2Zm58.564,10.7a14.581,14.581,0,0,0-6.545,5.219V97.6l-8.758-.089v36.8H126.7v-17.6c0-3.009.354-5.131,1.149-6.457a8.663,8.663,0,0,1,3.186-3.539,8.94,8.94,0,0,1,5.042-1.592l2.832.177-.089-9.377-2.387.177-3.541.972Zm46.71.177,22.2-22.205-5.838-5.838-22.2,22.2ZM164.034,88.4v-23.8h-8.226V88.4h8.226Zm19.641,18.046v8.228H208v-8.228Z" transform="translate(-8544.421 7172)" fill="#a2a2a2" fill-rule="evenodd"/>
    </g>
  </g>
</svg>
