<svg xmlns="http://www.w3.org/2000/svg" width="332.807" height="67.708" viewBox="0 0 332.807 67.708">
  <g id="Grupo_16356" data-name="Grupo 16356" transform="translate(-1407 -6998)">
    <g id="Grupo_1778" data-name="Grupo 1778" transform="translate(9949.807 -374.776)">
      <g id="Grupo_1775" data-name="Grupo 1775" transform="translate(-8442.979 7392.207)">
        <path id="Trazado_8455" data-name="Trazado 8455" d="M1044.014,638.783H1037.7l-4.892-19.147-4.849,19.147h-6.312l-7.985-27.885h6.647l4.891,20.151,5.309-20.151h4.641l5.267,20.151,4.849-20.151h6.689Z" transform="translate(-1013.663 -610.438)" fill="#a2a2a2"/>
        <path id="Trazado_8456" data-name="Trazado 8456" d="M1121.966,638.783h-5.937V610.9h5.937Z" transform="translate(-1074.935 -610.438)" fill="#a2a2a2"/>
        <path id="Trazado_8457" data-name="Trazado 8457" d="M1151.666,638.662q-7.443,0-11.789-4.431l3.219-4.515a11.773,11.773,0,0,0,8.863,3.763,6.131,6.131,0,0,0,3.575-.9,2.629,2.629,0,0,0,1.275-2.195,2.194,2.194,0,0,0-1.192-1.881,8.455,8.455,0,0,0-2.967-1.087,37.847,37.847,0,0,1-3.868-.961,31.994,31.994,0,0,1-3.867-1.422,7.065,7.065,0,0,1-4.159-6.689,7.617,7.617,0,0,1,2.884-6.04,11.5,11.5,0,0,1,7.692-2.446,15.417,15.417,0,0,1,10.869,3.888l-3.3,4.348a11.508,11.508,0,0,0-8.11-3.052,4.935,4.935,0,0,0-2.926.753,2.39,2.39,0,0,0-1.045,2.048,1.982,1.982,0,0,0,1.191,1.693,9.392,9.392,0,0,0,2.969,1.025,34.152,34.152,0,0,1,3.846.982,32.63,32.63,0,0,1,3.846,1.463,7.18,7.18,0,0,1,4.16,6.71,8.14,8.14,0,0,1-2.864,6.48Q1157.1,638.662,1151.666,638.662Z" transform="translate(-1089.209 -609.815)" fill="#a2a2a2"/>
        <path id="Trazado_8458" data-name="Trazado 8458" d="M1226.776,638.783h-19.732V610.9h19.732v5.226h-13.8v5.895h13.5v5.225h-13.5v6.313h13.8Z" transform="translate(-1129.412 -610.438)" fill="#a2a2a2"/>
        <path id="Trazado_8459" data-name="Trazado 8459" d="M1277.616,638.783h-5.978V616.124h-8.153V610.9h22.242v5.226h-8.111Z" transform="translate(-1163.196 -610.438)" fill="#a2a2a2"/>
        <path id="Trazado_8460" data-name="Trazado 8460" d="M1350.938,638.783h-6.814l-5.477-9.908H1334.3v9.908h-5.935V610.9h13.043a9.282,9.282,0,0,1,6.835,2.509,8.73,8.73,0,0,1,2.529,6.48,8.4,8.4,0,0,1-1.777,5.56,7.8,7.8,0,0,1-4.327,2.717Zm-10.41-15.133a4.4,4.4,0,0,0,3.01-1.024,3.787,3.787,0,0,0,0-5.477,4.406,4.406,0,0,0-3.01-1.024H1334.3v7.525Z" transform="translate(-1202.029 -610.438)" fill="#a2a2a2"/>
        <path id="Trazado_8461" data-name="Trazado 8461" d="M1416.9,638.783h-6.772l-1.715-4.724h-11.957l-1.756,4.724h-6.772l10.786-27.885h7.441Zm-10.117-9.949-4.348-12-4.348,12Z" transform="translate(-1237.682 -610.438)" fill="#a2a2a2"/>
        <path id="Trazado_8462" data-name="Trazado 8462" d="M1474.52,638.6a14.776,14.776,0,0,1-10.6-4.034,14.839,14.839,0,0,1,0-20.777,14.777,14.777,0,0,1,10.6-4.035,12.557,12.557,0,0,1,11.664,6.815l-5.1,2.508a7.687,7.687,0,0,0-2.7-2.905,6.985,6.985,0,0,0-3.867-1.149,8.283,8.283,0,0,0-6.271,2.592,9.965,9.965,0,0,0,0,13.127,8.28,8.28,0,0,0,6.271,2.592,7.077,7.077,0,0,0,3.867-1.128,7.442,7.442,0,0,0,2.7-2.927l5.1,2.467A12.715,12.715,0,0,1,1474.52,638.6Z" transform="translate(-1280.628 -609.753)" fill="#a2a2a2"/>
        <path id="Trazado_8463" data-name="Trazado 8463" d="M1558.423,638.783h-7.316l-8.445-11.162-2.173,2.592v8.57h-5.937V610.9h5.937v12.458l9.865-12.458h7.316l-11.078,13.085Z" transform="translate(-1325.444 -610.438)" fill="#a2a2a2"/>
      </g>
      <g id="Grupo_1777" data-name="Grupo 1777" transform="translate(-8542.807 7372.776)">
        <g id="Grupo_1776" data-name="Grupo 1776">
          <path id="Trazado_8464" data-name="Trazado 8464" d="M1313.121,398.392a13.138,13.138,0,1,0,13.138,13.138A13.138,13.138,0,0,0,1313.121,398.392Zm0,19.944a6.806,6.806,0,1,1,6.806-6.806A6.805,6.805,0,0,1,1313.121,418.336Z" transform="translate(-1251.617 -398.392)" fill="#a2a2a2"/>
          <path id="Trazado_8465" data-name="Trazado 8465" d="M1274.307,398.392h0a5.017,5.017,0,0,0-4.344,2.508l-28.951,50.144-5.8-10.04-5.795-10.037-17.134-29.676c-.036-.063-.075-.123-.114-.183s-.071-.139-.112-.208h0a5.017,5.017,0,0,0-4.344-2.507h-23.185a5.017,5.017,0,0,0-4.344,7.527h0c.032.057.068.111.1.167.039.074.077.149.119.222l33.045,57.228c.01.017.018.035.028.052l0,0a5.017,5.017,0,0,0,8.689,0l7.246-12.55,7.246,12.55a5.016,5.016,0,0,0,8.688,0l0,0c.01-.017.019-.035.028-.052l33.27-57.619A5.017,5.017,0,0,0,1274.307,398.392Zm-56.483,52.653-24.605-42.618h11.594L1223.621,441Z" transform="translate(-1179.504 -398.392)" fill="#a2a2a2"/>
        </g>
      </g>
    </g>
  </g>
</svg>
