<svg xmlns="http://www.w3.org/2000/svg" xmlns:xlink="http://www.w3.org/1999/xlink" width="251.728" height="67.784" viewBox="0 0 251.728 67.784">
  <defs>
    <clipPath id="clip-path">
      <rect id="Rectángulo_193" data-name="Rectángulo 193" width="251.728" height="67.784" fill="#a2a2a2"/>
    </clipPath>
  </defs>
  <g id="Grupo_16173" data-name="Grupo 16173" transform="translate(100 -2120)">
    <path id="Trazado_9333" data-name="Trazado 9333" d="M39,14.188,36.183,27.041H33.069l2.818-12.853Z" transform="translate(-35.179 2147.811)" fill="#a2a2a2"/>
    <g id="Grupo_214" data-name="Grupo 214" transform="translate(-100 2120)">
      <g id="Grupo_213" data-name="Grupo 213" clip-path="url(#clip-path)">
        <path id="Trazado_9334" data-name="Trazado 9334" d="M36.951,15.357h2.768l-.3,1.374a5.544,5.544,0,0,1,1.859-1.264,5.332,5.332,0,0,1,1.977-.4,4.572,4.572,0,0,1,2.649.633,1.82,1.82,0,0,1,.811,1.572,2.47,2.47,0,0,1-.059.533l-1.533,7.161H42.38L43.7,18.927a1.5,1.5,0,0,0,0-.326,1.2,1.2,0,0,0-.5-.989,2.177,2.177,0,0,0-1.285-.367,3.107,3.107,0,0,0-1.868.642,3.51,3.51,0,0,0-1.305,1.977l-1.11,5.18H34.876Z" transform="translate(68.362 29.519)" fill="#a2a2a2"/>
        <path id="Trazado_9335" data-name="Trazado 9335" d="M43.869,16.685H46.32l-.414,1.977H43.454l-.989,4.428a1.238,1.238,0,0,0,0,.3.982.982,0,0,0,.326.773,1.108,1.108,0,0,0,.761.287,3.109,3.109,0,0,0,.7-.08c.258-.059.524-.127.781-.207l-.722,1.977a11.09,11.09,0,0,1-2.59.385q-2.211,0-2.214-1.859a4.47,4.47,0,0,1,.118-.989l1.086-5.032H39.322l.423-1.977h1.385l.326-1.53,2.966-.752Z" transform="translate(77.077 28.191)" fill="#a2a2a2"/>
        <path id="Trazado_9336" data-name="Trazado 9336" d="M49.108,18.463a1.522,1.522,0,0,0-.474-1.2,1.744,1.744,0,0,0-1.19-.406,2.815,2.815,0,0,0-1.643.562,3.548,3.548,0,0,0-1.2,1.622h4.4a3.376,3.376,0,0,0,.1-.574m.406,6.21a5.852,5.852,0,0,1-1.374.367,11.113,11.113,0,0,1-1.977.178,5.958,5.958,0,0,1-3.087-.731,3.223,3.223,0,0,1-1.483-2.966c-.012-.243-.012-.483,0-.722a5.278,5.278,0,0,1,.118-.713,6.131,6.131,0,0,1,6.19-5.032,4.136,4.136,0,0,1,2.679.832A3.055,3.055,0,0,1,51.707,18.4a6.483,6.483,0,0,1-.11,1.1l-.118.447a2.723,2.723,0,0,1-.139.423H44.3a1.782,1.782,0,0,1-.08.406,4.057,4.057,0,0,0,0,.465,1.925,1.925,0,0,0,.814,1.711,3.443,3.443,0,0,0,1.889.444A7.471,7.471,0,0,0,48.7,23.17a7.926,7.926,0,0,0,1.557-.512Z" transform="translate(81.508 29.497)" fill="#a2a2a2"/>
        <path id="Trazado_9337" data-name="Trazado 9337" d="M49.776,15.35l-.207,1.069a3.338,3.338,0,0,1,2.62-1.356,4.653,4.653,0,0,1,.989.118l-.139,2.125-.485-.1q-.266-.013-.533,0a3.27,3.27,0,0,0-1.711.444,2.739,2.739,0,0,0-1.226,1.69L47.879,25H45.12l2.037-9.612Z" transform="translate(88.442 29.526)" fill="#a2a2a2"/>
        <path id="Trazado_9338" data-name="Trazado 9338" d="M49.778,15.357h2.759L52.25,16.73a5.4,5.4,0,0,1,1.859-1.264,5.273,5.273,0,0,1,1.977-.4,4.572,4.572,0,0,1,2.649.633,1.821,1.821,0,0,1,.82,1.572,2.47,2.47,0,0,1-.059.533l-1.542,7.161H55.225l1.305-6.042V18.6a1.183,1.183,0,0,0-.515-.989,2.141,2.141,0,0,0-1.273-.367,3.122,3.122,0,0,0-1.871.642,3.424,3.424,0,0,0-1.305,1.977l-1.107,5.18H47.691Z" transform="translate(93.482 29.519)" fill="#a2a2a2"/>
        <path id="Trazado_9339" data-name="Trazado 9339" d="M56.613,15.271a13.965,13.965,0,0,1,2.167-.157,5.891,5.891,0,0,1,2.549.474,1.576,1.576,0,0,1,.989,1.53v.426L60.746,24.87H58.135l1.048-4.943a11.087,11.087,0,0,1-2.164.731c-1.513.414-2.353.989-2.5,1.711a.509.509,0,0,0,0,.189.771.771,0,0,0,.385.69,1.752,1.752,0,0,0,.989.237,4.63,4.63,0,0,0,.989-.118,2.525,2.525,0,0,0,.731-.225l-.66,1.67a9.092,9.092,0,0,1-2.167.308,3.256,3.256,0,0,1-2.273-.713,2.083,2.083,0,0,1-.684-1.61,2.666,2.666,0,0,1,.062-.554,3.382,3.382,0,0,1,2.253-2.383c.337-.139,1.483-.456,3.452-.941,1.217-.314,1.877-.7,1.977-1.175a.721.721,0,0,0-.3-.781,1.981,1.981,0,0,0-1.175-.3,8.646,8.646,0,0,0-1.889.246,18.2,18.2,0,0,0-2.146.6l.536-1.82a16.672,16.672,0,0,1,2.016-.414" transform="translate(101.586 29.617)" fill="#a2a2a2"/>
        <path id="Trazado_9340" data-name="Trazado 9340" d="M64.5,17.773a8.1,8.1,0,0,0-1.267-.485,4.524,4.524,0,0,0-1.11-.136,3.442,3.442,0,0,0-2.427.938,3.747,3.747,0,0,0-1.157,2.075,3.558,3.558,0,0,0-.071.773,2.463,2.463,0,0,0,.586,1.711,2.313,2.313,0,0,0,1.844.74,4.786,4.786,0,0,0,1.1-.148,9.027,9.027,0,0,0,1.255-.414L62.687,24.8a9.366,9.366,0,0,1-2.892.542,3.944,3.944,0,0,1-3.111-1.226,4.083,4.083,0,0,1-.992-2.827,5.7,5.7,0,0,1,.139-1.226,6.224,6.224,0,0,1,6.21-5,8.6,8.6,0,0,1,2.623.426Z" transform="translate(109.159 29.527)" fill="#a2a2a2"/>
        <path id="Trazado_9341" data-name="Trazado 9341" d="M64.418,13.924,63.985,15.9H61.227l.423-1.977Zm-.8,3.659-2.045,9.6H58.814l2.045-9.6Z" transform="translate(115.284 27.293)" fill="#a2a2a2"/>
        <path id="Trazado_9342" data-name="Trazado 9342" d="M64.641,18.075a4.587,4.587,0,0,0-1.089,2.164,2.555,2.555,0,0,0-.08.474v.456a2.706,2.706,0,0,0,.465,1.631,1.642,1.642,0,0,0,1.406.633,3.17,3.17,0,0,0,2.333-.989,4.354,4.354,0,0,0,1.166-2.185,2.563,2.563,0,0,0,.071-.426v-.287a2.692,2.692,0,0,0-.586-1.779,1.973,1.973,0,0,0-1.61-.7,2.741,2.741,0,0,0-2.066.989m5.932-1.8a3.967,3.967,0,0,1,1.009,2.809,5.97,5.97,0,0,1-.118,1.146,6.183,6.183,0,0,1-2.125,3.431,6.318,6.318,0,0,1-4.254,1.581A4.732,4.732,0,0,1,61.7,24.1a3.946,3.946,0,0,1-.989-3.232,4.8,4.8,0,0,1,.1-.583,6.714,6.714,0,0,1,2.078-3.62A6.057,6.057,0,0,1,67.151,15a4.5,4.5,0,0,1,3.392,1.226" transform="translate(118.93 29.382)" fill="#a2a2a2"/>
        <path id="Trazado_9343" data-name="Trazado 9343" d="M66.667,15.357h2.768l-.3,1.374A5.514,5.514,0,0,1,71,15.467a5.274,5.274,0,0,1,1.977-.4,4.544,4.544,0,0,1,2.64.633,1.834,1.834,0,0,1,.82,1.572,2.47,2.47,0,0,1-.059.533l-1.533,7.161H72.126l1.294-6.042a1.494,1.494,0,0,0,0-.326,1.207,1.207,0,0,0-.5-.989,2.183,2.183,0,0,0-1.285-.367,3.122,3.122,0,0,0-1.871.642,3.424,3.424,0,0,0-1.305,1.977l-1.107,5.18H64.592Z" transform="translate(126.61 29.519)" fill="#a2a2a2"/>
        <path id="Trazado_9344" data-name="Trazado 9344" d="M73.527,15.271a13.462,13.462,0,0,1,2.155-.157,5.979,5.979,0,0,1,2.561.474,1.587,1.587,0,0,1,.989,1.53v.426L77.66,24.87H75.049L76.1,19.927a11,11,0,0,1-2.155.731c-1.522.414-2.353.989-2.51,1.711a.83.83,0,0,0,.367.879,1.8,1.8,0,0,0,.989.237,4.653,4.653,0,0,0,.989-.118,2.438,2.438,0,0,0,.731-.225l-.663,1.67a9,9,0,0,1-2.155.308,3.305,3.305,0,0,1-2.285-.713,2.073,2.073,0,0,1-.672-1.61,2.882,2.882,0,0,1,0-.554A3.415,3.415,0,0,1,71,19.859c.337-.139,1.483-.456,3.44-.941,1.217-.314,1.88-.7,1.977-1.175a.748.748,0,0,0-.3-.781,1.99,1.99,0,0,0-1.178-.3,8.646,8.646,0,0,0-1.889.246,17.862,17.862,0,0,0-2.134.6l.524-1.82a17.276,17.276,0,0,1,2.045-.453" transform="translate(134.699 29.617)" fill="#a2a2a2"/>
        <path id="Trazado_9345" data-name="Trazado 9345" d="M75.27,27.077H72.511l2.8-13.1h2.771Z" transform="translate(142.132 27.4)" fill="#a2a2a2"/>
        <path id="Trazado_9346" data-name="Trazado 9346" d="M21.482,6.554a23.12,23.12,0,0,1,8.1-2.392c-2.907,3.076-2.552,5.1.178,7.465,4.271,3.431,10.056,4.1,21,9.8,5.014,2.51,8.632,5.577,8.425,10.124C57.877,36.78,52.537,40.536,45.122,43.5c.118-1.356.207-2.679.3-4.044,6.921-2.324,11.506-4.943,13.226-7.91.921-2.125-1.977-4.162-9.727-6.693-8.9-2.365-19.963-6.5-24.717-10.393-2.611-1.708-3.8-4.31-2.7-7.85M9.114,50.423l6.527-1.593,4.834,1.918L10.884,53.1a6.639,6.639,0,0,1-1.77-2.679m21-30.768c1.977.832,4.005,1.652,5.991,2.451C24.726,25.262,18.726,28.87,17.45,33.882c-1.335,5.518,1.779,9.215,6.583,9.65a23.565,23.565,0,0,0,11.361-1.681c.414-2.273.8-4.576,1.217-6.871l-6.08.79c.237-1.533.444-3.064.681-4.636,4.716-.376,9.431-.793,14.15-1.208L43.313,44.272a33.623,33.623,0,0,1-11.864,3.067c3.955,1.977,8.78,3.49,12.308,5.586,3.768,2.155,5.37,4.686,4.866,7.614A30.371,30.371,0,0,0,58.975,16.411c-2.67,1.119-9.612,2.454-9.612,2.454s-2.788-1.305-6.228-2.72c3.887-.059,11.864-2.6,13.14-2.966a30.357,30.357,0,0,0-22.3-9.689c-.625,0-1.246,0-1.871.059-2.4,1.8-4.94,3.6-2.9,6.675,2.134,1.889,7.445,4.31,15.819,7.522,12.664,5.379,14.561,9.037,14.919,12.459.355,5.932-6.409,11.133-15.662,14.463.089-1.889.3-4.221.385-6.11C50.411,37.026,58,33.388,57.975,30.531c-.186-1.859-6.554-3.836-9.768-5.121C40.14,23,33.109,20.546,26.615,17.124,21.038,13.9,19.694,10.9,20.357,6.646A30.4,30.4,0,0,0,3.449,33.852a30.084,30.084,0,0,0,4.6,16.026l7.685-2.1,7.445,3.372S13.623,53.132,11.1,53.981a30.431,30.431,0,0,0,22.87,10.284,31.871,31.871,0,0,0,6.574-.693c2.134-2.709,1.039-4.547-.474-5.814-8.484-4.6-15.9-6.583-23.729-10.449s-8.771-9.058-6.278-14.682c2.877-5.843,8.721-10.876,20.049-12.933M34.207,0h.237A3.577,3.577,0,0,0,36.59,2.481c.989.089,2.282-.989,3.2-1.977.355,1.149.921,2.365,1.72,2.682S43.828,2.6,44.8,1.741c.2,1.335.586,2.747,1.672,3.2.74.287,2.164-.326,3.2-1.1l.178.089A4.28,4.28,0,0,0,50.63,6.95c.592.524,2.578.287,3.825-.148h.059a4.37,4.37,0,0,0,.447,3.182c.5.506,2.075.417,3.321.118l.118.121c-.355,1.2-.474,2.658.059,3.389.414.533,2.075.713,3.292.565l.089.118c-.562,1.146-.989,2.9-.592,3.478.562.743,1.977,1.069,3.262,1.069l.059.148c-.71.989-1.335,2.5-.989,3.126a4.452,4.452,0,0,0,2.809,1.61l.089.237c-.861.989-1.72,2.513-1.453,3.224A4.335,4.335,0,0,0,67.574,28.9a2.9,2.9,0,0,0,.092.494c-.989.77-1.977,1.542-1.977,2.717,0,.861,1.184,1.711,2.253,2.276v.266c-1.1.554-2.315,1.5-2.344,2.185A4.672,4.672,0,0,0,67.468,39.7v.059c-1.187.5-2.759,1.572-2.818,2.333a4.179,4.179,0,0,0,1.542,2.691l-.118.287a4.41,4.41,0,0,0-2.948,1.4c-.326.622.24,2.185.891,3.244l-.118.266a4.342,4.342,0,0,0-3.084,1.036c-.385.524-.059,1.977.414,3.1l-.148.237c-1.246-.207-2.729-.148-3.173.355-.562.7-.5,2.214-.207,3.422l-.207.207c-1.246-.355-2.966-.5-3.472,0a4.583,4.583,0,0,0-.533,3.274l-.059.056c-1.157-.524-2.818-.909-3.38-.491a4.358,4.358,0,0,0-.989,3.093l-.3.148c-.989-.71-2.46-1.326-3.114-1.069a4.627,4.627,0,0,0-1.6,2.966l-.207.059c-.989-.888-2.371-1.767-3.084-1.56a4.551,4.551,0,0,0-1.977,2.649h-.207c-.773-.989-1.977-2.1-2.729-1.977a4.714,4.714,0,0,0-2.463,2.3h-.207c-.5-1.086-1.157-2.273-2.134-2.472a3.514,3.514,0,0,0-3.025,1.977h-.178a3.6,3.6,0,0,0-1.9-2.75c-.681-.266-2.193.595-3.173,1.415H22.7c-.207-1.234-.74-2.649-1.513-3.093s-2.193.326-3.262.989l-.178-.089a4.154,4.154,0,0,0-.684-3.037c-.533-.5-2.253-.3-3.469.118a4.114,4.114,0,0,0-.562-2.966c-.477-.444-1.977-.317-3.173,0,.385-1.175.562-2.709.089-3.212s-2.167-.8-3.413-.684L6.385,53.8c.506-1.146.891-2.709.477-3.271a4.631,4.631,0,0,0-3.114-.989l-.121-.258c.684-1.1,1.305-2.868.921-3.549A4.4,4.4,0,0,0,1.64,44.47v-.089a4.28,4.28,0,0,0,1.631-2.857c-.059-.761-1.69-1.977-2.877-2.472l-.059-.414c.989-.684,1.927-1.652,1.977-2.513,0-.71-1.217-1.889-2.312-2.569v-.118c1.1-.554,2.223-1.474,2.4-2.362.118-.7-.989-1.977-1.977-2.741v-.207c1.157-.355,2.374-.989,2.7-1.77S2.531,24.113,1.7,23.145l.059-.237a4.4,4.4,0,0,0,2.966-1.394c.355-.613-.266-2.205-.989-3.274,1.276,0,2.818-.326,3.38-1.057.417-.592,0-2.273-.562-3.431,1.246.207,2.877.148,3.321-.385.565-.734.477-2.324.118-3.57l.118-.118c1.217.355,2.848.5,3.383,0s.681-1.977.533-3.215c1.217.506,3.292.832,3.887.3a4.353,4.353,0,0,0,.651-3.105c.989.8,2.7,1.631,3.41,1.305.861-.447,1.483-1.977,1.69-3.312.989.888,2.463,1.8,3.176,1.572A4.845,4.845,0,0,0,28.9.5c.891.989,2.581,2.188,3.354,1.977A4.222,4.222,0,0,0,34.228.03" transform="translate(0 0)" fill="#a2a2a2"/>
        <path id="Trazado_9347" data-name="Trazado 9347" d="M35.764,12.618c.989.059,1.977.059,2.848.059,1.554,0,2.738,0,3.65-.059-.16.485-.329,1.069-.485,1.711s-.426,1.394-.642,2.244-.426,1.6-.533,2.244-.329,1.166-.435,1.6l-2.146.266a17.451,17.451,0,0,1-2.037.207c-.8.059-1.5.059-2.1.059a16.969,16.969,0,0,1-2.9-.216,8.163,8.163,0,0,1-2.463-.752,3.729,3.729,0,0,1-1.56-1.335,3.993,3.993,0,0,1-.752-1.977,7.508,7.508,0,0,1,.059-2.4,7.811,7.811,0,0,1,.693-1.977A6.585,6.585,0,0,1,28.2,10.422a10.029,10.029,0,0,1,3.718-2.747A13.419,13.419,0,0,1,37.5,6.686a25.9,25.9,0,0,1,5.21.545c-.169.989-.326,2.075-.485,3.25-.406-.127-.817-.237-1.234-.326A5.514,5.514,0,0,0,39.917,9.9L38.73,9.652c-.376,0-.752-.05-.989-.05a8.977,8.977,0,0,0-2.362.317,5.86,5.86,0,0,0-2.1.989,5.713,5.713,0,0,0-1.474,1.622A7.124,7.124,0,0,0,31,14.507a4.231,4.231,0,0,0,.059,1.818,2.075,2.075,0,0,0,1.077,1.237,4.314,4.314,0,0,0,2.087.423,8.078,8.078,0,0,0,2.146-.266c.216-.693.435-1.442.592-2.185H34.983c.11-.423.219-.8.329-1.226a4.468,4.468,0,0,0,.157-.592,7.427,7.427,0,0,0,.3-1.1M53.206,17.8c-.169.376-.533,1.394-1.077,2.966-.85.16-1.551.266-2.087.326a15.559,15.559,0,0,1-1.661.05,13.663,13.663,0,0,1-2.253-.16,4.693,4.693,0,0,1-1.672-.592,3.35,3.35,0,0,1-1.069-1.069,3.221,3.221,0,0,1-.483-1.492,5.54,5.54,0,0,1,.107-1.82,6.734,6.734,0,0,1,.989-2.5,6.914,6.914,0,0,1,1.77-1.927,6.368,6.368,0,0,1,2.1-.989,10.805,10.805,0,0,1,2.306-.266,9.117,9.117,0,0,1,2.193.266,2.931,2.931,0,0,1,1.613.909,2.565,2.565,0,0,1,.749,1.542,4.761,4.761,0,0,1,0,1.761,9.805,9.805,0,0,1-.376,1.285c-2.413.05-4.872.05-7.294.05a.289.289,0,0,1-.11.266,1.489,1.489,0,0,0,.545,1.6,3.121,3.121,0,0,0,1.818.533,9.161,9.161,0,0,0,1.61-.157,21.724,21.724,0,0,0,2.247-.574Zm-5.784-3.2h3.44a.673.673,0,0,0,0-.326,1.764,1.764,0,0,0,0-.912.867.867,0,0,0-.423-.533,1.962,1.962,0,0,0-.811-.157,2.773,2.773,0,0,0-.583.107,1.892,1.892,0,0,0-.595.266,4.141,4.141,0,0,0-.483.426l-.326.485a4.645,4.645,0,0,1-.219.642m7.572,6.139c.258-.752.477-1.551.743-2.4s.485-1.708.7-2.667a26.745,26.745,0,0,0,.642-2.67c.219-.912.426-1.77.595-2.572h4.132c-.11.435-.219.912-.376,1.394a5.3,5.3,0,0,1,.693-.592,3.313,3.313,0,0,1,.7-.426,6.751,6.751,0,0,1,.909-.376,7.637,7.637,0,0,0,.909-.207,7.7,7.7,0,0,1,1.077-.059,5.816,5.816,0,0,1,1.394.169,3.593,3.593,0,0,1,1.128.426,2.117,2.117,0,0,1,.642.749,1.806,1.806,0,0,1,.266.912,5.837,5.837,0,0,1-.107.989,16.4,16.4,0,0,1-.426,1.649c-.169.595-.326,1.228-.435,1.82s-.317,1.226-.474,1.868-.278,1.385-.376,1.977H63.092c.216-.592.426-1.492.752-2.729s.482-2.075.592-2.561a1.884,1.884,0,0,0-.169-1.6,1.366,1.366,0,0,0-.989-.423,2.088,2.088,0,0,0-1.234.376,2.943,2.943,0,0,0-.989,1.116,9.953,9.953,0,0,0-.909,2.4c-.269,1.128-.536,2.244-.8,3.419H55.056ZM77.952,10a7.105,7.105,0,0,1,2.413.376,4.45,4.45,0,0,1,1.77,1.125,2.874,2.874,0,0,1,.858,1.652,4.365,4.365,0,0,1,0,2.087,6.368,6.368,0,0,1-2.3,3.887,5.964,5.964,0,0,1-2.362,1.285,9.78,9.78,0,0,1-2.788.423,7.106,7.106,0,0,1-2.413-.364A4.575,4.575,0,0,1,71.3,19.4a3.683,3.683,0,0,1-.929-1.838,5.5,5.5,0,0,1,0-2.087,6.965,6.965,0,0,1,.8-2.087A7.8,7.8,0,0,1,72.8,11.63,7.586,7.586,0,0,1,75.214,10.4a9.777,9.777,0,0,1,2.738-.447Zm-.642,2.966a2.56,2.56,0,0,0-1.285.317,2.776,2.776,0,0,0-.989.989,4.376,4.376,0,0,0-.515,1.314,1.907,1.907,0,0,0,.266,1.711,1.587,1.587,0,0,0,1.285.583,2.569,2.569,0,0,0,1.217-.317,2.707,2.707,0,0,0,.989-.989,6.246,6.246,0,0,0,.536-1.385,4.112,4.112,0,0,0,0-1.175,1.6,1.6,0,0,0-.536-.8,1.992,1.992,0,0,0-.989-.255Zm26.4,7.741c.216-.8.423-1.61.642-2.4s.423-1.661.642-2.46c.157-.633.326-1.276.482-1.918s.329-1.285.485-1.871.266-1.116.376-1.661h4.073c-.1.435-.216.912-.317,1.347a6.8,6.8,0,0,1,.693-.645,3.305,3.305,0,0,1,.642-.373,2.505,2.505,0,0,1,.752-.329,4.3,4.3,0,0,1,.861-.207c.326,0,.592-.059.989-.059a5.843,5.843,0,0,1,.989.11,2.138,2.138,0,0,1,.749.216,1.617,1.617,0,0,1,.545.269,2.848,2.848,0,0,1,.376.423,1.944,1.944,0,0,1,.317.642,4.066,4.066,0,0,1,1.187-.989,5.82,5.82,0,0,1,1.285-.474,6.676,6.676,0,0,1,1.453-.169,5.69,5.69,0,0,1,1.711.266,2.23,2.23,0,0,1,1.175.861,1.8,1.8,0,0,1,.219,1.6,8.47,8.47,0,0,1-.317,1.445c-.16.642-.485,1.7-.861,3.2s-.642,2.611-.811,3.2h-4.34c.266-.861.533-1.977.909-3.2s.536-2.2.642-2.67a2.146,2.146,0,0,0,0-.989.659.659,0,0,0-.314-.426,1.453,1.453,0,0,0-.536-.107,1.759,1.759,0,0,0-.592.107,1.657,1.657,0,0,0-.536.376,3.409,3.409,0,0,0-.592.853A5.16,5.16,0,0,0,116.2,15.9c-.157.533-.314,1.234-.533,2.134s-.426,1.82-.642,2.729h-4.351c.169-.592.485-1.61.861-2.966s.592-2.4.7-2.877a1.724,1.724,0,0,0,.05-.909,2.348,2.348,0,0,0-.266-.485.889.889,0,0,0-.595-.157,1.2,1.2,0,0,0-.752.216,2.113,2.113,0,0,0-.69.693,3.827,3.827,0,0,0-.536,1.178c-.169.533-.376,1.273-.651,2.341s-.477,2.037-.693,2.966h-4.4Zm-19.854,0c.216-.8.426-1.61.642-2.4s.435-1.661.642-2.46c.169-.633.326-1.276.485-1.918s.326-1.285.483-1.871.269-1.116.376-1.661h4.073c-.1.435-.207.912-.314,1.347a7.476,7.476,0,0,1,.69-.645,3.666,3.666,0,0,1,.642-.373,2.617,2.617,0,0,1,.752-.329,4.805,4.805,0,0,1,.861-.207c.326,0,.592-.059.989-.059a5.843,5.843,0,0,1,.989.11,2.308,2.308,0,0,1,.752.216,1.706,1.706,0,0,1,.533.269,2.689,2.689,0,0,1,.376.423,1.836,1.836,0,0,1,.317.642A4.066,4.066,0,0,1,98.33,10.8a6.2,6.2,0,0,1,1.285-.474,6.575,6.575,0,0,1,1.445-.169,5.655,5.655,0,0,1,1.72.266,2.252,2.252,0,0,1,1.184.861,1.8,1.8,0,0,1,.21,1.6c-.05.317-.16.8-.317,1.445s-.485,1.7-.861,3.2-.642,2.611-.8,3.2H97.845c.266-.861.533-1.977.909-3.2s.536-2.2.642-2.67a2.323,2.323,0,0,0,.059-.989.713.713,0,0,0-.326-.426,1.426,1.426,0,0,0-.533-.107,1.852,1.852,0,0,0-.595.107,1.644,1.644,0,0,0-.533.376,3.408,3.408,0,0,0-.592.853A4.9,4.9,0,0,0,96.4,15.9c-.166.533-.326,1.234-.542,2.134s-.426,1.82-.642,2.729H90.865c.169-.592.485-1.61.861-2.966s.592-2.4.7-2.877a1.752,1.752,0,0,0,0-.909,2.347,2.347,0,0,0-.266-.485.854.854,0,0,0-.6-.157,1.2,1.2,0,0,0-.752.216,2.2,2.2,0,0,0-.69.693,3.759,3.759,0,0,0-.536,1.178c-.169.533-.376,1.273-.651,2.341s-.477,2.037-.693,2.966h-4.4Zm42.978-7.377c.266-.631.423-1.116.533-1.382s.219-.642.376-1.178a27.642,27.642,0,0,1,5.311-.642,8.9,8.9,0,0,1,2.146.266,2.845,2.845,0,0,1,1.45.861,1.976,1.976,0,0,1,.219,1.711c-.059.364-.278,1.226-.651,2.561-.16.642-.376,1.442-.586,2.294s-.432,1.818-.642,2.886h-4.132c.1-.376.266-.989.477-1.711s.435-1.711.761-2.886c-.278.11-.545.216-.7.266a6.659,6.659,0,0,1-.811.266c-.308.074-.613.163-.912.266a3.046,3.046,0,0,0-.642.269.915.915,0,0,0-.326.385.977.977,0,0,0-.216.376.972.972,0,0,0,.166.583,1.159,1.159,0,0,0,.853.266,1.647,1.647,0,0,0,.482,0,2.286,2.286,0,0,0,.693-.237c-.266.474-.642,1.276-1.128,2.235a10.134,10.134,0,0,1-1.72.166,4.725,4.725,0,0,1-2.087-.373,1.921,1.921,0,0,1-1.077-1.119,2.6,2.6,0,0,1-.157-1.551,2.69,2.69,0,0,1,.326-.912,5.526,5.526,0,0,1,.752-.909,4.316,4.316,0,0,1,.989-.74,9.854,9.854,0,0,1,1.453-.595c.583-.157,1.344-.317,2.256-.474a9.186,9.186,0,0,1,.989-.219l.69-.207a1.4,1.4,0,0,0,.376-.216.673.673,0,0,0,.219-.219c0-.107,0-.207.107-.266a.512.512,0,0,0-.266-.583,1.375,1.375,0,0,0-.918-.207,15.233,15.233,0,0,0-4.647.959Zm18.024,7.377c.216-.8.435-1.492.592-2.134s.376-1.228.485-1.761c.266-.909.533-1.82.752-2.729s.474-1.809.69-2.717.426-1.711.536-2.463.326-1.385.435-1.977h4.606c-.157.592-.317,1.237-.474,1.82s-.326,1.226-.485,1.818c-.216.989-.485,1.918-.7,2.877s-.474,1.927-.693,2.827c-.157.485-.216.989-.376,1.445h2.353c1.829,0,3.173,0,4.132-.05l-.8,3.046Zm15.819-7.377c.216-.631.423-1.116.482-1.382a11.9,11.9,0,0,0,.426-1.178,27.129,27.129,0,0,1,5.26-.642,9.268,9.268,0,0,1,2.193.266,2.411,2.411,0,0,1,1.394.861,1.976,1.976,0,0,1,.278,1.711c-.11.364-.329,1.226-.7,2.561-.16.642-.376,1.442-.6,2.294s-.423,1.818-.642,2.886H164.7c.109-.376.266-.909.485-1.711s.423-1.711.69-2.886c-.266.11-.474.216-.642.266a7.374,7.374,0,0,1-.858.266,8.65,8.65,0,0,0-.909.266,2.568,2.568,0,0,0-.6.269,1.549,1.549,0,0,0-.423.373.884.884,0,0,0-.16.376.578.578,0,0,0,.16.583,1.158,1.158,0,0,0,.858.269,1.469,1.469,0,0,0,.426,0,2.528,2.528,0,0,0,.752-.16c-.317.477-.693,1.276-1.178,2.235a9.871,9.871,0,0,1-1.72.169,4.627,4.627,0,0,1-2.037-.376,1.979,1.979,0,0,1-1.128-1.119,2.608,2.608,0,0,1,.219-2.46,5.175,5.175,0,0,1,.69-.909,6.848,6.848,0,0,1,.989-.743c.329-.157.811-.376,1.406-.592a14.68,14.68,0,0,1,2.3-.477,7.446,7.446,0,0,1,.989-.216c.266-.1.533-.16.693-.207a.488.488,0,0,0,.326-.219.994.994,0,0,0,.266-.216,2.5,2.5,0,0,1,.05-.266.475.475,0,0,0-.207-.583,1.469,1.469,0,0,0-.912-.21,15.305,15.305,0,0,0-4.547.891ZM171.4,20.705c.326-1.069.642-2.2.989-3.422.157-.642.314-1.285.482-1.918s.376-1.382.536-2.084a15.159,15.159,0,0,0,.483-1.977c.16-.642.326-1.178.426-1.711.216-1.069.435-1.977.545-2.67h4.26a30.5,30.5,0,0,0-.989,3.469l1.513-.207a5.817,5.817,0,0,1,.989-.059,6.265,6.265,0,0,1,2.62.485,3.161,3.161,0,0,1,1.563,1.661,4.946,4.946,0,0,1,.11,2.827,8.391,8.391,0,0,1-1.288,3.1,5.858,5.858,0,0,1-4.991,2.777,6.163,6.163,0,0,1-.989-.11,2.494,2.494,0,0,1-.861-.314,2.13,2.13,0,0,1-.592-.485c-.16-.16-.317-.376-.536-.642l-.326,1.285H171.4Zm5.932-7.474c-.269,1.116-.485,1.809-.536,2.028a8.66,8.66,0,0,0-.11,1.492,1.379,1.379,0,0,0,.485.909,1.585,1.585,0,0,0,.989.317,2.171,2.171,0,0,0,1.128-.317,2.293,2.293,0,0,0,.909-.989,4.457,4.457,0,0,0,.533-1.335,1.958,1.958,0,0,0-.266-1.708,1.819,1.819,0,0,0-1.551-.645,6.372,6.372,0,0,0-1.6.24Zm8.155,7.474c.11-.435.266-.989.376-1.61s.326-1.276.485-1.977h4.023a9.3,9.3,0,0,0-.435,1.433c-.157.583-.317,1.335-.533,2.193h-3.955Z" transform="translate(51.249 13.088)" fill="#a2a2a2"/>
        <path id="Trazado_9348" data-name="Trazado 9348" d="M83.259,9.1a2.9,2.9,0,0,0,2.155,3.487,2.992,2.992,0,0,0,.811.074c3.955-.092,3.57-6.329-.5-5.746A2.668,2.668,0,0,0,83.28,9.1m6.338-.059v1.374a3.491,3.491,0,0,1-3.955,2.809c-4.044-.494-4.005-7,.494-6.992,1.9,0,2.809,1.069,3.452,2.809" transform="translate(162.111 12.222)" fill="#a2a2a2"/>
        <path id="Trazado_9349" data-name="Trazado 9349" d="M83.961,8.431c2.256.423,2.028-1.533,0-1.128Zm-.622-1.622c.989.118,2.134-.258,2.688.317a1.047,1.047,0,0,1-.749,1.749c.562.4.808,1.107,1.255,1.622-.13.148-.515,0-.752.059-.5-.592-.533-1.681-1.761-1.563a8.363,8.363,0,0,0-.059,1.563h-.622Z" transform="translate(163.357 13.32)" fill="#a2a2a2"/>
      </g>
    </g>
  </g>
</svg>
