<svg xmlns="http://www.w3.org/2000/svg" xmlns:xlink="http://www.w3.org/1999/xlink" width="220.941" height="40.513" viewBox="0 0 220.941 40.513">
  <defs>
    <clipPath id="clip-path">
      <rect id="Rectángulo_11199" data-name="Rectángulo 11199" width="220.941" height="40.513" fill="#a2a2a2"/>
    </clipPath>
  </defs>
  <g id="Grupo_16169" data-name="Grupo 16169" clip-path="url(#clip-path)">
    <path id="Trazado_16815" data-name="Trazado 16815" d="M74.95.812V39.7H63.081V24.406H50.726V39.7H38.854V.812H50.726V16.269H63.081V.812Zm41.29,31.075V.812H104.375V39.7h21.459l1.788-7.81ZM95.6.812H83.727V39.7H95.6Zm48.122,0H131.849V39.7h11.869Zm58.526,9.926c0-2.116,2.118-3.09,5.528-3.09a29.891,29.891,0,0,1,10.57,1.95l-.977-8.46A46.462,46.462,0,0,0,206.473,0c-9.59,0-16.1,3.783-16.1,11.714,0,13.664,18.536,10.9,18.536,17.246,0,2.438-1.788,3.743-6.179,3.743a35.559,35.559,0,0,1-13.5-3.093l1.3,8.95A39.288,39.288,0,0,0,202.9,40.513c9.916,0,18.044-3.255,18.044-13.017,0-13.015-18.7-10.577-18.7-16.758M186.8,14.808c0,9.926-6.993,15.619-18.046,15.619H164.53V39.7H152.66V.812A133.521,133.521,0,0,1,167.128,0c12.2,0,19.675,3.905,19.675,14.808m-11.706.161c0-4.881-2.766-7.648-8.618-7.648-.611,0-1.258,0-1.949.04V23.428h1.949c6.179,0,8.618-3.415,8.618-8.46M34.141,14.808c0,9.926-6.99,15.619-18.046,15.619H11.869V39.7H0V.812A133.545,133.545,0,0,1,14.471,0c12.194,0,19.67,3.905,19.67,14.808m-11.706.161c0-4.881-2.761-7.648-8.615-7.648-.609,0-1.259,0-1.951.04V23.428H13.82c6.178,0,8.615-3.415,8.615-8.46" transform="translate(0 0)" fill="#a2a2a2"/>
  </g>
</svg>
