<svg id="Grupo_1" data-name="Grupo 1" xmlns="http://www.w3.org/2000/svg" width="182.103" height="52.016" viewBox="0 0 182.103 52.016">
  <path id="Trazado_1" data-name="Trazado 1" d="M949.656,535.6a13.312,13.312,0,0,0,.369-2.159.493.493,0,0,0-.762-.4c.045-.809.078-1.618.1-2.42a1.353,1.353,0,0,0-.694-1.443.921.921,0,0,0-.659,0,.537.537,0,0,0-.45.116,1.9,1.9,0,0,0-1.063.506c-.319.285-.572.629-.917.885a10.647,10.647,0,0,1-1.44.847,4.866,4.866,0,0,0-2.063,2.068,4.415,4.415,0,0,0-.383,2.694,12.587,12.587,0,0,1,.132,3.115,52.136,52.136,0,0,0-.474,6.959c.007,2.515-.075,5.039.053,7.551s.456,4.978.615,7.47a10.619,10.619,0,0,1-.321,3.432,3.592,3.592,0,0,1-.553,1.358,2.06,2.06,0,0,1-1.3.608c-1.05.19-2.122.321-3.177.493a6.978,6.978,0,0,1-3.431-.207,13.9,13.9,0,0,1-5.754-3.643,4.151,4.151,0,0,1-1.072-2.8c-.061-1.191.063-2.366-.076-3.558-.281-2.42-.813-4.795-1.039-7.227-.23-2.466-.09-4.96-.116-7.434-.013-1.259-.057-2.517.017-3.774.073-1.237.249-2.466.437-3.69.081-.523.14-1.043.192-1.569a6.188,6.188,0,0,0,.227-1.437c-.142-.892-1.132-.738-1.756-.552-.751.223-1.483.495-2.212.773a.353.353,0,0,0-.045,0,1.438,1.438,0,0,0-.447.187l-.448.171a.5.5,0,0,0-.308.334l-.022.014a5.955,5.955,0,0,1-1.951.321c-1.079.169-1.356,1.242-1.314,2.205.031.7.185,1.379.181,2.091,0,.827,0,1.654,0,2.482.005,1.538.035,3.081-.005,4.619a9.878,9.878,0,0,0,.105,1.873c.107.658.059,1.313.153,1.973.214,1.475-.023,2.958.1,4.44.116,1.421.544,2.791.544,4.224,0,1.578.006,3.157,0,4.735,0,.654-.061,1.314,0,1.967a15.961,15.961,0,0,0,.516,1.982,10.212,10.212,0,0,0,1.967,3.616c.033.048.075.089.111.133.3.495.556,1.014.844,1.513a5.815,5.815,0,0,0,.686.919c.19.314.391.62.61.914a13.176,13.176,0,0,0,3,2.854,17.8,17.8,0,0,0,2.38,1.4c.107.059.214.12.321.178a14.375,14.375,0,0,0,2.817,1.125,10.761,10.761,0,0,0,2.193.507l.084.017v0c.042,0,.085.015.128.019a.486.486,0,0,0,.477-.6c.216.021.432.042.652.042a.338.338,0,0,0,.1-.017,2.951,2.951,0,0,0,.312.015,10.2,10.2,0,0,0,2.038-.452,9.275,9.275,0,0,0,1.779-.677c.628-.3,1.184-.743,1.824-1.007a4.049,4.049,0,0,0,1.445-1.041,6.842,6.842,0,0,1,.957-.639,8.36,8.36,0,0,0,.633-.586c.248-.215.553-.359.809-.566.316-.255.589-.557.892-.826a3.59,3.59,0,0,0,1.145-1.375,6.076,6.076,0,0,0,.282-1.622.542.542,0,0,0,.634-.477c.239-2.619.343-5.247.356-7.877.006-1.34.086-2.714-.027-4.049-.052-.619-.159-1.231-.158-1.854s.094-1.26.144-1.89c.209-2.628.29-5.276.382-7.91a39.081,39.081,0,0,1,.266-4.091,34.8,34.8,0,0,0,.45-3.678,7.08,7.08,0,0,0-.134-1.473C949.577,536.082,949.61,535.841,949.656,535.6Z" transform="translate(-870.943 -528.377)" fill="#a2a2a2"/>
  <path id="Trazado_2" data-name="Trazado 2" d="M1051.448,573.668c-.337-.786-.734-1.532-1.137-2.286-.012-.022-.02-.046-.032-.068-.193-.733-.575-1.4-.8-2.139a25.455,25.455,0,0,1-.614-2.958,48,48,0,0,0-1.959-6.291c-.656-2.055-1.207-4.143-2-6.15-.587-1.478-1.041-2.99-1.529-4.5-.235-1.112-.471-2.224-.7-3.338a.43.43,0,0,0-.544-.345,3.288,3.288,0,0,0-.132-.663,13.69,13.69,0,0,1-.481-1.356c-.108-.519-.085-1.057-.156-1.58a9.465,9.465,0,0,0-.352-1.43c-.3-1.005-.485-2.05-.826-3.039-.354-1.025-.755-2.039-1.122-3.06-.378-1.049-.818-2.066-1.144-3.132a12.824,12.824,0,0,0-.536-1.427,7,7,0,0,0-.472-1.189.515.515,0,0,0-.568-.226c-.581.21-.806.827-1,1.364-.278.772-.541,1.551-.8,2.33a49.45,49.45,0,0,1-2.607,6.439,23.727,23.727,0,0,0-1.157,2.991c-.357,1.062-.828,2.072-1.232,3.115-.839,2.165-1.3,4.442-2.355,6.527a18.593,18.593,0,0,0-1.286,2.944,22.438,22.438,0,0,1-1.112,3.083c-.946,2.005-1.673,4.086-2.462,6.156-.807,2.119-1.4,4.324-2.217,6.439a11.9,11.9,0,0,1-.7,1.268c-.261.491-.373,1.051-.672,1.523-.491.773-1.305,1.3-1.366,2.286-.049.8-.513,1.782.374,2.3a3.872,3.872,0,0,0,1.305.393,4.335,4.335,0,0,1,1.429.249,20.488,20.488,0,0,0,2.333,1.476c.86.312,1.338-.53,1.264-1.279a.533.533,0,0,0-.058-.189,5.716,5.716,0,0,0,.771-1.636c.35-.867.733-1.718,1.061-2.595,1.287-3.445,3.123-6.638,4.594-10,.325-.744.727-1.45,1.054-2.193.181-.412.315-.6.785-.643a11.224,11.224,0,0,1,1.325.054,16.68,16.68,0,0,0,2.628,0c.887-.111,1.828-.025,2.7-.21.366-.077.522-.256.757.1a7.185,7.185,0,0,1,.472,1.159,19.89,19.89,0,0,1,.98,2.566,37.36,37.36,0,0,0,1.8,5.409c.765,1.754.949,3.688,1.7,5.446.378.884.6,2.4,1.689,2.684.675.177,1.15-.264,1.744-.481.925-.335,1.84-.721,2.787-.994.507-.146,1.051-.272,1.208-.855C1052.275,575.014,1051.711,574.28,1051.448,573.668Zm-11.1-19.774c-.318.283-.679.2-1.063.225-.642.048-1.247.255-1.9.272s-1.283-.024-1.924-.028a.467.467,0,0,1-.376-.176c-.232.023-.469.047-.719.051-.436.009-.919-.037-1.1-.507-.172-.448.146-.929.29-1.341a12.022,12.022,0,0,0,.641-1.9,5.718,5.718,0,0,1,.213-.978c.1-.28.282-.527.365-.813.148-.51.16-1.1.265-1.623.128-.638.312-1.26.472-1.89.136-.534.186-1.1.342-1.624a1.544,1.544,0,0,1,2.034-.977c.974.324,1.178,1.7,1.234,2.584.074,1.183.3,2.365.455,3.545a16.394,16.394,0,0,0,.838,3.92C1040.59,553.064,1040.763,553.529,1040.352,553.894Z" transform="translate(-870.021 -528.383)" fill="#a2a2a2"/>
  <path id="Trazado_3" data-name="Trazado 3" d="M998.766,574.015c-.132-.958-.215-1.925-.415-2.872a16.081,16.081,0,0,0-.828-2.452c-.314-.817-.451-1.677-.744-2.5-.367-1.034-.792-2.047-1.151-3.084a16.392,16.392,0,0,0-1.129-2.778c-.517-.914-1.086-1.815-1.686-2.677a5.509,5.509,0,0,1-1.211-2.227c.434-.268.863-.542,1.262-.84q.478-.358.918-.744a3.359,3.359,0,0,1,.107-.361,3.416,3.416,0,0,1,.832-1.309,4.906,4.906,0,0,1,.711-.541c.433-.78.9-1.539,1.313-2.331A19.525,19.525,0,0,0,998,546.078a14.311,14.311,0,0,0,.752-3.5c.122-2.374-1.139-4.363-1.967-6.487a8.674,8.674,0,0,0-1.487-2.994c-.345-.363-.775-.634-1.15-.964a9.025,9.025,0,0,0-1.221-1,8.476,8.476,0,0,0-1.206-.576,5.372,5.372,0,0,0-1.55-.539c-1.155-.11-2.347-.2-3.51-.195-.523,0-1.048.053-1.57.019-.632-.042-1.247-.245-1.88-.313-1.223-.131-2.448-.041-3.676-.059-1.2-.018-2.334-.383-3.538-.36a6.4,6.4,0,0,0-2.624.544c-.139,1.968-.348,3.93-.543,5.894.027,2.068.093,4.135.132,6.2.015.048.019.1.035.144a9.763,9.763,0,0,1,.222,3.315c-.017,1.214-.087,2.432-.018,3.646.032.569.2,1.116.218,1.684s-.019,1.164-.015,1.745a29.783,29.783,0,0,1-.308,3.725c-.141,1.216-.067,2.449-.186,3.668-.128,1.311-.222,2.622-.263,3.939-.079,2.6,0,5.2.093,7.8q.039,1.154.076,2.305a7.042,7.042,0,0,0-.128,1.092,16.054,16.054,0,0,1-.095,1.732,2.356,2.356,0,0,0,.8,2.271c.768.58,1.725.191,2.591.357.809.155,1.613.587,2.428.667.955.094.992-.745,1.093-1.461.177-1.247.086-2.512.258-3.764.166-1.209.444-2.4.58-3.613a31.522,31.522,0,0,0,.138-3.907c-.013-1.2.187-2.376.2-3.575.008-.6.033-1.207.03-1.811,0-.318,0-.642-.031-.959-.018-.191-.162-.537-.112-.717a.75.75,0,0,1,.4-.381,2.541,2.541,0,0,1,.754-1.242,6.938,6.938,0,0,1,3.5-1.207,1.031,1.031,0,0,1,1.241.7c.049.217.077.439.115.658q1.054,1.874,2.219,3.683a11.13,11.13,0,0,1,1.282,2.3c.29.829.455,1.7.723,2.532a13.7,13.7,0,0,0,.974,2.282c.383.714.986,1.231,1.392,1.915a20.314,20.314,0,0,1,1.155,2.522,16.074,16.074,0,0,1,.982,2.665c.071.314.1.966.2,1.609a26.383,26.383,0,0,0,3.727-1.688C999.149,575.593,998.876,574.8,998.766,574.015Zm-8.411-27.655a5.1,5.1,0,0,1-1.54,1.495,7.021,7.021,0,0,1-1.9,1.241,15.445,15.445,0,0,1-2.066.667,16.131,16.131,0,0,1-2.461.42c-.453.011-.909-.02-1.363-.019-.432,0-.844-.135-1.267-.132a.5.5,0,0,1-.057-1,.457.457,0,0,1-.073-.262c.073-2.219.266-4.436.257-6.658,0-1.06-.054-2.121,0-3.181.055-1.032.219-2.052.241-3.087.009-.434,0-.86.048-1.29a9.975,9.975,0,0,1,.115-1.156c.164-.672.762-.75,1.333-.868a4.421,4.421,0,0,1,1.389-.162c.348.034.694.094,1.042.13a7.466,7.466,0,0,1,2.161.484A9.576,9.576,0,0,1,990.1,535.4a13.1,13.1,0,0,1,1.939,3.834,5.961,5.961,0,0,1,.318,2.513,4.468,4.468,0,0,1-.653,2.07C991.243,544.661,990.866,545.541,990.355,546.359Z" transform="translate(-870.434 -528.377)" fill="#a2a2a2"/>
  <path id="Trazado_4" data-name="Trazado 4" d="M893.813,540.264a8.736,8.736,0,0,0-.265-2.2,16.866,16.866,0,0,0-.773-2.049,5.576,5.576,0,0,0-1.07-1.689c-.459-.513-.973-.979-1.466-1.459a6.241,6.241,0,0,1-.807-.87,3.235,3.235,0,0,0-.626-.74,8.279,8.279,0,0,0-1.768-.952,4.42,4.42,0,0,0-1.78-1.25,9.887,9.887,0,0,0-1.347-.369c-.527-.106-1.045-.073-1.572-.143a25.015,25.015,0,0,0-3.4-.135,19.99,19.99,0,0,0-3.472.1c-.52.092-1.024.208-1.549.268a1.267,1.267,0,0,0-.838.313c-.6.621-.4,1.859-.371,2.623.044,1.216.022,2.438.028,3.656a65.5,65.5,0,0,1-.279,7.286,57.032,57.032,0,0,0-.049,7.269c.049,2.407-.3,4.741-.473,7.134-.177,2.443-.194,4.894-.172,7.342.021,2.4.154,4.82.08,7.218-.015.483-.134.951-.177,1.43-.048.546-.08,1.082-.146,1.629a5.553,5.553,0,0,0,.021,2.551,1.368,1.368,0,0,0,.8.736c.455.188.91.38,1.368.564a23.91,23.91,0,0,1,2.711,1.262c.485.271,1.088.72,1.681.586.828-.188.676-1.166.542-1.778a6.5,6.5,0,0,1-.122-1.266.544.544,0,0,0,.572-.485,64.036,64.036,0,0,0,.213-7.3c-.015-1.207-.013-2.414-.036-3.62-.009-.519-.05-1.037-.055-1.555a13.743,13.743,0,0,1,.17-1.744c.123-1.04-.021-2.078.053-3.115.068-.933,1.029-.9,1.755-1.07a16.684,16.684,0,0,0,6-3.04,16.12,16.12,0,0,0,4-4.43c.257-.416.6-.777.836-1.207a12.279,12.279,0,0,0,.628-1.5,13.112,13.112,0,0,0,.833-3.091,17.265,17.265,0,0,0,.121-3.083C893.662,541.477,893.8,540.881,893.813,540.264Zm-4.666,3.351a9.379,9.379,0,0,1-3.444,4.452c-.812.532-1.676.975-2.494,1.5-.376.239-.788.351-1.173.562-.344.188-.636.5-1.042.552a2.119,2.119,0,0,1-1.687-.73c-.431-.7-.074-1.813.048-2.548.375-2.283.652-4.623.818-6.93a23.508,23.508,0,0,0,.082-3.445c-.081-1.081-.216-2.182-.224-3.265a.51.51,0,0,1,.94-.258c.1-.423.333-.775.877-.674a3.615,3.615,0,0,1,1.152.6c.437.276.864.571,1.286.87a14.476,14.476,0,0,1,4.1,3.853A6.369,6.369,0,0,1,889.147,543.615Z" transform="translate(-871.37 -528.383)" fill="#a2a2a2"/>
</svg>
