<svg xmlns="http://www.w3.org/2000/svg" xmlns:xlink="http://www.w3.org/1999/xlink" width="179.367" height="62.467" viewBox="0 0 179.367 62.467">
  <defs>
    <clipPath id="clip-path">
      <rect id="Rectángulo_11113" data-name="Rectángulo 11113" width="179.367" height="62.467" fill="#a2a2a2"/>
    </clipPath>
  </defs>
  <g id="Grupo_16183" data-name="Grupo 16183" transform="translate(-960 -122.681)">
    <g id="Grupo_16174" data-name="Grupo 16174" transform="translate(960 122.681)">
      <g id="Grupo_16173" data-name="Grupo 16173" transform="translate(0 0)" clip-path="url(#clip-path)">
        <path id="Trazado_16914" data-name="Trazado 16914" d="M12.244,10.94V50.29h11.6c5.963,0,10.089-2.948,12.453-8.8a31.264,31.264,0,0,0,1.9-11.5c0-6.135-.966-10.824-2.891-14.11-1.916-3.31-5.738-4.943-11.466-4.943ZM35.306,1.778A19.876,19.876,0,0,1,45.563,9.427a26.58,26.58,0,0,1,4.31,9.742,46.445,46.445,0,0,1,1.136,9.97q0,12.045-4.822,20.375Q39.663,60.752,25.975,60.751H0V.463H25.975a31.19,31.19,0,0,1,9.332,1.315" transform="translate(0 0.16)" fill="#a2a2a2"/>
        <path id="Trazado_16915" data-name="Trazado 16915" d="M54.69,10.949H42.873V.187H54.69ZM42.873,16.264H54.694V60.845H42.873Z" transform="translate(14.782 0.064)" fill="#a2a2a2"/>
        <path id="Trazado_16916" data-name="Trazado 16916" d="M78.129.1c.6.034,1.444.079,2.453.157V9.739c-.667-.081-1.762-.122-3.314-.152-1.544-.062-2.581.266-3.176,1a3.652,3.652,0,0,0-.855,2.4v3.767h7.648v8.207H73.237V60.908H61.629V24.963H55.1V16.755h6.37V13.882c0-4.771.812-8.073,2.426-9.876C65.59,1.354,69.68,0,76.138,0c.733,0,1.4.039,1.992.1" transform="translate(18.998 0)" fill="#a2a2a2"/>
        <path id="Trazado_16917" data-name="Trazado 16917" d="M106.278,45.22Q109.009,41.6,109,34.873c0-4.462-.9-7.906-2.725-10.3a10.351,10.351,0,0,0-15.743,0C88.7,26.965,87.8,30.41,87.8,34.873c0,4.484.9,7.936,2.739,10.347a10.3,10.3,0,0,0,15.743,0M115.6,51.7c-3.773,4.619-9.465,6.943-17.127,6.943-7.679,0-13.382-2.324-17.153-6.943a25.988,25.988,0,0,1-5.652-16.829A26.115,26.115,0,0,1,81.32,18.139c3.771-4.7,9.474-7.063,17.153-7.063,7.663,0,13.354,2.365,17.127,7.063a25.96,25.96,0,0,1,5.631,16.737A25.844,25.844,0,0,1,115.6,51.7" transform="translate(26.09 3.819)" fill="#a2a2a2"/>
        <path id="Trazado_16918" data-name="Trazado 16918" d="M139.009,11.407c.14,0,.476,0,1.006.034V23.389c-.725-.1-1.4-.143-1.966-.171-.549-.016-1.049-.042-1.385-.042-4.687,0-7.828,1.54-9.477,4.6-.875,1.693-1.325,4.358-1.325,7.933V57H114.13V12.42h11.125v7.774a24.432,24.432,0,0,1,4.711-6.1,12.842,12.842,0,0,1,8.488-2.761,2.144,2.144,0,0,1,.554.071" transform="translate(39.351 3.908)" fill="#a2a2a2"/>
      </g>
    </g>
  </g>
</svg>
