<svg xmlns="http://www.w3.org/2000/svg" width="250.078" height="52.304" viewBox="0 0 250.078 52.304">
  <g id="Grupo_16186" data-name="Grupo 16186" transform="translate(-630.382 -1194.53)">
    <path id="Trazado_16868" data-name="Trazado 16868" d="M20.12,11.308a5.359,5.359,0,1,1,5.359,5.361l-.146,0,4.611,6.784-2.775.024-6.534-9.691.066-.044a5.36,5.36,0,0,1-.58-2.431m0,29.69a5.358,5.358,0,0,1,5.359-5.361c.068,0,.135,0,.2,0L20.217,26.9h-3.6a5.362,5.362,0,1,1-.174-2.286h5.039l8.046,12.868A5.359,5.359,0,1,1,20.12,41M0,26.153A11.315,11.315,0,0,1,14.951,15.445a11.308,11.308,0,1,1,21,.128,11.317,11.317,0,0,1,15.31,10.58v.062l.007,11.242h-5.99V26.215h.035v-.062a5.352,5.352,0,1,0-2.372,4.452v6.457a11.355,11.355,0,0,1-6.991-.331,11.307,11.307,0,1,1-21,.13A11.315,11.315,0,0,1,0,26.153" transform="translate(630.382 1194.53)" fill="#a2a2a2" fill-rule="evenodd"/>
    <path id="Trazado_16869" data-name="Trazado 16869" d="M113.594,21.548A2.55,2.55,0,1,0,111.046,19a2.553,2.553,0,0,0,2.548,2.55m0-.494A1.959,1.959,0,0,1,111.666,19a1.933,1.933,0,1,1,3.858,0,1.957,1.957,0,0,1-1.93,2.056m-.979-.62h.536V19.19h.324l.748,1.244h.552L114,19.168a.72.72,0,0,0,.754-.777c0-.609-.373-.849-1.068-.849h-1.072Zm.536-2.482h.481c.276,0,.585.055.585.4,0,.388-.276.43-.591.43h-.474Z" transform="translate(764.313 1214.368)" fill="#a2a2a2" fill-rule="evenodd"/>
    <path id="Trazado_16870" data-name="Trazado 16870" d="M27.765,34.412h7.75L37.767,28.3H48.509l2.133,6.109H59.01L47.977,5.792H38.628ZM46.709,22.889H39.53L43.221,11.7H43.3Z" transform="translate(663.869 1201.516)" fill="#a2a2a2" fill-rule="evenodd"/>
    <rect id="Rectángulo_11109" data-name="Rectángulo 11109" width="7.382" height="30.753" transform="translate(724.822 1205.173)" fill="#a2a2a2"/>
    <path id="Trazado_16871" data-name="Trazado 16871" d="M69.832,22.185V20.833c0-6.356-2.872-11.975-10.786-11.975-6.645,0-11.441,4.1-11.441,11.154s5.372,11.194,12.422,11.194a21.428,21.428,0,0,0,7.834-1.352V24.645a13.826,13.826,0,0,1-6.521,1.641c-3.607,0-5.862-1.149-6.274-4.1ZM54.988,18c.161-2.46,1.432-4.47,4.1-4.47,2.952,0,4.1,2.01,4.1,4.47Z" transform="translate(687.799 1205.213)" fill="#a2a2a2" fill-rule="evenodd"/>
    <path id="Trazado_16872" data-name="Trazado 16872" d="M58.862,30.714h7.382V21.693c0-4.593,1.558-6.684,4.181-6.684,2.091,0,2.954,1.8,2.954,4.225v11.48H80.76V21.693c0-4.593,1.558-6.684,4.181-6.684,2.094,0,2.952,1.8,2.952,4.225v11.48h7.382V18.126c0-5.782-1.394-9.268-7.543-9.268a8.467,8.467,0,0,0-7.589,4.1c-1.147-2.788-3.649-4.1-6.682-4.1-3.362,0-6.314,1.355-7.79,4.43h-.084V9.35H58.862Z" transform="translate(701.374 1205.213)" fill="#a2a2a2" fill-rule="evenodd"/>
    <path id="Trazado_16873" data-name="Trazado 16873" d="M98.2,30.714a26.3,26.3,0,0,1-.408-5.043V17.715c0-6.521-4.717-8.857-10.17-8.857a22.088,22.088,0,0,0-8.529,1.518l.124,5a13.878,13.878,0,0,1,6.806-1.6c2.667,0,4.838.777,4.878,3.689a21.684,21.684,0,0,0-3.444-.287c-3.936,0-11.028.779-11.028,7.3,0,4.635,3.772,6.726,7.995,6.726a7.322,7.322,0,0,0,6.764-3.856h.082c0,1.107.124,2.215.168,3.364ZM83.317,23.948c0-2.049,1.97-2.83,4.47-2.83,1.107,0,2.175.082,3.115.124,0,2.5-1.76,5.045-4.549,5.045-1.721,0-3.036-.863-3.036-2.338" transform="translate(722.563 1205.213)" fill="#a2a2a2" fill-rule="evenodd"/>
    <path id="Trazado_16874" data-name="Trazado 16874" d="M87.686,30.714h7.379V21.693c0-4.593,1.557-6.684,4.593-6.684,2.01,0,3.4,1.355,3.4,5.372V30.714h7.379V17.387c0-4.428-2.336-8.529-8.16-8.529-3.362,0-6.314,1.355-7.79,4.43H94.41V9.35H87.686Z" transform="translate(736.138 1205.213)" fill="#a2a2a2" fill-rule="evenodd"/>
    <path id="Trazado_16875" data-name="Trazado 16875" d="M120.864,30.714a26.119,26.119,0,0,1-.408-5.043V17.715c0-6.521-4.717-8.857-10.17-8.857a22.088,22.088,0,0,0-8.529,1.518l.124,5a13.884,13.884,0,0,1,6.806-1.6c2.667,0,4.838.777,4.878,3.689a21.685,21.685,0,0,0-3.444-.287c-3.933,0-11.028.779-11.028,7.3,0,4.635,3.77,6.726,7.995,6.726a7.327,7.327,0,0,0,6.766-3.856h.079c0,1.107.126,2.215.168,3.364Zm-14.884-6.766c0-2.049,1.97-2.83,4.47-2.83,1.107,0,2.173.082,3.115.124,0,2.5-1.76,5.045-4.549,5.045-1.723,0-3.036-.863-3.036-2.338" transform="translate(749.895 1205.213)" fill="#a2a2a2" fill-rule="evenodd"/>
    <path id="Trazado_16876" data-name="Trazado 16876" d="M103.559,11.018h2.6l.757-1.31h3.6l.717,1.31h2.8l-3.7-6.14H107.2Zm6.351-2.471H107.5l1.238-2.4h.026Z" transform="translate(755.283 1200.413)" fill="#a2a2a2" fill-rule="evenodd"/>
    <path id="Trazado_16877" data-name="Trazado 16877" d="M104.528,9.675a9.929,9.929,0,0,1-2.389.32c-1.871,0-3.2-.73-3.2-1.935,0-1.143,1.18-1.988,2.994-1.988a7.3,7.3,0,0,1,2.5.43l.205-1.328a15.248,15.248,0,0,0-2.841-.315c-3.164,0-5.5,1.061-5.5,3.2,0,2.319,2.954,3.146,5.511,3.146a16.257,16.257,0,0,0,2.844-.245Z" transform="translate(746.526 1200.39)" fill="#a2a2a2" fill-rule="evenodd"/>
    <rect id="Rectángulo_11110" data-name="Rectángulo 11110" width="2.555" height="6.14" transform="translate(829.545 1205.352)" fill="#a2a2a2"/>
    <path id="Trazado_16878" data-name="Trazado 16878" d="M81.073,11.045H83.42l-.082-4.194h.029l3.353,4.194h3.172V4.906H87.557l.042,4.17H87.57l-3.241-4.17H81.073Z" transform="translate(728.163 1200.446)" fill="#a2a2a2" fill-rule="evenodd"/>
    <rect id="Rectángulo_11111" data-name="Rectángulo 11111" width="2.555" height="6.14" transform="translate(795.699 1205.352)" fill="#a2a2a2"/>
    <path id="Trazado_16879" data-name="Trazado 16879" d="M67.408,11.045h6.515V9.832H69.965V4.906H67.408Z" transform="translate(711.682 1200.446)" fill="#a2a2a2" fill-rule="evenodd"/>
    <path id="Trazado_16880" data-name="Trazado 16880" d="M67.055,9.675a9.966,9.966,0,0,1-2.394.32c-1.869,0-3.2-.73-3.2-1.935,0-1.143,1.182-1.988,3-1.988a7.3,7.3,0,0,1,2.5.43l.207-1.328a15.3,15.3,0,0,0-2.846-.315c-3.161,0-5.5,1.061-5.5,3.2,0,2.319,2.952,3.146,5.511,3.146a16.257,16.257,0,0,0,2.844-.245Z" transform="translate(701.328 1200.39)" fill="#a2a2a2" fill-rule="evenodd"/>
  </g>
</svg>
