<svg xmlns="http://www.w3.org/2000/svg" xmlns:xlink="http://www.w3.org/1999/xlink" width="336.878" height="38.44" viewBox="0 0 336.878 38.44">
  <defs>
    <clipPath id="clip-path">
      <rect id="Rectángulo_192" data-name="Rectángulo 192" width="336.878" height="38.44" transform="translate(0 0)" fill="#a2a2a2"/>
    </clipPath>
  </defs>
  <g id="Grupo_209" data-name="Grupo 209" transform="translate(0 0)" clip-path="url(#clip-path)">
    <path id="Trazado_9310" data-name="Trazado 9310" d="M101.154,23.834c-.027.017-.062.034-.089.052" fill="#a2a2a2"/>
    <path id="Trazado_9311" data-name="Trazado 9311" d="M274.731,38.157H271.57l0-11.608h-6.9a.678.678,0,0,1-.678-.676V25.63a.678.678,0,0,1,.678-.676H281.52a.675.675,0,0,1,.675.676v.243a.675.675,0,0,1-.675.676h-6.757Z" fill="#a2a2a2"/>
    <path id="Trazado_9312" data-name="Trazado 9312" d="M322.087,34.781a14.671,14.671,0,0,0,6.444,1.852,10.431,10.431,0,0,0,3.417-.511q1.476-.527,1.475-1.606c0-.549-.395-.964-1.184-1.25a20.665,20.665,0,0,0-2.989-.606l-2.777-.429a19.373,19.373,0,0,1-3.922-.9q-2.25-.868-2.251-2.4A3.319,3.319,0,0,1,322.415,26a12.4,12.4,0,0,1,5.728-1.117q4.7,0,6.774,1.689c.868.714-2.381,1.384-2.873.987a10.392,10.392,0,0,0-7.182-.381q-1.011.464-1.01,1.225,0,.834,1.34,1.332a11.532,11.532,0,0,0,2.29.523l2.309.346a25.853,25.853,0,0,1,5.05,1.082,2.741,2.741,0,0,1,2.038,2.581q0,1.7-2.117,2.938-2.1,1.238-6.406,1.237c-3.094,0-7.195-.941-8.444-2.1-1.281-.865,2.154-1.574,2.175-1.559" fill="#a2a2a2"/>
    <path id="Trazado_9313" data-name="Trazado 9313" d="M252.152,11.474V.15h-4.315V13.7a7.044,7.044,0,0,0,7.044,7.044h11.887a7.043,7.043,0,0,0,7.045-7.044l.006-6.163V.107h-4.673V13.873a4.577,4.577,0,0,1-4.578,4.578H256.73a4.577,4.577,0,0,1-4.578-4.578Z" fill="#a2a2a2"/>
    <path id="Trazado_9314" data-name="Trazado 9314" d="M98.8,21.19c3.141-2.525,4.858-5.18,4.506-7.818C102.115,4.491,79.181-.61,52.083,1.977c-23,2.2-41.6,9.223-45.98,16.729A26.474,26.474,0,0,0,.166,20.1C2.041,9.956,22.418,3.352,49.578.758c30.148-2.879,58.073,2.691,59.377,12.437.485,3.612-2.425,7.293-7.814,10.639L120.055,35.95l100.087.134.06-11.1,5.644-.029,6.419,10.287,6.714-10.134h5.237v13.01h-3.044V26.392l-7.261,11.725h-3.1l-7.795-11.725L222.9,38.117l-102.943-.063L99.372,24.93S84.849,14.463,82.716,12.852s-5.03-.66-5.03-.66-6.65,2.267-8.486,2.775-2.491.062-2.491.062c-1.728-1.324-4.983-5.137-7.566-2.413-3.763,5.048-9.552,13-9.552,13l-4.011-.09L55.689,10.954s3.043-5.428,8.251-2.3l5.129,3.815s-.416.735,8.9-2.684a5.568,5.568,0,0,1,5.358.761C86.12,12.516,98.8,21.19,98.8,21.19" fill="#a2a2a2"/>
    <path id="Trazado_9315" data-name="Trazado 9315" d="M134.215.356l4.9-.014c3.269,5.359,8.664,16.029,8.664,16.029,0,.648.561,1.879,1.254,1.879s1.248-1.231,1.248-1.879c0,0,4.082-10.693,7.365-16.045l5.929-.014L152.4,20.42h-7Z" fill="#a2a2a2"/>
    <path id="Trazado_9316" data-name="Trazado 9316" d="M187.426,18.537a.8.8,0,0,1,.8.8v.288a.805.805,0,0,1-.811.8H165.532s0-20.116-.01-20.116h21.59a1.049,1.049,0,0,1,1.047,1.05v.376a1.047,1.047,0,0,1-1.047,1.048H170.34V8.933h15.017a1.122,1.122,0,0,1,1.13,1.048v.378a1.048,1.048,0,0,1-1.046,1.048h-15.1l0,7.127Z" fill="#a2a2a2"/>
    <path id="Trazado_9317" data-name="Trazado 9317" d="M234.995,20.429h-4.911V2.624H219.365a1.051,1.051,0,0,1-1.05-1.05V1.2a1.05,1.05,0,0,1,1.05-1.05h26.172a1.049,1.049,0,0,1,1.049,1.05v.378a1.05,1.05,0,0,1-1.049,1.05h-10.5Z" fill="#a2a2a2"/>
    <path id="Trazado_9318" data-name="Trazado 9318" d="M195.255.286c4.852,4.159,15.207,13.932,15.207,13.932.232.607,1.072,1.4,1.718,1.156s.341-1.536.109-2.141c0,0,.087-6.605.08-13.032l4.914-.02V20.269h-4.666S194.955,3.637,193.83,2.519V20.377h-4.3V.266Z" fill="#a2a2a2"/>
    <path id="Trazado_9319" data-name="Trazado 9319" d="M47.659,12.477c.3-1.357-.514-2.19-3.939-1.273-8.747,2.343-22.749,6.44-22.749,6.44l22.943.292ZM5.126,22.268c.007.158.023.313.043.47,1.19,8.88,24.122,13.983,51.221,11.395,15.794-1.507,29.53-5.3,38-9.959L97.3,26.052c-9.218,4.992-23.016,8.325-40.566,10C26.582,38.931,2.261,33.107.222,23.6A8.742,8.742,0,0,1,0,21.411s2.44-.678,45.63-12.389c9.547-2.588,6.878,2.3,6.878,2.3L42.827,25.6l-4.021-.051,4.172-6.22-27.99.06Z" fill="#a2a2a2"/>
    <path id="Trazado_9320" data-name="Trazado 9320" d="M141.3,20.39,130.114.326h-7L111.93,20.433h5.328l3.126-5.107h12.5l2.948,5.064ZM127.718,3.31a29.882,29.882,0,0,0,4.488,10.168h-11.47a29.847,29.847,0,0,0,4.489-10.161,1.249,1.249,0,0,1,2.493-.007" fill="#a2a2a2"/>
    <path id="Trazado_9321" data-name="Trazado 9321" d="M281.9,2.4V10.45h7.614s7.02-1.148,6.757-4.563-6.845-3.4-6.845-3.4Zm10.988,8.941,12.658,9.092h-6.257l-10.985-8.292h-6.4v8.292h-5.167l.024-20.3h16.88c4.736,0,8.568,2.517,8.568,5.62s-3.839,5.62-8.574,5.62c-.237,0-.511-.023-.745-.036" fill="#a2a2a2"/>
    <path id="Trazado_9322" data-name="Trazado 9322" d="M336.3,20.384,325.118.32h-7L306.936,20.428h5.326l3.126-5.107h12.5l2.949,5.063Zm-9.18-6.912H315.74a29.791,29.791,0,0,0,4.489-10.16,1.253,1.253,0,0,1,2.5,0,28.421,28.421,0,0,0,4.391,10.16" fill="#a2a2a2"/>
    <path id="Trazado_9323" data-name="Trazado 9323" d="M305.041,26.462V31.5H309.8s4.381-.931,4.216-3.066-4.27-1.913-4.27-1.913Zm6.871,5.59,8.209,6.1H316.21l-7.165-5.6h-4v5.537h-3.23l.015-13.042H312.38c2.962,0,5.359,1.574,5.359,3.514s-2.4,3.514-5.36,3.514c-.15,0-.32-.016-.467-.022" fill="#a2a2a2"/>
    <path id="Trazado_9324" data-name="Trazado 9324" d="M290.1,25.054c-5.494,0-9.946,2.991-9.946,6.68s4.452,6.682,9.946,6.682,9.95-2.992,9.95-6.682-4.455-6.68-9.95-6.68m0,11.788c-3.641,0-6.594-2.286-6.594-5.108s2.953-5.108,6.594-5.108,6.6,2.287,6.6,5.108-2.952,5.108-6.6,5.108" fill="#a2a2a2"/>
    <path id="Trazado_9325" data-name="Trazado 9325" d="M255.8,24.964c-5.494,0-9.948,2.991-9.948,6.682s4.454,6.681,9.948,6.681,9.948-2.991,9.948-6.681-4.454-6.682-9.948-6.682m0,11.789c-3.641,0-6.594-2.287-6.594-5.107s2.953-5.11,6.594-5.11,6.594,2.289,6.594,5.11-2.953,5.107-6.594,5.107" fill="#a2a2a2"/>
  </g>
</svg>
