<svg id="Grupo_211" data-name="Grupo 211" xmlns="http://www.w3.org/2000/svg" width="176.695" height="109.66" viewBox="0 0 176.695 109.66">
  <g id="Grupo_9" data-name="Grupo 9" transform="translate(8.111)">
    <path id="Trazado_11" data-name="Trazado 11" d="M440.057,772.04h12.889V759.886c0-.276-.119-.409-.378-.409H440.432c-.251,0-.376.134-.376.409Zm.376-20.318h12.136a7.039,7.039,0,0,1,5.348,2.382,8.144,8.144,0,0,1,2.23,5.782V794h-7.2V779.791H440.057V794h-7.138V759.886a8.2,8.2,0,0,1,2.19-5.782,6.966,6.966,0,0,1,5.323-2.382" transform="translate(-317.667 -718.035)" fill="#a2a2a2"/>
    <path id="Trazado_12" data-name="Trazado 12" d="M490.688,768.783H502.05v6.883H490.688c-.229,0-.338.127-.338.371v23.226h-6.375V776.037a7.319,7.319,0,0,1,1.965-5.129,6.24,6.24,0,0,1,4.748-2.125" transform="translate(-333.466 -723.315)" fill="#a2a2a2"/>
    <rect id="Rectángulo_8" data-name="Rectángulo 8" width="10.725" height="10.723" transform="translate(40.57 30.617) rotate(-57.995)" fill="#a2a2a2"/>
    <path id="Trazado_14" data-name="Trazado 14" d="M301.03,727.572l-6.975-4.366,4.364-6.973,6.981,4.359Z" transform="translate(-274.696 -707.053)" fill="#a2a2a2"/>
    <rect id="Rectángulo_9" data-name="Rectángulo 9" width="5.764" height="5.764" transform="matrix(0.531, -0.848, 0.848, 0.531, 4.77, 4.886)" fill="#a2a2a2"/>
    <path id="Trazado_17" data-name="Trazado 17" d="M278.051,738.953l-6.593-2.6,2.6-6.587,6.582,2.6Z" transform="translate(-267.703 -711.242)" fill="#a2a2a2"/>
    <path id="Trazado_18" data-name="Trazado 18" d="M305.376,784.817l-9.518.1-.1-9.5,9.505-.11Z" transform="translate(-275.223 -725.333)" fill="#a2a2a2"/>
    <path id="Trazado_19" data-name="Trazado 19" d="M273.1,784.053l-7.082-.058.069-7.081,7.071.063Z" transform="translate(-266.021 -725.83)" fill="#a2a2a2"/>
    <rect id="Rectángulo_15" data-name="Rectángulo 15" width="10.724" height="10.724" transform="matrix(0.844, -0.536, 0.536, 0.844, 41.488, 79.344)" fill="#a2a2a2"/>
    <rect id="Rectángulo_16" data-name="Rectángulo 16" width="8.184" height="8.184" transform="matrix(0.844, -0.536, 0.536, 0.844, 20.455, 93.302)" fill="#a2a2a2"/>
    <rect id="Rectángulo_17" data-name="Rectángulo 17" width="5.755" height="5.757" transform="translate(3.297 104.8) rotate(-32.431)" fill="#a2a2a2"/>
  </g>
  <g id="Grupo_10" data-name="Grupo 10" transform="translate(0 26.044)">
    <path id="Trazado_1" data-name="Trazado 1" d="M354.409,829.776v-2.291a2.283,2.283,0,0,1,2.363-2.578,2.33,2.33,0,0,1,2.433,2.578h-1.079c-.04-1.046-.509-1.55-1.354-1.55-.805,0-1.278.5-1.278,1.55v2.291c0,1.057.473,1.55,1.278,1.55.852,0,1.327-.492,1.373-1.55h1.07a2.35,2.35,0,0,1-2.443,2.594,2.286,2.286,0,0,1-2.363-2.594" transform="translate(-285.261 -766.726)" fill="#a2a2a2"/>
    <path id="Trazado_2" data-name="Trazado 2" d="M373.861,829.738v-2.182c0-1.117-.512-1.6-1.369-1.6s-1.369.486-1.369,1.6v2.182c0,1.11.516,1.615,1.369,1.615s1.369-.5,1.369-1.615m-3.826,0v-2.182a2.456,2.456,0,1,1,4.9,0v2.182a2.456,2.456,0,1,1-4.9,0" transform="translate(-290.096 -766.726)" fill="#a2a2a2"/>
    <path id="Trazado_3" data-name="Trazado 3" d="M391.117,827.7v4.52h-1.056v-4.436c0-1.293-.354-1.865-1.165-1.865-.858,0-1.427.705-1.427,1.927v4.374H386.41v-7.14h.8l.133.839a2.006,2.006,0,0,1,1.819-1.014c1.2,0,1.952.836,1.952,2.8" transform="translate(-295.163 -766.726)" fill="#a2a2a2"/>
    <path id="Trazado_4" data-name="Trazado 4" d="M401.975,830.063h1.059a1.255,1.255,0,0,0,1.4,1.314c.773,0,1.235-.392,1.235-1.043,0-1.59-3.6-1.033-3.6-3.458a1.983,1.983,0,0,1,2.238-1.97,2.137,2.137,0,0,1,2.3,2.238H405.56a1.151,1.151,0,0,0-1.252-1.249c-.729,0-1.167.379-1.167.992,0,1.506,3.6.922,3.6,3.458a2.056,2.056,0,0,1-2.292,2.048,2.283,2.283,0,0,1-2.478-2.332" transform="translate(-299.98 -766.726)" fill="#a2a2a2"/>
    <path id="Trazado_5" data-name="Trazado 5" d="M422.4,825.161v7.14h-.8l-.138-.845a2,2,0,0,1-1.8,1.018c-1.208,0-1.967-.838-1.967-2.791v-4.522h1.054v4.426c0,1.3.355,1.869,1.173,1.869.851,0,1.42-.7,1.42-1.927v-4.368Z" transform="translate(-304.841 -766.805)" fill="#a2a2a2"/>
    <rect id="Rectángulo_6" data-name="Rectángulo 6" width="1.059" height="9.827" transform="translate(124.135 55.669)" fill="#a2a2a2"/>
    <path id="Trazado_6" data-name="Trazado 6" d="M447.805,830.631v1.006h-.443a2.04,2.04,0,0,1-2.148-2.3v-3.95h-1.059v-.974h1.059v-1.669h1.063v1.669h1.379v.974h-1.379v3.95c0,.854.332,1.293,1.11,1.293Z" transform="translate(-313.032 -766.057)" fill="#a2a2a2"/>
    <path id="Trazado_7" data-name="Trazado 7" d="M461.808,829.738v-2.182c0-1.117-.518-1.6-1.371-1.6s-1.37.486-1.37,1.6v2.182c0,1.11.509,1.615,1.37,1.615s1.371-.5,1.371-1.615m-3.828,0v-2.182a2.456,2.456,0,1,1,4.9,0v2.182a2.456,2.456,0,1,1-4.9,0" transform="translate(-317.31 -766.726)" fill="#a2a2a2"/>
    <path id="Trazado_8" data-name="Trazado 8" d="M477.876,825.019v1.086a2.53,2.53,0,0,0-.893-.146c-.951,0-1.575.713-1.575,1.964v4.3h-1.06v-7.141h.8l.15.879a1.991,1.991,0,0,1,1.846-1.044,2.334,2.334,0,0,1,.729.1" transform="translate(-322.375 -766.731)" fill="#a2a2a2"/>
    <path id="Trazado_9" data-name="Trazado 9" d="M488.745,827.5v.719h2.7V827.5c0-1.075-.5-1.579-1.371-1.579-.826,0-1.329.5-1.329,1.579m3.784,2.507a2.438,2.438,0,1,1-4.868-.256v-2.24a2.428,2.428,0,1,1,4.844,0V829.1h-3.759v.652c0,1.089.488,1.575,1.316,1.575.88,0,1.287-.409,1.4-1.319Z" transform="translate(-326.494 -766.726)" fill="#a2a2a2"/>
    <path id="Trazado_10" data-name="Trazado 10" d="M503.208,830.063h1.057a1.257,1.257,0,0,0,1.4,1.314c.774,0,1.231-.392,1.231-1.043,0-1.59-3.594-1.033-3.594-3.458a1.983,1.983,0,0,1,2.24-1.97,2.135,2.135,0,0,1,2.293,2.238h-1.043a1.151,1.151,0,0,0-1.25-1.249c-.735,0-1.162.379-1.162.992,0,1.506,3.592.922,3.592,3.458a2.054,2.054,0,0,1-2.3,2.048,2.277,2.277,0,0,1-2.465-2.332" transform="translate(-331.306 -766.726)" fill="#a2a2a2"/>
    <rect id="Rectángulo_7" data-name="Rectángulo 7" width="7.244" height="42.282" transform="translate(107.154 7.643)" fill="#a2a2a2"/>
    <path id="Trazado_13" data-name="Trazado 13" d="M378.8,785.7c0,.276-.125.4-.376.4H361.931c-.253,0-.382-.129-.382-.4v-9.065c0-.23.129-.347.382-.347h16.488c.251,0,.376.117.376.347Zm-17.246-25.841c0-.271.129-.4.382-.4H376.9c.215,0,.324.133.324.4v8.24c0,.275-.108.411-.324.411H361.931c-.253,0-.382-.136-.382-.411Zm22.326,11.224a7.314,7.314,0,0,0,.544-2.984v-8.24A8.092,8.092,0,0,0,382.2,754.1a7,7,0,0,0-5.3-2.367H359.7c-4.5.948-5.223,4.192-5.283,4.539v37.543h24a7.059,7.059,0,0,0,5.351-2.36,8.139,8.139,0,0,0,2.215-5.758v-9.065a8.158,8.158,0,0,0-2.111-5.552" transform="translate(-285.262 -744.083)" fill="#a2a2a2"/>
    <rect id="Rectángulo_10" data-name="Rectángulo 10" width="10.722" height="10.728" transform="matrix(0.191, -0.982, 0.982, 0.191, 43.765, 24.309)" fill="#a2a2a2"/>
    <path id="Trazado_15" data-name="Trazado 15" d="M288.57,765.519,280.758,764l1.523-7.8,7.805,1.516Z" transform="translate(-262.47 -745.465)" fill="#a2a2a2"/>
    <path id="Trazado_16" data-name="Trazado 16" d="M307.98,752.966l-8.863-3.45,3.453-8.861,8.859,3.455Z" transform="translate(-268.151 -740.654)" fill="#a2a2a2"/>
    <rect id="Rectángulo_11" data-name="Rectángulo 11" width="5.863" height="5.863" transform="translate(0 14.301) rotate(-80.208)" fill="#a2a2a2"/>
    <rect id="Rectángulo_12" data-name="Rectángulo 12" width="10.727" height="10.723" transform="matrix(0.978, -0.21, 0.21, 0.978, 44.028, 33.659)" fill="#a2a2a2"/>
    <rect id="Rectángulo_13" data-name="Rectángulo 13" width="8.136" height="8.128" transform="translate(19.643 40.737) rotate(-12.106)" fill="#a2a2a2"/>
    <rect id="Rectángulo_14" data-name="Rectángulo 14" width="5.685" height="5.68" transform="matrix(0.978, -0.21, 0.21, 0.978, 1.204, 44.545)" fill="#a2a2a2"/>
    <rect id="Rectángulo_18" data-name="Rectángulo 18" width="9.514" height="9.508" transform="matrix(0.931, -0.365, 0.365, 0.931, 32.202, 49.685)" fill="#a2a2a2"/>
    <rect id="Rectángulo_19" data-name="Rectángulo 19" width="6.928" height="6.927" transform="translate(11.968 58.756) rotate(-21.409)" fill="#a2a2a2"/>
  </g>
</svg>
