<svg xmlns="http://www.w3.org/2000/svg" xmlns:xlink="http://www.w3.org/1999/xlink" width="260.633" height="48.316" viewBox="0 0 260.633 48.316">
  <defs>
    <clipPath id="clip-path">
      <rect id="Rectángulo_11106" data-name="Rectángulo 11106" width="260.633" height="48.316" fill="#a2a2a2"/>
    </clipPath>
  </defs>
  <g id="Grupo_16172" data-name="Grupo 16172" transform="translate(110 -1973)">
    <path id="Trazado_16778" data-name="Trazado 16778" d="M249.052,29.644h-11.2V21.852h-5.375V41.333h5.375V33.541h11.2v7.793h5.34V21.852h-5.34Z" transform="translate(-194.854 1965.024)" fill="#a2a2a2"/>
    <path id="Trazado_16779" data-name="Trazado 16779" d="M392.492,21.9V29.66h-11.2V21.9h-5.357V41.35h5.357V33.557h11.2V41.35h5.358V21.9Z" transform="translate(-247.217 1965.008)" fill="#a2a2a2"/>
    <g id="Grupo_16164" data-name="Grupo 16164" transform="translate(-110 1973)">
      <g id="Grupo_16163" data-name="Grupo 16163" clip-path="url(#clip-path)">
        <path id="Trazado_16780" data-name="Trazado 16780" d="M156.313,41.334h18.751v-3.9H158.5v-3.9h12.688l.011-3.9H158.5v-3.9h16.56v-3.9H156.313A3.653,3.653,0,0,0,152.66,25.5V37.681a3.653,3.653,0,0,0,3.653,3.653" transform="translate(-55.722 -7.976)" fill="#a2a2a2"/>
        <path id="Trazado_16781" data-name="Trazado 16781" d="M116.748,29.724l-7.478-7.872h-5.7V41.334h5.382V27.491l7.793,8.2,7.793-8.2V41.334h5.333V21.852h-5.647Z" transform="translate(-37.805 -7.976)" fill="#a2a2a2"/>
        <path id="Trazado_16782" data-name="Trazado 16782" d="M201.015,21.852h-5.357V37.681a3.652,3.652,0,0,0,3.652,3.652h14.855v-3.9h-13.15Z" transform="translate(-71.416 -7.976)" fill="#a2a2a2"/>
        <rect id="Rectángulo_11103" data-name="Rectángulo 11103" width="5.845" height="19.482" transform="translate(201.213 13.876)" fill="#a2a2a2"/>
        <path id="Trazado_16783" data-name="Trazado 16783" d="M291.247,37.437h-11.2V21.852h-5.357V35.245a6.088,6.088,0,0,0,6.088,6.088h9.741a6.088,6.088,0,0,0,6.088-6.088V21.852h-5.357Z" transform="translate(-100.262 -7.976)" fill="#a2a2a2"/>
        <path id="Trazado_16784" data-name="Trazado 16784" d="M355.665,25.748a6.106,6.106,0,0,0-5.67-3.9H337.4a3.652,3.652,0,0,0-3.652,3.652v4.384a3.652,3.652,0,0,0,3.652,3.652h12.907v3.9h-11.2a2.481,2.481,0,0,1-2.3-1.629l-3.059,1.629a6.193,6.193,0,0,0,5.681,3.9h12.582a3.653,3.653,0,0,0,3.653-3.652V33.3a3.653,3.653,0,0,0-3.653-3.653H339.105v-3.9h11.2a2.454,2.454,0,0,1,2.3,1.633Z" transform="translate(-121.819 -7.976)" fill="#a2a2a2"/>
        <path id="Trazado_16785" data-name="Trazado 16785" d="M29.679,23.61,22.2,15.738H16.5V35.22h5.382V21.377l7.793,8.2,7.793-8.2V35.22H42.8V15.738H37.158Z" transform="translate(-6.024 -5.744)" fill="#a2a2a2"/>
        <rect id="Rectángulo_11104" data-name="Rectángulo 11104" width="26.3" height="3.896" transform="translate(10.48 33.372)" fill="#a2a2a2"/>
        <path id="Trazado_16786" data-name="Trazado 16786" d="M37.521,3.9a5.851,5.851,0,0,1,5.844,5.845v27.78a5.851,5.851,0,0,1-5.844,5.844H9.741A5.851,5.851,0,0,1,3.9,37.521V9.741A5.851,5.851,0,0,1,9.741,3.9Zm0-3.9H9.741A9.741,9.741,0,0,0,0,9.741v27.78a9.741,9.741,0,0,0,9.741,9.741H37.521a9.741,9.741,0,0,0,9.741-9.741V9.741A9.741,9.741,0,0,0,37.521,0" transform="translate(0 0)" fill="#a2a2a2"/>
        <path id="Trazado_16787" data-name="Trazado 16787" d="M157.132,68.1c-.6.023-1.327.041-1.853.041-1.353,0-2.618-.07-2.618-1.782V60.3h1.1v5.589c0,1.118.211,1.36,1.49,1.36h1.883Z" transform="translate(-55.722 -22.011)" fill="#a2a2a2"/>
        <rect id="Rectángulo_11105" data-name="Rectángulo 11105" width="1.034" height="5.978" transform="translate(102.57 40.136)" fill="#a2a2a2"/>
        <path id="Trazado_16788" data-name="Trazado 16788" d="M169.36,59.57h1.023v6.81c0,.37-.013.712-.039,1.058a4.978,4.978,0,0,1-2.293.5c-1.93,0-2.739-.735-2.739-3.071,0-2.3.756-3.067,2.558-3.067a6.326,6.326,0,0,1,1.49.194Zm-1.212,3.048c-1.632,0-1.8.792-1.8,2.248,0,1.374.244,2.256,1.7,2.256a3.26,3.26,0,0,0,1.279-.238c.02-.265.03-.6.03-.876V62.822a4.2,4.2,0,0,0-1.212-.2" transform="translate(-60.34 -21.743)" fill="#a2a2a2"/>
        <path id="Trazado_16789" data-name="Trazado 16789" d="M175.678,66.147c0-2.167.661-3.068,2.635-3.068,2.084,0,2.591,1.095,2.591,2.8,0,.158,0,.346-.017.511-.685.117-2.1.251-2.936.288l-1.249.053c.087,1.191.564,1.652,1.8,1.652a16.312,16.312,0,0,0,2.129-.161l.09.792a15.023,15.023,0,0,1-2.541.208c-1.981,0-2.5-1.3-2.5-3.071m2.4-.218c.486-.024,1.289-.088,1.775-.15.01-.1.014-.252.014-.356,0-.966-.4-1.541-1.558-1.541-1.386,0-1.634.782-1.634,2.111Z" transform="translate(-64.123 -23.024)" fill="#a2a2a2"/>
        <path id="Trazado_16790" data-name="Trazado 16790" d="M186.184,69.137v-4.5c0-.37.013-.712.041-1.058a5.015,5.015,0,0,1,2.3-.5c.2,0,.383.007.557.023l-.083.843a3.99,3.99,0,0,0-.474-.023,3.27,3.27,0,0,0-1.283.239c-.019.265-.026.6-.026.876v4.1Z" transform="translate(-67.958 -23.024)" fill="#a2a2a2"/>
        <path id="Trazado_16791" data-name="Trazado 16791" d="M196.857,66.147c0-2.167.661-3.068,2.635-3.068,2.084,0,2.591,1.095,2.591,2.8,0,.158,0,.346-.017.511-.685.117-2.1.251-2.936.288l-1.249.053c.087,1.191.564,1.652,1.8,1.652a16.312,16.312,0,0,0,2.129-.161l.09.792a15.023,15.023,0,0,1-2.541.208c-1.981,0-2.5-1.3-2.5-3.071m2.4-.218c.486-.024,1.289-.088,1.775-.15.01-.1.013-.252.013-.356,0-.966-.4-1.541-1.557-1.541-1.386,0-1.634.782-1.634,2.111Z" transform="translate(-71.854 -23.024)" fill="#a2a2a2"/>
        <path id="Trazado_16792" data-name="Trazado 16792" d="M208.4,69.137H207.37V64.647c0-.37.013-.712.039-1.058a6.544,6.544,0,0,1,2.7-.51c2.071,0,2.279.973,2.279,2.2v3.86H211.36V65.421c0-1.05-.187-1.51-1.561-1.51a3.831,3.831,0,0,0-1.372.251c-.023.262-.03.6-.03.877Z" transform="translate(-75.691 -23.024)" fill="#a2a2a2"/>
        <path id="Trazado_16793" data-name="Trazado 16793" d="M227.345,61.165h-2.021c-1.279,0-1.493.242-1.493,1.363V63.7h3.359v.869h-3.359v1.316c0,1.124.215,1.359,1.493,1.359h2.021v.846c-.6.027-1.413.047-1.987.047-1.356,0-2.618-.07-2.618-1.782V62.058c0-1.711,1.262-1.786,2.618-1.786.52,0,1.379.024,1.987.051Z" transform="translate(-81.301 -22)" fill="#a2a2a2"/>
        <path id="Trazado_16794" data-name="Trazado 16794" d="M236.057,63.206h1.111L235.2,66.06l2.155,3.124h-1.208l-1.561-2.326-1.544,2.326h-1.134l2.138-3.1-1.974-2.877h1.185l1.4,2.1Z" transform="translate(-84.646 -23.07)" fill="#a2a2a2"/>
        <path id="Trazado_16795" data-name="Trazado 16795" d="M243.541,71.34h-1.024v-6.7c0-.369.013-.711.041-1.057a4.992,4.992,0,0,1,2.292-.5c1.93,0,2.739.735,2.739,3.071,0,2.3-.752,3.068-2.555,3.068a6.364,6.364,0,0,1-1.493-.194Zm1.215-2.94c1.628,0,1.8-.792,1.8-2.249,0-1.373-.244-2.256-1.7-2.256a3.274,3.274,0,0,0-1.279.238c-.02.265-.03.6-.03.876V68.2a4.2,4.2,0,0,0,1.215.2" transform="translate(-88.52 -23.024)" fill="#a2a2a2"/>
        <path id="Trazado_16796" data-name="Trazado 16796" d="M252.4,66.147c0-2.167.661-3.068,2.635-3.068,2.084,0,2.591,1.095,2.591,2.8,0,.158,0,.346-.017.511-.685.117-2.1.251-2.936.288l-1.249.053c.087,1.191.564,1.652,1.8,1.652a16.312,16.312,0,0,0,2.129-.161l.09.792a15.024,15.024,0,0,1-2.541.208c-1.981,0-2.5-1.3-2.5-3.071m2.4-.218c.486-.024,1.289-.088,1.775-.15.01-.1.014-.252.014-.356,0-.966-.4-1.541-1.558-1.541-1.386,0-1.634.782-1.634,2.111Z" transform="translate(-92.127 -23.024)" fill="#a2a2a2"/>
        <path id="Trazado_16797" data-name="Trazado 16797" d="M262.908,69.137v-4.5c0-.37.013-.712.041-1.058a5.016,5.016,0,0,1,2.3-.5c.2,0,.383.007.557.023l-.083.843a3.992,3.992,0,0,0-.474-.023,3.27,3.27,0,0,0-1.283.239c-.019.265-.026.6-.026.876v4.1Z" transform="translate(-95.962 -23.024)" fill="#a2a2a2"/>
        <path id="Trazado_16798" data-name="Trazado 16798" d="M269.131,60.124c0-.507.145-.681.621-.681s.624.174.624.681-.134.675-.624.675-.621-.171-.621-.675m.107,1.708h1.034V67.81h-1.034Z" transform="translate(-98.234 -21.697)" fill="#a2a2a2"/>
        <path id="Trazado_16799" data-name="Trazado 16799" d="M273.174,66.147c0-2.167.661-3.068,2.635-3.068,2.084,0,2.591,1.095,2.591,2.8,0,.158,0,.346-.017.511-.685.117-2.1.251-2.936.288l-1.249.053c.087,1.191.564,1.652,1.8,1.652a16.312,16.312,0,0,0,2.129-.161l.09.792a15.023,15.023,0,0,1-2.541.208c-1.981,0-2.5-1.3-2.5-3.071m2.4-.218c.486-.024,1.289-.088,1.775-.15.01-.1.014-.252.014-.356,0-.966-.4-1.541-1.558-1.541-1.386,0-1.634.782-1.634,2.111Z" transform="translate(-99.71 -23.024)" fill="#a2a2a2"/>
        <path id="Trazado_16800" data-name="Trazado 16800" d="M284.713,69.137h-1.026V64.647c0-.37.013-.712.039-1.058a6.544,6.544,0,0,1,2.7-.51c2.071,0,2.279.973,2.279,2.2v3.86h-1.027V65.421c0-1.05-.188-1.51-1.561-1.51a3.831,3.831,0,0,0-1.372.251c-.023.262-.03.6-.03.877Z" transform="translate(-103.547 -23.024)" fill="#a2a2a2"/>
        <path id="Trazado_16801" data-name="Trazado 16801" d="M297.99,69.027a7.613,7.613,0,0,1-1.7.191c-2,0-2.353-1.46-2.353-3.131,0-1.957.449-3.007,2.621-3.007a5.2,5.2,0,0,1,1.423.188l-.084.772a5.972,5.972,0,0,0-1.013-.111c-1.735,0-1.9.551-1.9,2.158,0,1.514.1,2.269,1.9,2.269a5.381,5.381,0,0,0,1.017-.131Z" transform="translate(-107.288 -23.024)" fill="#a2a2a2"/>
        <path id="Trazado_16802" data-name="Trazado 16802" d="M302.174,60.124c0-.507.145-.681.621-.681s.624.174.624.681-.135.675-.624.675-.621-.171-.621-.675m.107,1.708h1.034V67.81h-1.034Z" transform="translate(-110.295 -21.697)" fill="#a2a2a2"/>
        <path id="Trazado_16803" data-name="Trazado 16803" d="M306.4,63.29a13.618,13.618,0,0,1,2.259-.211c1.3,0,2.336.342,2.336,1.846V67.66c0,.369-.013.711-.041,1.057a5.554,5.554,0,0,1-2.578.5c-1.61,0-2.3-.557-2.3-1.822a1.658,1.658,0,0,1,1.551-1.863,22.242,22.242,0,0,1,2.353-.164v-.144c0-.906-.346-1.316-1.46-1.316a15.427,15.427,0,0,0-2.038.162Zm2.111,5.128a3.859,3.859,0,0,0,1.446-.238c.02-.265.027-.6.027-.876V66.08a12.2,12.2,0,0,0-1.97.154c-.651.142-.912.376-.912,1.142,0,.843.449,1.043,1.409,1.043" transform="translate(-111.722 -23.024)" fill="#a2a2a2"/>
        <path id="Trazado_16804" data-name="Trazado 16804" d="M320.3,68.078l2.551-7.153a.929.929,0,0,1,1.822,0l2.515,7.153h-1.161l-.738-2.169h-3.131l-.732,2.169Zm4.7-3.014-1.282-3.772-1.275,3.772Z" transform="translate(-116.911 -21.965)" fill="#a2a2a2"/>
        <path id="Trazado_16805" data-name="Trazado 16805" d="M332.778,63.206h1.027v3.716c0,1.05.184,1.511,1.553,1.511a3.807,3.807,0,0,0,1.363-.252c.02-.262.03-.6.03-.876v-4.1h1.024V67.7c0,.37-.013.712-.041,1.058a6.483,6.483,0,0,1-2.685.51c-2.064,0-2.272-.973-2.272-2.2Z" transform="translate(-121.465 -23.07)" fill="#a2a2a2"/>
        <path id="Trazado_16806" data-name="Trazado 16806" d="M344.667,60.548v1.688h1.289v.786h-1.289v3.567c0,.725.269.893.916.893.131,0,.255-.006.383-.017l.08.756a5.013,5.013,0,0,1-.761.073c-1.158,0-1.648-.5-1.648-1.594V63.022h-1.053v-.786h1.053v-1.52Z" transform="translate(-125.044 -22.1)" fill="#a2a2a2"/>
        <path id="Trazado_16807" data-name="Trazado 16807" d="M349.44,66.147c0-2.235.7-3.068,2.642-3.068s2.642.866,2.642,3.068-.7,3.071-2.642,3.071-2.642-.832-2.642-3.071m4.253,0c0-1.708-.369-2.229-1.611-2.229-1.221,0-1.6.447-1.6,2.229s.383,2.233,1.6,2.233,1.611-.521,1.611-2.233" transform="translate(-127.547 -23.024)" fill="#a2a2a2"/>
        <path id="Trazado_16808" data-name="Trazado 16808" d="M361.165,69.137h-1.027V64.647c0-.37.017-.712.04-1.058a6.411,6.411,0,0,1,2.474-.51,2.255,2.255,0,0,1,1.517.433,5.139,5.139,0,0,1,2.071-.433c1.829,0,2.1,1,2.1,2.2v3.86H367.31V65.418c0-1.023-.248-1.5-1.352-1.5a3.047,3.047,0,0,0-1.33.336,3.565,3.565,0,0,1,.121,1.027v3.86h-1.027V65.418c0-1.023-.248-1.5-1.353-1.5a3.313,3.313,0,0,0-1.175.248c-.024.262-.03.6-.03.877Z" transform="translate(-131.452 -23.024)" fill="#a2a2a2"/>
        <path id="Trazado_16809" data-name="Trazado 16809" d="M375.466,66.147c0-2.235.7-3.068,2.642-3.068s2.642.866,2.642,3.068-.7,3.071-2.642,3.071-2.642-.832-2.642-3.071m4.253,0c0-1.708-.369-2.229-1.611-2.229-1.221,0-1.6.447-1.6,2.229s.383,2.233,1.6,2.233,1.611-.521,1.611-2.233" transform="translate(-137.047 -23.024)" fill="#a2a2a2"/>
        <path id="Trazado_16810" data-name="Trazado 16810" d="M387.344,60.548v1.688h1.289v.786h-1.289v3.567c0,.725.269.893.916.893.131,0,.255-.006.383-.017l.08.756a5.013,5.013,0,0,1-.761.073c-1.158,0-1.648-.5-1.648-1.594V63.022H385.26v-.786h1.053v-1.52Z" transform="translate(-140.621 -22.1)" fill="#a2a2a2"/>
        <path id="Trazado_16811" data-name="Trazado 16811" d="M392.635,69.137v-4.5c0-.37.013-.712.041-1.058a5.015,5.015,0,0,1,2.3-.5c.2,0,.383.007.557.023l-.083.843a3.99,3.99,0,0,0-.474-.023,3.27,3.27,0,0,0-1.283.239c-.019.265-.026.6-.026.876v4.1Z" transform="translate(-143.313 -23.024)" fill="#a2a2a2"/>
        <path id="Trazado_16812" data-name="Trazado 16812" d="M398.858,60.124c0-.507.145-.681.621-.681s.624.174.624.681-.135.675-.624.675-.621-.171-.621-.675m.107,1.708H400V67.81h-1.034Z" transform="translate(-145.585 -21.697)" fill="#a2a2a2"/>
        <path id="Trazado_16813" data-name="Trazado 16813" d="M404.147,68.341h3.282v.843h-4.323c-.272,0-.433-.134-.433-.336a.664.664,0,0,1,.154-.385l3.323-4.447h-3.225v-.81h4.253c.272,0,.432.135.432.336a.655.655,0,0,1-.15.379Z" transform="translate(-146.977 -23.07)" fill="#a2a2a2"/>
        <path id="Trazado_16814" data-name="Trazado 16814" d="M161.529,61.2l1.128-1.906h1.5L162.591,61.2Z" transform="translate(-58.959 -21.642)" fill="#a2a2a2"/>
      </g>
    </g>
  </g>
</svg>
