<svg xmlns="http://www.w3.org/2000/svg" width="331" height="65.971" viewBox="0 0 331 65.971">
  <g id="Grupo_16353" data-name="Grupo 16353" transform="translate(-1408 -6718.876)">
    <g id="Grupo_208" data-name="Grupo 208" transform="translate(10069 5334.437)">
      <path id="Sustracción_2" data-name="Sustracción 2" d="M33.139,65.971A33.136,33.136,0,0,1,2.6,45.825,32.822,32.822,0,0,1,5.66,14.543a33.193,33.193,0,0,1,58.014,5.6,32.826,32.826,0,0,1-3.055,31.282A33.136,33.136,0,0,1,33.139,65.971Zm-.416-11.342a8.383,8.383,0,0,1,4.767,1.4,5.58,5.58,0,0,1,2.452,4.167,24.4,24.4,0,0,0,8.671-3.74,7.251,7.251,0,0,1-1.569-3.981,7.612,7.612,0,0,1,.771-3.889,7.946,7.946,0,0,1,2.64-3.077,6.839,6.839,0,0,1,3.866-1.224A7.375,7.375,0,0,1,58.137,45.4l.008-.019A24.794,24.794,0,0,0,60.518,36.9h-.049a5.615,5.615,0,0,1-4.307-1.89,7.805,7.805,0,0,1-1.819-4.3,8.459,8.459,0,0,1,.818-4.835,5.456,5.456,0,0,1,3.656-2.915,18.52,18.52,0,0,0-3.911-6.632,8.971,8.971,0,0,1-4.536,1.152A8.686,8.686,0,0,1,47.2,16.9a5.628,5.628,0,0,1-2.506-1.869,5.733,5.733,0,0,1-1.059-2.923,11.274,11.274,0,0,1,.561-4.293,18.864,18.864,0,0,0-7.483-2.041A7.175,7.175,0,0,1,33.835,9.6a7.782,7.782,0,0,1-4.3,1.265,7.694,7.694,0,0,1-3.718-.935,6.589,6.589,0,0,1-2.707-2.788,27.908,27.908,0,0,0-6.121,3.23,9.563,9.563,0,0,1,.4,4.095,7.092,7.092,0,0,1-1.308,3.322,7.194,7.194,0,0,1-5.991,2.8A10.725,10.725,0,0,1,8.142,20.4,27.071,27.071,0,0,0,6.1,25.843a5.371,5.371,0,0,1,2.526,1.748,7.426,7.426,0,0,1,1.418,2.856,8.469,8.469,0,0,1,.112,3.781,6.836,6.836,0,0,1-1.677,3.35,5.3,5.3,0,0,1-1.306.959l0,0A5.017,5.017,0,0,0,5.76,39.618c.181.562.344,1.153.5,1.724v0A12.974,12.974,0,0,0,8.142,45.91a6.628,6.628,0,0,1,4.336-1.691A6.934,6.934,0,0,1,16.654,45.7a8.574,8.574,0,0,1,2.754,3.595,7.051,7.051,0,0,1,.447,3.831,6.593,6.593,0,0,1-2.021,3.672,27.552,27.552,0,0,0,7.823,3.4,5.547,5.547,0,0,1,2.379-4.182A8.146,8.146,0,0,1,32.723,54.629Zm-.09-6.292h0c-.4,0-.8-.015-1.2-.045a15.894,15.894,0,0,1-5.462-1.415,15.459,15.459,0,0,1-4.612-3.244,15.062,15.062,0,0,1-3.188-4.868,16.6,16.6,0,0,1-1.19-6.289,15.658,15.658,0,0,1,.824-5.057,15.351,15.351,0,0,1,2.21-4.2,16.066,16.066,0,0,1,3.2-3.228,15.864,15.864,0,0,1,3.8-2.137,17.343,17.343,0,0,1,4.42-.85c.537-.053,1.077-.079,1.6-.079a14.977,14.977,0,0,1,6.146,1.3,15.948,15.948,0,0,1,4.494,3.032A16.482,16.482,0,0,1,47.071,26a15.145,15.145,0,0,1,1.542,6.646,15.972,15.972,0,0,1-1.41,6.6,14.967,14.967,0,0,1-3.639,4.933,16.129,16.129,0,0,1-5.109,3.091A16.444,16.444,0,0,1,32.633,48.336Zm-7.807-22.9v2.988h9.628V28.9c-.765.622-1.642,1.321-2.609,2.079-.738.59-1.647,1.314-2.95,2.349l-3.016,2.392-.742.588a1.523,1.523,0,0,0-.466.6,1.793,1.793,0,0,0-.155.721,1.286,1.286,0,0,0,.124.6,1.683,1.683,0,0,0,.652.829,1.8,1.8,0,0,0,1.026.317h14.13v-2.96H30.541V35.94c.788-.617,1.665-1.3,2.608-2.023.817-.62,1.8-1.38,3.012-2.324l2.776-2.168.011-.009,1.157-.9a1.3,1.3,0,0,0,.482-.6,2,2,0,0,0,.14-.725,2.385,2.385,0,0,0-.092-.633,1.806,1.806,0,0,0-.669-.815,1.776,1.776,0,0,0-1.008-.3Z" transform="translate(-8661 1384.439)" fill="#a2a2a2"/>
      <path id="Trazado_162" data-name="Trazado 162" d="M522.395,487.888l-1.511,5.639h.213l3.23-.534h.424l-.568.534-.039.144-.643-.144a1.936,1.936,0,0,0-1.263.667l-.074.273.178.131-.252.144-.178.665.177.131-1.355.131-.5.287-2.628,9.805-.039.94h29.163l.395-.678.826-3.082-.349-.287H528.294l1.042-3.891.517-.262H546.67l.5-.259.9-3.369-.352-.275H530.9l-.374-.273.1-.392.508-2.689,2.232-.144h15.559l1.547-.13.826-3.082c-.568,0-.791-.226-.67-.679h-7.45l-.143.534h-1.107l.035-.131h.446l.108-.4H523.238a.81.81,0,0,1-.843.679m-8.583,1.489.352.274h1.32l.217-.809h-1.745Zm-8.456-.535-.035.131h-1.107l.036-.131Zm2.287-.274h.213l-.034.13-1.181.275q.054-.209,1-.4m-31.391-1.214-5.1,19.034.375.274h7.705l.767-.4,2.966-11.071h.213q3.694,11.475,4.419,11.475h6.6q1.089-.327,10.82-11.619h.233l-3.079,11.488,1.051.131h7.046l.768-.4L515.124,491l-1.05-.131q-.864-1.384-1.369-1.488.218-.81-2-.809l.074-.274.268-.131.978.4q1.133-.106,1.215-.4.447,0,.339.4h.872l.27-.131.177.131h.447l.5-.274.252-.94-.353-.275H503.636q-.81,0-3.12,3.382l2.322-.406,1.141.665-.039.144-.929.131-1.285-.131-1.78.131q-6.485,6.96-6.666,7.56h-.425q.165-.615-2.349-6.882-.15-2.3-1.363-2.3l.073-.275h.448l-.565-2.023H476.772Zm-35.4.535-1.512,5.639h.213l3.23-.534h.425l-.569.534-.039.144-.642-.144a1.937,1.937,0,0,0-1.264.667l-.074.273.178.131-.251.144-.179.665.178.131-1.355.131-.5.287-2.628,9.805-.038.94h29.161l.395-.678.827-3.082-.35-.287H446.747l1.042-3.891.517-.262h16.817l.5-.259.9-3.369-.352-.275H449.353l-.374-.273.1-.392.509-2.689,2.23-.144h15.561l1.546-.13.826-3.082q-.851,0-.669-.679h-7.45l-.144.534h-1.106l.034-.131h.448l.109-.4H441.69a.808.808,0,0,1-.841.679m-22.026,3.276,3.221.131-.034.131q2.236.627,1.867,2.011-.5,1.867-7.249,1.867h-4.789l.626-3.213.483-.927Zm-14.9-2.937.069.535-.355.534-.036.131.179.131-.249.131-.144.534.178.131-.251.144-4.262,15.9.355.261h8.729l.767-.4,1.9-7.075h4.789q5.047,6.905,5.829,7.48h9.813l.5-.261q.14-.523-6.307-8.159,7.113-1.372,7.856-4.14l.5-1.867-.352-.274q-.011-1.867-1.034-1.867.145-.536-.941-.535-.234-.795-.66-.8h-.873l-1.477.665-.3-1.345q-1.489-.795-8.493-.8h-2.192l-.108.4h-.427l.109-.4H404.6Zm-35.78-.757-.941,3.512,3.264.131h7.279l.054.678-.383.549-.034.131.2.13-.272.144.089.535-.38.549-.07.26c-.071.271.189.406.786.406l-.074.273h-.894l-.29,1.084,2.209.809-.034.131-1.732-.131c-.441,0-.684.092-.735.275l-.541,2.023a5.239,5.239,0,0,0,2.087-.4q.341,0,.535.548l-.964.262-.624-.131-1.142.131-.906,3.381a5.974,5.974,0,0,1,2.831.953l-.534.4-.181.68c-.046.174.22.26.8.26l-.52.275H376.6q.073-.274-1.034-.275l.357-.534q-.008-1.084-.583-1.084h-.895l-.8,2.977.2.13,1.781-.13,1,.4H382.8q.66,0,1.241-2.167l.507-1.893h-.873l.035-.131.908-.131.836-3.119-.178-.131.247-.131.184-.678c.048-.182-.219-.275-.8-.275l.035-.131h.872l1.6-6.762.074-.275h.212l.2.131h6.832l2.154.144.04-.144.268-.131h.213l.178.131h.233l.518-.262.723-2.7q-1.1,0-.851-.953H369.534l-.248.131-.2-.131h-.425Zm-24.18.666h.873l.144-.535h-.873Zm-9.476-.535q.366.85,7.661,8.982l-.039.144L328.9,505.982l-.106.392.373.275h8.962l.908-.131,7.372-5.51h.235l3.108,3.891q.892,1.75,2.148,1.75h8.983l.5-.275.106-.392-8.227-9.255.038-.144,3.762-2.676q8.583-5.9,8.728-6.436l.073-.274H355.816q-1.159.431-6.8,4.961l-3.13-3.89-2.653.13.035-.13q-.943-.536-.8-1.071h-7.876Zm-32.805.287-1.512,5.639h.213l3.229-.534h.426l-.569.534-.038.144-.642-.144a1.939,1.939,0,0,0-1.264.667l-.072.273.178.131-.252.144-.179.665.178.131-1.355.131-.5.287-2.628,9.805-.039.94h29.161l.4-.678.825-3.082-.349-.287H307.58l1.042-3.891.517-.262h16.817l.495-.259.9-3.369L327,494.6H310.184l-.374-.273.106-.392.507-2.689,2.231-.144h15.561l1.546-.13.827-3.082c-.569,0-.791-.226-.671-.679h-7.45l-.143.534h-1.107l.035-.131h.448l.108-.4H302.521a.807.807,0,0,1-.841.679" transform="translate(-8881.302 912.292)" fill="#a2a2a2"/>
      <path id="Trazado_164" data-name="Trazado 164" d="M460.727,513.3c-.021-.435-.078-1.82-2.494-1.82-1.3,0-2.445.539-2.445,1.746,0,.88.7,1.291,1.748,1.636,1.162.387,1.4.556,1.4.983,0,.467-.531.71-1.16.71-.678,0-1.218-.226-1.237-.951H455.15c0,1.336,1.043,1.948,2.569,1.948,1.7,0,2.61-.7,2.61-1.821,0-.861-.638-1.369-1.8-1.74-1.218-.387-1.353-.555-1.353-.862,0-.443.455-.653,1.015-.653.909,0,1.143.419,1.143.822ZM447.775,517.4h4.8l.213-1h-3.345l.32-1.508h2.918l.212-1h-2.928l.271-1.282h3.19l.212-1h-4.61Zm-1.915-1.021h-3.238l1.016-4.762H442.2l-1.255,5.783h4.706Zm-6.689-2.821c0-1.36-1.1-2.085-2.676-2.085a3.48,3.48,0,0,0-3.7,3.5c0,1.111.725,2.577,3.036,2.577a2.951,2.951,0,0,0,3.131-2.119H437.49a1.524,1.524,0,0,1-1.605,1.072c-1.2,0-1.644-.668-1.644-1.474a2.309,2.309,0,0,1,2.2-2.554,1.135,1.135,0,0,1,1.276,1.087Zm-12.941-1.941,1.7,3.545-.464,2.239h1.449l.445-2.191,2.512-3.592H430.3l-1.527,2.312-.995-2.312Zm-1.683,1.941c0-1.36-1.1-2.085-2.676-2.085a3.48,3.48,0,0,0-3.7,3.5c0,1.111.724,2.577,3.035,2.577a2.949,2.949,0,0,0,3.131-2.119h-1.469a1.522,1.522,0,0,1-1.6,1.072c-1.2,0-1.644-.668-1.644-1.474a2.309,2.309,0,0,1,2.2-2.554,1.136,1.136,0,0,1,1.277,1.087Z" transform="translate(-8869.234 914.719)" fill="#a2a2a2"/>
      <path id="Trazado_165" data-name="Trazado 165" d="M410.2,519.332l.443-.458h9.178a1.548,1.548,0,0,0,1.124-.445,1.462,1.462,0,0,0,.459-1.092v-4.314a1.5,1.5,0,0,0-.459-1.105,1.525,1.525,0,0,0-1.124-.458H408.591a1.573,1.573,0,0,0-1.137.458,1.483,1.483,0,0,0-.47,1.105v9.355a1.484,1.484,0,0,0,.47,1.105,1.573,1.573,0,0,0,1.137.458h12.424v-2.668H410.644l-.443-.432Zm7.958-4.772h.029v1.213h-.029l-.442.458h-7.074l-.442-.458v-1.213l.442-.432h7.074Zm-36.577-3.1v7.791h-.5l-1.72-1.86-2.122-2.264L374.315,512a2.218,2.218,0,0,0-.54-.377,1.532,1.532,0,0,0-.708-.162h-1.5a1.573,1.573,0,0,0-1.138.458,1.483,1.483,0,0,0-.472,1.105v10.892h3.217v-8.3h.61q.693.782,1.775,1.888.915.943,2.3,2.4t3.327,3.477a1.6,1.6,0,0,0,1.22.54h.776a1.573,1.573,0,0,0,1.138-.458,1.485,1.485,0,0,0,.472-1.1V511.46Zm-35.413,0h-11.2a1.571,1.571,0,0,0-1.137.458,1.484,1.484,0,0,0-.472,1.105v9.355a1.485,1.485,0,0,0,.472,1.105,1.687,1.687,0,0,0,1.137.432h11.2a1.573,1.573,0,0,0,1.137-.458,1.485,1.485,0,0,0,.472-1.1v-9.329a1.484,1.484,0,0,0-.472-1.105,1.573,1.573,0,0,0-1.137-.458m-9.6,9.384v-6.258l.442-.457h7.075l.469.457v6.258l-.442.43h-7.1Zm-34.331,0q1-.782,2.329-1.805,1.136-.864,2.691-2.077t3.522-2.75a1.163,1.163,0,0,0,.43-.54,1.777,1.777,0,0,0,.125-.646,2.04,2.04,0,0,0-.085-.566,1.614,1.614,0,0,0-.595-.728,1.588,1.588,0,0,0-.9-.269H297.139v2.668h8.6v.431q-1.026.833-2.33,1.855-1.11.888-2.634,2.1l-3.356,2.662a1.324,1.324,0,0,0-.416.539,1.6,1.6,0,0,0-.14.644,1.152,1.152,0,0,0,.112.538,1.488,1.488,0,0,0,.58.74,1.6,1.6,0,0,0,.916.283h12.618v-2.642h-8.845Z" transform="translate(-8881.301 914.718)" fill="#a2a2a2"/>
    </g>
  </g>
</svg>
