<svg xmlns="http://www.w3.org/2000/svg" width="275.865" height="104.306" viewBox="0 0 275.865 104.306">
  <g id="Grupo_16168" data-name="Grupo 16168" transform="translate(8496.865 -7172.694)">
    <g id="Grupo_16167" data-name="Grupo 16167" transform="translate(32 31)">
      <path id="Trazado_1" data-name="Trazado 1" d="M267.26,121H250.875a14.269,14.269,0,0,1-2.756-3.2,19.041,19.041,0,0,1-1.968-4.212,29.126,29.126,0,0,1-1.181-5.229,46.284,46.284,0,0,1-.393-6.246,28.6,28.6,0,0,1,.51-5.477,23.915,23.915,0,0,1,1.529-4.948,18.536,18.536,0,0,1,2.521-4.211,17.1,17.1,0,0,1,3.484-3.267,14.68,14.68,0,0,1,4.7-2.166c1.676-.073,3.141-.148,4.353-.222,1.048-.064,1.915-.1,2.583-.1.333,0,.626.008.867.024l2.136.088V121ZM235.5,121H223.484V104.429c1.563-.074,3.006-.112,4.291-.112,1.853,0,3.785.076,5.741.227a.612.612,0,0,1,.454.3l3.4,9.367a10.7,10.7,0,0,1,.529,2.077,13.954,13.954,0,0,1,.227,2.3,4.892,4.892,0,0,1-.038.6,5.055,5.055,0,0,1-.113.6c-.15.4-.684.732-1.586.982-.309.086-.608.159-.889.217Zm-10.366-20.311c-.429,0-.981-.008-1.647-.026V90.21l2.629-6.816,6.119,16.694-.226.378c-2.305.151-4.616.227-6.875.227m12.431-3.577h0l-5.643-14.9a18.084,18.084,0,0,0,4.484-.9,19.293,19.293,0,0,0,4.209-2.035,24.318,24.318,0,0,0,3.933-3.17,33.934,33.934,0,0,0,3.656-4.3c.381-.524.883-1.258,1.489-2.179s1.715-2.553,3.3-4.867c.771-1.108,1.467-2.048,2.07-2.8a6.168,6.168,0,0,1,2.107-1.707,7.532,7.532,0,0,1,3.232-.581,3.088,3.088,0,0,1,1.271.218c.313.143.472.487.472,1.017V71.588a21.7,21.7,0,0,1-.581,6.319,1.264,1.264,0,0,1-.147.227,30.988,30.988,0,0,0-6.679.986,23.662,23.662,0,0,0-5.708,2.34,24.973,24.973,0,0,0-5.137,3.9,22.722,22.722,0,0,0-3.777,4.976,23.924,23.924,0,0,0-2.556,6.778ZM223.484,79.6h0V68.418l2.232,5.627c.011.023.024.048.038.069a9.752,9.752,0,0,0-.7,1.2c-.251.551-.416.945-.491,1.171s-.151.489-.227.794a14.79,14.79,0,0,1-.569,1.586Zm7.4-.116h0l-2.349-6.21-.122-.041a6.464,6.464,0,0,0,.576-1.148l10.354-24.748a9.33,9.33,0,0,0,.584,3.085,15.112,15.112,0,0,0,4.4,6.186,16.044,16.044,0,0,0,3.514,2.2c.289.115.458.25.5.4a.378.378,0,0,1-.069.327A57.956,57.956,0,0,1,244.4,66.5a45.231,45.231,0,0,1-4.485,5.811,43.289,43.289,0,0,1-4.891,4.667,15.909,15.909,0,0,1-4.144,2.5Zm-2.4-16.817a.429.429,0,0,1-.372-.242c-.385-.913-.837-2.025-1.344-3.3s-1.1-2.75-1.779-4.395c-.513-1.249-1.019-2.492-1.507-3.693v-23.1h13.979c.305.043.641.1,1,.179a6.272,6.272,0,0,1,2.143.871,1.944,1.944,0,0,1,.944,1.707,16.044,16.044,0,0,1-1.381,5.084L229.274,62.058a1,1,0,0,1-.545.545.6.6,0,0,1-.244.063m27.341-6.115h-1.815a6.8,6.8,0,0,1-3.6-1.162,9.7,9.7,0,0,1-3.123-3.267,9.271,9.271,0,0,1-1.272-4.866,13.95,13.95,0,0,1,.635-4.417,7.607,7.607,0,0,1,5.083-5.048,14.244,14.244,0,0,1,4.449-.631,19.351,19.351,0,0,1,5.084.509c.434.1.69.891.762,2.36s.109,3.366.109,5.629v8.789c0,.7-.531,1.231-1.58,1.58a16.049,16.049,0,0,1-4.737.524M243.1,38.357h0l.416-.991c.627-1.494,1.25-2.875,1.852-4.1s1.183-2.377,1.707-3.377a3.41,3.41,0,0,1,1.232-1.31,4.975,4.975,0,0,1,1.938-.649H267.26v6.3l-1.991.033c-.4.014-.829.021-1.278.021-1.127,0-2.432-.044-3.879-.13-2.029-.12-3.739-.181-5.085-.181a19.136,19.136,0,0,0-7.518,1.524,14.668,14.668,0,0,0-4.414,2.869" transform="translate(-8747.328 7119.382)" fill="#a2a2a2"/>
      <path id="Trazado_2" data-name="Trazado 2" d="M252.327,104.305h-53.82V0h53.82Zm-52.868-.952h51.915V.952H199.459Z" transform="translate(-8727.372 7141.695)" fill="#a2a2a2"/>
    </g>
    <g id="Grupo_16166" data-name="Grupo 16166" transform="translate(163 -121)">
      <path id="Trazado_3" data-name="Trazado 3" d="M5.3,589.5l8.878,22.247,9-22.247h5.3L14.076,624.012,0,589.5Z" transform="translate(-8590.545 6735.364)" fill="#a2a2a2"/>
      <path id="Trazado_4" data-name="Trazado 4" d="M122.236,594.051H109.365v7.714h12.5v4.553h-12.5v10.729h12.871V621.6H104.521V589.5h17.715Z" transform="translate(-8662.589 6735.364)" fill="#a2a2a2"/>
      <path id="Trazado_5" data-name="Trazado 5" d="M192.883,607.919l9.938,13.681H196.9l-9.169-13.14h-.873V621.6h-4.844V589.5h5.676q6.362,0,9.19,2.391a8.786,8.786,0,0,1,3.119,7.028,9.118,9.118,0,0,1-1.955,5.863,8.711,8.711,0,0,1-5.156,3.14m-6.03-3.681h1.539q6.882,0,6.882-5.26,0-4.927-6.7-4.927h-1.726Z" transform="translate(-8716.001 6735.364)" fill="#a2a2a2"/>
      <path id="Trazado_6" data-name="Trazado 6" d="M275.21,609.33H261.467l-3.576,7.8h-5.218l15.885-34.119,15.324,34.119h-5.3Zm-1.975-4.553-4.761-10.916-4.99,10.916Z" transform="translate(-8764.707 6739.837)" fill="#a2a2a2"/>
      <path id="Trazado_7" data-name="Trazado 7" d="M366.027,616.757V582.472l23.412,24.492V584.655h4.845v34.057l-23.412-24.43v22.476Z" transform="translate(-8842.841 6740.207)" fill="#a2a2a2"/>
      <path id="Trazado_8" data-name="Trazado 8" d="M481.724,621.6V589.5h6.737a24.533,24.533,0,0,1,7.652.957,14.327,14.327,0,0,1,5.468,3.182,16.6,16.6,0,0,1-.208,23.89,15.113,15.113,0,0,1-5.448,3.181,24.773,24.773,0,0,1-7.547.894Zm4.845-4.553h2.183a18.2,18.2,0,0,0,5.427-.687,11.015,11.015,0,0,0,7.485-10.811,11.156,11.156,0,0,0-3.534-8.567q-3.181-2.932-9.377-2.931h-2.183Z" transform="translate(-8922.589 6735.364)" fill="#a2a2a2"/>
      <path id="Trazado_9" data-name="Trazado 9" d="M586.835,609.33H573.092l-3.576,7.8H564.3l15.884-34.119,15.324,34.119h-5.3Zm-1.975-4.553L580.1,593.861l-4.989,10.916Z" transform="translate(-8979.506 6739.837)" fill="#a2a2a2"/>
      <rect id="Rect치ngulo_1" data-name="Rect치ngulo 1" width="1.298" height="8.603" transform="translate(-8570.72 7369.885)" fill="#a2a2a2"/>
      <path id="Trazado_10" data-name="Trazado 10" d="M118.707,741.706v-9.188l6.274,6.563V733.1h1.3v9.127l-6.274-6.547v6.023Z" transform="translate(-8672.368 6636.782)" fill="#a2a2a2"/>
      <path id="Trazado_11" data-name="Trazado 11" d="M194.154,735.621V743h-1.3v-7.383h-1.978V734.4h5.249v1.22Z" transform="translate(-8722.114 6635.484)" fill="#a2a2a2"/>
      <path id="Trazado_12" data-name="Trazado 12" d="M260.319,735.621H256.87v2.067h3.349v1.22H256.87v2.875h3.449V743h-4.747v-8.6h4.747Z" transform="translate(-8766.706 6635.484)" fill="#a2a2a2"/>
      <path id="Trazado_13" data-name="Trazado 13" d="M323.322,739.338,325.985,743H324.4l-2.457-3.522h-.234V743h-1.3v-8.6h1.521a3.8,3.8,0,0,1,2.463.641,2.353,2.353,0,0,1,.836,1.883,2.445,2.445,0,0,1-.524,1.571,2.335,2.335,0,0,1-1.382.841m-1.616-.986h.412q1.844,0,1.844-1.41,0-1.32-1.794-1.321h-.462Z" transform="translate(-8811.396 6635.484)" fill="#a2a2a2"/>
      <rect id="Rect치ngulo_2" data-name="Rect치ngulo 2" width="1.298" height="8.603" transform="translate(-8470.425 7369.885)" fill="#a2a2a2"/>
      <path id="Trazado_14" data-name="Trazado 14" d="M440.109,738.305a4.214,4.214,0,0,1,1.332-3.12,4.383,4.383,0,0,1,3.187-1.3,4.5,4.5,0,0,1,4.474,4.474,4.23,4.23,0,0,1-1.326,3.148,4.546,4.546,0,0,1-6.207.145,4.228,4.228,0,0,1-1.46-3.343m1.309.017a3.11,3.11,0,0,0,.958,2.346,3.175,3.175,0,0,0,4.485-.017,3.339,3.339,0,0,0,.011-4.614,3.208,3.208,0,0,0-4.53,0,3.1,3.1,0,0,0-.925,2.284" transform="translate(-8893.904 6635.842)" fill="#a2a2a2"/>
      <path id="Trazado_15" data-name="Trazado 15" d="M521.291,739.338,523.954,743h-1.588l-2.457-3.522h-.234V743h-1.3v-8.6H519.9a3.8,3.8,0,0,1,2.463.641,2.353,2.353,0,0,1,.836,1.883,2.445,2.445,0,0,1-.524,1.571,2.335,2.335,0,0,1-1.382.841m-1.616-.986h.412q1.844,0,1.844-1.41,0-1.32-1.794-1.321h-.462Z" transform="translate(-8947.854 6635.484)" fill="#a2a2a2"/>
      <path id="Trazado_16" data-name="Trazado 16" d="M588.471,735.312l-1.053.624a1.813,1.813,0,0,0-.563-.668,1.313,1.313,0,0,0-.719-.178,1.326,1.326,0,0,0-.9.306.949.949,0,0,0-.356.758q0,.63.936,1.014l.858.351a3.666,3.666,0,0,1,1.532,1.034,2.329,2.329,0,0,1,.485,1.5,2.63,2.63,0,0,1-.791,1.961,2.717,2.717,0,0,1-1.978.78,2.646,2.646,0,0,1-1.85-.663,3.054,3.054,0,0,1-.9-1.867l1.315-.29a2.235,2.235,0,0,0,.312,1.048,1.483,1.483,0,0,0,2.178.15,1.407,1.407,0,0,0,.4-1.031,1.448,1.448,0,0,0-.07-.46,1.168,1.168,0,0,0-.217-.384,1.736,1.736,0,0,0-.382-.329,3.677,3.677,0,0,0-.557-.293l-.83-.345a2.389,2.389,0,0,1-1.766-2.184,2.072,2.072,0,0,1,.741-1.621,2.676,2.676,0,0,1,1.844-.657,2.575,2.575,0,0,1,2.324,1.449" transform="translate(-8992.52 6635.855)" fill="#a2a2a2"/>
    </g>
  </g>
</svg>
