<svg xmlns="http://www.w3.org/2000/svg" width="176.621" height="82.155" viewBox="0 0 176.621 82.155">
  <g id="Grupo_16169" data-name="Grupo 16169" transform="translate(0)">
    <ellipse id="Elipse_57" data-name="Elipse 57" cx="4.028" cy="3.811" rx="4.028" ry="3.811" transform="translate(118.592 40.537)" fill="#a2a2a2"/>
    <g id="Grupo_338" data-name="Grupo 338" transform="translate(78.711 15.03)">
      <path id="Trazado_16770" data-name="Trazado 16770" d="M1951.887,525.058h-8.7l-2.945-15.59-2.945,15.59h-8.7l-7.318-23.125h8.574l3.031,16.543,2.771-16.37h9.268l2.945,16.413,2.945-16.586h8.4Z" transform="translate(-1921.271 -501.327)" fill="#a2a2a2"/>
      <rect id="Rect치ngulo_10750" data-name="Rect치ngulo 10750" width="7.795" height="23.125" transform="translate(39.925 0.606)" fill="#a2a2a2"/>
      <path id="Trazado_16771" data-name="Trazado 16771" d="M2518.51,502.418h-7.667c-.346-1.6-1.125-2.512-2.511-2.512a1.712,1.712,0,0,0-1.863,1.689c0,1.3,1.041,2.166,5.458,3.248,4.2,1.039,7.188,2.858,7.188,7.319,0,4.937-4.633,7.232-10.22,7.232-6.28,0-10.567-2.6-11.173-7.795h7.666a3.619,3.619,0,0,0,3.464,2.944c1.385,0,2.468-.563,2.468-1.775,0-1.473-1.472-2.3-5.586-3.248-4.417-1.039-7.059-3.075-7.059-7.016,0-4.591,3.985-7.449,10.134-7.449C2514.569,495.056,2517.9,498.218,2518.51,502.418Z" transform="translate(-2446.885 -495.056)" fill="#a2a2a2"/>
      <path id="Trazado_16772" data-name="Trazado 16772" d="M2783.744,509.174h-16.108c.388,3.854,2.079,4.937,4.287,4.937s3.551-1.126,3.854-2.9h7.667c-1.345,5.24-5.674,8.185-11.608,8.185-6.625,0-11.909-3.941-11.909-12.082,0-6.756,4.634-12.255,12.344-12.255s11.6,5.89,11.6,11.866A20.633,20.633,0,0,1,2783.744,509.174ZM2767.9,504.41h7.838c-.434-2.728-1.776-4.071-3.856-4.071C2769.844,500.339,2768.415,501.552,2767.9,504.41Z" transform="translate(-2685.965 -495.056)" fill="#a2a2a2"/>
    </g>
    <path id="Trazado_16773" data-name="Trazado 16773" d="M1048.573,345.4c13.264-13.226,29.395-19.89,47.981-20.762,5.087-.239,7.909,2.911,6.824,7.161-.87,3.426-3.622,3.874-6.464,3.946a56.714,56.714,0,0,0-24.278,5.906c-17.128,8.553-27.728,22.337-32.332,40.831a10.774,10.774,0,0,0-.208,2.316c-.053,2.485,1.229,3.8,2.28,4.072,2.3.585,2.757-1.588,3.093-3.517,3.16-18.07,13.969-30.466,29.613-38.934a44.48,44.48,0,0,1,13.038-4.2c6.951-1.276,13.754,3.766,15.269,10.629,1.526,6.949-2.483,14.273-9.43,16.048-13.71,3.5-21.022,12.064-21.937,26.172-.225,3.463-2.3,5.32-5.713,5.167-3.469-.156-5.219-2.387-5.138-5.758.257-10.578,3.968-19.626,11.966-26.823a39.433,39.433,0,0,1,16.337-9.01c1.258-.341,3.53-2.1,3.069-3.648s-3.31-1.781-4.593-1.4c-16.516,4.877-27.338,15.346-31.307,32.45a25.329,25.329,0,0,1-3.112,8.375,13.445,13.445,0,0,1-16.719,4.878c-5.868-2.525-8.946-8.237-7.851-15.225A68.9,68.9,0,0,1,1048.573,345.4Z" transform="translate(-1028.743 -324.628)" fill="#a2a2a2" fill-rule="evenodd"/>
    <g id="Grupo_339" data-name="Grupo 339" transform="translate(52.296 44.132)">
      <path id="Trazado_16774" data-name="Trazado 16774" d="M2095.347,893.414h-7.534c-.346-3.031-1.862-4.157-3.812-4.157-2.6,0-4.027,2.208-4.027,6.669,0,4.936,1.472,7.1,4.115,7.1,1.775,0,3.247-1.3,3.68-3.811h7.666c-.867,5.977-5.5,9.095-11.779,9.095-6.626,0-11.65-4.288-11.65-11.909,0-7.968,5.371-12.429,12.168-12.429S2095.13,888.218,2095.347,893.414Z" transform="translate(-2032.296 -878.777)" fill="#a2a2a2"/>
      <rect id="Rect치ngulo_10751" data-name="Rect치ngulo 10751" width="7.795" height="23.126" transform="translate(66.426 5.803)" fill="#a2a2a2"/>
      <path id="Trazado_16775" data-name="Trazado 16775" d="M2503.789,844.4c0,.78,0,1.646.045,2.252.172,2.339.908,2.859,4.59,2.685v4.85a26.285,26.285,0,0,1-4.59.39c-5.76,0-7.492-1.776-7.752-5.327-.087-1.342-.087-2.425-.087-3.724v-9.658h-3.681v-4.85h3.681v-5.976h7.794v5.976h5.11v4.85h-5.11Z" transform="translate(-2415.538 -825.046)" fill="#a2a2a2"/>
      <path id="Trazado_16776" data-name="Trazado 16776" d="M2703.8,913.972c-2.9,7.319-5.413,9.094-10.913,9.094a20.029,20.029,0,0,1-3.291-.216v-5.024a16.394,16.394,0,0,0,2.122.086,3.687,3.687,0,0,0,3.811-2.252l.3-.649-9.571-24.165h8.661l4.764,16.933,4.72-16.933h8.532Z" transform="translate(-2592.381 -885.043)" fill="#a2a2a2"/>
      <path id="Trazado_16777" data-name="Trazado 16777" d="M1624.68,928.4a9.826,9.826,0,0,1,4.676-2.629,11.378,11.378,0,0,1,5.412-.023,9.361,9.361,0,0,1,4.525,2.472,10.517,10.517,0,0,1,3.159,7.487,9.958,9.958,0,0,1-10.447,10.308,10.371,10.371,0,0,1-7.5-3,9.672,9.672,0,0,1-2.763-7.26A10.1,10.1,0,0,1,1624.68,928.4Z" transform="translate(-1621.74 -916.58)" fill="#a2a2a2"/>
    </g>
  </g>
</svg>
