<svg id="Instagram" xmlns="http://www.w3.org/2000/svg" xmlns:xlink="http://www.w3.org/1999/xlink" width="15.171" height="15.172" viewBox="0 0 15.171 15.172">
  <defs>
    <linearGradient id="linear-gradient" x1="0.5" x2="0.5" y2="1" gradientUnits="objectBoundingBox">
      <stop offset="0" stop-color="#4dc6d7"/>
      <stop offset="1" stop-color="#4da0d7"/>
    </linearGradient>
  </defs>
  <path id="Instagram-2" data-name="Instagram" d="M1424.466-634.828a4.465,4.465,0,0,1-3.181-1.193,4.4,4.4,0,0,1-1.284-3.273v-6.271a4.19,4.19,0,0,1,4.435-4.435h6.3a4.355,4.355,0,0,1,3.211,1.254,4.385,4.385,0,0,1,1.224,3.181v6.3a4.38,4.38,0,0,1-1.254,3.242,4.517,4.517,0,0,1-3.212,1.193Zm-2.233-12.969a3.049,3.049,0,0,0-.826,2.233v6.271a3.074,3.074,0,0,0,.826,2.263,3.161,3.161,0,0,0,2.233.8h6.24a3.162,3.162,0,0,0,2.233-.8,2.989,2.989,0,0,0,.887-2.233v-6.3a3.156,3.156,0,0,0-.826-2.2,3.049,3.049,0,0,0-2.233-.826h-6.3A3.11,3.11,0,0,0,1422.233-647.8Zm1.437,5.353a3.923,3.923,0,0,1,3.915-3.915,3.942,3.942,0,0,1,3.915,3.915,3.922,3.922,0,0,1-3.915,3.915A3.9,3.9,0,0,1,1423.671-642.445Zm1.407,0a2.52,2.52,0,0,0,2.508,2.508,2.519,2.519,0,0,0,2.508-2.508,2.519,2.519,0,0,0-2.508-2.508A2.52,2.52,0,0,0,1425.078-642.445Zm5.69-4.007a.887.887,0,0,1,.887-.887.887.887,0,0,1,.887.887.887.887,0,0,1-.887.887A.887.887,0,0,1,1430.767-646.452Z" transform="translate(-1420 650)" fill="url(#linear-gradient)"/>
</svg>
