<svg id="Icon_awesome-linkedin-in" data-name="Icon awesome-linkedin-in" xmlns="http://www.w3.org/2000/svg" xmlns:xlink="http://www.w3.org/1999/xlink" width="17.62" height="17.619" viewBox="0 0 17.62 17.619">
  <defs>
    <linearGradient id="linear-gradient" x1="0.5" x2="0.5" y2="1" gradientUnits="objectBoundingBox">
      <stop offset="0" stop-color="#4dc6d7"/>
      <stop offset="1" stop-color="#4da0d7"/>
    </linearGradient>
  </defs>
  <path id="Icon_awesome-linkedin-in-2" data-name="Icon awesome-linkedin-in" d="M3.944,17.62H.291V5.856H3.944ZM2.116,4.252A2.126,2.126,0,1,1,4.231,2.116,2.133,2.133,0,0,1,2.116,4.252Zm15.5,13.368H13.971V11.894c0-1.365-.028-3.115-1.9-3.115-1.9,0-2.19,1.483-2.19,3.017V17.62H6.232V5.856h3.5v1.6h.051a3.838,3.838,0,0,1,3.456-1.9c3.7,0,4.377,2.434,4.377,5.6V17.62Z" transform="translate(0 -0.001)" fill="url(#linear-gradient)"/>
</svg>
