<svg xmlns="http://www.w3.org/2000/svg" width="16.311" height="16.311" viewBox="0 0 16.311 16.311">
  <path id="Icon_feather-message-circle" data-name="Icon feather-message-circle" d="M18.811,11.258a6.663,6.663,0,0,1-.716,3.021,6.758,6.758,0,0,1-6.042,3.737A6.663,6.663,0,0,1,9.032,17.3L4.5,18.811l1.511-4.532A6.663,6.663,0,0,1,5.3,11.258,6.758,6.758,0,0,1,9.032,5.216,6.663,6.663,0,0,1,12.053,4.5h.4a6.742,6.742,0,0,1,6.36,6.36Z" transform="translate(-3.5 -3.5)" fill="none" stroke="#f2f2f2" stroke-linecap="round" stroke-linejoin="round" stroke-width="2"/>
</svg>
