<svg xmlns="http://www.w3.org/2000/svg" width="72.805" height="375.939" viewBox="0 0 72.805 375.939">
  <g id="Grupo_16353" data-name="Grupo 16353" transform="translate(-140 -2685.561)">
    <g id="Grupo_16220" data-name="Grupo 16220" transform="translate(-1865 3677.5) rotate(-90)">
      <g id="Grupo_16219" data-name="Grupo 16219" transform="translate(639.46 2020.176)">
        <rect id="Rectángulo_11181" data-name="Rectángulo 11181" width="6.594" height="6.672" transform="translate(0 26.936)" fill="#373434"/>
        <path id="Trazado_16960" data-name="Trazado 16960" d="M13.823,39.274a9.956,9.956,0,0,0-7.525,3v-3H0V52.72H6.594V51.111c0-4.185,2.283-6.13,5.453-6.13,2.917,0,4.608,1.691,4.608,5.369V62.355H23.25V49.335c0-6.933-4.058-10.061-9.427-10.061" transform="translate(0 -28.748)" fill="#373434"/>
        <path id="Trazado_16961" data-name="Trazado 16961" d="M118.4,52.648H101.2c.634,2.791,3.044,4.5,6.51,4.5a7.771,7.771,0,0,0,5.707-2.167l3.509,3.75c-2.114,2.375-5.284,3.625-9.385,3.625-7.863,0-12.978-4.874-12.978-11.541,0-6.708,5.2-11.541,12.133-11.541,6.679,0,11.836,4.416,11.836,11.624,0,.5-.085,1.208-.127,1.75m-17.29-3.791h11.2a5.695,5.695,0,0,0-11.2,0" transform="translate(-69.217 -28.748)" fill="#373434"/>
        <path id="Trazado_16962" data-name="Trazado 16962" d="M360.128,50.78c0,7.02-4.946,11.506-11.329,11.506a8.91,8.91,0,0,1-6.848-2.7V71.2h-6.594V39.274h6.3v2.908a8.911,8.911,0,0,1,7.144-2.908c6.383,0,11.329,4.486,11.329,11.506m-6.679,0c0-3.863-2.494-6.189-5.791-6.189s-5.792,2.326-5.792,6.189,2.494,6.189,5.792,6.189,5.791-2.326,5.791-6.189" transform="translate(-245.477 -28.748)" fill="#373434"/>
        <path id="Trazado_16963" data-name="Trazado 16963" d="M455.992,52.648H438.787c.634,2.791,3.044,4.5,6.51,4.5A7.771,7.771,0,0,0,451,54.981l3.509,3.75c-2.114,2.375-5.284,3.625-9.385,3.625-7.863,0-12.978-4.874-12.978-11.541,0-6.708,5.2-11.541,12.133-11.541,6.679,0,11.836,4.416,11.836,11.624,0,.5-.085,1.208-.127,1.75M438.7,48.857h11.2a5.695,5.695,0,0,0-11.2,0" transform="translate(-316.329 -28.748)" fill="#373434"/>
        <path id="Trazado_16964" data-name="Trazado 16964" d="M542.226,39.274v6.087c-.549-.042-.972-.084-1.479-.084-3.636,0-6.045,1.987-6.045,6.341V62.355h-6.594V39.612h6.3v3c1.606-2.2,4.312-3.34,7.82-3.34" transform="translate(-386.569 -28.748)" fill="#373434"/>
        <path id="Trazado_16965" data-name="Trazado 16965" d="M587.409,3.678c0-2.071,1.649-3.678,4.1-3.678s4.1,1.522,4.1,3.551a3.792,3.792,0,0,1-4.1,3.8c-2.452,0-4.1-1.606-4.1-3.678m.8,11.267,6.594-4.418V33.607h-6.594Z" transform="translate(-429.978)" fill="#373434"/>
        <path id="Trazado_16966" data-name="Trazado 16966" d="M645.377,52.648H628.172c.634,2.791,3.044,4.5,6.51,4.5a7.771,7.771,0,0,0,5.707-2.167l3.509,3.75c-2.114,2.375-5.284,3.625-9.385,3.625-7.863,0-12.978-4.874-12.978-11.541,0-6.708,5.2-11.541,12.133-11.541,6.679,0,11.836,4.416,11.836,11.624,0,.5-.085,1.208-.127,1.75m-17.29-3.791h11.2a5.695,5.695,0,0,0-11.2,0" transform="translate(-454.957 -28.748)" fill="#373434"/>
        <path id="Trazado_16967" data-name="Trazado 16967" d="M739.7,49.335v13.02H733.1V50.35c0-3.678-1.691-5.369-4.608-5.369-3.171,0-5.453,1.944-5.453,6.13V62.355h-6.594V39.274h6.3v3a9.956,9.956,0,0,1,7.524-3c5.369,0,9.427,3.128,9.427,10.061" transform="translate(-524.432 -28.748)" fill="#373434"/>
        <path id="Trazado_16968" data-name="Trazado 16968" d="M807.984,50.823c0-6.749,5.284-11.539,12.682-11.539,4.777,0,8.539,2.041,10.188,5.707L825.739,47.7a5.684,5.684,0,0,0-5.115-3.083c-3.34,0-5.961,2.291-5.961,6.207s2.621,6.207,5.961,6.207a5.607,5.607,0,0,0,5.115-3.083l5.114,2.75c-1.648,3.583-5.411,5.665-10.188,5.665-7.4,0-12.682-4.79-12.682-11.539" transform="translate(-591.436 -28.755)" fill="#373434"/>
        <path id="Trazado_16969" data-name="Trazado 16969" d="M920.029,52.648H902.824c.634,2.791,3.044,4.5,6.51,4.5a7.771,7.771,0,0,0,5.707-2.167l3.509,3.75c-2.114,2.375-5.284,3.625-9.385,3.625-7.863,0-12.978-4.874-12.978-11.541,0-6.708,5.2-11.541,12.133-11.541,6.679,0,11.836,4.416,11.836,11.624,0,.5-.085,1.208-.127,1.75m-17.29-3.791h11.2a5.695,5.695,0,0,0-11.2,0" transform="translate(-656 -28.748)" fill="#373434"/>
        <path id="Trazado_16970" data-name="Trazado 16970" d="M204.348,39.274h-5.063l-4.946,6.736-4.819-6.736h-5.485v2.591l6.542,8.864-6.542,8.692v2.934h4.978l5.158-7.079,4.988,7.079h5.19V59.28l-6.5-8.722,6.5-8.675Z" transform="translate(-134.711 -28.748)" fill="#373434"/>
        <path id="Trazado_16971" data-name="Trazado 16971" d="M281.269,47.179a9.424,9.424,0,0,1-5.369,1.437c-5.369,0-8.5-2.748-8.5-8.159V30.488h-3.509V25.535H267.4V20.5H274v5.031h5.665v4.954H274v9.884c0,1.944,1.057,3,2.833,3a4.446,4.446,0,0,0,2.663-.846Z" transform="translate(-193.169 -15.009)" fill="#373434"/>
      </g>
      <g id="Grupo_16218" data-name="Grupo 16218" transform="translate(934.887 2023.654)">
        <path id="Trazado_16972" data-name="Trazado 16972" d="M1033.958,49.065l14.094,17.748,4.124-5.9-6.473-8.561h13.207L1061,49.065l-2.088-3.289H1045.7l6.473-8.561-4.124-5.9Z" transform="translate(-1019.701 -31.317)" fill="#3d96db"/>
        <path id="Trazado_16973" data-name="Trazado 16973" d="M1024.481,49.065l-14.094-17.748-4.124,5.9,6.473,8.561H999.529l-2.088,3.289,2.088,3.289h13.207l-6.473,8.561,4.124,5.9Z" transform="translate(-997.44 -31.317)" fill="#4dc6d7"/>
      </g>
      <path id="Trazado_16981" data-name="Trazado 16981" d="M-213.141,6.391H83.67V66.413H-213.141ZM-220,72.8H88.931V0H-220Z" transform="translate(836 2005)" fill="#373434"/>
      <path id="Trazado_16982" data-name="Trazado 16982" d="M166.813,6.391h60.022V66.413H166.813ZM160.421,72.8h72.806V0H160.421Z" transform="translate(758.712 2005)" fill="#373434"/>
    </g>
  </g>
</svg>
