<svg xmlns="http://www.w3.org/2000/svg" xmlns:xlink="http://www.w3.org/1999/xlink" width="383.028" height="54.995" viewBox="0 0 383.028 54.995">
  <defs>
    <clipPath id="clip-path">
      <rect id="Rectángulo_11182" data-name="Rectángulo 11182" width="383.028" height="54.996" fill="#f2f2f2"/>
    </clipPath>
  </defs>
  <g id="Grupo_16214" data-name="Grupo 16214" clip-path="url(#clip-path)">
    <path id="Trazado_16960" data-name="Trazado 16960" d="M17.907,39.274a12.9,12.9,0,0,0-9.748,3.888V39.274H0V56.693H8.543V54.608c0-5.422,2.957-7.941,7.065-7.941,3.778,0,5.969,2.19,5.969,6.955V69.174h8.543V52.308c0-8.981-5.257-13.034-12.212-13.034" transform="translate(0 -25.638)" fill="#f2f2f2"/>
    <path id="Trazado_16961" data-name="Trazado 16961" d="M125.446,56.6H103.158c.821,3.616,3.943,5.829,8.434,5.829a10.067,10.067,0,0,0,7.393-2.807l4.545,4.858c-2.738,3.076-6.845,4.7-12.157,4.7-10.186,0-16.812-6.314-16.812-14.95,0-8.689,6.736-14.95,15.717-14.95,8.652,0,15.333,5.721,15.333,15.058,0,.648-.11,1.565-.164,2.267m-22.4-4.911h14.512a7.377,7.377,0,0,0-14.512,0" transform="translate(-61.73 -25.638)" fill="#f2f2f2"/>
    <path id="Trazado_16962" data-name="Trazado 16962" d="M367.447,54.18c0,9.094-6.407,14.905-14.676,14.905a11.542,11.542,0,0,1-8.872-3.5V80.634h-8.543V39.274h8.16v3.767c2.136-2.529,5.312-3.767,9.255-3.767,8.269,0,14.676,5.812,14.676,14.906m-8.652,0c0-5-3.231-8.018-7.5-8.018s-7.5,3.014-7.5,8.018,3.231,8.018,7.5,8.018,7.5-3.014,7.5-8.018" transform="translate(-218.924 -25.638)" fill="#f2f2f2"/>
    <path id="Trazado_16963" data-name="Trazado 16963" d="M463.036,56.6H440.748c.822,3.616,3.943,5.829,8.434,5.829a10.067,10.067,0,0,0,7.393-2.807l4.545,4.858c-2.738,3.076-6.845,4.7-12.157,4.7-10.186,0-16.812-6.314-16.812-14.95,0-8.689,6.736-14.95,15.717-14.95,8.652,0,15.333,5.721,15.333,15.058,0,.648-.11,1.565-.164,2.267m-22.4-4.911h14.512a7.377,7.377,0,0,0-14.512,0" transform="translate(-282.112 -25.638)" fill="#f2f2f2"/>
    <path id="Trazado_16964" data-name="Trazado 16964" d="M546.4,39.274V47.16c-.712-.055-1.259-.109-1.916-.109-4.71,0-7.831,2.574-7.831,8.214v13.91h-8.543V39.712h8.16V43.6c2.081-2.848,5.586-4.326,10.131-4.326" transform="translate(-344.754 -25.638)" fill="#f2f2f2"/>
    <path id="Trazado_16965" data-name="Trazado 16965" d="M587.409,4.764c0-2.683,2.136-4.764,5.312-4.764s5.312,1.971,5.312,4.6c0,2.848-2.136,4.929-5.312,4.929s-5.312-2.081-5.312-4.764m1.041,14.6,8.543-5.724v29.9H588.45Z" transform="translate(-383.467)" fill="#f2f2f2"/>
    <path id="Trazado_16966" data-name="Trazado 16966" d="M652.421,56.6H630.133c.821,3.616,3.943,5.829,8.434,5.829a10.067,10.067,0,0,0,7.393-2.807l4.545,4.858c-2.738,3.076-6.845,4.7-12.157,4.7-10.186,0-16.812-6.314-16.812-14.95,0-8.689,6.736-14.95,15.717-14.95,8.652,0,15.333,5.721,15.333,15.058,0,.648-.11,1.565-.164,2.267m-22.4-4.911h14.512a7.377,7.377,0,0,0-14.512,0" transform="translate(-405.744 -25.638)" fill="#f2f2f2"/>
    <path id="Trazado_16967" data-name="Trazado 16967" d="M746.567,52.308V69.174h-8.543V53.622c0-4.764-2.19-6.955-5.969-6.955-4.107,0-7.065,2.519-7.065,7.941V69.174h-8.543v-29.9h8.16v3.888a12.9,12.9,0,0,1,9.747-3.888c6.955,0,12.212,4.052,12.212,13.034" transform="translate(-467.705 -25.638)" fill="#f2f2f2"/>
    <path id="Trazado_16968" data-name="Trazado 16968" d="M807.984,54.233c0-8.743,6.845-14.949,16.428-14.949,6.188,0,11.062,2.645,13.2,7.393l-6.625,3.508a7.363,7.363,0,0,0-6.626-3.993c-4.326,0-7.721,2.968-7.721,8.041s3.4,8.041,7.721,8.041a7.264,7.264,0,0,0,6.626-3.994l6.625,3.562c-2.136,4.641-7.009,7.339-13.2,7.339-9.583,0-16.428-6.206-16.428-14.948" transform="translate(-527.46 -25.645)" fill="#f2f2f2"/>
    <path id="Trazado_16969" data-name="Trazado 16969" d="M927.073,56.6H904.784c.821,3.616,3.943,5.829,8.434,5.829a10.067,10.067,0,0,0,7.393-2.807l4.545,4.858c-2.738,3.076-6.845,4.7-12.157,4.7-10.186,0-16.812-6.314-16.812-14.95,0-8.689,6.735-14.95,15.717-14.95,8.652,0,15.333,5.721,15.333,15.058,0,.648-.11,1.565-.164,2.267m-22.4-4.911h14.512a7.377,7.377,0,0,0-14.512,0" transform="translate(-585.04 -25.638)" fill="#f2f2f2"/>
    <path id="Trazado_16970" data-name="Trazado 16970" d="M210.349,39.274H203.79L197.383,48l-6.243-8.726h-7.106v3.357l8.475,11.482-8.475,11.26v3.8h6.448L197.164,60l6.462,9.17h6.723V65.19l-8.421-11.3,8.421-11.239Z" transform="translate(-120.139 -25.639)" fill="#f2f2f2"/>
    <path id="Trazado_16971" data-name="Trazado 16971" d="M286.4,55.059a12.208,12.208,0,0,1-6.955,1.862c-6.955,0-11.007-3.559-11.007-10.569V33.438h-4.545V27.021h4.545V20.5h8.543v6.517h7.338v6.417h-7.338v12.8c0,2.519,1.369,3.888,3.669,3.888a5.76,5.76,0,0,0,3.45-1.1Z" transform="translate(-172.273 -13.385)" fill="#f2f2f2"/>
    <path id="Trazado_16972" data-name="Trazado 16972" d="M1033.958,47.1l12.535,15.784,3.668-5.246-5.757-7.614h11.746l1.857-2.925-1.857-2.925H1044.4l5.757-7.614-3.668-5.246Z" transform="translate(-674.978 -20.444)" fill="#3d96db"/>
    <path id="Trazado_16973" data-name="Trazado 16973" d="M1021.488,47.1l-12.535-15.784-3.668,5.246,5.757,7.614H999.3L997.44,47.1l1.857,2.925h11.745l-5.757,7.614,3.668,5.246Z" transform="translate(-651.139 -20.444)" fill="#4dc6d7"/>
  </g>
</svg>
