<svg xmlns="http://www.w3.org/2000/svg" xmlns:xlink="http://www.w3.org/1999/xlink" width="147.765" height="148.243" viewBox="0 0 147.765 148.243">
  <defs>
    <clipPath id="clip-path">
      <rect id="Rectángulo_11206" data-name="Rectángulo 11206" width="126" height="124.66" fill="#373434"/>
    </clipPath>
  </defs>
  <g id="Grupo_16354" data-name="Grupo 16354" transform="translate(-426 -3609.101)">
    <g id="Grupo_16302" data-name="Grupo 16302" transform="translate(96 -80.391)">
      <g id="Grupo_16353" data-name="Grupo 16353">
        <g id="Grupo_16232" data-name="Grupo 16232" transform="translate(-28 278.479)">
          <g id="Elipse_7" data-name="Elipse 7" transform="translate(386.959 3441.431)" fill="none" stroke="#373434" stroke-width="4">
            <ellipse cx="44.913" cy="45.152" rx="44.913" ry="45.152" stroke="none"/>
            <ellipse cx="44.913" cy="45.152" rx="42.913" ry="43.152" fill="none"/>
          </g>
          <g id="Elipse_58" data-name="Elipse 58" transform="translate(358 3411.013)" fill="none" stroke="#373434" stroke-width="4">
            <ellipse cx="73.882" cy="74.122" rx="73.882" ry="74.122" stroke="none"/>
            <ellipse cx="73.882" cy="74.122" rx="71.882" ry="72.122" fill="none"/>
          </g>
          <path id="Trazado_16979" data-name="Trazado 16979" d="M1033.958,59.831,1056.6,88.345l6.626-9.476-10.4-13.754h21.218l3.355-5.283-3.355-5.283h-21.218l10.4-13.754-6.626-9.476Z" transform="translate(-612.355 3425.081)" fill="#3d96db"/>
          <path id="Trazado_16980" data-name="Trazado 16980" d="M1040.883,59.831l-22.643-28.514-6.626,9.476,10.4,13.754H1000.8l-3.355,5.283,3.355,5.283h21.218l-10.4,13.754,6.626,9.476Z" transform="translate(-598.74 3425.081)" fill="#4dc6d7"/>
        </g>
      </g>
      <g id="Grupo_16265" data-name="Grupo 16265" transform="translate(340.883 3700.992)">
        <path id="Trazado_17018" data-name="Trazado 17018" d="M20.278,60.989l9.765,6.275-.735,1.144L18.261,69.587l7.282,4.679-.9,1.4-9.765-6.275.735-1.144,11.047-1.179-7.282-4.68Z" transform="translate(-9.274 -38.006)" fill="#373434"/>
        <g id="Grupo_16264" data-name="Grupo 16264">
          <g id="Grupo_16263" data-name="Grupo 16263" clip-path="url(#clip-path)">
            <path id="Trazado_17019" data-name="Trazado 17019" d="M49.075,40.438l6.186,6.241L54.19,47.741l-.934-.942a3.575,3.575,0,0,1-1.116,3.114c-1.613,1.6-3.56,1.778-5.381-.059L43.2,46.262l1.131-1.121L47.761,48.6c1.214,1.225,2.433,1.23,3.5.168a2.585,2.585,0,0,0-.123-3.987l-3.2-3.226Z" transform="translate(-26.92 -25.2)" fill="#373434"/>
            <path id="Trazado_17020" data-name="Trazado 17020" d="M78.336,28.435,72.42,32.413a2.977,2.977,0,0,0,4.076.356,3.281,3.281,0,0,0,1.513-2.3l1.3.363a4.41,4.41,0,0,1-2.08,3.117A4.4,4.4,0,0,1,70.8,32.861a4.3,4.3,0,0,1,1.162-6.176A4.237,4.237,0,0,1,78.1,28.017c.074.11.171.284.241.418m-6.555,3.029,4.678-3.146a2.836,2.836,0,0,0-4.678,3.146" transform="translate(-43.607 -16.136)" fill="#373434"/>
            <path id="Trazado_17021" data-name="Trazado 17021" d="M94.951,22.4l.081-1.421a5.648,5.648,0,0,0,3.185-.45c1.343-.612,1.715-1.274,1.406-1.952-.818-1.8-5.165,2.062-6.615-1.121-.653-1.433.189-2.984,2.241-3.919a6.394,6.394,0,0,1,3.242-.6l-.1,1.429a4.591,4.591,0,0,0-2.6.419c-1.267.578-1.673,1.328-1.384,1.961.86,1.886,5.228-1.964,6.645,1.144.66,1.449-.248,2.974-2.376,3.944a6.341,6.341,0,0,1-3.731.571" transform="translate(-57.823 -8.035)" fill="#373434"/>
            <path id="Trazado_17022" data-name="Trazado 17022" d="M120,11.224a3,3,0,0,1-1.665,1.141,2.507,2.507,0,0,1-3.459-1.833l-1.389-4.62-1.429.43-.377-1.254,1.429-.43-.554-1.842,1.524-.458.554,1.842,2.413-.725.377,1.254-2.413.725,1.37,4.556a1.3,1.3,0,0,0,1.742,1.017,2,2,0,0,0,1.071-.755Z" transform="translate(-69.597 -1.469)" fill="#373434"/>
            <path id="Trazado_17023" data-name="Trazado 17023" d="M138.992,1.083l.261,1.519a2.876,2.876,0,0,0-.362.046c-1.683.289-2.552,1.5-2.227,3.394l.741,4.314-1.569.269-1.487-8.661,1.5-.259.25,1.455a3.354,3.354,0,0,1,2.89-2.077" transform="translate(-83.722 -0.675)" fill="#373434"/>
            <path id="Trazado_17024" data-name="Trazado 17024" d="M152.122,4.569a4.569,4.569,0,0,1,9.134-.184,4.569,4.569,0,0,1-9.134.184m7.526-.151a2.962,2.962,0,1,0-5.918.119,2.963,2.963,0,1,0,5.918-.119" transform="translate(-94.797 0)" fill="#373434"/>
            <path id="Trazado_17025" data-name="Trazado 17025" d="M178.676,8.973l.839-1.15a5.646,5.646,0,0,0,2.919,1.35c1.46.215,2.132-.139,2.24-.878.287-1.952-5.457-1.069-4.949-4.531.229-1.559,1.778-2.4,4.008-2.076a6.4,6.4,0,0,1,3.051,1.252l-.856,1.148a4.591,4.591,0,0,0-2.409-1.058c-1.378-.2-2.125.207-2.226.9-.3,2.051,5.457,1.187,4.96,4.566-.231,1.574-1.822,2.363-4.135,2.024a6.345,6.345,0,0,1-3.443-1.545" transform="translate(-111.345 -1.009)" fill="#373434"/>
            <path id="Trazado_17026" data-name="Trazado 17026" d="M220.617,16.533a4.269,4.269,0,0,1-5.845,2.4,3.753,3.753,0,0,1-2.268-2.51l-1.772,4.183-1.466-.621L213.95,8.936l1.4.6-.543,1.282a3.743,3.743,0,0,1,3.461-.136,4.265,4.265,0,0,1,2.345,5.856m-1.481-.627a2.962,2.962,0,1,0-5.45-2.31,2.963,2.963,0,1,0,5.45,2.31" transform="translate(-130.408 -5.569)" fill="#373434"/>
            <path id="Trazado_17027" data-name="Trazado 17027" d="M247.408,25.3l-.822,1.3a2.751,2.751,0,0,0-.3-.209c-1.445-.91-2.9-.592-3.925,1.036l-2.333,3.7-1.347-.849,4.684-7.436,1.291.813-.786,1.249a3.354,3.354,0,0,1,3.538.387" transform="translate(-148.738 -14.242)" fill="#373434"/>
            <path id="Trazado_17028" data-name="Trazado 17028" d="M256.647,38.584a4.569,4.569,0,0,1,6.913,5.972,4.568,4.568,0,0,1-6.913-5.972m5.7,4.921a2.963,2.963,0,1,0-4.26.417,2.883,2.883,0,0,0,4.26-.417" transform="translate(-159.222 -23.05)" fill="#373434"/>
            <path id="Trazado_17029" data-name="Trazado 17029" d="M278.35,58.191l-10.175,2.845c-1.93.577-3.02.164-3.873-.874a3.3,3.3,0,0,1-.8-2.258l1.354-.233a2.249,2.249,0,0,0,.5,1.628c.484.589,1.059.74,2.114.431l.653-.172,4.313-8.567,1.053,1.281L270,59.106l7.359-2.119Z" transform="translate(-164.199 -31.776)" fill="#373434"/>
            <path id="Trazado_17030" data-name="Trazado 17030" d="M295.047,85.861,291.5,79.675a2.976,2.976,0,0,0-.648,4.039,3.282,3.282,0,0,0,2.182,1.674l-.455,1.273a4.79,4.79,0,0,1-1.409-8.631,4.3,4.3,0,0,1,6.076,1.6,4.237,4.237,0,0,1-1.769,6.018c-.115.066-.3.151-.434.21m-2.55-6.755L295.3,84a2.836,2.836,0,0,0-2.8-4.891" transform="translate(-180.028 -48.221)" fill="#373434"/>
            <path id="Trazado_17031" data-name="Trazado 17031" d="M303.385,102.893a4.391,4.391,0,0,1,5.783,2.856,3.92,3.92,0,0,1-.552,4l-1.143-.875a2.742,2.742,0,0,0,.379-2.674,3.094,3.094,0,0,0-5.821,2.091,2.74,2.74,0,0,0,1.993,1.821l-.309,1.4a3.931,3.931,0,0,1-2.99-2.731,4.4,4.4,0,0,1,2.659-5.889" transform="translate(-187.204 -63.939)" fill="#373434"/>
            <path id="Trazado_17032" data-name="Trazado 17032" d="M307.692,132.356a3,3,0,0,1-.978-1.766,2.508,2.508,0,0,1,2.155-3.27l4.732-.944-.292-1.464,1.285-.256.292,1.464,1.886-.376.311,1.561-1.886.376.493,2.472-1.285.256-.493-2.472-4.667.931a1.3,1.3,0,0,0-1.178,1.638,2,2,0,0,0,.65,1.138Z" transform="translate(-191.083 -77.681)" fill="#373434"/>
            <path id="Trazado_17033" data-name="Trazado 17033" d="M313.111,145.812a4.568,4.568,0,1,1-4.269,4.785,4.372,4.372,0,0,1,4.269-4.785m.36,7.518a2.962,2.962,0,1,0-3.238-2.8,2.883,2.883,0,0,0,3.238,2.8" transform="translate(-192.456 -90.861)" fill="#373434"/>
            <path id="Trazado_17034" data-name="Trazado 17034" d="M309.429,172.634l1.173.807a5.645,5.645,0,0,0-1.268,2.955c-.174,1.466.2,2.128.94,2.215,1.96.232.916-5.485,4.391-5.074,1.565.186,2.453,1.71,2.188,3.95a6.39,6.39,0,0,1-1.167,3.085l-1.171-.823a4.594,4.594,0,0,0,.99-2.438c.164-1.383-.267-2.119-.959-2.2-2.059-.243-1.034,5.489-4.426,5.087-1.581-.187-2.414-1.755-2.139-4.077a6.341,6.341,0,0,1,1.448-3.485" transform="translate(-191.891 -107.58)" fill="#373434"/>
            <rect id="Rectángulo_11204" data-name="Rectángulo 11204" width="4.461" height="1.377" transform="translate(116.643 82.928) rotate(-71.19)" fill="#373434"/>
            <path id="Trazado_17035" data-name="Trazado 17035" d="M288.18,247.273l-9.68-6.4.75-1.134,11.061-1.033-7.219-4.775.915-1.383,9.68,6.4-.75,1.134-11.061,1.033,7.219,4.775Z" transform="translate(-173.552 -144.914)" fill="#373434"/>
            <path id="Trazado_17036" data-name="Trazado 17036" d="M264.219,274.044l-6.1-6.323,1.086-1.048.921.955a3.576,3.576,0,0,1,1.157-3.1c1.634-1.578,3.584-1.731,5.381.13l3.512,3.639-1.145,1.106-3.386-3.508c-1.2-1.241-2.417-1.263-3.5-.214a2.586,2.586,0,0,0,.07,3.989l3.156,3.269Z" transform="translate(-160.849 -164.082)" fill="#373434"/>
            <path id="Trazado_17037" data-name="Trazado 17037" d="M239.278,288.588l5.969-3.9a2.976,2.976,0,0,0-4.07-.411,3.281,3.281,0,0,0-1.544,2.276l-1.3-.38a4.79,4.79,0,0,1,8.535-1.912,4.3,4.3,0,0,1-1.244,6.16,4.237,4.237,0,0,1-6.112-1.414c-.073-.111-.168-.287-.236-.421m6.595-2.942-4.719,3.083a2.836,2.836,0,0,0,4.719-3.083" transform="translate(-148.522 -175.856)" fill="#373434"/>
            <path id="Trazado_17038" data-name="Trazado 17038" d="M224.021,293.419l-.1,1.421a5.643,5.643,0,0,0-3.19.406c-1.351.593-1.733,1.25-1.433,1.933.794,1.807,5.192-1.992,6.6,1.211.634,1.443-.229,2.981-2.294,3.888a6.4,6.4,0,0,1-3.25.558l.115-1.427a4.592,4.592,0,0,0,2.6-.383c1.275-.56,1.69-1.3,1.41-1.942-.834-1.9-5.254,1.892-6.628-1.235-.64-1.457.289-2.971,2.429-3.911a6.341,6.341,0,0,1,3.738-.52" transform="translate(-135.635 -182.784)" fill="#373434"/>
            <path id="Trazado_17039" data-name="Trazado 17039" d="M199.149,303.23a3,3,0,0,1,1.681-1.119,2.508,2.508,0,0,1,3.436,1.881l1.327,4.64,1.435-.41.36,1.26-1.435.41.529,1.849-1.531.438-.529-1.849-2.424.693-.36-1.26,2.424-.693-1.309-4.576a1.3,1.3,0,0,0-1.729-1.04,2,2,0,0,0-1.082.74Z" transform="translate(-124.103 -188.168)" fill="#373434"/>
            <path id="Trazado_17040" data-name="Trazado 17040" d="M185.5,314.252l-.24-1.523a2.922,2.922,0,0,0,.363-.04c1.687-.266,2.572-1.463,2.272-3.362L187.217,305l1.572-.248,1.368,8.679-1.507.238-.23-1.458a3.353,3.353,0,0,1-2.918,2.038" transform="translate(-115.45 -189.913)" fill="#373434"/>
            <path id="Trazado_17041" data-name="Trazado 17041" d="M165.692,311.424a4.568,4.568,0,1,1-4.649-4.418,4.373,4.373,0,0,1,4.649,4.418m-7.526.123a2.963,2.963,0,1,0,2.9-3.148,2.883,2.883,0,0,0-2.9,3.148" transform="translate(-97.561 -191.315)" fill="#373434"/>
            <path id="Trazado_17042" data-name="Trazado 17042" d="M140.627,306.7l-.855,1.139a5.646,5.646,0,0,0-2.9-1.389c-1.457-.234-2.134.111-2.252.847-.313,1.948,5.442,1.142,4.888,4.6-.249,1.555-1.809,2.38-4.036,2.022a6.389,6.389,0,0,1-3.034-1.293l.871-1.137a4.592,4.592,0,0,0,2.394,1.09c1.375.221,2.128-.179,2.238-.867.329-2.047-5.44-1.259-4.9-4.632.252-1.572,1.853-2.339,4.161-1.969a6.342,6.342,0,0,1,3.422,1.591" transform="translate(-82.532 -190.078)" fill="#373434"/>
            <path id="Trazado_17043" data-name="Trazado 17043" d="M92.858,294.179a4.269,4.269,0,0,1,5.876-2.323,3.753,3.753,0,0,1,2.233,2.54l1.829-4.158,1.457.641L99.42,301.865l-1.4-.614.561-1.274a3.742,3.742,0,0,1-3.462.089,4.264,4.264,0,0,1-2.264-5.886m1.472.648a2.962,2.962,0,1,0,3.965-1.643,2.9,2.9,0,0,0-3.965,1.643" transform="translate(-57.594 -180.867)" fill="#373434"/>
            <path id="Trazado_17044" data-name="Trazado 17044" d="M71.122,290.654l.84-1.294a2.793,2.793,0,0,0,.3.213c1.433.93,2.891.631,3.939-.982l2.383-3.672,1.335.867-4.784,7.372-1.28-.831.8-1.238a3.354,3.354,0,0,1-3.533-.435" transform="translate(-44.321 -177.552)" fill="#373434"/>
            <path id="Trazado_17045" data-name="Trazado 17045" d="M61.337,275.706a4.569,4.569,0,1,1-.441-6.4,4.373,4.373,0,0,1,.441,6.4m-5.631-5a2.963,2.963,0,1,0,4.266-.36,2.883,2.883,0,0,0-4.266.36" transform="translate(-33.228 -167.058)" fill="#373434"/>
            <path id="Trazado_17046" data-name="Trazado 17046" d="M30.6,253.975l10.211-2.709c1.937-.551,3.022-.124,3.861.925a3.3,3.3,0,0,1,.774,2.269l-1.357.215a2.248,2.248,0,0,0-.479-1.634c-.476-.6-1.048-.754-2.108-.459l-.655.163-4.427,8.509-1.036-1.3,3.575-6.786-7.386,2.021Z" transform="translate(-19.069 -156.429)" fill="#373434"/>
            <path id="Trazado_17047" data-name="Trazado 17047" d="M23.944,227.776l3.459,6.233a2.976,2.976,0,0,0,.7-4.03,3.281,3.281,0,0,0-2.159-1.7l.472-1.267a4.411,4.411,0,0,1,2.928,2.338,4.4,4.4,0,0,1-1.635,6.311,4.3,4.3,0,0,1-6.054-1.684,4.236,4.236,0,0,1,1.85-5.994c.116-.064.3-.146.436-.2m2.459,6.789-2.735-4.929a2.836,2.836,0,0,0,2.735,4.929" transform="translate(-13.127 -141.464)" fill="#373434"/>
            <path id="Trazado_17048" data-name="Trazado 17048" d="M15.7,211.256a4.391,4.391,0,0,1-5.746-2.932,3.921,3.921,0,0,1,.606-4l1.131.891a2.739,2.739,0,0,0-.414,2.668,2.917,2.917,0,0,0,3.9,1.85,2.913,2.913,0,0,0,1.95-3.863,2.74,2.74,0,0,0-1.969-1.848l.327-1.393a3.934,3.934,0,0,1,2.954,2.772,4.4,4.4,0,0,1-2.738,5.853" transform="translate(-6.031 -126.273)" fill="#373434"/>
            <path id="Trazado_17049" data-name="Trazado 17049" d="M9.458,183.784a3,3,0,0,1,.953,1.779,2.507,2.507,0,0,1-2.2,3.239l-4.744.878.272,1.467-1.288.239-.272-1.467-1.891.35L0,188.705l1.891-.35-.459-2.478,1.288-.239.459,2.478,4.678-.866a1.3,1.3,0,0,0,1.2-1.622,2.006,2.006,0,0,0-.634-1.147Z" transform="translate(0 -114.528)" fill="#373434"/>
            <path id="Trazado_17050" data-name="Trazado 17050" d="M6.7,167.772a4.569,4.569,0,0,1-.314-9.131,4.569,4.569,0,0,1,.314,9.131m-.259-7.524a2.963,2.963,0,1,0,.2,5.917,2.963,2.963,0,1,0-.2-5.917" transform="translate(-1.288 -98.858)" fill="#373434"/>
            <path id="Trazado_17051" data-name="Trazado 17051" d="M10.732,142.951l-1.163-.823a5.645,5.645,0,0,0,1.307-2.938c.193-1.463-.171-2.13-.91-2.227-1.956-.258-.989,5.473-4.458,5.015-1.562-.206-2.429-1.742-2.135-3.978a6.4,6.4,0,0,1,1.207-3.068l1.161.838a4.589,4.589,0,0,0-1.022,2.424c-.182,1.381.239,2.122.929,2.213,2.055.271,1.106-5.474,4.493-5.027,1.578.208,2.39,1.787,2.085,4.105a6.344,6.344,0,0,1-1.494,3.466" transform="translate(-2.067 -84.085)" fill="#373434"/>
            <rect id="Rectángulo_11205" data-name="Rectángulo 11205" width="4.461" height="1.376" transform="translate(7.011 44.737) rotate(-70.409)" fill="#373434"/>
          </g>
        </g>
      </g>
    </g>
  </g>
</svg>
