<svg xmlns="http://www.w3.org/2000/svg" xmlns:xlink="http://www.w3.org/1999/xlink" width="311.275" height="157.499" viewBox="0 0 311.275 157.499">
  <defs>
    <clipPath id="clip-path">
      <rect id="Rectángulo_11195" data-name="Rectángulo 11195" width="300.112" height="82.64" transform="translate(0 0)" fill="#f2f2f2"/>
    </clipPath>
  </defs>
  <g id="Grupo_16251" data-name="Grupo 16251" transform="matrix(0.966, 0.259, -0.259, 0.966, 21.389, 0)">
    <g id="Grupo_16250" data-name="Grupo 16250" clip-path="url(#clip-path)">
      <path id="Trazado_17015" data-name="Trazado 17015" d="M59.163,78.785,117.29,36.917l16.333-11.765c1.536-1.106.152-3.635-1.514-2.59A531.911,531.911,0,0,1,82.018,50.35,526.793,526.793,0,0,1,28.814,72.7q-7.546,2.692-15.172,5.157a32.735,32.735,0,0,1-6.3,1.747c-1.424.157-3.761.231-4.384-1.406q-.525.922-1.048,1.845,29.313-6.413,58.528-13.262,29.073-6.819,58.04-14.071,29.107-7.289,58.1-15.013T234.459,21.81q28.735-8.121,57.347-16.67,3.629-1.085,7.255-2.176c1.844-.554,1.059-3.451-.8-2.893q-28.736,8.645-57.6,16.859Q211.947,25.1,183.107,32.845q-28.98,7.779-58.076,15.122t-58.3,14.248Q37.675,69.086,8.516,75.522q-3.7.816-7.4,1.625A1.506,1.506,0,0,0,.07,78.992c1.317,3.461,4.949,3.985,8.237,3.487a39.393,39.393,0,0,0,6.132-1.732q3.489-1.128,6.963-2.3Q35.68,73.611,49.668,67.969a534,534,0,0,0,54.642-25.7q14.927-8.086,29.313-17.118l-1.514-2.59L73.982,64.43,57.649,76.195c-1.553,1.118-.057,3.721,1.514,2.59" fill="#f2f2f2"/>
    </g>
  </g>
</svg>
