<svg xmlns="http://www.w3.org/2000/svg" xmlns:xlink="http://www.w3.org/1999/xlink" width="254.657" height="71.5" viewBox="0 0 254.657 71.5">
  <defs>
    <clipPath id="clip-path">
      <rect id="Rectángulo_11188" data-name="Rectángulo 11188" width="254.657" height="71.5" fill="#4dc6d7"/>
    </clipPath>
  </defs>
  <g id="Grupo_16224" data-name="Grupo 16224" clip-path="url(#clip-path)">
    <path id="Trazado_16984" data-name="Trazado 16984" d="M109.742,12.353A285.375,285.375,0,0,1,32.023,43.318Q20.191,46.145,8.071,48.031l1.156,2.263A234.5,234.5,0,0,1,62.89,34.059c9.827-1.741,19.908-3.07,29.989-2.64,9.989.425,19.448,3.1,28.818,5.785L155,46.761a1.476,1.476,0,0,0,1.9-1.194c-.092-4.191,3.632-7.934,8.591-8.756,1.689-.28,1.256-2.419-.4-2.432-24.262-.19-49.105-.281-72.618,5.334a127.725,127.725,0,0,0-19.155,6.158c-1.558.645-.452,2.59,1.156,2.262a633.156,633.156,0,0,0,80.523-21.968q10.9-3.769,21.593-7.912a1.148,1.148,0,0,0,0-2.139c-4.381-2.4-9.843-1.173-14.366.268-5.808,1.85-11.58,3.781-17.368,5.672L110.079,33.419,40.3,56.222,1.086,69.034,2.242,71.3q23.444-9.128,47.385-17.346,23.9-8.192,48.248-15.456t49.071-13.578q24.723-6.314,49.786-11.67Q221.9,7.869,247.356,3.475q3.109-.536,6.221-1.058c1.891-.318,1.091-2.7-.8-2.388Q227.3,4.3,202.089,9.561T152,21.051q-24.879,6.23-49.383,13.418T54.05,49.787Q30.137,57.866,6.693,66.852,3.707,68,.728,69.158C-.79,69.749.3,71.94,1.884,71.422L70.5,49l68.617-22.421,19.138-6.253a85.1,85.1,0,0,1,8.882-2.676c2.7-.567,5.524-.716,7.937.6V16.116A621.838,621.838,0,0,1,96.568,40.654q-11.377,2.751-22.894,5.093.579,1.132,1.156,2.263c21.552-8.915,46-10.832,69.761-11.154,6.832-.092,13.666-.054,20.5,0l-.4-2.432c-6.225,1.033-10.908,5.921-10.793,11.144l1.9-1.194L125.565,35.7c-9.493-2.725-19.013-5.633-29.072-6.52-10.222-.9-20.551.236-30.585,1.85a240.91,240.91,0,0,0-28.069,6.243A234.685,234.685,0,0,0,7.713,48.155c-1.579.7-.437,2.512,1.156,2.263A298.152,298.152,0,0,0,90.525,25.458q10.677-5.071,20.731-10.967c1.562-.915.065-3.063-1.514-2.138" transform="translate(0 0)" fill="#4dc6d7"/>
  </g>
</svg>
