<svg id="Grupo_16249" data-name="Grupo 16249" xmlns="http://www.w3.org/2000/svg" xmlns:xlink="http://www.w3.org/1999/xlink" width="413.996" height="94.637" viewBox="0 0 413.996 94.637">
  <defs>
    <clipPath id="clip-path">
      <rect id="Rectángulo_11194" data-name="Rectángulo 11194" width="413.996" height="94.637" transform="translate(0 0)" fill="#f2f2f2"/>
    </clipPath>
  </defs>
  <g id="Grupo_16248" data-name="Grupo 16248" clip-path="url(#clip-path)">
    <path id="Trazado_17012" data-name="Trazado 17012" d="M113.811,3a1.5,1.5,0,0,0,0-3,1.5,1.5,0,0,0,0,3" fill="#f2f2f2"/>
    <path id="Trazado_17013" data-name="Trazado 17013" d="M2.223,38.628A236.687,236.687,0,0,1,41.842,19.006c2.818-1.077,5.915-2.668,8.977-2.78a3.25,3.25,0,0,1,2.655.742c1.02,1.232-.231,3.059-.921,4.127-4.291,6.63-8.858,13.1-13.282,19.638l-15,22.165a1.454,1.454,0,0,0,0,1.514c5.6,7.273,16.116,2.416,22.92-.075q15.636-5.722,31.22-11.591Q109.582,41.01,140.528,28.7q17.42-6.93,34.768-14.042c1.762-.722.991-3.625-.8-2.893q-29.9,12.257-60.019,23.977T54.04,58.638C48.771,60.58,43.5,62.851,38.088,64.351c-3.49.967-8.653,1.886-11.223-1.453v1.514q7.151-10.569,14.3-21.139,3.611-5.335,7.22-10.672c2.363-3.493,4.912-6.922,7.095-10.53,1.6-2.637,2.109-6.385-1.039-8.112-2.492-1.368-5.7-.651-8.214.241-7.426,2.632-14.722,5.655-21.85,9.01A239.317,239.317,0,0,0,.709,36.038c-1.641,1.011-.136,3.607,1.514,2.59" fill="#f2f2f2"/>
    <path id="Trazado_17014" data-name="Trazado 17014" d="M269.081,22.978a259,259,0,0,1-77.719,37.515Q179.53,63.919,167.41,66.2l1.156,2.742a205.331,205.331,0,0,1,53.663-19.669c9.827-2.109,19.908-3.719,29.989-3.2,9.989.515,19.448,3.751,28.818,7.009l33.3,11.579a1.51,1.51,0,0,0,1.9-1.446,10.782,10.782,0,0,1,8.591-10.608c1.689-.339,1.256-2.931-.4-2.946-24.262-.23-49.105-.34-72.618,6.462a112.494,112.494,0,0,0-19.155,7.461c-1.558.781-.452,3.138,1.156,2.741a548.448,548.448,0,0,0,80.523-26.615q10.9-4.566,21.593-9.586a1.515,1.515,0,0,0,0-2.591c-4.381-2.9-9.843-1.421-14.366.325-5.808,2.241-11.58,4.581-17.368,6.872L269.418,48.5,199.635,76.127l-39.21,15.522,1.156,2.742q23.444-11.06,47.385-21.015,23.9-9.925,48.248-18.725T306.285,38.2q24.725-7.65,49.786-14.139,25.168-6.516,50.624-11.84,3.109-.65,6.221-1.282c1.891-.385,1.091-3.277-.8-2.893q-25.476,5.18-50.691,11.548T311.337,33.516q-24.877,7.548-49.383,16.257T213.389,68.331q-23.913,9.788-47.357,20.675-2.986,1.389-5.965,2.794c-1.518.716-.432,3.37,1.156,2.742l68.616-27.164,68.617-27.164,19.138-7.576a74.4,74.4,0,0,1,8.882-3.242c2.7-.687,5.524-.867,7.937.732V27.537a545.871,545.871,0,0,1-78.506,29.729q-11.377,3.333-22.894,6.17.579,1.371,1.156,2.742c21.552-10.8,46-13.123,69.761-13.513,6.832-.112,13.666-.065,20.5,0l-.4-2.947a13.784,13.784,0,0,0-10.793,13.5l1.9-1.446L284.9,51.261c-9.493-3.3-19.013-6.825-29.072-7.9-10.222-1.091-20.551.286-30.585,2.241a205.536,205.536,0,0,0-28.069,7.564,209.7,209.7,0,0,0-30.126,13.187c-1.579.844-.437,3.043,1.156,2.742a261.5,261.5,0,0,0,81.656-30.241q10.677-6.144,20.731-13.287c1.562-1.108.065-3.711-1.514-2.59" fill="#f2f2f2"/>
  </g>
</svg>
