<svg xmlns="http://www.w3.org/2000/svg" xmlns:xlink="http://www.w3.org/1999/xlink" width="479.938" height="129.228" viewBox="0 0 479.938 129.228">
  <defs>
    <clipPath id="clip-path">
      <rect id="Rectángulo_11193" data-name="Rectángulo 11193" width="477.901" height="120.905" fill="#f2f2f2"/>
    </clipPath>
  </defs>
  <g id="Grupo_16284" data-name="Grupo 16284" transform="matrix(1, -0.017, 0.017, 1, 0, 8.341)">
    <g id="Grupo_16246" data-name="Grupo 16246" clip-path="url(#clip-path)">
      <path id="Trazado_17011" data-name="Trazado 17011" d="M2.842,107.843c7.417-11.26,18.981-18.806,31.09-24.255A165.667,165.667,0,0,1,76.6,71.414c30.752-4.758,62.026-2.416,92.812.7,29.8,3.016,59.5,6.311,89.5,6a443.54,443.54,0,0,0,81.286-8.181,370.587,370.587,0,0,0,77.751-24.216,321.411,321.411,0,0,0,36.09-18.679q8.654-5.207,16.949-10.977c2.235-1.557,5.348-3.164,6.524-5.768a4.593,4.593,0,0,0-1.755-5.688c-2.475-1.762-5.915-2.137-8.821-2.686-3.492-.661-7.022-1.144-10.561-1.464a120.634,120.634,0,0,0-21.8.072A162.273,162.273,0,0,0,391.932,10.7C363.475,21.479,337.85,38.263,312.04,54.1q-41.205,25.28-82.875,49.79c-6.788,3.994-13.5,8.345-20.5,11.947-2.435,1.252-5.832,2.718-8.6,1.741-3.707-1.31-3.138-5.879-2.268-8.864,3.667-12.58,12.743-22.983,22.151-31.723,4.731-4.4,9.718-8.5,14.723-12.583a1.514,1.514,0,0,0-1.061-2.561c-29.023,1.341-57.077,9.467-84.407,18.829-27.619,9.461-54.886,20.28-83.373,26.94a209.938,209.938,0,0,1-48.646,5.957l1.446,1.9c3.144-13.12,13.882-22.116,25.254-28.338C56.987,79.963,71.7,75.291,86.187,71.847a216.022,216.022,0,0,1,94.094-1.28c31.266,6.586,59.3,22.124,89.652,31.493a157.538,157.538,0,0,0,47.333,7.214,207.272,207.272,0,0,0,47.921-6.361A401.078,401.078,0,0,0,413.144,87.5c7.861-3,15.667-6.145,23.453-9.334,7.654-3.134,15.294-6.777,23.389-8.63a32.334,32.334,0,0,1,13.029-.5c1.888.341,2.7-2.549.8-2.893-8.078-1.463-15.974.442-23.542,3.268-7.959,2.973-15.752,6.42-23.635,9.589-15.906,6.394-31.972,12.462-48.427,17.3-32.616,9.593-66.876,13.81-100.156,4.978-31.272-8.3-59.7-24.737-91.219-32.3a219.269,219.269,0,0,0-94.449-1.557A196.32,196.32,0,0,0,48.032,81.672c-11.435,5.377-23.036,13-29.1,24.467a36.384,36.384,0,0,0-3.2,8.534,1.519,1.519,0,0,0,1.447,1.9c28.941.124,57.157-7.126,84.457-16.147C129.432,91.24,156.651,80.217,185,72.766a233.881,233.881,0,0,1,48.61-7.92q-.529-1.281-1.06-2.561C222.6,70.395,212.618,78.7,204.839,89a63.494,63.494,0,0,0-9.124,16.489c-1.717,4.719-3.114,11.617,2.376,14.485,4.971,2.6,10.9-.807,15.174-3.3q10.542-6.146,21.055-12.341,21.025-12.392,41.934-24.979,20.709-12.467,41.3-25.125c12.954-7.963,25.836-16.061,39.121-23.467C383.01,16.084,411.721,4,442.272,3.059a110.616,110.616,0,0,1,22.6,1.527q2.533.445,5.043,1.019c1.355.31,3.519.591,4.472,1.738,2.1,2.527-5.127,6.287-6.874,7.484a310.939,310.939,0,0,1-35.381,20.886A353.092,353.092,0,0,1,355.32,63.564a425.724,425.724,0,0,1-82.043,11.187c-29.342,1.2-58.459-.912-87.629-3.952-31.052-3.236-62.317-6.762-93.559-4.194a196.371,196.371,0,0,0-43.122,8.1C36.238,78.731,23.592,84.174,13.05,92.5a58.975,58.975,0,0,0-12.8,13.834c-1.065,1.617,1.531,3.121,2.59,1.514" fill="#f2f2f2"/>
    </g>
  </g>
</svg>
