<svg xmlns="http://www.w3.org/2000/svg" xmlns:xlink="http://www.w3.org/1999/xlink" width="251.603" height="63.654" viewBox="0 0 251.603 63.654">
  <defs>
    <clipPath id="clip-path">
      <rect id="Rectángulo_11191" data-name="Rectángulo 11191" width="251.603" height="63.654" fill="#4dc6d7"/>
    </clipPath>
  </defs>
  <g id="Grupo_16230" data-name="Grupo 16230" clip-path="url(#clip-path)">
    <path id="Trazado_16997" data-name="Trazado 16997" d="M1.5,56.777c3.9-5.928,9.993-9.9,16.368-12.77A87.22,87.22,0,0,1,40.326,37.6c16.19-2.5,32.655-1.272,48.863.369,15.69,1.588,31.324,3.323,47.119,3.161a233.513,233.513,0,0,0,42.8-4.307,195.106,195.106,0,0,0,40.934-12.749,169.215,169.215,0,0,0,19-9.834q4.556-2.741,8.923-5.779c1.177-.82,2.816-1.666,3.435-3.037a2.418,2.418,0,0,0-.924-2.995c-1.3-.928-3.114-1.125-4.644-1.414-1.838-.348-3.7-.6-5.56-.771A63.511,63.511,0,0,0,228.79.28a85.433,85.433,0,0,0-22.447,5.353c-14.982,5.676-28.473,14.512-42.061,22.85Q142.588,41.791,120.65,54.7c-3.574,2.1-7.107,4.393-10.795,6.29-1.282.659-3.07,1.431-4.527.917-1.952-.69-1.652-3.1-1.194-4.667,1.931-6.623,6.709-12.1,11.662-16.7,2.491-2.314,5.116-4.478,7.751-6.625a.8.8,0,0,0-.559-1.348c-15.28.706-30.05,4.984-44.438,9.913C64.01,47.454,49.654,53.15,34.657,56.657A110.528,110.528,0,0,1,9.046,59.793l.761,1c1.655-6.907,7.309-11.644,13.3-14.919a89.773,89.773,0,0,1,22.273-8.048,113.73,113.73,0,0,1,49.538-.674c16.461,3.467,31.221,11.648,47.2,16.58a82.94,82.94,0,0,0,24.92,3.8,109.123,109.123,0,0,0,25.229-3.349,211.157,211.157,0,0,0,25.248-8.116c4.139-1.58,8.248-3.235,12.347-4.914,4.03-1.65,8.052-3.568,12.314-4.543a17.023,17.023,0,0,1,6.859-.266c.994.18,1.42-1.342.42-1.523-4.253-.77-8.41.233-12.394,1.721-4.19,1.565-8.293,3.38-12.443,5.048-8.374,3.366-16.832,6.561-25.5,9.11-17.172,5.05-35.209,7.271-52.73,2.621-16.464-4.369-31.428-13.023-48.025-17.007a115.44,115.44,0,0,0-49.725-.82A103.357,103.357,0,0,0,25.288,43C19.268,45.829,13.16,49.841,9.97,55.88a19.156,19.156,0,0,0-1.686,4.493.8.8,0,0,0,.762,1c15.237.065,30.092-3.752,44.465-8.5C68.143,48.036,82.473,42.232,97.4,38.31a123.133,123.133,0,0,1,25.592-4.17l-.558-1.348c-5.238,4.27-10.492,8.642-14.588,14.065a33.428,33.428,0,0,0-4.8,8.681c-.9,2.484-1.639,6.116,1.251,7.626,2.617,1.367,5.741-.425,7.989-1.735q5.55-3.235,11.085-6.5,11.069-6.524,22.077-13.151,10.9-6.563,21.743-13.228c6.82-4.192,13.6-8.456,20.6-12.355,13.865-7.73,28.981-14.092,45.065-14.587a58.236,58.236,0,0,1,11.9.8q1.334.235,2.655.536a4.454,4.454,0,0,1,2.354.915c1.105,1.33-2.7,3.31-3.619,3.94a163.7,163.7,0,0,1-18.627,11,185.9,185.9,0,0,1-40.438,14.663,224.133,224.133,0,0,1-43.194,5.89c-15.448.632-30.777-.48-46.135-2.081-16.348-1.7-32.808-3.56-49.257-2.208a103.385,103.385,0,0,0-22.7,4.267c-6.7,2.117-13.359,4.983-18.909,9.364A31.049,31.049,0,0,0,.133,55.98c-.561.851.806,1.643,1.364.8" transform="translate(0 0)" fill="#4dc6d7"/>
  </g>
</svg>
