<svg xmlns="http://www.w3.org/2000/svg" xmlns:xlink="http://www.w3.org/1999/xlink" width="184.531" height="50.813" viewBox="0 0 184.531 50.813">
  <defs>
    <clipPath id="clip-path">
      <rect id="Rectángulo_11192" data-name="Rectángulo 11192" width="184.531" height="50.813" transform="translate(0 0)" fill="#4dc6d7"/>
    </clipPath>
  </defs>
  <g id="Grupo_16302" data-name="Grupo 16302" transform="translate(-734 -3737.915)">
    <g id="Grupo_16234" data-name="Grupo 16234" transform="translate(734 3737.916)">
      <g id="Grupo_16233" data-name="Grupo 16233" transform="translate(0 0)" clip-path="url(#clip-path)">
        <g id="Componente_69_1" data-name="Componente 69 – 1" transform="translate(0 0)">
          <path id="Trazado_16998" data-name="Trazado 16998" d="M36.378,48.443,72.119,22.7l10.043-7.234c.944-.68.093-2.235-.931-1.593a327.059,327.059,0,0,1-30.8,17.086A323.912,323.912,0,0,1,17.717,44.7q-4.64,1.656-9.329,3.171a20.128,20.128,0,0,1-3.871,1.074c-.876.1-2.313.142-2.7-.865l-.644,1.134Q19.2,45.272,37.165,41.06q17.876-4.193,35.687-8.652,17.9-4.482,35.727-9.231t35.584-9.767q17.669-4.993,35.261-10.25,2.231-.667,4.461-1.338a.923.923,0,0,0-.49-1.779Q165.726,5.359,147.981,10.41q-17.66,5.025-35.393,9.786-17.819,4.783-35.709,9.3T41.034,38.254q-17.868,4.225-35.8,8.182-2.274.5-4.549,1A.926.926,0,0,0,.043,48.57c.81,2.128,3.043,2.45,5.065,2.144a24.222,24.222,0,0,0,3.77-1.065q2.145-.694,4.281-1.416,8.779-2.972,17.38-6.441a328.343,328.343,0,0,0,33.6-15.8q9.178-4.972,18.024-10.525l-.931-1.593L45.49,39.616,35.447,46.85c-.955.687-.035,2.288.931,1.593" transform="translate(0 0)" fill="#4dc6d7"/>
        </g>
      </g>
    </g>
  </g>
</svg>
