<svg xmlns="http://www.w3.org/2000/svg" xmlns:xlink="http://www.w3.org/1999/xlink" width="176.292" height="68.246" viewBox="0 0 176.292 68.246">
  <defs>
    <clipPath id="clip-path">
      <rect id="Rectángulo_11189" data-name="Rectángulo 11189" width="176.292" height="68.246" transform="translate(0 0)" fill="#4dc6d7"/>
    </clipPath>
  </defs>
  <g id="Grupo_16227" data-name="Grupo 16227" transform="translate(0 0)">
    <g id="Grupo_16226" data-name="Grupo 16226" clip-path="url(#clip-path)">
      <path id="Trazado_16985" data-name="Trazado 16985" d="M113.811,3a1.5,1.5,0,0,0,0-3,1.5,1.5,0,0,0,0,3" fill="#4dc6d7"/>
      <path id="Trazado_16986" data-name="Trazado 16986" d="M2.223,38.628A236.687,236.687,0,0,1,41.842,19.006c2.818-1.077,5.915-2.668,8.977-2.78a3.25,3.25,0,0,1,2.655.742c1.02,1.232-.231,3.059-.921,4.127-4.291,6.63-8.858,13.1-13.282,19.638l-15,22.165a1.454,1.454,0,0,0,0,1.514c5.6,7.273,16.116,2.416,22.92-.075q15.636-5.722,31.22-11.591Q109.582,41.01,140.528,28.7q17.42-6.93,34.768-14.042c1.762-.722.991-3.625-.8-2.893q-29.9,12.257-60.019,23.977T54.04,58.638C48.771,60.58,43.5,62.851,38.088,64.351c-3.49.967-8.653,1.886-11.223-1.453v1.514q7.151-10.569,14.3-21.139,3.611-5.335,7.22-10.672c2.363-3.493,4.912-6.922,7.095-10.53,1.6-2.637,2.109-6.385-1.039-8.112-2.492-1.368-5.7-.651-8.214.241-7.426,2.632-14.722,5.655-21.85,9.01A239.317,239.317,0,0,0,.709,36.038c-1.641,1.011-.136,3.607,1.514,2.59" fill="#4dc6d7"/>
    </g>
  </g>
</svg>
